<?xml version="1.0" encoding="UTF-8"?><svg id="Layer_1" xmlns="http://www.w3.org/2000/svg" width="520" height="520" viewBox="0 0 520 520"><defs><style>.cls-1,.cls-2,.cls-3{fill:#231f20;}.cls-4{opacity:.45;}.cls-2{opacity:.25;}.cls-3{opacity:.55;}</style></defs><path class="cls-1" d="M158.15,176.82c-.31-1.01-.49-2.06-.53-3.09-.02-.38-.08-.75-.06-1.12.07-1.33.55-2.58,1.07-3.72.25-.5.51-.99.77-1.47.32-.62.7-1.22,1.25-1.67.17-.14.31.01.39.29.07.28.13.69,0,1.03-.51,1.19-.54,2.44-.98,3.58-.2.71-.15,1.49-.13,2.23.01.82.12,1.64.35,2.45.14.5.32.99.55,1.45.35.7.77,1.4,1.34,1.95.44.43,1.03.67,1.56.91.11.06.24.1.35.17.4.24.41.53.19,1.15-.05.14-.09.29-.15.42-.18.45-.59.72-1.1.69-.35-.06-.7-.15-1.03-.28-.32-.15-.62-.34-.91-.55-.58-.42-1.07-.96-1.51-1.54-.65-.86-1.13-1.84-1.49-2.84l.06-.03Z"/><path class="cls-1" d="M200.68,108.51s-7.34-11.59-13.92-11.55-13.19,12.11-17.14,25.38-6.85,35-5.78,41.05c.69,3.91,12.69-11.16,20.59-15.45,7.9-4.28,14.37-6.36,14.37-6.36l-2.24-9.58-7.08-14.98s-.13-11.35,3.29-10.22,7.91,1.7,7.91,1.7Z"/><path class="cls-1" d="M228.44,183.75c.47-.7,10.6-6.12,10.6-14.38,0-6.78-16.19-17.44-46.43-5.39-26.66,10.62-42.35,29.95-46.58,39.27s-5.06,17.41-.47,20.08c6.31,3.67,16.1-.69,16.1-.69,0,0,11.27-20.62,13.71-23.35s18.29-16.44,23.44-17.54c8.36-1.79,29.63,2.01,29.63,2.01Z"/><path class="cls-1" d="M141.38,414.75c-.47.03-.9-.04-1.3-.13-.4-.13-.77-.3-1.11-.38-.22-.06-.18-.15.08-.22.52-.13,1.05-.35,1.59-.42.33-.1,5.49-.32,7.24-.47,1.7-.12,3.4-.18,5.1-.23,3.45-.08,6.91-.25,10.37-.24.77,0,1.54.02,2.3.06,2.63.17,5.24.18,7.8-.02.43-.03.87-.04,1.27-.17.33-.1,2.23-.29,4.09-.63,1.86-.31,3.72-.83,4.17-.91,2.19-.42,4.39-1.05,6.64-1.61.32-.07.65-.21.98-.18.76.07,1.43-.17,2.14-.34.98-.2,1.96-.48,2.99-.46.51,0,1.01.03,1.53.17.46.1.25.3.1.38-.42.17-.04.26.01.34.02.03.04.08.03.12-.05.17-5.21,2.25-5.78,2.47-.07.02-2.05.7-4.13,1.41-2.1.72-4.38,1.39-4.86,1.51-.49.15-1.01.19-1.52.26-.12.02-1.87.41-3.63.64-1.76.25-3.53.36-3.66.37-1.4.03-2.8.14-4.18-.09-.27-.05-.55-.03-.83-.03-2.38.02-4.72-.11-7.07-.2-1.21-.03-2.41-.06-3.61-.09-.22,0-.43-.05-.65-.07-.27-.03-.55-.06-.82-.07-2.85-.07-5.7-.25-8.54-.26-.66,0-3.78-.28-4.54-.28-.42,0-1.81-.28-2.18-.24Z"/><path class="cls-1" d="M59.41,417.37c-1.55.11-2.83-.28-3.98-.87-.37-.17-.31-.61.13-.74.86-.27,1.73-.4,2.61-.59.54-.21,9.04-.59,11.92-.84,2.79-.21,5.59-.31,8.39-.39,5.68-.12,11.37-.27,17.05-.44,1.26-.04,2.53-.04,3.79,0,4.33.12,8.66-.02,12.98-.26.72-.04,1.46-.05,2.15-.21,1.14-.23,12.87-.81,14.39-.81,3.78.04,7.57-.04,11.35-.09.54,0,1.11-.09,1.61.03,1.16.27,2.32.13,3.49.08,1.62-.07,3.25-.14,4.87-.14.81.02,1.6.09,2.41.3.73.16.37.59.13.68-.72.22-.11.42-.02.6.03.07.06.15.03.21-.05.3-9.32,1.78-10.34,1.85-.25.02-13.86,1.11-15.41,1.23-.81.08-1.63.04-2.44.03-.38.03-11.28.74-11.72.76-2.26.05-4.52.25-6.78.03-.44-.05-.9-.02-1.36,0-3.89.17-7.77.16-11.66.17-1.99,0-3.97.09-5.96.13-.36,0-.72-.03-1.07-.05-.45-.02-.9-.05-1.35-.04-4.7.14-9.4-.04-14.1.08-1.08.03-6.25-.33-7.5-.29-.7.01-2.98-.44-3.6-.41Z"/><path class="cls-1" d="M246.54,405.51c1.05-.11,1.95.28,2.74.43.25.05.22.17-.07.27-.57.17-1.15.42-1.73.62-.17.12-1.69.36-3.39.71-.85.18-1.75.37-2.56.54-.8.19-1.52.35-2,.44-1.86.37-3.73.68-5.6.96l-11.47,1.52c-.85.11-1.71.19-2.57.23-2.95.14-5.87.49-8.8.89-.49.07-.99.1-1.45.28-.75.31-8.75,1.14-9.8,1.06-2.62-.03-5.2-.07-7.79-.1-.37,0-.76.05-1.11-.09-.79-.31-1.59-.23-2.39-.23-1.11,0-2.22-.07-3.33-.16-.55-.05-1.09-.23-1.63-.37-.49-.13-.22-.61-.05-.66.5-.16.09-.38.05-.58-.02-.07-.03-.15-.01-.21.01-.03.42-.11,1.02-.22.61-.1,1.42-.24,2.25-.37,1.66-.28,3.39-.58,3.73-.58.04,0,.64-.05,1.54-.11.9-.08,2.09-.18,3.3-.29,2.43-.25,4.97-.52,5.49-.62.54-.09,1.09-.05,1.64-.05.26.03,7.55-.96,7.84-1,1.52-.12,3.03-.41,4.57-.29.3.02.61-.03.91-.07,2.61-.35,5.23-.54,7.85-.78,1.34-.12,2.68-.32,4.01-.47.24-.03.49-.01.73-.02.31-.01.62,0,.92-.04,3.17-.42,6.37-.51,9.55-.84.73-.12,4.28.11,5.12.04.48-.03,2.05.25,2.47.19Z"/><path class="cls-1" d="M245.37,205.27c1.53,1.28,3.45,1.97,5.46,1.89s3.9-.83,5.33-2.23c.61-.6.64-1.71,0-2.3s-1.65-.64-2.3,0c-.13.12-.26.23-.39.35-.15.13.26-.18,0,0-.06.04-.13.09-.19.13-.16.11-.33.2-.5.29-.07.04-.14.07-.21.1-.27.14.21-.07.02,0-.33.12-.65.23-1,.31-.17.04-.35.05-.51.09.37-.1.15-.02.03-.01-.1,0-.19.01-.29.02-.17,0-.35,0-.52,0-.13,0-.42.03-.52-.04.06.04.32.05.09,0-.1-.02-.19-.03-.28-.05-.17-.04-.34-.08-.51-.13-.14-.04-.41-.2-.55-.19.08,0,.27.13.07.03-.09-.04-.17-.08-.26-.13-.15-.08-.3-.17-.45-.26-.06-.04-.13-.09-.19-.13-.33-.22.27.22-.04-.03-.65-.54-1.67-.69-2.3,0-.55.6-.7,1.72,0,2.3h0Z"/><path class="cls-1" d="M130.61,413.49c-.94.26-1.87.45-2.79.6-.34.05-.66.15-1,.19-1.19.13-2.36.15-3.53.28-.51.06-1.03.13-1.54.21-.32.05-.65.12-.97.17-.33,0-.67-.03-1.02-.11-.24-.17-.2-.11-.07-.37.13-.24.39-.65.72-.91.63-.26,1.27-.45,1.91-.63.65-.14,1.32-.2,1.99-.23.81-.03,1.61-.29,2.39-.48.86-.2,1.73-.37,2.57-.61.52-.15,1.03-.31,1.52-.51.74-.31,1.48-.65,2.08-1.15.48-.38.77-.92,1.06-1.42.06-.11.09-.24.16-.34.22-.4.44-.42,1.05-.18.14.05.28.1.41.15.43.18.7.61.57,1.07-.4,1.36-1.54,2.41-2.72,3.13-.89.54-1.84.9-2.77,1.21l-.02-.05Z"/><path class="cls-1" d="M128.25,410.82c.5-.2.96-.44,1.34-.71.39-.26.72-.55.94-.89.17-.26.21-.55.28-.84.27-1.08-.27-2.6-1.23-3.78-.42-.55-.97-1.03-1.52-1.5-.76-.55-1.43-1.28-1.94-2.16-.16-.28,0-.36.35-.37.34,0,.95-.01,1.47.17.22.1.48.16.67.29l.61.39c.41.27.83.56,1.23.89.82.63,1.6,1.53,2.06,2.59.28.63.57,1.28.77,2,.19.72.29,1.52.13,2.31-.17.86-.57,1.66-1.1,2.29-.52.64-1.16,1.11-1.79,1.49-.79.46-1.6.8-2.4,1.09-1.22.42-2.41.75-3.66,1.06-.96.24-1.91.58-2.94.62-.23,0-.45.04-.68.02-.85-.07-1.11-.34-1.18-.96-.02-.14-.04-.28-.04-.42,0-.46.37-.79.87-.97.76-.23,1.46-.59,2.18-.84.73-.22,1.45-.5,2.23-.71l1.74-.52c.56-.18,1.1-.37,1.59-.6l.04.07Z"/><path class="cls-1" d="M133.65,410.59c.21-.03.43-.07.63-.15.08-.03.11-.1.19-.12.29-.08.6-.19.86-.37.12-.08.17-.2.22-.32.06-.16.03-.34.28-.42.08-.02.49.14.87.36.38.21.74.5.71.64-.13.48-.43.91-.92,1.13-.29.13-.4.41-.63.6-.25.2-.54.34-.83.47-.18.08-.36.15-.53.22-.27.11-.56.14-.81.26-.2.09-.36.29-.56.42-.04.03-.08.08-.13.09-.18.06-.27-.07-.39-.6l-.08-.36c-.08-.41-.08-.77-.02-.92.18-.45.36-.62.58-.77.15-.12.34-.14.53-.21l.03.05Z"/><path class="cls-1" d="M125.83,404.35c-.86-1.3-1.82-2.61-2.77-3.97-.35-.5-.77-.95-1.09-1.47-.58-.93-1.11-1.9-1.57-2.93-.44-1.03-.79-2.1-1.04-3.19-.22-.97-.44-1.94-.54-2.94-.09-1.25-.14-2.69.78-3.76.44-.27.51-.16.92.29.22.23.39.49.62.78.22.29.37.57.37.85.01.49.08.98.16,1.47.04.49.13.99.23,1.49.21,1,.49,2.03.84,3.08.38,1.28,1.3,2.4,2.12,3.56.9,1.29,1.89,2.58,2.86,3.91.6.82,1.19,1.67,1.76,2.53.86,1.32,1.67,2.82,1.98,4.57.25,1.34.22,2.94-.64,4.26-.18.29-.38.59-.65.84-1.07.93-1.8.7-2.16-.04-.09-.17-.19-.34-.24-.51-.09-.29-.06-.59,0-.85.06-.26.1-.53.2-.69.27-.51.34-1.13.4-1.68.02-.48-.08-1.16-.37-1.89-.42-1.09-1.27-2.4-2.19-3.67l.06-.05Z"/><path class="cls-1" d="M206.74,380.97c-.45-1.45-.58-2.9-.65-4.31-.03-.51-.08-1.02-.08-1.52,0-1.77.03-3.53,0-5.3,0-.78-.08-1.57-.09-2.34,0-1,.02-2,.09-3.01.03-.31.08-.27.19-.02.11.26.34.73.49,1.29.62,2,.6,4.04.63,6.09,0,1.23.16,2.51.24,3.74.08,1.36.18,2.7.51,3.97.19.78.47,1.53.86,2.23.59,1.04,1.4,2,2.39,2.73.76.58,1.63.95,2.51,1.3l.58.21c.36.14.58.27.69.46.12.17.16.36.15.61,0,.11,0,.23-.01.34-.05.34-.48.53-1.13.46-1.81-.45-3.59-1.49-5.03-2.97-1.07-1.1-1.91-2.49-2.39-3.95l.04-.02Z"/><path class="cls-1" d="M183.87,384.12c-.38-1.95-.67-3.92-.89-5.89-.08-.72-.21-1.43-.26-2.15-.16-2.54-.13-5.08-.03-7.61.04-1.12.12-2.24.18-3.35.03-1.43.36-2.84.77-4.22.13-.43.15-.37.24.02.08.38.32,1.1.48,1.92.3,2.88.25,5.68.16,8.55-.06,1.72.24,3.49.45,5.22.22,1.91.51,3.82.89,5.71.24,1.16.48,2.34.82,3.45.5,1.68,1.19,3.28,2.45,4.38.98.88,2.21,1.44,3.45,2.16.28.16.54.33.8.53.94.79,1.06,1.29.84,1.85-.05.13-.09.27-.15.38-.23.36-.79.28-1.53-.02-1.11-.44-2.18-1-3.33-1.76-1.13-.74-2.38-1.78-3.23-3.13-1.26-1.98-1.72-4.1-2.15-6.03l.06-.02Z"/><path class="cls-1" d="M185.62,391.5c-.22-.39-.4-.78-.54-1.17-.06-.14-.14-.27-.18-.41-.13-.52-.21-1.04-.16-1.55,0-.23,0-.43,0-.66,0-.28.06-.55.19-.8.04-.08.11-.06.2.02.09.08.24.21.29.35.19.49.4.88.47,1.33,0,.29.21.52.35.76.15.27.31.53.5.77.12.15.24.3.37.44.2.21.42.42.69.53.21.08.47.04.69.02.05,0,.1-.01.14,0,.15.07.14.34.1.72l-.03.26c-.04.28-.17.52-.41.72-.34.22-.65.16-.95.09-.29-.09-.57-.23-.82-.41-.37-.27-.68-.6-.94-.96l.03-.03Z"/><path class="cls-1" d="M175.2,355.57c-.67-.95-1.3-2.04-1.85-2.86-.21-.32-.49-.59-.72-.91-.83-1.13-1.8-2.23-2.7-3.42-.4-.52-.82-1.04-1.21-1.58-.51-.68-.88-1.48-1.06-2.32-.06-.26.09-.28.36-.17.26.12.69.33,1.02.64.6.55,1.1,1.12,1.64,1.7.55.56,1.11,1.15,1.63,1.81.63.79,1.48,1.43,2.21,2.23.4.43.77.91,1.12,1.41.32.46.63.91.96,1.35.4.55.82,1.08,1.27,1.58.68.76,1.38,1.51,2.21,2.07.64.44,1.38.67,2.09.87l.47.11c.27.13.43.24.5.43.06.24.06.49.02.81-.02.14-.02.28-.04.4-.04.21-.14.37-.34.54-.19.16-.49.37-.77.33-1.72-.1-3.23-1.13-4.45-2.25-.92-.84-1.69-1.8-2.41-2.75l.04-.04Z"/><path class="cls-1" d="M179.59,361.6c-.07-.2-.09-.44-.14-.66-.02-.08-.08-.13-.09-.21-.05-.29-.09-.58-.16-.85-.03-.12-.1-.22-.17-.31-.1-.12-.23-.21-.2-.41.02-.12,1.02-.65,1.17-.54.24.21.42.46.46.8.02.21.2.32.3.48.1.18.21.36.28.56.05.12.09.25.15.36.09.18.15.37.28.51.11.11.29.16.39.28.01.03.04.05.05.09.02.14-.07.24-.35.46l-.19.15c-.21.15-.43.24-.61.26-.63.1-.79-.12-.94-.36-.11-.18-.18-.38-.27-.57l.04-.03Z"/><path class="cls-1" d="M182.86,344.25c-.07,1.34-.18,2.67-.3,3.99-.04.48-.02.97-.08,1.45-.1.85-.23,1.69-.4,2.54-.16.86-.35,1.79-.8,2.69-.2.4-.44.79-.76,1.14-.3.35-.77.69-1.22.84-.61.15-1.24.11-1.8-.13-.54-.27-1.02-.73-1.15-1.28-.06-.35.08-.29.31-.14.25.15.66.3,1.07.09.33-.1.62-.31.78-.52.06-.14.17-.11.21-.17.03-.03.13-.11.21-.22.33-.39.59-1.12.8-1.99.24-1.07.18-2.32.27-3.48.09-1.29.17-2.59.2-3.89.02-.8.04-1.6.03-2.4,0-1.21.01-2.44-.13-3.63-.12-.93-.34-1.83-.52-2.74-.04-.2-.1-.39-.1-.6-.02-.76.12-1.03.56-1.27.1-.05.2-.12.3-.16.33-.13.69.14.99.67.89,1.58,1.24,3.37,1.42,5.17.15,1.34.2,2.69.16,4.04h-.07Z"/><path class="cls-1" d="M182.43,355.53c-.13.31-.33.59-.52.85-.07.1-.08.22-.16.31-.29.31-.59.6-.93.82-.14.11-.24.24-.35.36-.14.16-.25.35-.54.36-.09,0-.31-.25-.53-.54-.21-.29-.44-.62-.42-.72.05-.37.13-.62.5-.76.23-.08.22-.31.32-.47.11-.18.23-.38.34-.56.07-.12.14-.24.19-.38.08-.2.15-.41.14-.61-.03-.16-.16-.31-.17-.46,0-.03-.03-.06-.03-.1.01-.13.15-.19.58-.3l.29-.07c.32-.07.61-.06.79.05.26.16.48.35.65.57.09.22.16.45.14.68-.01.34-.11.67-.21.99h-.06Z"/><path class="cls-1" d="M180.84,253.82c.48-1.08.88-2.2,1.33-3.31.37-1.13.77-2.26,1.11-3.41.23-.84.38-1.71.62-2.55.75-2.99,1.46-6.02,1.79-9.11.17-1.37.18-2.75.23-4.12.01-1.76-.2-3.49.24-5.29.13-.56.21-.5.53-.06.22.3.46.62.69.92.26.39.47.86.62,1.38.21,1.85.37,3.72.25,5.58-.03.93-.14,1.86-.25,2.78-.11.93-.24,1.85-.45,2.76-.23,1.09-.37,2.22-.58,3.34-.18,1.13-.34,2.27-.63,3.37-.28,1.22-.59,2.44-.97,3.63-.34,1.21-.75,2.39-1.18,3.57-.47,1.47-1.15,2.87-1.76,4.28-1.02,2.11-2.12,4.19-3.39,6.15-.24.38-.48.77-.7,1.16-.23.39-.51.75-.76,1.13l-.77,1.13c-.27.37-.59.7-.91,1.04-.28.3-.54.6-.83.89-1.21.96-1.73,1.1-2.32.79-.14-.07-.29-.13-.39-.22-.36-.3-.13-.99.52-1.74,1.81-2.34,3.52-4.86,4.99-7.66l.81-1.56.73-1.62c.53-1.06.89-2.2,1.36-3.29l.07.02Z"/><path class="cls-1" d="M187.98,109.43c-.05.38-.06.8-.03,1.21,0,.15.07.3.08.45.04.56-.04,1.07.16,1.55.08.21.24.46.34.71.14.32.23.66.21,1,0,.11-.1.12-.24.07-.14-.05-.34-.15-.45-.29-.19-.26-.38-.44-.58-.65-.2-.22-.46-.6-.56-.97-.12-.45-.34-.84-.4-1.25-.08-.46-.13-.93-.15-1.4,0-.29,0-.59.02-.89.02-.45.12-.91.23-1.37.09-.36.14-.76.31-1.15.04-.08.07-.17.13-.25.22-.27.41-.24.75.09.08.08.16.15.23.23.24.28.36.58.36.75-.01.48-.11.71-.21,1.13-.07.3-.14.66-.16,1.04h-.04Z"/><path class="cls-1" d="M180.66,356.72c-.27-4.97-.59-9.94-.99-14.91-.15-1.81-.42-3.61-.57-5.42-.5-6.39-.96-12.8-1.56-19.19-.24-2.84-.59-5.68-.96-8.48-.46-3.6-.86-7.23-.92-10.88.13-1.16.25-1.03.85-.15.58.88,1.47,2.54,2.03,4.58.44,1.81.87,3.63,1.25,5.45.32,1.83.62,3.67.9,5.51.27,1.84.55,3.69.73,5.54.18,1.86.32,3.72.44,5.6.28,4.48,1.05,9.09,1.46,13.66.47,5.02.86,10.05,1.2,15.09.19,3.1.38,6.21.57,9.3.26,4.7.42,9.43.56,14.11.1,3.65.38,7.22.21,10.92-.04.82-.06,1.63-.18,2.47-.22,1.55-.57,2.63-1.06,3.32-.5.68-1.11.98-1.72.97-.29,0-.61,0-.82-.11-.35-.2-.44-.58-.52-1.04-.07-.47-.1-1.15.03-2.09.3-2.84.21-6.08.15-9.31-.08-3.25-.22-6.58-.37-9.93-.21-4.97-.46-9.98-.81-14.99h.1Z"/><path class="cls-1" d="M178.88,367.74c-.61-3.13-1.67-6.16-3.08-9.01-.24-.53-.57-1.02-.88-1.52-.3-.5-.63-.99-.95-1.48-1.09-1.77-2.34-3.46-3.7-5.06-1.36-1.61-2.82-3.16-4.39-4.59-1.38-1.29-2.91-2.43-4.45-3.5l-3.02-1.99c-.51-.33-1.01-.66-1.51-1-.5-.34-1.01-.67-1.48-1.08-.59-.5-.36-.73.42-.83.8-.13,2.16-.07,3.46.57,2.33,1.1,4.45,2.57,6.51,4.11,2.04,1.57,3.98,3.3,5.68,5.27,2.03,2.35,4.25,4.72,5.98,7.43,1.91,2.97,3.37,6.26,4.27,9.64.6,2.08.97,4.2,1.26,6.32.42,3.22.44,6.48.34,9.68-.1,2.48-.11,4.95-.42,7.41-.06.54-.1,1.08-.21,1.62-.1.5-.19.91-.3,1.25-.12.34-.28.59-.42.8-.15.2-.32.35-.51.46-.21.1-.44.17-.67.22-.22.04-.42.12-.6.13-.53.05-1.14-.94-1.06-2.37.22-4.24.73-8.53.66-12.87-.02-3.22-.32-6.44-1.02-9.57l.09-.03Z"/><path class="cls-1" d="M84.06,417.32c-4.18-.42-8.39-1-12.59-2.4-1.05-.35-2.1-.78-3.13-1.31-1.03-.53-2.07-1.17-3.01-2.05-1-.96-1.61-1.8-2.29-2.89-.64-1.05-1.21-2.45-1.15-4.03.03-1.14.41-2.22.91-3.08.49-.88,1.09-1.59,1.69-2.21.3-.32.62-.61.93-.88.25-.26.8-.63,1.25-.92.93-.49,1.86-.79,2.73-.95,1.54-.29,2.97-.34,4.36-.32,1.39.02,2.75.1,4.09.21,2.68.24,5.3.58,7.9.85,5.2.55,10.38.97,15.44.41,4.45-.5,8.86-1.94,12.06-4.81.51-.46.99-.96,1.44-1.46.42-.5.84-1.06,1.22-1.64.78-1.17,1.48-2.44,2.15-3.73.33-.65.66-1.3.98-1.96.35-.65.67-1.31,1-1.97.17-.33.31-.67.51-.99l.59-.96c.38-.64.71-1.31,1.05-1.98.86-1.65.91-1.39.84.26-.02.83-.13,1.99-.12,3.47-.01.73-.19,1.47-.35,2.27-.1.4-.19.8-.29,1.22-.15.4-.29.81-.46,1.22-.61,1.46-1.27,2.91-2.07,4.36-.39.72-.84,1.44-1.34,2.16-.24.35-.56.71-.84,1.06l-.91.94c-2.45,2.52-5.6,4.2-8.78,5.29-3.21,1.04-6.49,1.43-9.7,1.55-3.21.09-6.37-.1-9.48-.43-3.71-.4-7.46-.85-11.15-1.13-1.84-.15-3.68-.25-5.41-.17-.87.03-1.7.13-2.42.31l-.53.14-.44.19c-.17.05-.24.15-.36.21-.1.04-.26.17-.43.32-.71.58-1.34,1.21-1.75,1.84-.4.64-.6,1.19-.53,1.8.05.61.36,1.36.86,2.09.24.36.54.75.82,1.08.26.3.57.58.89.85,1.38,1.06,3.18,1.83,5.05,2.41,1.88.58,3.85,1,5.84,1.32,4.92.79,9.97,1.07,15.02,1.17,7.67.12,15.38-.03,22.95-.83,5.9-.59,11.65-1.57,17.51-2.31,1.29-.16,2.55-.35,3.86-.48,4.85-.45,6.43-.25,7.52.74.25.22.57.43.72.64.49.71-1.44,1.53-4.92,1.97-10.33,1.37-21.26,3.16-32.55,3.8-4.2.24-8.37.3-12.55.3-4.19-.01-8.4-.14-12.63-.5v-.1Z"/><path class="cls-1" d="M140.42,412.15c-1.57-.46-3.14-1.03-4.69-1.75l-1.16-.57-1.14-.67c-.75-.46-1.4-.93-2.08-1.43-1.34-1-2.59-2.13-3.76-3.33-1.14-1.24-2.22-2.55-3.14-3.97-1.83-2.84-3.14-6.03-3.8-9.3-.69-3.28-.85-6.6-.5-9.87.07-1.21.29-2.32.42-3.48l.23-1.73.3-1.7.6-3.4c.22-1.13.47-2.24.72-3.36,3.58-15.72,8.4-31.05,14.03-46.09,1.2-3.35,2.58-6.65,3.85-9.98.64-1.66,1.37-3.29,2.04-4.94.7-1.63,1.33-3.29,2.09-4.9.94-2.07,1.88-4.15,2.83-6.22,1.02-2.04,2.03-4.1,3.13-6.1,2.3-3.94,4.6-7.95,7.83-11.26,1.92-2.11,1.71-1.77.81.51-.46,1.13-.98,2.82-1.77,4.7-.7,1.95-1.68,4.11-2.87,6.38-8.33,16.19-15.02,33.34-20.88,50.91-.91,2.62-1.72,5.3-2.52,8-.83,2.7-1.53,5.44-2.26,8.19-.75,2.74-1.34,5.53-2.02,8.29l-.89,4.16-.45,2.08-.38,2.08c-.27,1.52-.6,3.05-.78,4.56-.21,1.52-.46,3.05-.51,4.52-.13,1.48-.13,2.98.01,4.46.11,1.48.37,2.94.71,4.37.36,1.43.86,2.81,1.46,4.16.64,1.32,1.35,2.61,2.22,3.8,1.73,2.38,3.9,4.46,6.37,6.15,2.92,2.06,6.55,3.15,10.21,3.99,3.68.81,7.47,1.32,11.27,1.62,5.76.47,11.58.56,17.37.33,2.9-.12,5.79-.32,8.65-.64,2.85-.34,5.72-.74,8.41-1.46,1.03-.28,2.09-.63,2.8-1.08.74-.55,1.35-1.21,1.71-2.02.33-.82.42-1.75.35-2.68-.08-.94-.4-1.88-.78-2.77-.85-1.77-2.16-3.36-3.77-4.39-1.53-1.06-3.54-1.52-5.58-1.8-1.81-.23-3.64-.21-5.51-.11-3.48.2-5.74.62-7.34.81-1.6.2-2.57.18-3.5-.06-.41-.09-.94-.13-1.24-.26-.5-.22-.16-.82,1.04-1.66,1.19-.84,3.28-1.7,6.05-2.28,2.06-.43,4.16-.67,6.31-.72,2.15-.05,4.33.07,6.57.54.56.11,1.12.25,1.69.43.56.15,1.13.39,1.7.62.56.24,1.13.57,1.68.89.51.37,1.06.69,1.51,1.12,1.89,1.62,3.38,3.65,4.26,6.05.47,1.18.72,2.5.77,3.86.05,1.37-.25,2.85-.88,4.21-.66,1.38-1.75,2.5-2.94,3.34-.32.2-.67.39-1.01.57l-.91.38c-.58.21-1.16.41-1.71.56-2.22.62-4.36.99-6.51,1.3-2.15.31-4.29.54-6.43.71-6.37.51-12.74.59-19.13.27-6.39-.36-12.8-1.02-19.17-2.84v-.09Z"/><path class="cls-1" d="M185.09,150.42c-2.44,1.36-4.84,2.83-7.18,4.4-.86.57-1.64,1.24-2.49,1.82-3,2.05-5.98,4.18-8.85,6.44-1.27,1-2.47,2.11-3.63,3.22-1.51,1.41-2.84,3.01-4.64,4.1-.58.32-1-.21-1.15-1.14-.18-.97-.03-2.28.82-3.16,1.48-1.57,3.05-3.03,4.72-4.39,1.65-1.37,3.38-2.67,5.18-3.88,2.16-1.44,4.15-3.25,6.29-4.81,2.35-1.71,4.78-3.33,7.26-4.87,1.53-.95,3.08-1.85,4.66-2.72,2.38-1.33,4.88-2.49,7.42-3.54,1.98-.81,3.94-1.7,6.2-2.11.49-.11,1-.18,1.53-.2.48-.04.91.03,1.25.1.34.09.61.14.82.32.41.37.56.77.6,1.29.02.24.05.47.03.69-.05.36-.29.64-.63.88-.35.24-.76.45-1.27.5-2.93.41-6.22,1.71-9.52,3.25-2.45,1.17-4.94,2.43-7.35,3.88l-.06-.08Z"/><path class="cls-1" d="M198.05,139.19c-1.38-2.49-2.76-5-4.11-7.55-.49-.93-1.08-1.81-1.53-2.77-.82-1.68-1.55-3.41-2.23-5.17-.64-1.78-1.22-3.59-1.67-5.43-.16-.84-.4-1.64-.53-2.49-.07-.42-.17-.84-.22-1.26l-.11-1.28c-.05-1.1-.1-2.22.12-3.32.24-1.09.67-2.16,1.33-3.06.39-.57.57-.37.81.29.14.39.29.83.44,1.26.19.5.35,1.02.38,1.55.16,3.68,1.04,7.37,2.28,11.29.73,2.34,2.08,4.57,3.31,6.81,1.34,2.47,2.77,4.93,4.22,7.38l2.69,4.56c1.37,2.31,2.67,4.68,3.97,7.05,1,1.85,2.15,3.62,2.92,5.75.18.46.34.93.43,1.46.34,1.93-.25,2.69-1.28,2.91-.23.06-.44.13-.63.15-.33.02-.61-.17-.95-.47-.19-.15-.31-.32-.41-.5-.1-.18-.27-.41-.35-.64-1.05-2.77-2.77-5.93-4.61-9.15-1.39-2.39-2.83-4.84-4.32-7.28l.08-.06Z"/><path class="cls-1" d="M203.59,373.46l-.66-18.96c-.1-2.3-.32-4.59-.43-6.89-.37-8.1-.8-16.19-1.69-24.23-.37-3.57-.93-7.13-1.64-10.6-.94-4.47-2.12-8.83-3.41-13.17-.3-1.41-.19-1.29.81-.41.5.44,1.11,1.13,1.79,2.02.32.45.69.94,1,1.49.3.55.57,1.15.82,1.79,1.73,4.53,2.74,9.22,3.61,13.9.41,2.35.8,4.7,1.05,7.06.24,2.37.42,4.74.56,7.12.32,5.69,1,11.57,1.33,17.37.36,6.38.6,12.76.85,19.12.15,3.91.26,7.84.6,11.67l.11,1.07.07.51.04.29c.03.19.07.39.15.57.12.16.34.18.52.25l1.85.53c.73.21,1.45.44,2.17.68,2.88.99,5.74,2.2,8.3,4.07,1.97,1.44,3.77,3.35,4.75,5.78.96,2.34,1.34,4.78,1.28,7.3-.03,1.11-.14,2.21-.42,3.35-.57,2.1-1.53,3.42-2.4,4.1-.22.17-.44.3-.63.4-.22.09-.42.15-.62.18-.38.07-.73.03-1.09-.12-.32-.13-.66-.24-.86-.43-.35-.32-.27-.86-.02-1.38.23-.59.61-1.22,1.01-2.18.61-1.41.83-3.18.79-4.94-.03-.88-.11-1.78-.28-2.65-.07-.44-.19-.86-.3-1.29l-.19-.62c-.07-.2-.16-.36-.23-.54-1.14-2.8-4.31-5.09-8-6.43-1.36-.53-2.79-.96-4.27-1.36l-1.13-.3c-.21-.07-1.23-.28-1.89-.57l-.53-.22c-.09-.04-.18-.07-.26-.11l-.21-.17-.21-.17-.11-.08s.09-.09.04-.05h0s-.01-.02-.01-.02l-.02-.02-.05-.05-.39-.39c-.41-.61-.58-1.39-.75-2.15-.04-.19-.07-.39-.1-.59l-.05-.35-.08-.65-.13-1.25-.2-2.45-.3-4.82h.1Z"/><path class="cls-1" d="M221.37,356.65c-.56-8.13-1.07-16.29-1.87-24.34-.29-2.94-.76-5.86-1.15-8.79-1.34-10.35-3.09-20.7-4.57-31.12-.65-4.62-1.37-9.27-1.92-13.88-.29-2.97-.66-5.94-.74-8.94-.03-3,.04-6,.27-8.98.23-1.86.28-1.6.71-.05.23.78.5,1.88.82,3.2.34,1.32.76,2.87,1.04,4.54.12.74.3,1.48.42,2.22l.28,2.23c.19,1.49.43,2.97.63,4.46.49,2.96.81,5.95,1.26,8.93.87,5.99,1.75,11.98,2.62,18.01.97,7.25,2.5,14.72,3.46,22.19,1.07,8.22,1.64,16.44,2.29,24.64.38,5.05.75,10.1,1.13,15.14.21,2.78.43,5.57.64,8.35.12,1.39.24,2.77.35,4.16l.17,1.68c.03.2.04.39.1.58.17.08.37.11.56.16.54.15,1.79.57,2.74.95,1,.39,1.97.82,2.93,1.29,1.38.65,2.7,1.39,4.01,2.19,1.3.79,2.57,1.65,3.76,2.66,1.19,1,2.32,2.13,3.27,3.49.94,1.35,1.65,2.92,2.02,4.57.34,1.44.47,2.9.38,4.35-.2,2.68-.75,4.3-1.27,5.35-.54,1.05-1.11,1.54-1.86,1.84-.34.13-.71.33-1.02.37-.53.06-.82-.44-.86-1.36-.05-.92.15-2.26.41-3.86.39-2.24.4-4.41-.18-6.31-.54-1.92-1.72-3.53-3.36-5.05-1.66-1.5-3.63-2.87-5.77-3.97-1.06-.56-2.16-1.08-3.28-1.53-.55-.24-1.12-.44-1.68-.64l-.87-.29-1.62-.44c-.5-.25-.93-.55-1.41-.82l-.09-.05h0c-.16.14.22-.2.18-.16h0s0,0,0,0h0s-.01-.01-.01-.01l-.02-.02-.04-.03-.16-.12c-.1-.09-.22-.15-.3-.26l-.14-.15-.08-.2c-.06-.13-.09-.28-.13-.42-.12-.48-.18-.99-.24-1.5l-.12-1.1-.15-1.56-.27-3.09-.48-6.17c-.31-4.11-.61-8.22-.92-12.32l.1-.02Z"/><path class="cls-1" d="M160.23,125.37c2.12-7.46,4.73-14.82,8.4-21.79,1.35-2.53,2.79-5.07,4.65-7.37,1.64-2.02,3.57-3.92,6.02-5.3,1.22-.68,2.6-1.2,4.06-1.4,1.46-.21,2.97-.06,4.32.32,2.72.77,4.97,2.25,6.96,3.9,1.99,1.66,3.74,3.52,5.32,5.51,1.4,1.77,2.68,3.62,3.8,5.61l.41.76.19.39c.09.17.18.37.25.55.31.75.63,1.53.71,2.26.1.73.04,1.41-.38,1.99l-.91.51c-.34.11-.71.18-1.06.27-.48.04-.98.04-1.48,0-.51-.13-1.03-.17-1.53-.38l-.64-.25c-.19-.07-.35-.15-.51-.23l-.97-.48c-1.25-.65-2.41-1.26-3.62-1.7-1.2-.42-2.42-.68-3.68-.81-.63,0-1.27-.06-1.92.02-.64.06-1.33-.06-2,.07-1.69.15-1.58-.02-.3-.97.32-.24.71-.56,1.2-.85.12-.09.25-.14.38-.26.14-.06.28-.13.42-.2.29-.15.61-.26.95-.35.34-.1.71-.19,1.09-.28.38-.08.79-.1,1.21-.14.84-.09,1.75,0,2.65.21,1.61.35,3.11.99,4.43,1.61.66.31,1.29.61,1.86.85.15.08.27.12.4.17l.09.03h0s0,0,0,0h0s.04.03.05,0v-.02s0-.01,0-.01h0s-.1-.22-.1-.22c-.28-.56-.6-1.13-.94-1.69-1.38-2.25-3.02-4.43-4.8-6.43-1.8-1.98-3.79-3.81-5.99-5.09-1.31-.77-2.73-1.28-4.11-1.34-1.37-.07-2.77.33-4.08,1.1-1.32.74-2.53,1.83-3.64,3.03-1.12,1.2-2.13,2.53-3.08,3.92-4.14,6.17-6.99,13.35-9.32,20.59-1.42,4.48-2.62,9.04-3.61,13.64-1.49,6.97-2.61,14.08-3.09,21.14-.37,5.49-.25,10.9.21,16.27.1,1.18.26,2.33.39,3.52.51,4.39.62,5.76-.1,6.9-.15.25-.27.58-.41.74-.41.55-1.65-1.1-2.33-4.43-1.03-4.92-1.4-10.07-1.42-15.26,0-5.19.36-10.44.99-15.66.94-7.75,2.47-15.45,4.51-23.02h.09Z"/><path class="cls-1" d="M159.48,180.39c3.96-3.17,8.2-5.92,12.46-8.61,4.34-2.56,8.73-5.04,13.28-7.18,1.64-.82,3.3-1.6,4.97-2.36,1.66-.79,3.35-1.5,5.05-2.18,1.49-.62,3.02-1.17,4.54-1.71,1.51-.57,3.06-1.07,4.6-1.55,1.53-.52,3.11-.93,4.67-1.37,1.55-.45,3.21-.81,4.82-1.08,3.26-.56,6.55-.78,9.83-.72,3.28.06,6.57.39,9.79,1.11,2.86.65,5.71,1.54,8.36,3.05,1.32.76,2.58,1.69,3.65,2.88.54.59,1.02,1.25,1.41,1.97.21.35.35.74.53,1.12l.35,1.13c.56,1.95.6,4.11.05,6.09-.55,1.99-1.61,3.74-2.85,5.25-2.5,3.03-5.77,5.07-9.11,6.63-2.18.82-2.09.21-.79-1.35,1.29-1.56,3.73-4.11,6.23-6.81,2.21-2.44,3.44-5.25,2.95-7.97-.02-.34-.14-.69-.24-1.03l-.15-.52c-.06-.16-.13-.29-.19-.44-.28-.57-.64-1.13-1.12-1.65-.97-1.03-2.28-1.93-3.75-2.64-2.95-1.45-6.4-2.26-9.88-2.72-3.5-.45-7.08-.53-10.65-.28-2.13.15-4.28.45-6.39.95-1.05.23-2.13.58-3.2.87-1.08.29-2.15.63-3.21.99-4.28,1.37-8.49,3.09-12.63,4.85-9.07,3.94-17.87,8.62-25.98,14.31-2.54,1.7-4.9,3.61-7.32,5.47-2.29,2-4.64,3.94-6.75,6.13-1.69,1.57-3.17,3.33-4.7,5.05-.79.84-1.46,1.77-2.16,2.69l-2.08,2.75-1.83,2.91c-.62.97-1.23,1.94-1.72,2.94-1.01,2.01-1.81,4.13-2.32,6.29-.41,1.68-.63,3.39-.56,5.05.06,1.65.37,3.29,1.12,4.63.74,1.35,1.88,2.36,3.27,2.97.67.36,1.46.49,2.21.69.81.15,1.66.25,2.5.32,1.48.12,2.92.04,4.39-.12,2.72-.32,4.42-.9,5.66-1.22,1.24-.32,2.01-.43,2.77-.32.34.04.77.03,1.02.12.42.15.21.67-.65,1.43-.86.75-2.4,1.7-4.6,2.4-3.26,1.04-6.81,1.28-10.27.91l-1.3-.17-1.4-.33-.7-.17-.69-.29c-.46-.21-.93-.37-1.37-.64-1.81-1-3.29-2.7-4.16-4.56-.47-.93-.7-1.9-.95-2.87-.14-.96-.3-1.94-.28-2.88-.06-.96.07-1.88.12-2.81.15-.91.25-1.83.48-2.71.8-3.54,2.24-6.96,4.11-9.94l2.05-3.32c.72-1.08,1.53-2.09,2.29-3.14,1.49-2.14,3.29-3.99,4.97-5.95.86-.97,1.81-1.83,2.71-2.75.92-.89,1.8-1.85,2.78-2.67,1.93-1.69,3.82-3.43,5.87-4.96l.07.06Z"/><path class="cls-1" d="M244.06,195.67c-7.37-5.18-15.54-9.31-24.21-11.39-4.33-1.04-8.77-1.51-13.2-1.37-1.1.06-2.21.12-3.31.25-.55.04-1.1.13-1.64.21l-.82.12c-.26.05-.48.11-.73.16-1.93.44-3.92,1.35-5.83,2.42-2.8,1.58-5.47,3.53-8.02,5.61-2.54,2.09-5.01,4.34-7.29,6.67-3.92,4.1-7.22,9.03-10.24,14.04-3,5.05-5.69,10.31-8.05,15.7-2.36,5.39-4.4,10.93-5.93,16.59-.75,2.83-1.37,5.69-1.76,8.56-.38,2.86-.55,5.76-.23,8.54.28,2.45.98,4.85,2.39,6.63,1.38,1.79,3.5,2.81,5.86,3.08.58.08,1.19.09,1.79.11.55-.06,1.11-.05,1.64-.21.55-.08,1.06-.34,1.6-.52.5-.29,1.03-.5,1.5-.87,1.95-1.3,3.57-3.23,4.94-5.31,1.8-2.66,3.19-5.66,4.4-8.72,1.2-3.07,2.17-6.25,3-9.46.84-3.21,1.58-6.46,2.14-9.74.29-1.64.53-3.28.73-4.93.21-1.65.5-3.29.63-4.95.17-2.06.26-2.97.49-2.92.2.05.53,1.05.88,2.85.31,1.79.86,4.4.83,7.54.02,3.14-.23,6.83-1,10.75-1.5,6.91-3.62,13.75-7.29,20.16-.91,1.61-2,3.15-3.26,4.62-1.26,1.46-2.71,2.86-4.52,3.96-1.78,1.11-3.96,1.89-6.23,1.97-.59.06-1.05,0-1.56-.01-.5,0-1.02-.1-1.52-.15-.51-.07-1.03-.19-1.54-.3-.51-.16-1.03-.28-1.54-.49-1.02-.37-2-.93-2.91-1.57-.88-.68-1.72-1.45-2.37-2.33-1.36-1.74-2.13-3.72-2.64-5.64-.93-3.87-.81-7.62-.42-11.22.87-7.22,3-14.01,5.53-20.59,3.08-7.86,6.76-15.62,11.12-23.09,2.19-3.73,4.55-7.39,7.25-10.85,1.34-1.73,2.81-3.43,4.39-4.97,1.55-1.54,3.15-3.01,4.8-4.41,3.64-3.08,7.46-5.97,11.82-8.24l1.68-.8c.58-.23,1.15-.49,1.75-.69.62-.18,1.19-.43,1.85-.55.65-.15,1.29-.29,1.87-.36,2.39-.37,4.82-.56,7.23-.56,9.71-.04,19.17,2.77,27.64,7.08,10.47,5.33,19.65,12.78,27.62,21.23,3.02,3.21,5.86,6.59,8.47,10.15,2.61,3.56,5.03,7.28,7.05,11.24,1,1.99,1.92,4.03,2.6,6.21.34,1.09.63,2.2.78,3.39.14,1.18.19,2.46-.3,3.82-.94,2.41-2.8,4.14-4.78,5.38-2,1.25-4.18,2.02-6.36,2.57-3.4.86-6.86,1.17-10.27,1.19-3.42.02-6.82-.26-10.17-.77-6.7-1.04-13.25-2.95-19.46-5.8-2.72-1.28-5.37-2.59-7.92-4.27-4.75-3.06-7.47-5.73-9.15-7.74-1.69-2.02-2.36-3.44-2.62-4.74-.13-.59-.36-1.3-.35-1.69.02-.66.85-.2,2.32,1.08,1.54,1.23,3.64,3.36,6.7,5.71,9.02,7.02,20.39,11.4,32.09,13.18,5.83.86,11.91,1.09,17.45-.16.67-.18,1.38-.31,2.02-.56l.98-.32.92-.4c.64-.24,1.15-.6,1.73-.89.48-.37,1.05-.68,1.42-1.1.46-.37.75-.82,1.11-1.24.12-.23.24-.46.37-.69l.1-.17.02-.08s.02-.05.03-.07l.02-.12c.16-.69.02-2.06-.33-3.35-.5-1.96-1.36-4-2.34-5.97-.98-1.98-2.09-3.94-3.3-5.85-2.41-3.82-5.15-7.48-8.1-10.97-5.91-6.96-12.65-13.28-20.13-18.48l.04-.1Z"/><path class="cls-2" d="M301.92,292.13s20.63,2.42,28.52,24.42c8.4,23.45-3.78,40.55-3.78,40.55l-18.46,8.77-18.49,2.06-17.7,2.39s-24.74-4.74-28.3-24.74,7.33-37.74,7.33-37.74l14.35-6.96s22.26-2.57,27.23-4.64c4.96-2.08,9.3-4.12,9.3-4.12Z"/><path class="cls-1" d="M263.95,302.77c-1.61,0-3.12-.01-4.54.21-.51.09-.99.28-1.48.43-1.75.47-3.51,1.3-4.94,2.59-.63.57-1.18,1.24-1.6,1.97-.32.44-.58.91-.85,1.39-.15.23-.26.48-.41.71-.13.24-.39.44-.58.68-.28.28-.39.21-.63-.18-.12-.2-.28-.49-.47-.86-.12-.34-.13-.72-.06-1.09.17-.64.39-1.28.66-1.9.3-.6.72-1.13,1.14-1.65.87-1.02,1.91-1.89,3.07-2.54,1.39-.75,2.75-1.68,4.34-2.11,1.73-.49,3.45-.57,5.08-.62l2.99-.06c1.5-.05,3.02-.05,4.5-.19,1.16-.09,2.27-.43,3.42-.58.25-.03.5-.08.75-.09.95.05,1.26.28,1.49.91.05.14.12.28.15.42.11.46-.25.91-.92,1.26-.99.53-2.03.8-3.08.93-1.05.15-2.13.23-3.2.3-1.6.09-3.21.11-4.82.16v-.08Z"/><path class="cls-1" d="M257.32,301.04c-.26.04-.53.1-.79.19-.1.03-.15.11-.25.15-.36.08-.73.18-1.06.35-.15.07-.25.19-.36.31-.12.16-.19.36-.46.41-.16.04-1.12-.91-1-1.19.23-.44.57-.83,1.07-1.01.3-.1.45-.39.72-.55.29-.17.59-.3.9-.42.19-.07.38-.14.57-.21.28-.11.58-.18.84-.32.2-.11.37-.34.57-.49.04-.04.08-.09.13-.11.18-.08.28.05.47.61l.12.38c.13.44.15.82.08.99-.2.5-.47.67-.79.77-.23.08-.49.12-.73.21l-.03-.05Z"/><path class="cls-1" d="M250.83,305.8c1.54-1.43,3.26-2.63,5.07-3.61.66-.36,1.29-.77,1.99-1.06,2.42-1.08,5.08-1.46,7.64-1.67,1.14-.08,2.29-.16,3.42-.12,1.45-.02,2.91.35,4.23.97.41.19.33.29-.08.46-.41.17-1.14.5-1.93.72-2.75.49-5.3.58-7.98,1.04-1.6.27-3.15.99-4.63,1.7-1.64.78-3.22,1.74-4.63,2.91-.87.72-1.7,1.5-2.44,2.37-1.13,1.32-2.17,2.76-3,4.31-.64,1.21-1.12,2.48-1.66,3.72-.13.27-.24.54-.39.81-.55.98-.89,1.23-1.52,1.2-.14,0-.29,0-.42-.02-.43-.08-.58-.66-.44-1.52.11-.63.23-1.27.37-1.92.18-.62.39-1.25.62-1.87.43-1.27,1.12-2.44,1.84-3.62,1.09-1.73,2.38-3.4,3.91-4.88l.06.05Z"/><g class="cls-4"><path class="cls-1" d="M266.29,354.9c-1.5-2.49-2.75-5.14-3.62-7.91l-.49-1.51c-.14-.51-.29-1.01-.41-1.53-.38-1.82-.62-3.65-.73-5.49-.09-1.84-.04-3.67.06-5.48.07-1.61.27-3.22.47-4.8l.22-1.52c.11-.5.23-1,.35-1.5.14-.49.27-.99.45-1.47.19-.48.37-.95.56-1.43.25-.59.19-.52.19.03,0,.27.04.67.1,1.14.08.48.16,1.04.14,1.61-.01,4.12-.33,8.05-.23,12.09.05,2.41.57,4.88,1.24,7.23.7,2.6,1.77,5.09,3.1,7.46.83,1.45,1.74,2.87,2.77,4.19,1.55,2.02,3.27,3.95,5.2,5.61,1.48,1.31,3.13,2.36,4.78,3.38.37.22.73.43,1.1.65,1.32.89,1.62,1.37,1.56,2.14-.01.18,0,.36-.04.52-.13.52-.93.56-2.12.14-3.38-1.49-6.57-3.83-9.3-6.65-2.03-2.09-3.86-4.4-5.41-6.89l.06-.04Z"/></g><g class="cls-4"><path class="cls-1" d="M325.25,340.13c.41-2.64.54-5.33.23-7.98-.09-.97-.33-1.93-.49-2.89-.62-3.4-1.75-6.78-3.43-9.9-.73-1.39-1.59-2.72-2.53-3.97-1.18-1.63-2.41-3.23-3.7-4.82-.39-.51-.22-.58.36-.4.57.19,1.61.57,2.59,1.32.84.69,1.7,1.39,2.45,2.18.37.4.71.83,1.05,1.26.35.42.67.86.98,1.31,1.27,1.79,2.21,3.8,2.98,5.85.89,2.47,1.9,5.01,2.42,7.67.58,2.91.65,5.92.37,8.84-.16,1.8-.46,3.58-.85,5.33-.58,2.65-1.43,5.23-2.31,7.74-.66,1.96-1.29,3.91-2.07,5.81-.17.42-.31.84-.51,1.25-.72,1.53-1.17,1.9-1.99,1.88-.19,0-.39.01-.56-.03-.58-.12-.71-.95-.35-2.11.52-1.73,1.09-3.46,1.67-5.2.6-1.73,1.23-3.46,1.77-5.22.81-2.6,1.5-5.24,1.84-7.92h.08Z"/></g><path class="cls-1" d="M279.08,366.07c-.77-.71-1.54-1.44-2.3-2.19-.28-.28-.59-.5-.86-.79-.95-1-1.74-2.18-2.49-3.33-.33-.51-.67-1.02-.98-1.54-.44-.64-.7-1.41-.84-2.18-.04-.24.13-.27.41-.17.27.1.67.32.95.63.51.55.87,1.15,1.34,1.7.44.56.89,1.12,1.35,1.71.54.71,1.32,1.24,1.98,1.86.75.68,1.52,1.35,2.31,2,.49.4.98.81,1.49,1.2.75.61,1.54,1.13,2.36,1.98.31.34.62.72.82,1.23.22.58.23,1.18.06,1.76-.08.26-.17.52-.36.77-.37.43-.83.6-1.14.56-.32-.04-.5-.26-.6-.6-.04-.15-.08-.31-.09-.46,0-.26.06-.5.07-.7-.02-.28,0-.13-.07-.31-.04-.09-.23-.26-.22-.25-.03-.03-.06-.07-.08-.1-.02-.03-.05-.06-.07-.06-.04,0,.06,0,.11,0h.09s.04-.02.04-.02h.02s.01,0,.01,0h0s0,0,0,0c.28-.08-.38.11-.31.09h0s0,0,0,0c-.07-.1-.26-.38-.7-.76-.78-.66-1.56-1.32-2.34-1.97l.03-.05Z"/><path class="cls-1" d="M279.76,370.78c-.83.45-1.81.75-2.66.86-.32.05-.62.15-.93.17-1.12.06-2.17-.17-3.16-.38-.44-.09-.88-.14-1.31-.18-.56-.05-1.1-.18-1.61-.52-.15-.19-.11-.29.08-.58.18-.28.5-.64.82-.72.58-.18,1.11-.16,1.64-.13.53.02,1.04.07,1.55.17.62.1,1.24-.04,1.82-.15.66-.11,1.27-.25,1.83-.54.35-.17.7-.38,1-.63.46-.38.89-.84,1.1-1.39.15-.43.06-.9-.07-1.26-.02-.08-.08-.16-.1-.23,0-.14.04-.24.17-.33.14-.1.4-.2.73-.32l.42-.16c.22-.08.43-.1.7-.06.28.04.5.17.64.37.77,1.29.31,2.96-.45,4.06-.57.86-1.34,1.51-2.16,2.03l-.04-.05Z"/><path class="cls-1" d="M280.75,365.88c-.03.91-.43,1.64-.83,2.13-.41.5-.85.85-1.27,1.14-.31.22-.58.48-.92.64-1.18.61-2.44.92-3.69,1.04-.55.04-1.1.09-1.65.11-.69.01-1.44.06-2.04-.44-.14-.35-.1-.34.16-.71.13-.2.28-.35.44-.51.16-.14.33-.33.49-.31,1.15-.02,2.19-.27,3.36-.37.71-.09,1.31-.53,1.88-.93.63-.44,1.26-.97,1.42-1.41.1-.25.11-.46-.09-.85-.32-.55-.89-1.31-1.43-1.9-.44-.47-.97-.86-1.45-1.28-.11-.09-.24-.17-.3-.3-.26-.46-.2-.73.21-1.2.09-.11.18-.22.27-.31.31-.31.77-.41,1.21-.27.71.16,1.12.58,1.6.96.47.38.81.88,1.18,1.36.26.37.5.69.83,1.23.3.51.68,1.26.69,2.19h-.07Z"/><path class="cls-1" d="M320.78,355.2c-.28-1.07-.24-2.08-.12-2.99.04-.34.04-.67.11-.99.25-1.13.77-2.1,1.13-3.11.17-.45.33-.89.5-1.33.2-.57.43-1.13.77-1.65.11-.16.21-.1.31.1.1.2.25.54.25.9-.02.62-.02,1.23-.06,1.83-.07.59-.23,1.16-.41,1.73-.22.69-.22,1.42-.31,2.09-.09.74-.12,1.46,0,2.13.08.4.21.82.41,1.13.28.47.79.89,1.37,1.04.45.1.92-.07,1.15-.29.05-.04.09-.11.13-.15.05-.02.08-.03.13-.03.05.02.15.08.23.13.13.08.31.2.6.38l.3.18c.15.1.25.22.32.45.06.21.14.59,0,.87-.52.77-1.5,1.1-2.34,1.12-.87.02-1.68-.22-2.39-.64-.53-.31-.99-.74-1.37-1.26-.4-.55-.61-1.07-.78-1.6l.06-.02Z"/><path class="cls-1" d="M319.71,358.75c-.23-.48-.37-1.01-.41-1.51-.02-.18-.09-.35-.07-.53.07-.64.43-1.18.72-1.61.13-.2.24-.39.34-.59.13-.25.27-.54.6-.61.1-.02.32.24.53.53.2.29.43.59.42.67-.09.3-.04.57-.22.82-.12.17.06.34.05.5,0,.18,0,.36.07.55.04.12.09.24.17.35.12.15.26.34.47.39.16.04.37-.11.5-.21.03-.02.06-.07.09-.08.09-.02.1.21.15.92l.03.49c.04.54-.04,1.01-.27,1.22-.68.5-1.5.32-2.12-.05-.47-.29-.81-.74-1.09-1.2l.05-.04Z"/><path class="cls-1" d="M318.81,357.77c.25-.09.49-.18.72-.29.08-.04.12-.12.21-.15.31-.13.62-.24.9-.4.12-.07.21-.17.3-.27.1-.13.17-.31.4-.32.14-.01.98.94.9,1.14-.17.32-.39.59-.76.72-.22.08-.29.31-.45.46-.17.17-.35.32-.53.47-.11.09-.23.18-.34.28-.16.15-.35.28-.46.47-.08.16-.06.4-.11.59,0,.04,0,.1-.02.13-.05.14-.26,0-.74-.4l-.32-.27c-.17-.15-.32-.3-.45-.45-.12-.15-.24-.31-.25-.39-.07-.27-.08-.49-.04-.66.07-.14.19-.25.33-.34.2-.14.43-.24.65-.36l.04.04Z"/><path class="cls-1" d="M250.08,364.16l-.88-.78c-.28-.27-.53-.58-.79-.87l-1.56-1.75c-.52-.58-.91-1.26-1.37-1.88-.43-.64-.91-1.26-1.3-1.92l-1.09-2.03c-.35-.68-.77-1.33-1.02-2.06-.56-1.43-1.23-2.82-1.6-4.32-.3-1.08-.7-2.13-.88-3.23l-.34-1.64c-.12-.55-.21-1.09-.24-1.65-.48-3.91-.17-7.82.43-11.61.28-1.91.77-3.76,1.24-5.61.57-1.82,1.09-3.65,1.8-5.42,1.16-3.16,2.52-6.25,3.97-9.25.51-.94.98-1.9,1.5-2.84l1.62-2.77c1.12-1.82,2.47-3.51,4.11-4.94,1.05-.87,1.04-.65.88.59-.17,1.24-.27,3.59-1.41,5.66-1,1.84-1.99,3.68-2.87,5.56-.22.47-.47.93-.71,1.39l-.68,1.4c-.46.93-.92,1.86-1.32,2.82-1.68,3.79-3.13,7.69-4.14,11.74-1.23,4.84-1.18,10.11-.24,15.03.44,2.74,1.41,5.34,2.5,7.88.65,1.22,1.3,2.46,2.01,3.65l1.19,1.7.6.85c.21.28.45.52.68.78,2.13,2.67,4.91,4.76,7.9,6.4,4.58,2.45,9.83,3.79,15.1,4.05,4.1.26,8.14-.2,12.16-.79.89-.11,1.75-.3,2.65-.43,3.32-.47,4.41-.46,5.3.5.2.21.46.41.6.64.46.76-.8,1.64-3.27,2.28-7.32,1.73-15.5,2.49-23.71.96-3.05-.5-6.05-1.53-8.94-2.77l-2.11-1.1c-.35-.19-.71-.36-1.05-.56l-.99-.67-1.97-1.34-1.81-1.55.06-.08Z"/><path class="cls-1" d="M262.18,252.02c-.34.14-.6.31-.84.51-.12.1-.24.2-.34.34-.06.07-.1.11-.17.2l-.22.31c-.59.8-1.13,1.66-1.62,2.55-.98,1.79-1.79,3.71-2.43,5.72-1.28,4.01-2.01,8.27-2.38,12.56-.26,3.14-.22,6.3-.13,9.46.08,2.78.28,5.56.67,8.29.2,1.35.44,2.73.79,3.92l.08.28.06.17c.05.1.1.24.23.27.14.05.18.06.41.12l.99.23c5.4,1.1,11.05,1.5,16.62,1.24,4.95-.22,9.9-1.1,14.55-2.63,6.03-1.88,11.45-5.07,16.7-8.62,1.79-.96,1.63-.79.78.82-.82,1.62-2.76,4.47-6.04,6.63-2.93,1.83-6.06,3.32-9.3,4.49-3.25,1.15-6.62,1.91-10,2.42-6.78,1.01-13.65.92-20.4-.12-1.01-.16-2.02-.33-3.05-.54-.51-.1-1.02-.21-1.55-.33l-.51-.12-.61-.18c-.21-.05-.4-.14-.58-.22-.18-.09-.38-.16-.51-.33-.3-.29-.55-.61-.76-.97-.17-.38-.38-.76-.5-1.16-.21-.62-.33-1.11-.47-1.66-.26-1.06-.43-2.1-.61-3.14-.64-4.16-.93-8.32-.89-12.47.05-4.55.44-9.12,1.33-13.62.92-4.49,2.31-8.96,4.69-13.02.37-.62.75-1.24,1.18-1.82.22-.3.39-.58.66-.9.27-.33.56-.64.89-.92.66-.56,1.42-.98,2.18-1.27.76-.28,1.49-.45,2.2-.59,1.41-.27,2.71-.46,3.95-.8.62-.16,1.22-.37,1.81-.6l1.88-.8c1.92-.81,3.92-1.68,6.19-2.05,1.13-.18,2.34-.2,3.54.08.3.07.59.17.88.26l.75.33,1.49.66c3.93,1.89,7.27,4.68,10.16,7.75,2.25,2.4,4.29,4.94,6.1,7.61,1.84,2.66,3.5,5.43,4.96,8.32.67,1.26,1.27,2.52,1.87,3.83,1.03,2.46,1.58,4.15,1.78,5.39.21,1.24.09,2.02-.27,2.7-.16.31-.3.69-.49.89-.68.65-1.7-1.21-3.16-4.63-2.2-5.07-4.85-10.14-8.04-14.85-3.16-4.72-6.99-9.08-11.55-12.18-.88-.49-1.72-1.09-2.63-1.51l-1.38-.6-.69-.3c-.22-.1-.34-.1-.52-.17-1.33-.32-3.17.07-5.09.82-.96.37-1.95.8-2.98,1.25-.53.23-1,.45-1.61.69-.6.25-1.21.45-1.82.63-2.4.71-4.89.87-6.18,1.48l-.05-.08Z"/><path class="cls-1" d="M339.23,334.31c.43-2.43.69-4.82.63-7.24-.08-1.2-.03-2.43-.29-3.62-.19-1.2-.34-2.41-.71-3.58l-.36-1.29c-.12-.43-.25-.86-.44-1.26-.34-.83-.68-1.65-.99-2.49-.31-.72-.68-1.43-1.02-2.15l-.51-1.08c-.19-.35-.4-.69-.6-1.03l-1.22-2.06-1.39-1.97-.7-.98-.77-.93-1.55-1.86-1.69-1.75-.85-.87-.9-.81-1.62-1.44c-.55-.46-1.14-.88-1.72-1.32-1.14-.9-2.36-1.66-3.57-2.42-.76-.51-1.58-.94-2.39-1.37-.82-.42-1.6-.91-2.45-1.28-.83-.4-1.63-.86-2.44-1.31-.82-.42-1.66-.8-2.46-1.3-.95-.74-.7-1.01.48-1.29,1.16-.26,3.24-.33,5.32.54,3.61,1.66,7.06,3.7,10.19,6.18,3.13,2.47,6.05,5.25,8.44,8.49,2.89,3.81,5.74,7.97,7.51,12.61,1.95,5.07,2.77,10.61,2.25,16.02-.34,3.29-.98,6.54-2,9.7-.85,2.36-1.79,4.71-3.11,6.86-.59,1.12-1.37,2.11-2.05,3.16-.8.97-1.52,2-2.41,2.89-2.62,2.86-5.58,5.4-8.99,7.3-.76.4-1.51.79-2.3,1.15-2.99,1.19-4.1,1.09-4.99.25-.21-.19-.45-.38-.59-.59-.47-.74.57-1.66,2.47-2.56,1.42-.68,2.8-1.43,4.12-2.27.67-.41,1.35-.8,1.97-1.28.65-.45,1.29-.89,1.89-1.41,2.46-1.96,4.66-4.29,6.44-6.94.34-.48.67-.98.95-1.51.29-.52.61-1.03.89-1.56.5-1.09,1.07-2.15,1.47-3.29.92-2.24,1.49-4.63,1.95-7.04h.1Z"/><path class="cls-1" d="M316.66,361.85c-2.81,2.85-6.29,5.07-10.03,6.38-3.69,1.38-7.65,1.96-11.55,1.85-.71.02-1.42-.04-2.13-.12-.71-.07-1.42-.12-2.13-.2l-2.1-.41-1.05-.22-1.02-.33c-4.8-1.48-9.18-4.14-12.72-7.61-3.55-3.46-6.24-7.71-8-12.24-1.48-4.08-2.72-8.1-3.25-12.37-.16-1.36-.28-2.74-.3-4.13.01-1.38.11-2.77.33-4.13.21-1.36.48-2.71.92-4,.24-.64.46-1.28.73-1.91.26-.63.6-1.22.88-1.84.69-1.53.76-1.25.72.19-.04.71.12,1.79.17,3,.04.61.11,1.27.13,1.95-.02.67-.03,1.37-.08,2.09-.07,1.27-.09,2.53,0,3.78.07,1.25.15,2.49.34,3.73.16,1.24.45,2.48.71,3.73.27,1.26.55,2.52.9,3.79.33,1.27.76,2.42,1.12,3.64.42,1.19.97,2.32,1.44,3.5.62,1.09,1.17,2.24,1.84,3.31l1.06,1.57c.18.26.34.54.54.79l.61.73c1.85,2.42,4.34,4.39,7.05,5.94,1.34.82,2.8,1.39,4.24,2l2.24.7c.74.25,1.52.34,2.28.52,3.36.65,6.85.7,10.24.09.84-.2,1.7-.29,2.52-.57.82-.27,1.65-.5,2.46-.8,1.58-.66,3.13-1.41,4.54-2.39,3.53-2.34,6.32-5.74,8.3-9.57,2.96-5.84,4.2-12.67,3.89-19.23-.28-5.08-2.18-9.83-4.69-14.14-.56-.95-1.18-1.84-1.79-2.78-2.28-3.45-2.96-4.61-2.74-5.96.05-.31.05-.66.15-.9.31-.8,1.99.1,4.13,2.57,3.15,3.66,5.77,8.08,7.38,13.06.8,2.48,1.31,5.11,1.49,7.78.16,2.67.07,5.23-.23,7.85-.44,3.86-1.38,7.71-2.9,11.37-1.55,3.65-3.73,7.1-6.56,10l-.08-.06Z"/><path class="cls-1" d="M158.96,180.68c-.27-.33-.49-.67-.67-1.02-.07-.12-.17-.22-.21-.35-.17-.47-.25-.94-.27-1.39-.02-.19-.05-.39-.08-.58-.03-.24-.08-.51.1-.73.05-.07.33,0,.61.09.28.1.57.2.59.27.1.28.19.5.2.84,0,.21.21.32.33.46.14.16.28.32.45.46.1.09.2.17.32.23.17.09.35.22.55.2.16-.02.3-.2.4-.34.02-.02.04-.07.06-.09.07-.06.13.12.33.78l.14.45c.16.51.19.95.03,1.15-.47.62-1.23.55-1.79.35-.44-.15-.8-.44-1.1-.74l.03-.05Z"/><circle class="cls-1" cx="281.87" cy="242.09" r="5.84"/><path class="cls-1" d="M287.59,247.64c-2.21,1.59-4.8,2.18-7.36,1.88-.93-.12-1.92-.29-2.82-.78-1.63-.89-2.76-2.48-3.17-4.14-.42-1.66-.21-3.46.67-4.91.77-1.23,1.78-2.23,2.93-2.9.75-.41,1.53-.74,2.35-.91.81-.21,1.68-.09,2.48.08.5.14.41.48.05.97-.18.24-.42.55-.67.87-.13.16-.26.32-.39.47-.07.08-.14.14-.2.23l-.23.14c-1.12.58-1.92,1.42-2.62,2.03-.33.35-.56.72-.75,1.06-.2.36-.34.81-.39,1.31-.06.6.18,1.22.56,1.68.4.46.89.76,1.52.99,1.38.5,3.26.37,4.76-.37.93-.45,1.76-1.12,2.23-1.96.74-1.21.71-3-.27-4.09-.72-.85-1.98-1.06-3.02-.95-.23.03-.45.07-.67.09-.41.03-.65.07-.92-.08-.15-.12-.29-.22-.43-.36-.13-.1-.27-.24-.41-.38-.13-.13-.28-.23-.39-.35-.18-.19-.23-.43-.13-.82.05-.19.13-.42.26-.68.06-.15.15-.25.27-.32.11-.08.23-.17.37-.24.8-.41,1.71-.73,2.64-.72.93-.01,1.88.17,2.8.56.91.38,1.83,1.03,2.51,1.85.7.81,1.19,1.79,1.46,2.81.4,1.52.29,3.13-.29,4.58-.59,1.47-1.57,2.6-2.66,3.45l-.06-.07Z"/><path class="cls-1" d="M210.59,400.3c.25.71.47,1.43.62,2.17.06.26.19.51.22.79.11.97.08,1.94-.08,2.87-.07.41-.11.82-.15,1.22-.04.26-.04.52-.1.78-.09.25-.26.48-.46.68-.14.13-.51-.02-.92-.27-.4-.25-.9-.59-.99-.84-.01-.85-.11-1.57.21-2.42.17-.52-.09-1.02-.19-1.52-.13-.56-.27-1.14-.5-1.7-.13-.35-.29-.69-.45-1.03-.27-.5-.54-1.03-.94-1.46-.3-.34-.77-.51-1.12-.79-.08-.06-.18-.1-.25-.16-.22-.29-.15-.53.26-1.05l.27-.36c.32-.38.73-.57,1.11-.53,1.12.14,1.81.86,2.4,1.65.45.58.8,1.25,1.12,1.93l-.06.04Z"/><path class="cls-1" d="M189.33,398.84c.38.58.72,1.18,1,1.79.11.22.27.41.35.64.32.8.45,1.67.53,2.5.05.36.12.72.2,1.07.03.23.1.45.11.68-.02.23-.07.47-.16.7-.06.15-.35.13-.68.04-.33-.09-.76-.25-.9-.45-.34-.74-.59-1.42-.71-2.2-.08-.47-.38-.88-.61-1.29-.25-.47-.51-.93-.83-1.37-.19-.27-.4-.54-.63-.78-.35-.36-.71-.73-1.15-.99-.35-.19-.77-.22-1.15-.27-.08-.02-.18,0-.25-.04-.26-.15-.29-.36-.13-1l.09-.41c.11-.42.41-.82.75-.89,1.04-.27,1.94.2,2.73.71.58.41,1.03.98,1.47,1.52l-.05.05Z"/><path class="cls-1" d="M239.3,397.88c.27.73.51,1.47.68,2.23.06.28.21.53.24.82.12,1.02,0,2.08-.22,3.05-.07.44-.18.87-.25,1.3-.18.53-.3,1.13-.96,1.39-.2.08-.43-.09-.73-.4-.19-.2-.38-.39-.53-.55-.16-.19-.26-.34-.26-.47,0-.22-.06-.43-.04-.62.06-.18.07-.36.13-.54.09-.36.19-.73.32-1.15.17-.51-.11-1.01-.2-1.53-.14-.58-.28-1.18-.52-1.76-.13-.37-.3-.72-.48-1.08-.29-.52-.58-1.07-1-1.51-.32-.35-.78-.56-1.2-.8-.09-.06-.19-.1-.27-.17-.25-.29-.06-.63.33-1.13l.27-.35c.3-.35.74-.56,1.2-.57.62.04.99.36,1.39.66.37.33.71.71,1,1.12.45.61.8,1.3,1.14,1.99l-.06.04Z"/><path class="cls-1" d="M232.58,398.25c.17.69.33,1.38.44,2.08.05.25.15.49.17.76.09.92-.01,1.85-.12,2.74-.03.4-.11.79-.15,1.18-.06.5-.13,1-.44,1.44-.1.14-.39.04-.69-.15-.3-.19-.65-.48-.69-.73-.07-.44-.13-.87-.2-1.31-.01-.42.08-.84.15-1.29.11-.54-.12-1.06-.19-1.6-.1-.59-.22-1.2-.39-1.79-.1-.37-.22-.74-.35-1.1-.21-.55-.42-1.11-.74-1.61-.24-.39-.64-.68-.93-1.04-.06-.08-.15-.14-.21-.22-.26-.28.06-.61.42-.94l.26-.22c.14-.11.3-.17.5-.21.19-.03.45-.06.63,0,.42.24.83.51,1.1.87.28.36.51.76.72,1.18.32.62.55,1.29.78,1.95l-.06.02Z"/><path class="cls-1" d="M182.73,401.11c.24.47.46.94.67,1.4.08.17.22.29.29.46.23.62.44,1.23.6,1.85.09.26.19.52.3.77.06.16.15.31.2.48.02.04-.01.1-.02.15-.05.07-.12.15-.11.19-.01.09-.03.18-.04.3-.03.13-.13.16-.33.15-.15,0-.29,0-.4-.01-.09,0-.13-.02-.26,0-.08.02-.13.02-.25.05-.03-.01-.09,0-.12-.01-.33-.19-.55-.42-.78-.65-.16-.27-.3-.54-.34-.89-.06-.41-.4-.66-.62-.98-.24-.36-.46-.72-.71-1.08-.16-.22-.32-.44-.47-.65-.25-.32-.49-.66-.82-.9-.26-.18-.63-.21-.95-.29-.07-.02-.15-.01-.22-.04-.21-.12-.15-.35.25-1.02l.24-.41c.25-.4.7-.86.98-.88.85-.08,1.44.32,1.95.78.38.35.72.74,1,1.18l-.05.05Z"/><path class="cls-1" d="M217.43,399.51c.2.72.36,1.44.47,2.15.05.26.15.49.17.76.11.91.01,1.83-.06,2.71-.03.39-.01.77,0,1.15,0,.49,0,.97-.21,1.45-.06.15-.3.12-.58,0-.27-.13-.62-.35-.71-.61-.37-.91-.52-1.78-.52-2.69,0-.55-.21-1.08-.35-1.6-.15-.58-.29-1.16-.51-1.73-.12-.35-.27-.69-.43-1.02-.26-.49-.53-1-.92-1.4-.29-.32-.72-.5-1.1-.71-.08-.05-.18-.07-.26-.12-.25-.23-.14-.53.23-1.09l.25-.39c.29-.41.69-.65,1.12-.66.58.04,1.01.31,1.45.59.42.3.79.67,1.05,1.12.42.64.71,1.36.98,2.06l-.06.03Z"/><path class="cls-1" d="M225.58,207.08c2.7,1.84,6.09,2.85,9.37,2.63,1.67-.11,3.29-.55,4.61-1.63,1.25-1.01,2.06-2.6,1.98-4.22-.04-.88-.72-1.62-1.62-1.62-.85,0-1.67.74-1.62,1.62.04.79-.37,1.5-1.12,1.96-.93.57-2.05.67-3.12.67-2.46-.02-4.81-.83-6.83-2.21-.73-.5-1.8-.14-2.22.58-.47.8-.14,1.73.58,2.22h0Z"/><path class="cls-1" d="M288.12,402.99c-.47.16-.91-.19-1.3-.37-.12-.07-.13-.27,0-.35.25-.15.5-.33.76-.51.16-.07,2.74-.9,3.64-1.09.86-.24,1.72-.39,2.59-.53,1.77-.29,3.53-.59,5.31-.75.39-.04.79-.06,1.19-.04,1.37.06,2.72-.05,4.08-.22.23-.03.46-.03.67-.15.35-.2,4.03-.49,4.51-.44,1.2.11,2.39.16,3.58.24.17.01.35-.04.51.08.37.27.73.2,1.1.2.51.02,1.02.05,1.53.13.25.04.51.19.76.31.23.11.12.52.05.57-.22.14-.03.32,0,.49,0,.06.02.13.01.18-.02.09-2.89,1.03-3.2,1.01-.04,0-1.11.11-2.24.22-1.12.12-2.3.25-2.54.29-.25.04-.51,0-.76-.03-.12-.02-3.48.42-3.62.43-.7.01-1.4.17-2.11-.02-.14-.04-.28-.01-.42,0-1.2.13-2.41.13-3.62.18-.62.01-1.23.13-1.84.15-.11,0-.23-.02-.34-.03-.14-.01-.28-.03-.42-.02-1.46.11-2.93.1-4.38.3-.33.03-1.96-.03-2.35-.03-.22,0-.97-.25-1.15-.18Z"/><path class="cls-1" d="M463.19,421.42c.54-.17,1.05-.04,1.52.13.15.05.18.3.04.38-.31.19-.61.37-.85.52-.19.05-2.99,1.53-3.98,1.87-.94.41-1.9.75-2.87,1.07-1.97.66-3.98,1.2-6,1.76-.45.12-.91.21-1.38.26-1.6.19-3.16.53-4.74.89-.26.06-.54.09-.78.24-.19.14-1.39.34-2.61.5-1.23.15-2.48.22-2.77.2-.73-.1-1.45-.17-2.16-.23-.71-.1-1.42-.19-2.14-.29-.2-.02-.42-.02-.6-.14-.42-.28-.85-.27-1.28-.33-.6-.06-1.2-.21-1.78-.35-.29-.08-.57-.24-.84-.37-.25-.12-.06-.42.04-.44.28-.07.09-.25.08-.38,0-.05,0-.11.01-.14.02-.04.88-.11,1.77-.18.89-.09,1.81-.27,1.98-.25.02,0,.34.01.81-.04.47-.04,1.09-.1,1.73-.16,1.27-.18,2.58-.4,2.85-.46.28-.06.57-.03.86-.02.14.07,3.89-.84,4.05-.85.79-.09,1.56-.36,2.4-.26.16.02.32-.03.48-.06,1.35-.33,2.73-.54,4.1-.82.7-.14,1.39-.35,2.08-.52.13-.03.26-.03.39-.04.16-.02.33-.03.49-.07,1.64-.46,3.35-.68,5-1.16.19-.05.76-.12,1.34-.19.58-.07,1.19-.05,1.41-.1.25-.04,1.15.12,1.37.04Z"/><path class="cls-3" d="M429.2,369.69s2.07,20.38,1.85,34.21-2.22,13.83-2.22,13.83c0,0-17.89,1.91-19.66,1.36s-10.33-1.77-11.21-10.49-1.84-26.7-1.84-26.7c0,0,1.33-1.21,5.32-4.88s4.86-10.23,7.65-8.9,2.1,13.02,6.22,13.89,4.49,2.56,5.38-.11,3.59-14.45,8.5-12.2Z"/><path class="cls-1" d="M396.87,363.81c.03-1.74.1-3.48.17-5.21.03-.63-.03-1.26.01-1.89.1-2.22.46-4.43.63-6.64.09-.98.12-1.96.15-2.93.11-1.25.29-2.49.56-3.73.09-.39.17-.33.33,0,.15.33.47.95.65,1.67.14.64.27,1.28.39,1.92.09.64.05,1.27.07,1.91,0,1.27-.03,2.54-.13,3.82-.12,1.53.02,3.12,0,4.68-.02,1.72-.04,3.43-.02,5.15.01,1.06.03,2.11.08,3.16.09,1.59.13,3.2.35,4.77.16,1.19.58,2.3,1.13,3.11.12.18.26.32.39.46.45.5.49.66.28,1.45-.04.17-.06.35-.11.51-.08.27-.25.47-.57.56-.32.11-.74,0-1.19-.28-1.3-.9-1.96-2.3-2.34-3.55-.19-.64-.32-1.27-.41-1.89l-.23-1.76c-.21-1.75-.22-3.52-.25-5.27h.07Z"/><path class="cls-1" d="M398.18,402.36c-.14-2.22-.23-4.44-.29-6.66-.01-.81-.13-1.61-.13-2.42-.02-2.85.21-5.7.38-8.54.06-1.26.09-2.52.17-3.77.11-1.6-.02-3.22.77-4.78.31-.48.29-.41.63.03.22.3.46.61.68.91.24.37.39.8.47,1.26.11,1.62.24,3.23.24,4.84-.06,1.61-.15,3.22-.29,4.84-.17,1.94.04,3.96.09,5.95.05,2.18.13,4.37.28,6.56.09,1.35.19,2.69.33,4.03.23,2.03.4,4.09.89,6.01.38,1.49,1.04,2.85,1.79,4.06.16.27.37.5.53.76.32.48.51.79.54,1.1.02.32-.08.61-.29.97-.09.16-.17.34-.27.48-.17.24-.43.34-.78.31-.35-.03-.81-.2-1.18-.59-1.15-1.13-2.03-2.57-2.61-4.07-.59-1.5-.94-3.06-1.21-4.58-.38-2.25-.6-4.46-.81-6.7h.08Z"/><path class="cls-1" d="M398.69,417.28c-.64-.49-1.24-.94-1.85-1.26-.22-.12-.47-.13-.69-.23-.39-.16-.76-.33-1.2-.46-.43-.12-.91-.17-1.4-.16-.44,0-.87.13-1.29.28-.27.1-.53.22-.8.31-.14.05-.28.09-.43.13-.07.01-.15.03-.23.04-.08,0-.19-.05-.29-.08-.27-.12-.29-.2-.32-.6-.07-.47-.03-1.07.28-1.31.52-.44,1.12-.81,1.79-1.08.66-.27,1.41-.43,2.18-.37.46.04.93.02,1.4.04.47.05.94.11,1.38.25.95.32,1.77.79,2.52,1.26l1.34.86c.66.41,1.29.85,1.97,1.08.52.21,1.08.15,1.57.14.11,0,.21-.05.31-.02.37.07.47.29.56,1.08l.07.53c.06.59-.15,1.09-.63,1.32-.7.34-1.46.36-2.16.29-.35-.04-.7-.1-1.02-.2-.33-.12-.61-.26-.9-.4-.84-.43-1.54-.95-2.22-1.38l.04-.07Z"/><path class="cls-1" d="M410.24,422.13c-2.16-.26-4.31-.65-6.51-1.33-.82-.24-1.55-.43-2.28-.72l-3.65-1.56c-1.18-.52-2.36-.96-3.56-1.23-1.07-.22-2.17-.3-3.22-.17-1.36.19-2.6.55-3.92,1.05-.48.07-.64-.16-.62-.83.01-.65.41-1.68,1.32-2.23,1.6-.98,3.46-1.3,5.22-1.33,1.79.03,3.49.52,5,1.14,1.82.76,3.67,1.35,5.39,1.95.96.36,1.82.61,2.79.84.96.22,1.94.4,2.94.53,1.23.16,2.48.29,3.74.34,1.9.08,3.83.13,5.72-.07,1.47-.13,2.87-.61,4.27-.92.31-.06.61-.16.92-.21,1.16-.15,1.58.09,2.02.85.1.18.22.34.29.52.26.58-.11,1.23-.97,1.76-2.55,1.5-5.49,1.72-8.39,1.89-2.16.09-4.34,0-6.52-.18v-.09Z"/><path class="cls-1" d="M405.97,316.85c.72.17,1.52.17,2.15-.06.23-.09.37-.28.58-.37.34-.19.67-.5.93-.94.28-.45.38-1.03.55-1.68.13-.58.13-1.2.13-1.83,0-.4-.03-.82.04-1.24.09-.42.23-.85.44-1.25.14-.25.36-.17.66.07.29.24.78.63,1.01,1.04.21.37.24.75.36,1.13.1.39.2.8.26,1.23.07.43.11.89.1,1.37-.06.49-.19.99-.4,1.49-.45,1.17-1.02,2.59-2.17,3.45-1.27.89-2.72,1.15-4.04,1.11-.82-.03-1.62-.2-2.38-.45-1.14-.39-2.1-1.02-3.03-1.59-.72-.45-1.54-.76-2.22-1.22-.15-.1-.32-.17-.46-.29-.51-.43-.5-.74-.03-1.47.11-.17.21-.34.33-.5.4-.53.97-.76,1.47-.63,1.51.38,2.56,1.16,3.58,1.71.38.2.74.39,1.11.54.34.14.67.24,1.04.29v.09Z"/><path class="cls-1" d="M400.94,312.44c.8.76,1.74,1.41,2.82,1.82.2.07.4.11.61.16.21.03.42.05.63.1,1.35.36,2.93.07,4.15-.83.54-.4.92-.96,1.14-1.56.15-.38.17-.78.26-1.24.13-.45.21-.96.52-1.46.41-.27.41-.2.84.12.42.33.92.79,1.03,1.43.12.56-.08,1.22-.27,1.88-.23.64-.57,1.24-.98,1.76-.83,1.04-1.96,1.76-3.15,2.11-.72.21-1.44.4-2.19.5-.38.05-.76.07-1.15.07-.36-.02-.72-.05-1.07-.1-1.55-.25-3.06-.85-4.3-1.79-.76-.58-1.45-1.23-2.04-1.96-.91-1.1-1.55-2.36-2.09-3.64-.43-.99-.83-1.99-1.06-3.08-.02-.24-.07-.47-.07-.72.01-.91.29-1.19.96-1.31.16-.03.31-.07.47-.08.51-.03.95.33,1.16.85.16.39.36.76.52,1.12.16.36.25.73.42,1.07.27.71.57,1.39.9,2.06.52.98,1.16,1.9,1.99,2.63l-.05.06Z"/><path class="cls-1" d="M430.05,341.3c0,2.12-9.81,3.19-16.02,3.19s-14.46-.26-14.46-2.39,8.25-5.31,14.46-5.31,16.02,2.38,16.02,4.5Z"/><path class="cls-1" d="M396.86,372.08c-.16-1.05-.14-2.03-.11-2.95,0-.34-.05-.66,0-.98.19-1.14.31-2.26.47-3.39.06-.5.07-1,.08-1.49,0-.63.02-1.27.12-1.91.04-.2.15-.18.31-.03.16.16.42.45.55.8.39,1.27.85,2.53.79,3.83-.04.78.18,1.59.27,2.36.05.85.07,1.67.2,2.45.08.48.18.94.35,1.37.25.64.6,1.23,1.14,1.63.42.31.97.33,1.37.29.09-.02.17-.04.26-.06.28-.04.34.23.52,1.06l.13.57c.14.62-.05,1.23-.63,1.44-.85.25-1.78.11-2.56-.23-.78-.36-1.46-.89-1.96-1.55-.38-.48-.68-1.02-.9-1.58-.21-.54-.36-1.08-.47-1.6l.07-.02Z"/><path class="cls-1" d="M409.2,370.06c-.36.07-.8.31-1.21.65-.15.12-.24.3-.4.44-.28.25-.56.5-.83.76-.29.25-.57.51-.83.8-.23.25-.4.54-.56.82-.19.38-.47.71-.83,1.01-.12.09-.28,0-.46-.21-.17-.2-.4-.55-.41-.84-.04-.53.13-.97.32-1.39.19-.43.43-.83.75-1.18.4-.41.61-.95.96-1.42.39-.51.86-1.03,1.44-1.47.36-.27.76-.52,1.21-.7.33-.13.73-.23,1.12-.24.39-.02.76.01,1.13.07.57.1,1.23.14,1.87.59.14.1.29.19.41.34.32.61.11.94-.62,1.2-.16.06-.31.12-.46.15-.46.11-1.11.13-1.32.25-.19.05-.4.36-.43.36-.07.05-.15.04-.22.02-.03,0-.05-.01-.07-.02-.01,0-.02-.03-.09-.02-.11.02-.26,0-.42.07l-.04-.06Z"/><path class="cls-1" d="M429.5,372.03c-.35-.08-.71-.21-1.02-.34-.3-.14-.54-.27-.73-.38l-.45-.25c-.06-.04-.1-.08-.17-.09,0,0-.02-.01-.03,0-.09-.01-.14.07-.22.08-.08.01-.18.05-.26.1-.15.13-.3.31-.44.51-.28.39-.63.94-.85,1.5-.21.5-.3,1.03-.36,1.56-.04.68-.2,1.37-.37,2.1-.06.23-.24.23-.51.07-.27-.16-.73-.48-.95-.93-.41-.79-.51-1.63-.5-2.47.01-.86.14-1.65.51-2.51.26-.5.53-1.02.87-1.56.42-.66.99-1.23,1.7-1.52.28-.13.58-.18.88-.24.65-.07,1.41.08,1.86.26.48.18.84.37,1.14.48.41.18.88.29,1.36.29.73.02,1.53-.17,2.16-.61.49-.36.74-.94.9-1.45.03-.12.04-.24.08-.34.06-.19.16-.28.37-.29.25,0,.56.06,1.01.17l.6.13c.32.08.59.22.82.45.22.22.44.56.37.85-.2,1.89-1.74,3.42-3.5,4.12-1.32.54-2.81.68-4.27.39v-.09Z"/><path class="cls-1" d="M422.48,384.48c-.37.27-.79.47-1.17.62-.36.12-.7.24-1.08.33-.78.15-1.67.22-2.57-.01-.91-.19-1.67-.69-2.3-1.21-.57-.53-1.02-1.1-1.36-1.66-1.32-2.23-1.77-4.32-2.28-6.36-.35-1.49-.74-2.93-1.05-4.34-.27-1.24-.56-2.47-.93-3.54-.02-.07-.05-.13-.07-.19-.02-.06-.02-.05-.03-.08-.01-.04-.03-.1-.05-.14-.04-.1-.09-.2-.15-.3-.11-.2-.32-.36-.56-.37-.24-.01-.45.15-.6.34-.08.1-.14.21-.2.32l-.09.18-.14.37c-.41,1.18-.8,2.49-1.29,3.75-.45,1.12-.94,2.24-1.57,3.34-.65,1.07-1.41,2.23-2.84,2.95-.46.21-.99.34-1.52.36-.52,0-1.05-.09-1.49-.28-.24-.08-.43-.19-.64-.29-.2-.1-.46-.28-.65-.45-.41-.35-.68-.75-.91-1.15-.86-1.59-.97-3.18-.88-4.7.31-.98.31-.85.99-.16.36.34.71.84,1.13,1.39.2.28.43.56.62.85.18.29.33.59.48.86.13.24.27.44.39.55.06.07.11.09.15.13.06.01.02.01.16.06.43.18.63.15.76.08.33-.07,1.13-1.08,1.62-2.25.55-1.18.95-2.54,1.44-3.9l.73-2.16c.11-.31.39-1.09.71-1.65.32-.59.7-1.11,1.16-1.5.54-.46,1.17-.82,1.88-.91.17-.03.35-.04.53-.06.18.03.35.05.53.07.18,0,.34.08.51.12.17.04.34.09.49.19.65.27,1.15.83,1.62,1.4.2.32.41.65.6.98.09.17.17.36.26.54.08.18.12.27.17.4.77,1.95,1.2,3.8,1.63,5.62.46,1.99.88,3.95,1.51,5.74.31.88.68,1.73,1.13,2.37.47.64.91,1,1.41,1.04.31.06.73-.05,1.17-.19.37-.13.6-.31.82-.62.44-.62.63-1.76.67-2.92.06-1.79-.08-3.71-.03-5.71.02-1,.11-2.03.34-3.07.12-.52.27-1.05.49-1.57.21-.51.49-1.02.92-1.57.64-.82,1.59-1.46,2.65-1.45,1.03-.05,2.18.53,2.74.76.66.28,1.16.44,1.53.39.58,0,1.09-.11,1.49-.29.36-.17.63-.42.95-.73.59-.59,1.01-1.2,1.47-1.5.48-.3.93-.4,1.49-.36.25.02.52,0,.74.04.37.09.57.41.61.96.03.54-.04,1.32-.57,2.2-.38.66-.86,1.35-1.56,1.98-.69.63-1.63,1.16-2.59,1.42-.48.13-.96.21-1.43.24-.24.03-.46.02-.68.02h-.34c-.13,0-.3-.03-.45-.05-1.23-.18-2.02-.61-2.62-.87l-.4-.17c-.08-.04-.06-.02-.07-.02h-.01s-.03.02-.04.03c-.02.02-.02.04-.02.06.05-.07-.2.37-.31.75-.13.41-.22.9-.28,1.45-.19,1.64-.06,3.62-.05,5.78,0,1.09-.02,2.25-.27,3.58-.13.66-.33,1.38-.72,2.14-.38.75-.99,1.53-1.77,2.07l-.06-.07Z"/><path class="cls-1" d="M423.91,332.89c2.01.52,3.98,1.17,5.91,2.01l.36.16c.16.07.4.17.58.27.38.2.79.39,1.15.6.73.42,1.42.86,1.92,1.35.5.49.85.98,1.03,1.51.09.27.15.55.13.89-.03.35-.16.62-.29.82l-.14.19-.26.17-.52.35-1.02.7c-.64.22-1.28.42-1.93.62l-1,.28-.65.17c-5.04,1.14-10.14,1.83-15.27,1.97-2.27.08-4.56.1-6.83,0-1.46-.07-2.92-.16-4.38-.42-.73-.13-1.45-.3-2.16-.55-.35-.12-.71-.23-1.05-.37-.34-.16-.64-.44-.97-.61-.81-.47-.54-.7.32-.9.43-.09,1.04-.31,1.69-.37.67-.1,1.37-.08,2.16-.03,5.46.76,11.16.28,16.89-.11,1.72-.15,3.46-.43,5.18-.82.86-.19,1.73-.4,2.58-.63.43-.11.86-.21,1.28-.34l.22-.06.1-.02.22-.05.24-.05.49-.14c.15-.04.4-.1.39-.29-.08-.32-.4-.49-.68-.68-.18-.21-2.39-1.07-4.01-1.52-2.26-.64-4.58-1.1-6.91-1.34-3.51-.33-7.19-.07-10.7.59-2.71.54-5.37,1.45-7.6,2.66-.49.26-.9.57-1.24.84-.31.25-.45.43-.48.44-.01,0,0,0,0,0-.02,0-.06-.02-.1-.02-.11-.01-.05,0-.06,0,.01,0-.05,0,.05,0l-.06.03c-.16.16-.24.58-.36,1.02-.06.2-.07.44-.14.63-.11.31-.41.42-.99.25-.28-.13-.64-.31-1-.79-.36-.47-.56-1.39-.29-2.22.41-1.18,1.1-1.8,1.7-2.34.62-.53,1.25-.94,1.89-1.3,1.29-.69,2.6-1.19,3.92-1.61,2.65-.84,5.38-1.35,8.14-1.66,2.05-.23,4.13-.34,6.29-.23,2.13.13,4.23.37,6.27.88v.09Z"/><path class="cls-1" d="M411.31,283.73c-.27-.56-.53-1.13-.77-1.73-.16-.39-.15-.38-.18-.5-.04-.12-.04-.14-.04-.18-.01-.1-.02-.22,0-.36.01-.14.06-.3.17-.44-.1.06-.21.14-.35.24-.13.1-.28.23-.44.37-.03.02-.02.02-.1.1l-.26.27-.51.55c-.35.36-.68.74-1.01,1.11-1.39,1.53-2.6,3.2-3.83,4.83-2.15,2.88-4.07,5.93-5.35,9.21-1.29,3.25-2.07,6.84-1.55,10.12.27,1.47.81,2.88,1.57,4.17.8,1.27,1.81,2.39,2.93,3.38,1.46,1.24,3.19,2.17,5,2.79.9.32,1.81.67,2.76.88.47.13.95.24,1.43.35.24.04.49.17.74.25.25.08.5.11.76.21.64.2.95.33.94.42,0,.1-.31.22-.86.57-.55.35-1.37.94-2.46,1.28-1.08.3-2.41.41-3.8.17-4.8-1.2-9.21-4.49-11.41-9.14-1.12-2.29-1.68-4.85-1.65-7.37.04-.62.03-1.27.12-1.86l.27-1.76c.26-1.15.51-2.31.91-3.41,1.79-5.29,4.58-10.26,7.99-14.53,1.07-1.35,2.2-2.65,3.35-3.92.84-.91,3.15-3.38,4.91-5.05.96.4,1.41.27,2.02.26-.39.09-.53.42-.36.95.11.42.48,1.03.91,1.7l.27.39.04.61c.02.2,0,.42.08.55l.3.87c.19.49.31.78.49,1.18.34.75.74,1.49,1.15,2.23l1.3,2.27c.42.73.85,1.46,1.31,2.18,2.87,4.5,6.44,8.88,8.44,14.28.18.53.36,1.04.51,1.6.13.57.29,1.14.34,1.73.18,1.17.12,2.34,0,3.49-.32,2.3-1.16,4.5-2.41,6.45-.56.85-1.13,1.68-1.85,2.43-.66.7-1.29,1.2-1.83,1.59-.58.34-1.07.59-1.52.71-.45.12-.82.17-1.15.14-.34-.04-.64-.15-.92-.31-.26-.14-.55-.27-.73-.44-.58-.63.42-1.68,1.9-3.27,2.3-2.26,3.98-5.3,4.37-8.28.03-.37.1-.74.07-1.11v-.55s-.06-.54-.06-.54c-.01-.36-.12-.7-.19-1.05-.07-.35-.24-.79-.35-1.18-.55-1.61-1.33-3.2-2.25-4.8-1.36-2.37-3.02-4.73-4.66-7.24-.81-1.26-1.63-2.55-2.4-3.91-.67-1.19-1.48-2.54-2.18-3.95l.08-.05Z"/><path class="cls-1" d="M410.98,328.27c.02-2.14,0-4.29-.08-6.45-.03-.79-.18-1.56-.18-2.36-.01-2.8-.02-5.61-.04-8.41,0-1.25-.1-2.49-.21-3.72-.06-.79-.1-1.59-.11-2.38.04-.8.2-1.61.35-2.41.12-.5.42-.45.88-.06.44.39,1.2,1.11,1.57,1.98.23.78.42,1.57.58,2.35.12.79.25,1.58.34,2.37.2,1.59.34,3.19.27,4.83-.06,1.95.38,3.94.56,5.93.15,2.19.23,4.39.3,6.6l.08,4.08c.04,2.06-.03,4.13.01,6.18.01,1.6.26,3.17.32,4.78.02.35.08.7.05,1.06-.06,1.32-.41,1.71-1.6,1.84-.26.03-.5.09-.73.09-.71.03-1.62-.59-1.76-1.51-.52-2.74-.59-5.53-.65-8.38-.02-2.11,0-4.25-.07-6.4h.11Z"/><path class="cls-1" d="M432.77,430.16c-6.11.59-12.2.94-18.35.83-2.24-.04-4.48-.02-6.71-.2-3.94-.31-7.86-.83-11.75-1.66-1.94-.42-3.88-.92-5.79-1.56-1.91-.66-3.82-1.38-5.63-2.59-.79-.55-1.59-1.19-2.25-2.12-.33-.45-.59-1.03-.74-1.64-.13-.63-.14-1.28,0-1.87.26-1.22.97-2.14,1.67-2.87.72-.73,1.5-1.29,2.29-1.79,2.03-1.27,4.18-2.15,6.37-2.78,1.1-.3,2.19-.63,3.34-.72.57-.05,1.15-.04,1.72-.02.58.02,1.18.24,1.74.27,1.42.14,1.22.29.15.93-1.1.68-2.75,2.89-5.04,3.36-1,.32-1.99.67-2.94,1.06-.95.39-1.89.75-2.73,1.2-.85.43-1.61.94-2.12,1.42-.54.51-.63.84-.65.95-.1.02.13.54.72,1.08.6.53,1.42,1.05,2.32,1.51,1.8.93,3.85,1.61,5.94,2.2,5.04,1.41,10.62,1.74,16.04,1.94,5.97.23,11.98-.01,17.99-.51,3.69-.32,7.38-.74,11.01-1.38,2.75-.49,5.49-1.06,8.14-1.84,1.32-.39,2.62-.84,3.86-1.38,1.22-.54,2.42-1.18,3.29-1.97.69-.68.98-1.13.9-1.76-.09-.6-.5-1.13-1.18-1.63-1.37-.99-3.36-1.57-5.32-1.96-.87-.18-1.75-.27-2.65-.39-3.3-.68-4.37-1.12-5.1-2.05-.17-.21-.39-.41-.5-.61-.35-.62,1.13-1.32,3.91-1.61.51-.03,1.03-.06,1.55-.07h.78s.78.06.78.06c1.04.11,2.09.27,3.16.51,1.07.24,2.14.54,3.24,1,1.1.46,2.23,1.03,3.35,2.01.55.5,1.11,1.11,1.54,1.92.43.79.71,1.78.73,2.74,0,.99-.22,1.99-.72,2.87-.13.2-.31.45-.45.66-.13.19-.26.34-.39.48l-.4.43-.4.36c-1.09.92-2.11,1.55-3.16,2.09-1.04.53-2.08.98-3.11,1.36-3.07,1.13-6.14,1.86-9.22,2.47-3.08.59-6.16,1.04-9.24,1.39l-.02-.1Z"/><path class="cls-1" d="M425.86,421.25c-2.97.5-5.97.76-9,.74-3.03-.03-6.09-.35-9.1-1.16-1.5-.43-2.99-.93-4.43-1.64-.71-.37-1.42-.73-2.09-1.19-.33-.23-.68-.42-1-.69l-.48-.37-.3-.24c-.12-.09-.24-.19-.35-.3-.46-.45-.75-1.05-.97-1.63-.17-.45-.28-.85-.38-1.25-.2-.79-.33-1.53-.46-2.27-.24-1.48-.41-2.94-.57-4.39-.43-4.23-.79-8.42-.99-12.62-.34-7.4-.48-14.8-.59-22.19-.09-7.39-.11-14.78.05-22.18l.14-5.28c.04-1.25.09-2.66.56-3.47.11-.21.22-.39.37-.57.09-.12.23-.07.35-.06l.37.04,1.47.16c.58.22,1.14.45,1.74.64l1.24.37c.73.24,1.49.37,2.24.55.74.19,1.51.28,2.27.4.75.14,1.52.2,2.28.27,4.01.39,8.08.06,12.07-.62,4-.69,7.87-1.86,11.81-2.99,1.26-.29,1.87-.33,1.92-.14.06.2-.42.66-1.24,1.54-.83.86-2.12,1.95-3.84,2.97-.86.5-1.82,1.03-2.89,1.46-1.07.4-2.23.78-3.47,1.03-4.04.89-8.21,1.29-12.39,1.12-1.05-.02-2.09-.11-3.14-.23-1.05-.07-2.09-.3-3.12-.48-1.03-.21-2.06-.48-3.08-.75l-1.52-.49c-.05-.02-.04-.02-.06-.03l-.07-.05s-.02.03-.03.05l-.03.08c0-.1-.03.34-.05.58-.03.28-.03.56-.05.84-.1,2.26-.16,4.54-.22,6.83-.11,4.58-.17,9.17-.22,13.78-.12,10.25.45,20.93,1.15,31.36.2,2.86.43,5.73.76,8.55.17,1.41.36,2.81.62,4.16.13.66.29,1.33.47,1.86.08.22.1.29.2.41.05.05.1.09.19.16l.38.3c2.09,1.56,4.63,2.57,7.28,3.16,2.67.58,5.46.77,8.25.69,3.25-.1,6.51-.54,9.69-1.27,1.59-.38,3.16-.81,4.68-1.35.76-.27,1.5-.57,2.18-.91.34-.17.67-.35.93-.53.2-.13.36-.26.46-.46l.11-.28c.03-.11.07-.3.11-.45.25-1.16.38-2.49.47-3.79.1-1.31.14-2.65.17-3.98.06-2.67.06-5.36,0-8.04-.12-5.37-.35-10.73-.68-16.06-.51-8.29-1.36-16.39-2.12-24.56-.18-1.8-.35-3.56-.53-5.38-.59-6.73-.51-8.9.37-10.43.2-.35.39-.8.6-1.01.72-.71,1.57,1.98,2.21,6.91.93,7.3,1.76,14.81,2.39,22.46.62,7.64,1.11,15.41,1.41,23.22.13,3.69.23,7.39.25,11.12,0,1.87-.02,3.74-.11,5.66-.04.95-.12,1.93-.23,2.93-.08.53-.11,1-.24,1.58l-.2.88c-.13.39-.31.84-.47,1.26-.12.22-.31.41-.45.63-.15.21-.35.37-.53.56-.17.19-.38.35-.59.5-.17.12-.33.24-.47.32-.59.37-1.15.65-1.69.9-1.09.5-2.16.91-3.24,1.26-2.14.73-4.31,1.21-6.49,1.6l-.03-.1Z"/><path class="cls-1" d="M422.46,265.22c.14.29-.17.55-.68.8-.16.08-.65.09-.73,0-.15-.17-.31-.34-.43-.51-.07-.1-.56-1.84-.74-2.46-.21-.59-.2-1.18-.19-1.77.04-1.19.08-2.39.23-3.59.03-.27.1-.53.21-.77.39-.85.56-1.73.72-2.64.03-.15.09-.29,0-.47-.18-.3.6-2.68.83-2.94.53-.65.98-1.32,1.49-1.95.08-.09.1-.21.3-.23.46-.04.52-.28.67-.47.19-.28.46-.51.75-.73.14-.11.42-.14.7-.16.25-.03.43.17.46.24.05.19.27.18.39.24.05.02.1.05.14.08.02.02.13.21.18.43.03.22.06.5.09.77.05.56.1,1.11.06,1.2,0,.01-.04.18-.1.42-.08.24-.18.55-.29.87-.19.65-.38,1.32-.39,1.47-.02.15-.15.26-.26.38-.07.05-.42,2.05-.44,2.12-.16.39-.17.81-.6,1.13-.08.06-.09.15-.11.23-.15.7-.46,1.37-.69,2.06-.12.35-.15.73-.23,1.09-.01.07-.07.12-.1.19-.04.08-.09.16-.1.24-.13.87-.35,1.74-.38,2.62-.03.2-.45,1.17-.43,1.41,0,.13-.42.57-.36.69Z"/><path class="cls-1" d="M426.9,267.37c-.1.26-.47.12-.95-.2-.15-.1-.48-.53-.47-.63,0-.21.01-.42.04-.6.03-.1.77-1.3.98-1.75.25-.38.57-.68.91-.96l2-1.76c.15-.13.32-.23.51-.3.66-.26,1.19-.68,1.67-1.16.08-.08.18-.14.19-.3,0-.13.36-.49.75-.83.39-.33.84-.59.97-.63.62-.16,1.19-.4,1.77-.62.08-.03.13-.12.27-.06.33.12.46,0,.63-.08.24-.1.49-.2.76-.26.13-.03.33.01.5.03.16.02.33.33.32.39-.02.16.16.24.26.35.03.04.08.09.1.12.02.04-.13.44-.27.88-.15.43-.28.92-.36.95-.01.01-.38.42-.77.85-.38.43-.77.89-.84.99-.07.11-.22.14-.34.18-.03.05-1.23,1.27-1.29,1.31-.3.18-.51.49-.96.48-.09,0-.14.05-.19.1-.45.4-1,.69-1.52,1-.27.16-.49.38-.74.56-.04.03-.11.03-.17.05-.07.02-.15.04-.2.08-.56.47-1.23.8-1.74,1.34-.12.12-1.02.28-1.15.42-.08.07-.64-.06-.68.05Z"/><path class="cls-1" d="M429.14,272.94c-.18.11-.3-.17-.37-.65-.02-.15.03-.6.08-.66.11-.12.22-.24.32-.32.06-.05,1.03-.27,1.36-.39.32-.11.63-.14.95-.15l1.9-.1c.14,0,.28.02.41.08.46.19.94.24,1.42.21.08,0,.16.02.25-.09.15-.18,1.44-.12,1.6-.02.39.25.8.41,1.2.62.06.04.12,0,.16.15.09.35.22.31.35.36.17.06.35.14.51.27.08.06.15.25.22.4.07.14-.02.59-.06.64-.09.14-.05.36-.06.55,0,.06,0,.15-.02.2-.02.1-1.13.88-1.25.89-.03.05-1.54.06-1.72.11-.09.02-.17-.07-.26-.13-.04-.02-1.26.06-1.3.05-.24-.07-.5,0-.72-.29-.04-.06-.09-.05-.14-.05-.43-.04-.84-.24-1.25-.38-.21-.08-.43-.09-.65-.13-.04,0-.07-.05-.11-.08-.05-.03-.09-.07-.14-.08-.51-.08-1.01-.3-1.53-.31-.12,0-.66-.35-.79-.35-.08,0-.29-.37-.37-.33Z"/><path class="cls-1" d="M273.65,324.79c.02-.23.24-.33.57-.34.1,0,.35.13.37.2.03.14.06.27.06.4-.01.08-.22,1.14-.2,1.51-.02.35-.05.7-.09,1.04-.07.69-.07,1.39,0,2.07,0,.15,0,.3-.02.46-.11.53-.07,1.07.05,1.58.02.09.03.18.1.25.09.13.48,1.48.51,1.67.05.47.16.93.3,1.39.02.07.07.12.04.2-.07.21.02.32.09.45.08.19.18.37.25.57.04.1.02.24.01.37,0,.12-.23.22-.27.21-.12-.03-.17.1-.24.17-.03.02-.06.05-.08.07-.06.05-1.16-.81-1.22-.97-.02-.01-.28-.43-.55-.89-.25-.46-.5-.96-.55-1.06-.06-.11-.06-.23-.07-.35-.04-.04-.58-1.55-.57-1.62-.06-.32-.17-.65-.06-.99.02-.07,0-.13,0-.2-.04-.28-.05-.56-.06-.85,0-.28.07-.57.1-.84.03-.3.06-.57.09-.85,0-.05.04-.1.05-.15.02-.06.06-.12.07-.19.1-.67.32-1.31.49-1.96.03-.16.44-.79.49-.96.02-.1.35-.31.36-.4Z"/><path class="cls-1" d="M279.9,347.56c-.13-.05-.11-.21-.02-.43.03-.07.19-.21.23-.21.09,0,.19.02.27.04.05.01.65.4.86.52.21.12.39.26.56.41.17.15.35.31.59.4.23.1.37.29.56.43.08.07.14.15.2.24.18.32.44.56.72.78.05.04.08.08.17.08.07,0,.29.15.49.33.18.19.36.4.38.46.12.31.28.59.42.88.02.04.07.06.04.14-.06.18.03.23.08.31.08.11.15.22.2.36.03.07,0,.18,0,.28,0,.09-.21.24-.24.24-.1.01-.15.13-.22.2-.02.03-.05.06-.08.08-.05.04-.89-.21-.95-.26,0,0-.23-.18-.47-.36-.24-.18-.49-.37-.55-.4-.06-.03-.08-.11-.11-.17-.03-.01-.72-.59-.73-.62-.11-.15-.27-.25-.28-.49,0-.05-.03-.07-.06-.1-.22-.23-.39-.5-.57-.77-.08-.14-.23-.22-.29-.39-.01-.03-.01-.07-.02-.1-.01-.04-.02-.09-.03-.12-.23-.31-.45-.63-.72-.9-.06-.06-.25-.47-.33-.53-.04-.04-.05-.29-.1-.31Z"/></svg>