<?xml version="1.0" encoding="UTF-8"?><svg id="Layer_1" xmlns="http://www.w3.org/2000/svg" width="520" height="520" viewBox="0 0 520 520"><defs><style>.cls-1,.cls-2{fill:#231f20;}.cls-3{fill:#242021;}.cls-4{opacity:.4;}.cls-5{opacity:.35;}.cls-6{opacity:.2;}.cls-7{opacity:.3;}.cls-2{opacity:.55;}</style></defs><g class="cls-6"><path class="cls-3" d="M416.03,415.09l-1.26.23c-11.34,1.93-22.76,3.31-34.19,3.51-11.43.22-22.83-.75-34.09-2.99-11.14-2.16-22.12-5.46-33.25-8.61l-2.09-.59-1.05-.3-1.13-.28c-1.5-.41-3.01-.67-4.53-.95-3.03-.47-6.06-.71-9.05-.81-5.98-.15-11.8.19-17.52.39-5.72.2-11.33.27-16.94-.17-5.74-.41-11.34-.9-16.85-1.9-5.52-.98-11.02-2.4-16.52-3.95-5.51-1.55-10.93-3.27-16.37-5.11-10.88-3.68-21.74-7.73-33.11-10.78-11.35-3.03-23.18-4.75-35.01-4.65-5.91.05-11.8.5-17.62,1.29l-2.19.3-2.24.38c-1.49.29-2.96.62-4.42,1-2.91.75-5.67,1.76-8.39,2.66-2.71.91-5.38,1.76-8.09,2.44-2.71.69-5.46,1.22-8.24,1.62-5.54.82-11.19,1.01-16.8.64h-.02c-2.64-.2-4.85-.49-5.22-.48-1.41.04-2.84.05-4.25-.08-2.45-.27-4.9-.77-7.22-1.7l-.88-.34-.84-.42c-.55-.3-1.16-.53-1.66-.91-.52-.37-1.04-.73-1.53-1.14-.46-.45-.9-.91-1.34-1.37-.39-.41-.05.04.98,1.36.3.44.71.75,1.07,1.14l.14.14c0,.1.09.1.12.16l.3.26c.19.18.4.34.61.49.85.6,1.68,1.24,2.59,1.73.45.26.89.54,1.35.77l1.4.68c.93.49,1.9.81,2.86,1.22,2.02.77,5.96,1.94,10.32,2.45,6.51.8,13.11.82,19.64.08,3.26-.36,6.52-.92,9.73-1.67,3.2-.75,6.34-1.68,9.38-2.56,3.05-.87,5.99-1.69,8.96-2.27,1.48-.29,2.98-.5,4.55-.69,1.55-.22,3.11-.38,4.66-.53,6.22-.62,12.46-.78,18.67-.46,12.45.6,24.67,3.41,36.64,7.35,12.02,3.89,23.95,8.58,36.35,12.27,6.17,1.84,12.4,3.59,18.84,4.87,6.44,1.32,13.01,1.93,19.38,2.42,6.54.52,13.12.44,19.52.18,6.4-.24,12.69-.57,18.73-.08,3.02.24,5.98.68,8.82,1.46,1.45.37,3.04.85,4.55,1.27l4.6,1.31c6.13,1.77,12.33,3.5,18.6,5.06,6.27,1.55,12.64,2.88,19.08,3.93l4.85.64,2.43.31,2.44.21,4.88.42,4.89.2c.94.03,1.86.06,2.72.09.86,0,1.66-.03,2.38-.06,1.43-.06,2.52-.13,3.05-.22,1.7-.27,3.39-.54,5.07-.93,1.41-.3,1.92-.57,1.52-.78l-1.27-.68c-.11-.06.34-.15,1.24-.25,2.67-.29,5.34-.55,7.98-1.01,2.17-.34,3.28-.6,3.09-.75-.24-.19.83-.5,2.93-.89,2.09-.46,5.21-1.06,9.09-1.71,1.11-.17,2.2-.44,3.31-.65,2.37-.49,4.15-.91,4.92-1.18.77-.27.48-.35-.81-.24-1.14.1-.7-.11,1.05-.5,1.86-.42,2.94-.73,3.19-.91.24-.18-.33-.14-1.81,0l-3.02.33c-.97.11-1.24.07-.73-.1.51-.17,1.73-.45,3.29-.76,2.92-.57,5.8-1.32,8.71-1.97,2.38-.46,3.98-.77,3.89-.91-.07-.06-1.83.02-4.25.44l-5.33,1.08c-2.68.57-5.45.97-8.22,1.5"/></g><path class="cls-1" d="M437.51,399.72s9.5,2.31,9.5,5.92-25.16,6.92-25.16,6.92l9.38-6.92,6.28-5.92Z"/><path class="cls-1" d="M97.35,387.89s13.77-1.12,16.6-3.99c1.96-2-5.94-2.84-5.94-2.84l-10.66,6.83Z"/><path class="cls-1" d="M114.2,376.65c-.33.02-.62-.08-.87-.27-.13-.09-.25-.19-.36-.29-.12-.08-.21-.26-.32-.34-.13-.12-.08-.28.12-.39l.29-.15c.1-.03.19-.06.28-.08.2-.06.39-.12.57-.17.23.02,3.7-.11,4.87-.18,1.13-.05,2.27-.08,3.41-.09,2.32-.05,4.64-.19,6.98-.38.52-.04,1.04-.05,1.57-.04,1.8.04,3.6-.1,5.4-.27.3-.03.61-.03.9-.15.23-.1,1.58-.22,2.96-.3,1.38-.07,2.79-.09,3.11-.06.81.08,1.61.15,2.41.23.8.1,1.6.2,2.4.29.23.02.48.01.68.14.47.3.96.3,1.45.36.68.07,1.36.23,2.03.41.33.08.63.32.94.49.28.16.06.48-.05.51-.32.07-.1.28-.1.43,0,.05,0,.12-.02.16-.01.02-.27.06-.65.12-.38.03-.87.05-1.38.07-1.01.05-2.07.15-2.27.13-.03,0-.38-.04-.93-.03-.54,0-1.26,0-2-.01-1.48.04-3.01.1-3.33.15-.33.03-.66-.02-.99-.05-.15-.05-4.61.41-4.79.42-.93.03-1.86.19-2.8.03-.19-.03-.37,0-.56.01-1.61.15-3.22.18-4.85.22-.83.04-1.66.09-2.49.13-.15,0-.3-.02-.45-.03-.19,0-.38-.04-.57-.03-1.97.08-3.95,0-5.95,0-.23,0-.89-.07-1.55-.18-.67-.11-1.33-.29-1.6-.3-.3-.02-1.21-.51-1.47-.51Z"/><path class="cls-1" d="M185.64,382.88c-.23.07-.42-.22-.58-.46-.05-.08-.04-.29.02-.34.12-.09.24-.21.36-.32.09,0,1.2-.69,1.54-.82.34-.18.69-.31,1.03-.43.35-.12.68-.28,1.01-.42.34-.13.67-.26,1-.41.15-.06.3-.1.47-.12.61-.07.96-.29,1.71-.72.13-.07.28-.11.4-.26.05-.06.25-.17.6-.25.34-.09.89-.11,1.32-.02.89.19,1.32.49,1.41.55.4.41.83.77,1.25,1.15.06.05.15.06.16.19.03.31.2.34.33.46.19.15.37.3.53.5.07.11.1.31.15.46.04.14-.14.38-.19.4-.14.05-.13.22-.18.34-.02.04-.04.1-.06.13-.05.08-1.63.26-1.75.16-.02,0-.49-.17-.99-.34-.5-.16-1.03-.35-1.09-.35-.09-.01-.13-.1-.17-.16,0,0-.06-.02-.11-.02-.02,0-.04,0-.05.02,0,.1,0-.23,0-.05,0,.12.01.11,0,.12,0,.01-.03.03-.05.04-.04.03-.09.07-.1.07-.17.03-.38.26-.82.22-.08,0-.14.03-.21.07-.54.3-1.15.46-1.75.61-.3.08-.59.2-.89.28-.05.02-.12,0-.18,0-.07,0-.15-.02-.22,0-.72.16-1.47.14-2.18.26-.08.01-.33-.02-.58-.07-.25-.04-.5-.16-.59-.16-.11-.01-.46-.33-.55-.3Z"/><path class="cls-1" d="M185.48,382.92c-.39.07-.74-.17-1.05-.46-.1-.09-.1-.37.01-.43.24-.13.48-.26.66-.36.07-.01.64-.27,1.31-.4.67-.13,1.43-.25,1.83-.31.76-.12,1.55-.14,2.35-.07.81.07,1.64.18,2.46.4.82.23,1.64.57,2.36.96.32.17.62.38.89.61.92.8,1.8,1.43,2.75,1.96.16.09.3.2.51.21.33.03,2.87,1.49,3.18,1.72.73.63,1.52,1.17,2.3,1.74.11.09.25.12.31.29.12.4.41.5.66.65.35.22.71.42,1.02.73.16.14.27.39.4.59.12.19-.13.49-.2.51-.22.04-.16.27-.21.43-.02.05-.04.12-.07.16-.02.03-.7.05-1.39-.03-.68-.08-1.39-.19-1.51-.25-.09.04-3.35-1.53-3.72-1.72-.2-.09-.35-.26-.51-.41-.09-.05-2.63-1.43-2.72-1.52-.47-.36-1.03-.64-1.36-1.18-.06-.11-.17-.16-.26-.23-.82-.55-1.52-1.15-2.26-1.6-.38-.23-.78-.37-1.2-.52-.07-.03-.14-.09-.21-.13-.09-.05-.18-.12-.28-.15-1.02-.31-2.12-.61-3.27-.62-.26-.02-1.54-.3-1.86-.26-.17.03-.77-.35-.93-.3Z"/><path class="cls-1" d="M181.41,382.97c-.27.08-.53.07-.78.02-.26-.09-.52-.22-.79-.34-.17-.08-.24-.37-.08-.5.3-.23.63-.51,1-.63.11-.04,1.07-.27,2.18-.28,1.11-.04,2.32.12,2.93.21,1.18.17,2.3.52,3.37.93,2.15.82,4.24,1.72,6.3,2.67.46.21.9.45,1.32.71,1.46.91,2.98,1.66,4.51,2.38.26.12.5.26.79.29.47.08,4.57,1.98,5.08,2.23,1.25.74,2.56,1.36,3.88,1.93.19.09.4.12.55.3.33.42.77.51,1.2.65.59.2,1.16.5,1.75.72.29.12.56.32.85.49.26.15.07.39-.04.41-.3.04-.09.22-.09.35,0,.04,0,.1-.01.13-.01.02-.25.03-.63.06-.37.02-.88.08-1.4.1-1.04.08-2.12-.03-2.32-.08-.03,0-.39-.08-.92-.2-.53-.13-1.22-.36-1.93-.57-1.41-.45-2.85-.98-3.15-1.09-.31-.1-.59-.29-.87-.47-.15-.06-4.18-1.73-4.32-1.83-.79-.43-1.64-.73-2.3-1.38-.13-.13-.29-.2-.45-.28-1.36-.7-2.64-1.51-3.95-2.27-.67-.38-1.37-.71-2.05-1.05-.12-.06-.23-.15-.35-.23-.15-.09-.29-.2-.45-.27-1.64-.76-3.24-1.64-4.91-2.08-.18-.07-.72-.26-1.27-.45-.55-.18-1.12-.3-1.34-.3-.24-.03-1.07-.34-1.3-.27Z"/><g class="cls-4"><path class="cls-1" d="M218.82,398.03c-2.79-1.17-5.59-2.48-8.32-4.58-1.33-1.1-2.74-2.42-3.73-4.47-.26-.48-.41-1.11-.58-1.66-.12-.59-.19-1.23-.2-1.84.06-1.27.3-2.36.78-3.35.67-1.48,1.66-2.68,2.71-3.61,1.06-.94,2.18-1.58,3.3-2.09,1.99-.87,3.96-1.39,5.9-1.74,1.94-.35,3.86-.57,5.76-.64,3.81-.15,7.56-.01,11.27.35,3.27.4,6.62.86,9.78,1.54,4.07.77,8.19,1.72,11.97,3.84.58.35.78.62.71.67-.07.08-.39-.03-.95-.08-.55-.07-1.35-.07-2.29-.04-.49.03-1,.05-1.54.08-.27.02-.55,0-.84.05-.28-.03-.57-.03-.86-.05-4.14-.14-8.4-.64-12.36-.7-4.05.02-8.1-.27-12.16-.26-2.42.02-4.88.3-7.22.82-2.31.54-4.58,1.36-6.14,2.46-.85.61-1.4,1.26-1.69,1.93-.11.39-.2.66-.16.94,0,.07,0,.14,0,.22.03.08.06.15.08.23,0,.16.14.34.22.52.39.74,1.23,1.58,2.21,2.3.97.75,2.11,1.42,3.29,2.03,2.93,1.52,6.17,2.7,9.45,3.72,4.99,1.52,10.16,2.77,15.33,3.6,4.02.64,8.04.8,12.06,1.09.88.08,1.75.11,2.64.22.82.1,1.5.21,2.07.33.56.14,1.01.34,1.38.54.73.39,1.13.87,1.43,1.53.13.3.32.6.39.87.12.47-.18.86-.83,1.21-.64.33-1.64.66-2.9.81-1.85.12-3.73.19-5.63.2-1.89-.07-3.79-.19-5.7-.38-3.82-.37-7.68-.94-11.54-1.69-5.73-1.12-11.44-2.59-17.14-4.78l.05-.15Z"/></g><path class="cls-1" d="M244.11,378.59c-2.24-.48-4.5-.93-6.77-1.28-.83-.14-1.66-.2-2.49-.34-2.92-.48-5.86-.89-8.81-1.13-1.31-.12-2.63-.14-3.94-.19l-2.52-.05-1.26-.03c-.42,0-.84-.12-1.26-.18-.53-.1-.46-.17-.02-.36.3-.14.61-.28.91-.42.38-.14.83-.22,1.32-.26,3.46-.24,6.93-.13,10.39.26,2.07.24,4.24.34,6.36.58,2.33.3,4.64.7,6.94,1.14,1.42.27,2.83.57,4.24.87,2.14.46,4.26,1,6.37,1.5,1.63.41,3.26.72,4.88,1.14.36.09.71.16,1.06.27,1.31.41,1.68.71,1.83,1.2.03.11.09.23.1.33.03.34-.59.45-1.59.33-1.47-.23-2.95-.52-4.45-.83-1.5-.31-3.02-.61-4.53-.99-2.24-.54-4.5-1.06-6.77-1.51v-.05Z"/><path class="cls-1" d="M236.64,370.29c-1.82-.04-3.63-.04-5.45-.03-.66,0-1.32.03-1.99.03-2.34,0-4.68.05-7.01.17-1.04.05-2.08.15-3.1.24-1.32.13-2.63.34-3.97.28-.43-.16-.36-.04-.04-.25.33-.19.94-.5,1.7-.64,2.69-.35,5.4-.59,8.13-.66,1.64-.04,3.33-.18,5.01-.24,1.84-.07,3.68-.05,5.52-.02l3.4.08c1.71.06,3.43.13,5.13.19,1.32.06,2.62.02,3.93.12.29.02.57.03.86.05,1.07.1,1.41.2,1.62.42.05.05.11.1.14.15.09.16-.36.27-1.15.29-2.34.12-4.79,0-7.25-.05-1.83-.05-3.66-.1-5.49-.11v-.03Z"/><path class="cls-1" d="M217.05,371.64c3.25-.24,6.5-.27,9.74-.14,1.18.09,2.36,0,3.53.15,4.14.47,8.21,1.3,12.19,2.36.88.24,1.76.49,2.64.75.88.24,1.76.49,2.62.77,1.11.33,2.21.73,3.28,1.18.54.22,1.08.44,1.59.71.53.25,1,.62,1.5.92.61.42.47.48-.21.56-.43.05-.91.11-1.4.17-.56.04-1.17-.03-1.82-.14-1.14-.23-2.27-.46-3.4-.66-1.11-.28-2.23-.5-3.35-.74-2.24-.44-4.45-1-6.71-1.52-2.7-.65-5.59-.66-8.4-.8-3.1-.18-6.21-.16-9.32.06-.96.05-1.91.14-2.86.25-.96.09-1.9.23-2.85.38-2.84.51-5.85.89-8.26,2.09-.93.46-1.74,1.1-2.34,1.82-.58.7-.95,1.56-1.16,2.4-.09.37-.12.73-.14,1.09-.02,1.28-.13,1.64-.74,2.4-.14.17-.25.37-.38.52-.23.26-.55.3-1,.06-.42-.24-.97-.8-1.26-1.7-.38-1.33-.35-2.75,0-4.07.4-1.31,1.09-2.54,2.09-3.59,1.91-1.99,4.38-3.01,6.6-3.66,3.29-.93,6.49-1.37,9.79-1.71l.02.1Z"/><path class="cls-1" d="M213.61,373.61c3.08-.55,6.15-.9,9.22-1.12,1.12-.09,2.23-.23,3.35-.28,3.95-.11,7.91.17,11.83.7.87.11,1.74.2,2.61.4.86.18,1.73.27,2.58.52,1.09.29,2.21.46,3.23,1.01.51.25,1.04.45,1.52.77.47.32.94.64,1.41.96.57.41.39.49-.25.49-.67.01-1.74-.07-2.99-.11-2.12-.25-4.21-.59-6.35-.71-1.06-.11-2.14-.2-3.21-.33-1.08-.11-2.17-.18-3.26-.31-2.63-.19-5.38.03-8.07.26-2.96.2-5.93.53-8.85,1.05-.9.14-1.8.32-2.68.53-.9.18-1.76.43-2.62.68-.67.17-1.26.44-1.91.64-.33.1-.58.26-.88.38-.28.14-.58.25-.84.43-1.07.66-2.02,1.55-2.64,2.59-.49.8-.72,1.71-.72,2.56.01.81.27,1.63.7,2.31.19.3.42.55.65.79.42.45.71.67.89.94.18.26.24.61.3,1.09.02.22.09.44.11.64.03.35-.15.62-.63.8-.46.17-1.21.12-2-.3-2.33-1.27-3.82-3.88-3.67-6.81.09-1.39.54-2.74,1.21-3.88.66-1.16,1.53-2.14,2.49-2.97.72-.62,1.49-1.15,2.34-1.56.86-.48,1.63-.73,2.43-1.04,1.59-.52,3.14-.89,4.69-1.21l.03.09Z"/><path class="cls-1" d="M302.76,346.04c-4.67-1.08,50.8-90.17,57.67-100.63,0,0,5.56-8.31,9.6-11.29,8.75-6.46,40.86,11.95,51.07,11.95,10.92,0,22.78-21.84,28.42-17.88,5.65,3.95,17.75,22.3,14.68,24.31-4.52,2.95-14.21-4.01-14.21-4.01,0,0-7.7-2.33-13.65,5.67-5.96,7.99-9.16,22.71-15.75,19.18-3.51-1.88-16.25-8.16-23.08-14.34-3.86-3.49-3.89,3.84-4.35,9.02-1.12,12.68-2.93,32.24-4.05,39.69-1.71,11.4-1.71,39.4-8.68,40.96-40.28,9.02-70.27.98-70.43.94l-7.25-3.56Z"/><path class="cls-1" d="M227.54,370.18c7.95-.12,11.13-.95,17.57-1.8,29.14-3.87,40.71-11.04,40.71-11.04,0,0,24.84,9.08,34.94,11.04,10.1,1.96,36.73,3.56,45.18.47s17.64-5.16,17.64-5.16c0,0,28.15,8.88,39.89,24.2,11.74,15.32-5.25,24.66-14.84,26.06-9.6,1.39-22.95,4.21-34.23,3.08s-48.93-6.65-48.93-6.65l-44.8-20.41s-34.24-14.28-48.29-16.01c-2.14-.26-7-3.75-4.85-3.78Z"/><g class="cls-5"><path class="cls-1" d="M86.27,319.75c.03-1.5-.29-3.04-.87-4.54-.22-.55-.5-1.07-.76-1.61-.9-1.91-1.98-3.83-3.07-5.75-.5-.85-.99-1.71-1.48-2.55-.6-1.1-1.26-2.24-1.31-3.57,0-.42.03-.36.34-.13.37.22.88.64,1.3,1.2,1.22,2.11,2.65,4.12,3.94,6.35.76,1.33,1.73,2.64,2.46,4.1.8,1.59,1.43,3.33,1.67,5.16.12,1.12.15,2.28-.03,3.4-.25,1.71-.91,3.31-1.75,4.78-.64,1.15-1.39,2.24-2.35,3.17-.21.2-.42.41-.66.59-.22.16-.43.27-.6.36-.18.07-.37.07-.52.05-.31-.04-.53-.14-.73-.29-.09-.07-.2-.13-.26-.19-.11-.11-.1-.28-.04-.52.07-.24.18-.57.36-.9.67-.76,1.3-1.51,1.83-2.33.53-.82,1.1-1.62,1.5-2.53.61-1.33,1-2.78.97-4.26h.06Z"/></g><path class="cls-1" d="M81.49,326.28c-.19-.6-.3-1.2-.37-1.77-.03-.21-.09-.4-.1-.61-.03-.73,0-1.44.03-2.12.01-.3,0-.61,0-.9-.01-.38-.03-.76.04-1.15.02-.12.15-.11.29-.02.14.09.32.27.37.48.16.76.32,1.5.36,2.25.02.45.21.89.35,1.3.15.47.31.91.52,1.34.13.26.27.52.42.76.24.37.5.74.85.98.28.19.63.23.94.26.07,0,.14,0,.2.01.22.08.24.22.13.81l-.07.38c-.08.4-.32.76-.64.79-.95.11-1.78-.49-2.36-1.13-.43-.5-.77-1.05-1-1.63l.04-.02Z"/><path class="cls-1" d="M79.47,328.39c-.46.25-.96.42-1.46.51-.18.03-.35.1-.53.1-.64,0-1.27-.08-1.81-.37-.25-.11-.47-.21-.71-.32-.29-.14-.59-.3-.77-.6-.06-.09.06-.21.24-.31.17-.1.4-.21.55-.19.52.13,1,.08,1.46.26.29.13.6.02.89-.03.32-.05.64-.15.94-.3.19-.09.37-.21.53-.35.24-.21.49-.45.61-.75.09-.24.1-.5.11-.74,0-.05,0-.11,0-.16.06-.18.18-.22.6-.22h.28c.31,0,.56.14.67.38.26.69.12,1.5-.36,2.05-.32.43-.75.78-1.2,1.06l-.03-.03Z"/><path class="cls-1" d="M97.01,359.68c-.43-.3-.82-.67-1.13-1.04-.12-.13-.26-.24-.36-.39-.37-.5-.61-1.06-.84-1.59-.11-.23-.23-.45-.36-.67-.16-.27-.33-.54-.4-.87-.02-.1.13-.17.32-.19.19-.02.44.01.57.15.43.48.84.95,1.13,1.48.19.31.46.57.71.82.27.29.55.55.87.76.19.13.4.25.62.34.33.13.68.25,1.02.24.27,0,.51-.21.72-.29.05-.02.09-.06.13-.08.18-.05.27.02.51.4l.16.25c.18.28.2.58.02.8-.53.67-1.45.74-2.18.56-.56-.12-1.06-.36-1.51-.64l.02-.04Z"/><path class="cls-1" d="M64.96,374.08c-.56.3-6.59,2.54-5.25,4.64,1.94,3.04,10.89,4.21,14.28,4.02,3.39-.19-5.97-2.84-5.97-2.84l-3.07-5.81Z"/><path class="cls-1" d="M88.67,382.76s8.68,0,11.92-4.07c1.7-2.14-4.37-3.99-4.37-3.99l-7.55,8.06Z"/><path class="cls-1" d="M71.36,357.08c-.38.89-3.95,19.62-.38,22.82,1.84,1.64,16.69,2.02,19.99,0s3.74-8.23,3.74-8.23c0,0,.35-11.09-2.94-9.6-3.29,1.5-5.17,3.48-5.73,2.38s-3.09-7.37-3.09-7.37c0,0-1.49,8.11-4.1,8.63s-4.48.6-4.48.6l-3.01-9.22Z"/><path class="cls-2" d="M185.72,239.19s2.32-1.48,5.69,1.08c5.13,3.91,16.18,17.52,15.99,26.59-.19,9.07-2.57,6.72-7.75,8.21s-15.84-.57-16.48-5.28,11.57-6.8,11.57-6.8c0,0,2.14-5.54-.4-10.5-2.55-4.96-8.62-13.31-8.62-13.31Z"/><g class="cls-7"><path class="cls-1" d="M130.19,277.05c-5.11,2.59-9.86,5.93-14.09,9.83l-1.15,1.08c-.37.37-.72.77-1.08,1.15-.7.78-1.45,1.52-2.11,2.33-2.5,2.73-4.67,5.74-6.58,8.91-1.92,3.16-3.48,6.55-4.61,10.08-.57,1.55-.86,3.18-1.23,4.78-.15.81-.23,1.63-.34,2.44l-.16,1.22c-.03.41-.04.82-.06,1.22-.21,4.19-.04,8.35.16,12.66-.16,1.4-.04,1.2-.7.18-.35-.51-.77-1.25-1.33-2.17-.29-.46-.48-.98-.69-1.54-.21-.56-.4-1.16-.56-1.8-.31-1.13-.34-2.28-.48-3.43-.05-.58-.13-1.16-.17-1.73l.09-1.74.1-1.74c.05-.58.15-1.15.23-1.72.17-1.15.3-2.3.6-3.42.98-4.52,2.64-8.89,4.96-12.87,2.75-4.75,5.95-9.48,9.8-13.52,4.24-4.42,9.05-8.27,14.3-11.35,3.2-1.95,6.62-3.52,10.08-4.92,5.28-2.06,10.86-3.39,16.46-3.99,4.35-.44,8.7-.54,13.05.08.96.14,1.91.22,2.85.49.88.22,1.61.42,2.21.61.6.2,1.05.45,1.42.66.74.43,1.08.89,1.26,1.44.09.25.23.51.25.72.08.67-1.51.87-3.87.24-7.14-1.48-14.85-1.58-22.39.04-5.6,1.14-11.05,3.19-16.16,5.87l-.05-.07Z"/></g><g class="cls-7"><path class="cls-1" d="M140.3,306.5c-3.05,5.98-5.09,12.5-6.05,19.19l-.23,1.84-.13,1.85c-.11,1.23-.1,2.46-.17,3.7-.05,1.09-.02,2.18-.04,3.27.03,1.07.12,2.13.17,3.2.15,1.06.28,2.12.44,3.18.24,1.05.42,2.11.69,3.15,1.1,4.17,2.75,8.24,4.94,12.02,1.93,3.36,4.37,6.45,7.12,9.14.87.87,1.81,1.67,2.73,2.49.99.74,1.91,1.56,2.93,2.24l1.52,1.05c.47.41,1,.72,1.5,1.08,1.01.72,2.04,1.39,3.05,2.2,1.25,1.02,1.1.93-.34.85-1.46.02-4.33-.06-7.02-1.65-4.64-2.9-8.75-6.65-11.94-11.07-3.23-4.39-5.79-9.29-7.36-14.53-.89-3.15-1.63-6.39-2.06-9.72-.35-3.38-.37-6.66-.17-9.95.5-7.21,2.2-14.32,4.93-20.98,1.7-4.09,3.83-8,6.3-11.67,3.73-5.56,8.39-10.51,13.62-14.61,4.08-3.16,8.4-5.99,13.34-7.77,1.08-.41,2.16-.75,3.3-1.04,1.06-.24,1.96-.37,2.71-.46.76-.04,1.38-.04,1.88,0,1.02.1,1.6.48,2.05.99.21.23.47.45.58.67.19.37-.15.72-.86,1.06-.35.19-.81.31-1.34.44-.53.16-1.15.31-1.84.43-8.21,1.82-16,6.77-22.41,13.1-2.37,2.36-4.55,4.95-6.54,7.67-1.98,2.74-3.71,5.65-5.2,8.69l-.09-.04Z"/></g><g class="cls-7"><path class="cls-1" d="M240.54,295.07c3.01,4.49,5.55,9.27,7.42,14.3.32.93.67,1.84,1.01,2.75.33.92.61,1.86.88,2.79.88,3.33,1.55,6.71,1.91,10.13.35,3.42.44,6.85.23,10.27-.15,1.51-.22,3.03-.46,4.54-.11.75-.17,1.51-.34,2.25-.16.74-.32,1.48-.48,2.22l-.8,2.8c-.3.92-.64,1.84-1.03,2.73-.18.45-.43.87-.66,1.3-.25.42-.43.87-.73,1.26-.51.83-1.18,1.56-1.74,2.33-.76.93-.63.81-.38-.19.12-.5.25-1.23.36-2.11.05-.44.04-.95.11-1.44.08-.49.18-.99.32-1.49.12-.45.18-.92.29-1.37l.36-1.33c.22-.89.37-1.81.56-2.7.18-.9.25-1.82.41-2.72.19-.9.26-1.82.41-2.72.45-3.65.52-7.38.32-11.14-.23-4.51-1.53-9.09-3.04-13.45-1.68-4.8-3.85-9.44-6.51-13.8-1.66-2.67-3.46-5.26-5.54-7.62-3.11-3.6-6.61-6.95-10.6-9.49-3.07-2.02-6.44-3.36-9.84-4.43-.37-.12-.75-.24-1.12-.35-.38-.09-.76-.18-1.14-.29-.7-.2-1.28-.39-1.76-.58-.49-.15-.87-.29-1.18-.49-.61-.4-.92-.84-1.14-1.41-.1-.26-.25-.53-.29-.77-.08-.4.22-.69.84-.89.62-.2,1.58-.35,2.76-.2,6.98.92,13.87,4.44,19.57,9.15,4.26,3.49,7.97,7.62,11.09,12.1l-.08.07Z"/></g><g class="cls-7"><path class="cls-1" d="M255.66,286.37c4.08,4.19,7.64,8.85,10.55,13.87.52.92,1.09,1.81,1.6,2.74.5.93,1,1.86,1.47,2.81,1.55,3.39,2.84,6.89,3.85,10.47.97,3.59,1.6,7.25,1.97,10.93l.21,2.46.1,2.46c.12,1.64,0,3.29-.07,4.91-.27,4.16-1.05,8.4-3.03,12.11-.56,1.17-.56.97-.55-.15,0-.56,0-1.36-.04-2.31,0-.47-.11-1-.11-1.54.01-.53.04-1.08.11-1.65.14-2.03.28-4.03.27-6.04.05-1-.07-2.01-.07-3,.04-1-.03-2-.07-3-.2-4-.78-8.01-1.65-12-1.06-4.78-3.13-9.5-5.49-13.92-2.56-4.89-5.74-9.47-9.43-13.59-1.11-1.3-2.34-2.47-3.54-3.69-1.27-1.14-2.51-2.31-3.87-3.34-4.04-3.2-8.48-6.01-13.27-7.84-3.7-1.47-7.58-2.16-11.44-2.51-.43-.04-.85-.08-1.27-.11-.42,0-.85,0-1.28-.03-3.17-.3-4.18-.35-4.92-1.57-.17-.22-.39-.41-.49-.56-.34-.36.98-1.64,3.53-1.85,3.77-.29,7.69.11,11.55.99,3.87.87,7.63,2.39,11.19,4.24,2.67,1.34,5.13,3.05,7.53,4.79,2.34,1.83,4.61,3.75,6.69,5.86l-.07.08Z"/></g><path class="cls-1" d="M423.55,270.72c-.69.41-1.46.78-2.3.99-.83.22-1.68.28-2.48.24-.58-.03-1.16-.04-1.7-.19-1.91-.52-3.52-1.35-5.16-2.11-.73-.32-1.48-.62-2.2-.96-.94-.41-1.86-.85-2.76-1.34-.28-.15-.22-.17.06-.17.28.01.82,0,1.41.07,1.04.18,2.08.31,3.08.58.98.31,1.95.67,2.9,1.07,1.14.46,2.39.64,3.53.74,1.26.15,2.44.05,3.53-.51.68-.34,1.34-.82,1.98-1.36.98-.83,1.98-1.68,2.86-2.62.71-.71,1.27-1.54,1.92-2.29.16-.15.3-.32.47-.46.63-.53.95-.59,1.43-.37.11.05.23.09.32.15.32.2.32.67.07,1.26-.2.43-.39.88-.61,1.31-.26.39-.54.77-.83,1.14-.29.37-.6.74-.92,1.09-.34.34-.69.67-1.05.99-1.08.96-2.14,1.87-3.51,2.77l-.04-.05Z"/><path class="cls-1" d="M457.73,252.23c-1.25-.78-2.38-1.63-3.47-2.45-.4-.3-.84-.52-1.24-.8-1.39-.99-2.89-1.87-4.49-2.55-.71-.3-1.46-.51-2.2-.68-.96-.23-1.94-.27-2.87-.69-.29-.15-.21-.48.11-.85.32-.41.89-.79,1.5-.72,2.13.25,4.24.82,6.15,1.87,1.13.62,2.39,1.1,3.52,1.77,1.23.73,2.38,1.51,3.52,2.26.7.45,1.41.88,2.14,1.23,1.1.53,2.26.94,3.45,1.01.92.05,1.81-.21,2.56-.54l.47-.26c.59-.25.95-.02,1.41.39.11.1.22.18.31.28.15.16.21.36.18.62-.03.26-.15.61-.41.89-.38.45-.92.65-1.43.88-.53.22-1.08.33-1.64.42-1.11.14-2.24.05-3.3-.2-1.6-.36-3.03-1.08-4.31-1.82l.03-.06Z"/><path class="cls-1" d="M325.48,369.34s31.61,6.22,48.93,5.36,18.25-8.94,6.69-11.79c0,0-21.7,7.07-28.51,6.43s-27.11,0-27.11,0Z"/><path class="cls-1" d="M377.43,360.11c.35-.64.63-1.41.79-2.23.06-.3.02-.62.08-.93.2-1.1.23-2.3.42-3.53.05-.54.07-1.09.11-1.64-.03-.7.28-1.42.62-2.07.12-.2.21-.16.39.05.16.2.53.56.73.94.63,1.32.8,2.57.6,4.02-.17.85.01,1.76-.06,2.68-.09,1.01-.27,2.03-.61,3.04-.21.62-.48,1.22-.81,1.79-.5.88-1.22,1.61-1.89,2.28-.53.52-.94,1.16-1.49,1.61-.12.1-.22.23-.35.31-.27.11-.47.14-.67.06-.21-.1-.43-.3-.64-.53l-.25-.26c-.11-.13-.16-.28-.23-.58-.08-.31-.07-.59.02-.81.52-1.35,1.41-1.93,2.03-2.59.46-.48.86-.95,1.16-1.63l.07.02Z"/><path class="cls-1" d="M379.29,346.84c.38-1.17.82-2.3,1.27-3.4.16-.4.27-.82.44-1.22.59-1.4,1.35-2.72,1.92-4.09.25-.61.5-1.23.71-1.84.27-.79.5-1.6.83-2.39.11-.25.28-.18.45.08.17.26.38.74.35,1.25-.06.9-.15,1.8-.32,2.68-.21.87-.56,1.68-.93,2.49-.45.96-.71,2.02-1.09,3.01-.41,1.09-.82,2.17-1.15,3.27-.21.67-.4,1.35-.54,2.04-.22,1.04-.4,2.09-.39,3.14-.01.81.17,1.59.35,2.35.04.17.08.33.11.5.08.63,0,.86-.47,1.14-.1.06-.2.14-.31.19-.35.17-.75-.02-1.05-.51-.45-.73-.72-1.55-.88-2.4-.18-.85-.22-1.73-.12-2.58.12-1.27.42-2.51.75-3.7h.06Z"/><path class="cls-1" d="M290.66,346.94c-.63.66-1.29,1.3-1.94,1.93-.24.23-.44.5-.68.72-.87.78-1.78,1.52-2.68,2.26-.39.33-.77.68-1.13,1.04-.47.45-1,.86-1.73,1-.22.05-.25-.03-.25-.29,0-.19,0-.39,0-.54-.01-.24.02-.46.13-.61l.26-.44.13-.22.18-.16.72-.65c.49-.42,1-.83,1.53-1.22.65-.46,1.13-1.12,1.68-1.7.6-.64,1.21-1.28,1.79-1.94.36-.41.72-.81,1.06-1.24.52-.64,1.04-1.28,1.47-1.98.33-.54.54-1.15.78-1.73.06-.13.09-.26.15-.39.24-.45.4-.55,1.02-.32.12.04.24.07.33.11.27.09.69.59.54.96-.27,1.19-.9,2.27-1.61,3.28-.53.75-1.12,1.46-1.72,2.17l-.04-.03Z"/><path class="cls-1" d="M180.36,277.4c-.88-.32-1.69-.72-2.48-1.11-.29-.14-.6-.24-.88-.38-1-.51-1.98-1.03-3.01-1.4-.46-.17-.93-.27-1.4-.34-.29-.04-.58-.05-.83-.03-.25.05-.49-.08-.76-.04-.17,0-.29-.12-.26-.43.01-.28.28-.93.81-1.04.9-.09,1.57.08,2.23.24.67.18,1.31.43,1.91.74.72.37,1.52.59,2.26.9l2.4.99c.49.19.98.36,1.49.5.76.2,1.54.37,2.31.35.6-.01,1.17-.19,1.7-.39.11-.05.23-.08.35-.11.22-.05.38-.05.51,0,.14.08.26.19.38.35.05.07.12.13.16.2.07.11.08.23.04.39-.04.16-.13.39-.32.5-.52.45-1.17.67-1.83.76-.66.11-1.33.1-1.99.03-.98-.1-1.9-.36-2.79-.64v-.04Z"/><path class="cls-1" d="M290.56,338.62c-1.06,2.04-2.26,4-3.62,5.86-.49.68-.95,1.38-1.48,2.03-1.91,2.24-4.04,4.3-6.41,6.02-1.04.78-2.1,1.53-3.17,2.25-.7.44-1.36.95-2.15,1.24-.39.16-.78.3-1.17.43-.39.15-.85.13-1.26.21-.53.05-.46.03-.17-.36.14-.2.33-.5.54-.89.23-.35.51-.7.86-1,.32-.24.58-.58.92-.77.34-.2.65-.44.98-.65.65-.44,1.29-.9,1.92-1.38,1.26-.94,2.47-1.96,3.74-2.95,1.5-1.21,2.72-2.82,3.91-4.39,1.32-1.72,2.5-3.55,3.54-5.47.65-1.18,1.22-2.4,1.76-3.64.81-1.88,1.54-3.81,2.03-5.79.39-1.54.56-3.09.75-4.64.03-.34.07-.68.1-1.02.15-1.27.48-1.64,1.02-1.86.13-.05.26-.12.38-.14.4-.08.69.49.8,1.49.03,2.92-.45,5.99-1.3,8.97-.64,2.21-1.41,4.41-2.46,6.49l-.06-.03Z"/><path class="cls-1" d="M276.54,353.19c-1.25.78-2.53,1.51-3.86,2.17-.48.25-.95.51-1.45.72-1.77.71-3.59,1.26-5.44,1.67-.82.18-1.63.39-2.46.51-1.05.15-2.13.39-3.2-.08-.33-.19-.28-.1-.01-.3.27-.28.74-.7,1.29-.9,1.96-.49,3.9-.98,5.93-1.49,1.2-.31,2.34-.96,3.47-1.54,1.25-.62,2.49-1.29,3.7-2.04.74-.46,1.47-.93,2.19-1.44,1.07-.78,2.16-1.56,3.19-2.39.8-.65,1.48-1.41,2.27-2.06.18-.14.34-.29.52-.42.68-.5.96-.59,1.29-.49.07.02.15.03.21.05.17.07.07.47-.28,1-.98,1.65-2.34,3.05-3.76,4.44-1.09.99-2.33,1.81-3.56,2.65l-.03-.04Z"/><path class="cls-1" d="M196.6,377.22c-.31.16-.65.3-.99.41-.12.05-.22.13-.34.17-.44.15-.88.29-1.29.47-.18.08-.35.18-.51.29-.21.14-.4.3-.67.34-.16.03-.42-.71-.23-.94.36-.36.73-.7,1.2-.9.29-.12.48-.38.72-.57.27-.2.54-.41.84-.57.18-.11.36-.21.54-.33.27-.17.53-.34.77-.55.18-.16.3-.4.44-.6.03-.04.05-.1.09-.14.16-.12.29-.06.59.23l.21.2c.22.23.33.49.3.68-.11.56-.39.95-.75,1.25-.28.21-.59.38-.89.56l-.03-.04Z"/><path class="cls-1" d="M200.44,372.76l-4.09,3.06c-.51.37-.99.79-1.54,1.14-1.91,1.22-4.08,2.16-6.27,2.72-.97.25-1.94.5-2.9.69-1.23.27-2.49.51-3.77.19-.4-.13-.35-.26-.06-.6.29-.38.83-.91,1.5-1.13,2.38-.54,4.68-1.03,6.91-1.87,1.35-.49,2.53-1.45,3.75-2.32,1.34-.97,2.65-2.04,3.99-3.11.83-.66,1.67-1.31,2.54-1.95,1.32-.96,2.73-1.82,4.19-2.58,1.13-.6,2.27-1.21,3.55-1.57.28-.09.56-.17.85-.22,1.11-.06,1.47.19,1.68.78.05.14.11.27.14.4.08.45-.33.82-.95,1.11-1.85.77-3.63,1.49-5.48,2.57-1.36.79-2.69,1.7-4,2.74l-.04-.05Z"/><path class="cls-1" d="M205.01,368.3c-2.22.89-4.32,2.28-6.4,3.76-.76.54-1.47,1.15-2.23,1.71-2.68,1.95-5.46,3.96-8.59,5.34-1.38.62-2.8,1.18-4.26,1.57-1.86.48-3.92.82-5.79.1-.57-.26-.47-.29.06-.51.26-.09.63-.33,1.03-.44.41-.12.87-.27,1.37-.35,3.53-.43,6.88-1.98,10.09-3.9,1.96-1.13,3.76-2.71,5.63-4.15,2.08-1.58,4.18-3.17,6.58-4.45,1.48-.77,3.02-1.36,4.57-1.87,2.35-.77,4.77-1.27,7.16-1.72,1.86-.35,3.68-.75,5.56-.98.41-.05.82-.11,1.24-.15,1.56-.05,2.06.32,2.38.78.07.11.17.22.21.32.14.33-.49.67-1.56.99-3.19.61-6.54,1.05-9.85,1.83-2.45.58-4.89,1.21-7.16,2.17l-.03-.05Z"/><path class="cls-1" d="M136.52,368.54c-.07-1.04-.37-2.16-.81-3.24-.16-.4-.4-.75-.58-1.14-.3-.67-.74-1.39-1.07-2.16-.34-.75-.67-1.51-.98-2.27-.28-.67-.59-1.32-.88-1.98-.36-.84-.63-1.74-.8-2.65-.05-.29.07-.29.31-.13.23.17.65.47.97.89.27.38.56.75.82,1.12l.69,1.17c.45.78.9,1.56,1.31,2.37.24.49.56.94.88,1.4.33.46.7.97.99,1.49.65,1.15,1.19,2.38,1.54,3.7.21.81.35,1.66.35,2.54.02,1.29-.34,2.78-1.33,3.88-.73.84-1.69,1.56-2.79,1.85-.24.06-.48.14-.73.15-.46.03-.76-.05-.95-.21-.18-.21-.26-.47-.28-.84-.01-.17-.03-.34-.02-.5.01-.27.12-.51.26-.72.15-.21.34-.42.54-.5,1.23-.64,1.81-.96,2.19-1.66.07-.13.13-.29.18-.46.05-.2.1-.41.12-.63.05-.45.05-.94-.01-1.45l.07-.02Z"/><path class="cls-1" d="M137.55,371.91c.26-.32.54-.67.71-1.08.08-.15.04-.31.1-.46.22-.54.36-1.14.39-1.77.02-.28-.08-.54-.16-.79-.14-.32-.34-.58-.37-.99,0-.13.27-.34.62-.47.35-.13.82-.18,1.03.01.68.7,1.19,1.65,1.1,2.65-.08.59.06,1.16,0,1.75-.08.63-.25,1.25-.5,1.83-.14.36-.35.69-.55,1.02-.3.5-.7.93-1.02,1.4-.27.36-.43.82-.72,1.23-.06.09-.12.18-.21.24-.32.24-.57.08-1-.51-.1-.13-.2-.26-.28-.4-.28-.43-.45-.96-.43-1.24.03-.41.09-.69.21-.9.1-.23.24-.41.38-.62.21-.29.45-.59.63-.94l.07.03Z"/><path class="cls-1" d="M139.96,371.34c.22-.09.42-.23.6-.43.07-.07.06-.16.13-.25.25-.31.4-.74.46-1.22.02-.21-.05-.4-.12-.59-.1-.24-.29-.4-.38-.68-.03-.09.12-.26.34-.38.21-.12.53-.21.71-.1.28.23.63.43.9.73.26.29.48.65.5,1.05,0,.47.22.93.21,1.44,0,.55-.22,1.09-.48,1.55-.16.29-.36.55-.56.79-.3.38-.7.65-1.05.96-.26.25-.48.6-.81.83-.07.05-.13.13-.21.16-.3.12-.48-.06-.72-.77l-.16-.48c-.15-.55-.19-1.04-.16-1.26.05-.34.06-.59.08-.79.03-.17.1-.25.16-.34.1-.12.34-.14.49-.27l.07.04Z"/><path class="cls-1" d="M109.47,366.27c-1.11-1.1-2.14-2.27-3.11-3.49-.36-.43-.74-.85-1.08-1.31-1.19-1.6-2.14-3.37-3.02-5.14-.41-.78-.81-1.56-1.15-2.36l-.61-1.56c-.16-.53-.31-1.04-.48-1.6-.1-.33-.05-.3.15-.07.18.24.58.65.95,1.16l1.01,1.35c.33.45.71.87.97,1.35.57.93,1.14,1.86,1.73,2.81.69,1.13,1.58,2.19,2.42,3.24.46.59.95,1.14,1.43,1.72.51.54.99,1.11,1.52,1.64l.97.98,1.02.93c1.04.92,2.14,1.81,3.3,2.56.46.28.93.53,1.41.77.48.24.99.41,1.43.69l.61.33c.73.47.87.83.89,1.22,0,.09.02.19.01.27-.03.25-.46.31-1.18.25-1.04-.14-2.02-.5-2.94-1-.92-.5-1.82-1.06-2.68-1.69-.65-.45-1.25-.96-1.87-1.45-.59-.53-1.19-1.03-1.76-1.58l.03-.04Z"/><path class="cls-1" d="M102.77,360.56c-.1-.29-.19-.58-.28-.87-.03-.11-.09-.19-.1-.3-.06-.39-.08-.77-.12-1.14-.02-.16-.07-.31-.12-.45-.07-.19-.17-.37-.09-.59.04-.13.95-.21,1.08-.06.21.31.38.6.41.97.01.23.21.38.32.56.13.2.2.43.31.65.07.13.13.27.22.39.12.19.24.39.42.53.15.1.35.14.52.19.04.01.09.01.12.03.12.07.06.2-.24.61l-.21.28c-.24.31-.5.52-.68.53-.52.04-.92-.16-1.14-.52-.18-.24-.32-.53-.45-.8l.04-.03Z"/><path class="cls-1" d="M91.59,326.39c.55.37,1.05.81,1.47,1.29.15.17.34.31.47.5.47.67.77,1.42.91,2.17.07.33.18.64.22.97.05.42.01.85-.11,1.25-.04.13-.08.11-.18.01-.09-.1-.32-.26-.47-.44-.61-.63-.85-1.17-1.14-1.8-.12-.41-.46-.69-.74-.98-.31-.33-.65-.63-1.04-.88-.24-.15-.49-.3-.76-.4-.41-.15-.84-.3-1.28-.28-.35,0-.67.2-.98.26-.07,0-.14.03-.21.03-.07,0-.12-.01-.18-.04-.05-.03-.11-.11-.16-.17-.09-.13-.17-.27-.25-.44l-.1-.22c-.09-.21-.04-.52.15-.94.66-.82,1.67-.91,2.55-.7.67.14,1.29.42,1.87.76l-.02.05Z"/><path class="cls-1" d="M93.01,324.89c-.05.21-.09.42-.14.62-.02.08.02.14,0,.22-.06.28-.12.57-.12.85,0,.13.05.24.1.34.07.14.2.24.12.45-.04.13-1.19.53-1.34.35-.22-.3-.36-.66-.3-1.06.04-.24-.11-.43-.15-.65-.04-.24-.06-.49-.04-.74,0-.15.02-.31.03-.45,0-.23.05-.45.02-.67-.04-.17-.14-.34-.18-.52,0-.04-.03-.08-.03-.12.01-.14.14-.18.57-.18h.3c.33.02.61.09.73.18.18.14.32.27.42.4.08.13.07.25.08.38,0,.19-.04.38-.04.58h-.05Z"/><path class="cls-1" d="M87.11,327.4c.89-.09,1.85,0,2.67.22.31.07.62.12.91.23,1.01.45,1.83,1.16,2.48,1.95.29.34.61.66.81,1.06.27.49.57.99.57,1.58,0,.18-.24.23-.56.21-.31-.03-.7-.09-.9-.25-.3-.33-.8-.45-1.06-.73-.29-.27-.56-.55-.86-.85-.37-.36-.9-.48-1.38-.61-.53-.16-1.08-.24-1.64-.2-.35.02-.72.09-1.1.2-.58.15-1.22.32-1.85.59-.49.19-.96.58-1.57.71-.14.02-.27.07-.41.07-.26,0-.44-.07-.55-.25-.11-.16-.15-.37-.17-.65,0-.13-.02-.26-.02-.38.01-.4.22-.77.43-1.07.16-.15.29-.3.42-.45.13-.15.28-.21.43-.31.31-.17.68-.34,1.09-.51.62-.26,1.37-.5,2.24-.63l.02.07Z"/><path class="cls-1" d="M92.35,311.57c.35-1.25.73-2.49,1.22-3.69.16-.44.29-.89.49-1.32.68-1.52,1.46-2.98,2.3-4.39.35-.64.79-1.23,1.16-1.85.26-.38.51-.77.78-1.15.28-.37.59-.72.91-1.05.21-.21.33-.07.38.26.04.32.05.85-.15,1.33-.35.85-.69,1.69-1.04,2.54-.34.84-.88,1.58-1.33,2.38-.58.94-.9,2.04-1.28,3.09-.42,1.16-.81,2.33-1.15,3.51-.21.73-.4,1.47-.55,2.22-.23,1.13-.43,2.28-.49,3.43-.01.45,0,.89.03,1.33.03.44.12.88.11,1.32l.02.58c0,.36-.05.6-.19.77-.12.17-.27.28-.47.36-.09.04-.18.09-.26.12-.27.08-.57-.2-.86-.75-.64-1.63-.54-3.42-.37-5.17.14-1.3.4-2.6.7-3.87h.05Z"/><path class="cls-1" d="M92.69,310.02c.48-.86.95-1.75,1.38-2.66.16-.33.27-.68.44-1.01.6-1.16,1.2-2.33,1.8-3.49.27-.52.47-1.07.77-1.57.36-.65.76-1.31,1.31-1.87.18-.17.25-.05.25.19,0,.24-.03.62-.16,1.01-.25.68-.34,1.45-.68,2.1-.3.68-.61,1.36-.96,2.03-.43.8-.68,1.72-1.06,2.57-.42.94-.86,1.87-1.33,2.79-.29.57-.59,1.13-.9,1.69-.47.85-1,1.67-1.57,2.48-.45.62-.86,1.29-1.54,1.84-.14.12-.3.25-.49.34-.33.18-.62.22-.81.16-.21-.13-.31-.28-.39-.46-.04-.08-.08-.16-.09-.23-.03-.12.02-.24.1-.4.08-.15.16-.38.28-.44.7-.51,1.44-1.48,2.14-2.55.51-.8,1.02-1.65,1.47-2.54l.04.02Z"/><path class="cls-1" d="M90.15,315.42c.14-.3.25-.6.44-.88.06-.1.07-.22.14-.32.25-.34.5-.7.74-1.03.1-.15.16-.32.21-.49.06-.22.07-.47.33-.6.15-.08,1.43.7,1.39.93-.1.42-.26.8-.6,1.13-.21.2-.19.49-.29.73-.09.27-.23.54-.37.8-.08.16-.16.33-.23.5-.1.26-.21.52-.24.79,0,.21.04.43.05.64,0,.05.02.09,0,.14-.03.17-.16.21-.56.2h-.27c-.3-.02-.55-.12-.66-.27-.16-.22-.28-.45-.36-.68-.09-.23-.03-.44-.02-.66.04-.32.14-.64.23-.95h.05Z"/><path class="cls-1" d="M220.1,271.15c.53-.23,1.11-.39,1.64-.47.2-.03.38-.11.57-.11.69-.02,1.35.06,1.97.13.28.03.55.06.82.06.34,0,.69-.02,1.02.17.1.06.09.36,0,.68-.09.32-.26.68-.45.75-.34.11-.67.2-.99.26-.32.06-.64-.04-.96-.11-.39-.11-.76.06-1.12.13-.4.08-.8.13-1.17.27-.23.08-.46.18-.67.31-.32.19-.64.41-.83.73-.15.24-.14.56-.14.81,0,.06.02.12.02.17-.03.19-.14.21-.76.17l-.38-.02c-.37-.02-.83-.22-.88-.52-.19-.87.23-1.76.8-2.36.42-.46.94-.8,1.46-1.08l.03.05Z"/><path class="cls-1" d="M211.53,276.31c-.69-.04-1.4-.04-2.1,0-.26,0-.51.07-.76.09-.91.06-1.82.14-2.73.29-.41.05-.8.18-1.2.24-.51.11-1.02.22-1.55.24-.17,0-.17-.1-.07-.27.1-.16.3-.4.57-.54.97-.51,2.02-.76,3.1-.89.65-.07,1.3-.28,1.95-.39.72-.12,1.46-.21,2.19-.26.45-.03.91-.05,1.36-.05.69-.01,1.38.05,2.07.05.53.02,1.07-.05,1.61-.04.12,0,.24-.02.36,0,.44.09.53.33.54.69,0,.09.01.17,0,.25-.02.27-.24.48-.57.62-.92.19-1.79.06-2.71.05-.68-.03-1.37-.04-2.06-.05v-.04Z"/><path class="cls-1" d="M217.64,267.72c.25-.7.67-1.38,1.11-1.9.15-.2.3-.41.48-.57.68-.57,1.37-1.03,2.1-1.39.32-.17.61-.35.9-.53.37-.23.73-.48,1.16-.62.13-.04.21.1.21.31,0,.21-.05.51-.22.69-.64.63-1.16,1.33-1.84,1.78-.42.27-.68.72-.95,1.11-.32.42-.62.82-.8,1.29-.12.29-.21.59-.26.91-.07.47-.08.97.09,1.4.14.34.45.56.68.73.05.04.12.06.17.1.1.07.11.16.06.31-.04.14-.12.31-.24.54l-.16.3c-.17.31-.5.52-.96.5-.53-.19-1.02-.57-1.33-1.06-.3-.49-.46-1.05-.52-1.59-.1-.81.04-1.6.26-2.33h.05Z"/><path class="cls-1" d="M204.23,276.9c-2.92.64-5.88,1.24-8.91,1.59-1.11.12-2.21.29-3.34.32-3.95.11-8.06-.57-11.6-2.48-1.55-.86-3-1.87-4.33-2.95-1.72-1.38-3.35-2.87-4.48-4.78-.37-.58-.24-.58.36-.38.38.13.81.28,1.23.42.25.09.54.17.8.3.25.14.5.3.75.49.88.64,1.7,1.32,2.54,1.97.84.64,1.69,1.24,2.56,1.78.88.53,1.76,1.02,2.67,1.46.92.42,1.86.82,2.87,1.1,2.39.74,5.09.66,7.69.45,2.88-.23,5.78-.78,8.67-1.43,1.78-.41,3.56-.81,5.27-1.35,2.57-.81,5.11-1.88,6.98-3.7,1.46-1.4,2.42-3.29,3.98-5,.36-.37.71-.75,1.16-1.08.82-.61,1.54-.86,2.05-.86.27.03.48.08.65.18.18.12.33.28.45.42.11.13.24.24.3.33.1.16-.03.34-.25.7-.21.38-.51.68-.91.95-1.17.9-2.15,2.34-3.38,3.91-.61.79-1.28,1.63-2.12,2.42-.83.79-1.75,1.47-2.71,2.05-2.87,1.72-5.97,2.51-8.91,3.23l-.02-.06Z"/><path class="cls-1" d="M181.36,270.72c-.02-.31-.03-.62-.02-.93.02-.3.08-.57.14-.86.16-.56.38-1.11.71-1.57.63-.95,1.48-1.54,2.28-1.98.59-.32,1.15-.64,1.74-.82,2.08-.64,4.09-.8,6.07-1.01.88-.07,1.74-.19,2.59-.32,1.08-.21,2.18-.18,3.29-.13.35.03.38.31.18.73-.2.42-.64,1.06-1.26,1.38l-.82.38-.41.18-.42.09c-.56.12-1.11.22-1.66.31-1.1.21-2.21.2-3.31.27-1.32.05-2.6.53-3.72.99-1.25.51-2.22,1.21-2.43,2.2-.13.61-.04,1.2.42,1.8.7.88,1.88,1.63,3.14,2.01.99.3,2.03.32,3.02.3.22-.01.43-.06.65,0,.4.05.66.13.85.28.2.23.33.44.44.69.05.12.12.23.16.33.06.18.01.34-.15.55-.15.19-.42.59-.78.65-1.09.48-2.24.4-3.37.27-1.14-.16-2.27-.49-3.38-1.02-.82-.39-1.64-.9-2.39-1.66-.74-.73-1.45-1.78-1.65-3.07h.07Z"/><path class="cls-1" d="M186.03,267.03c.93-.9,2.04-1.5,3.1-1.91.39-.15.75-.34,1.14-.45,1.38-.35,2.69-.52,4.03-.7.59-.06,1.17-.17,1.75-.28.37-.08.74-.11,1.12-.12h.29s.3.1.3.1c.19.07.38.14.59.21.25.1.21.06.04.23-.09.09-.21.24-.34.45-.08.13-.16.25-.22.35-.04.07-.08.11-.12.19-.05.03-.1.05-.14.08-.68.4-1.39.57-2.1.75-.7.2-1.43.3-2.18.35-.9.07-1.74.44-2.53.74-.87.33-1.7.73-2.36,1.28-.41.34-.78.74-1.04,1.2-.39.68-.65,1.47-.46,2.18.14.57.61,1,1.02,1.23.09.05.2.08.28.12.12.13.19.23.22.4.02.2,0,.41-.02.72l-.02.4c-.02.22-.11.39-.3.54-.19.15-.49.29-.82.24-.52-.03-.98-.27-1.37-.58-.4-.31-.73-.69-1-1.11-.53-.84-.78-1.89-.7-2.94.1-1.52.91-2.78,1.79-3.72l.05.04Z"/><path class="cls-1" d="M340.98,371.12c-5.4-.1-10.79-.44-16.16-1.01-.98-.11-1.96-.19-2.94-.28-.98-.11-1.96-.22-2.93-.36-6.86-1.04-13.67-2.54-20.26-4.79-2.91-1.04-5.83-2.14-8.6-3.53-.87-.49-1.79-.89-2.63-1.46l-1.28-.8c-.42-.29-.82-.61-1.22-.92-.83-.59-1.5-1.42-2.21-2.15l-.91-1.27c-.3-.41-.47-.94-.63-1.44-.28-1.31-.15-1.1.87-.55.28.12.54.3.87.48.38.14.7.36,1.08.57.68.46,1.58.89,2.36,1.51,2.88,2.19,6.29,3.87,9.85,5.26,3.57,1.37,7.29,2.53,11.08,3.59,4.54,1.26,9.44,1.85,14.23,2.39,5.28.61,10.6.99,15.93,1.1,3.28.05,6.57.08,9.84-.07,4.96-.2,9.96-.56,14.82-1.34,3.78-.61,7.43-1.56,11.03-2.62.8-.22,1.56-.5,2.36-.74.74-.22,1.36-.38,1.88-.49.52-.13.95-.2,1.32-.22.73-.04,1.23.16,1.72.56.22.18.48.33.64.52.53.62-.47,1.71-2.66,2.63-3.25,1.29-6.7,2.34-10.25,3.12-3.55.74-7.19,1.29-10.85,1.66-5.43.56-10.91.75-16.36.73v-.09Z"/><path class="cls-1" d="M346.66,355.55c-4.9-.09-9.79-.36-14.66-.8-1.78-.16-3.56-.23-5.33-.45-6.24-.8-12.45-1.97-18.54-3.7-2.7-.77-5.41-1.6-8.04-2.71-1.68-.73-3.38-1.51-4.93-2.71-.77-.6-1.47-1.34-2.03-2.22-.55-.87-.97-1.95-.93-3.03.13-.69.35-.94.53-.92.2.01.42.32.87.67.47.35,1,.72,1.63,1.01.61.31,1.27.62,1.95,1.06,2.32,1.76,5.57,3.04,8.8,4.1,3.25,1.12,6.65,2.05,10.1,2.94,4.14,1.05,8.59,1.42,12.95,1.86,4.79.48,9.62.81,14.45.93,2.97.08,5.95.09,8.92,0,4.5-.13,9.03-.38,13.45-1.01,3.44-.5,6.74-1.34,10.01-2.27.71-.22,1.41-.44,2.13-.66,2.67-.77,3.56-.83,4.48.04.21.19.46.36.61.56.52.65-.36,1.77-2.37,2.58-5.94,2.43-12.59,3.57-19.22,4.2-4.93.47-9.9.61-14.84.61v-.1Z"/><path class="cls-1" d="M126.62,376.08c-2.6-.47-5.14-1.27-7.62-2.17-.91-.31-1.81-.66-2.69-1.05-.38-.18-.77-.35-1.15-.54l-1.1-.64c-.72-.44-1.46-.86-2.16-1.34-1.34-1.04-2.76-1.94-3.97-3.12-.55-.49-1.12-.97-1.7-1.43-.54-.51-1.06-1.03-1.57-1.56-.65-.68-1.4-1.28-1.9-2.09-.26-.4-.5-.81-.74-1.22l-.34-.62c-.1-.22-.15-.47-.22-.7-.12-.63-.06-.57.58-.44.7.08,1.81.31,2.63.92,1.34,1.2,2.76,2.24,4,3.48.68.55,1.35,1.12,2.01,1.71.66.59,1.41,1.07,2.1,1.65.81.72,1.81,1.18,2.8,1.67.96.54,2.02.89,3.03,1.32,2.22.96,4.57,1.63,6.96,2.2,1.48.26,2.97.6,4.48.69l1.72.16,1.73.06c1.15.07,2.3-.04,3.44-.11.88-.09,1.75-.28,2.6-.47.85-.23,1.69-.47,2.52-.72.36-.12.71-.27,1.08-.37.69-.17,1.13-.28,1.5-.16.37.14.65.41.95.86.14.2.29.39.4.6.18.34.17.7,0,1.08-.18.37-.53.79-1.06,1.03-3.14,1.52-6.74,2.02-10.32,2.1-2.67-.01-5.35-.19-7.98-.67v-.09Z"/><path class="cls-1" d="M90.26,389.31c-4.87.43-9.72.49-14.57.28-1.77-.08-3.54-.11-5.31-.3-3.11-.34-6.22-.81-9.29-1.61-1.54-.4-3.06-.88-4.56-1.54-1.49-.66-3-1.47-4.25-2.85-.54-.61-1.02-1.4-1.23-2.3-.23-.91-.1-1.94.26-2.75.76-1.65,2.02-2.61,3.21-3.43,3.14-2.01,6.52-3.4,10.18-3.44.61.17.87.29.87.38,0,.1-.25.21-.62.66-.75.82-2.09,2.06-3.79,2.91-1.54.66-3.06,1.32-4.37,2.15-1.29.78-2.38,1.88-2.47,2.38-.03.12-.03.22-.03.37.05.16.07.34.21.54.23.41.69.88,1.27,1.29,1.18.84,2.71,1.54,4.3,2.11,3.84,1.38,8.26,1.77,12.53,2.06,4.72.32,9.48.33,14.22.03,2.91-.19,5.82-.5,8.68-1.02,2.16-.39,4.32-.88,6.36-1.58,1.02-.35,2.02-.76,2.93-1.26.9-.5,1.75-1.1,2.26-1.8,1.88-2.35-2-3.74-4.92-4.68-.68-.22-1.37-.37-2.08-.57-2.63-.71-3.43-1.16-3.82-2.19-.09-.22-.23-.44-.27-.62-.16-.55,1.13-1.1,3.25-.85,1.57.21,3.16.5,4.78.96,1.64.46,3.27,1.11,4.94,2.49.8.7,1.76,1.82,1.99,3.44.23,1.58-.33,2.98-1.05,3.96-.73.99-1.56,1.65-2.37,2.2-.82.55-1.65.96-2.47,1.34-2.45,1.08-4.91,1.71-7.36,2.22-2.46.5-4.91.84-7.37,1.09l-.02-.08Z"/><path class="cls-1" d="M384.94,323.92c.8-5.56,1.54-11.13,2.23-16.71.26-2.04.37-4.09.61-6.12.84-7.18,1.65-14.38,2.28-21.59.32-3.2.52-6.42.71-9.6.11-2.05.28-4.09.45-6.14.16-2.05.4-4.09,1-6.11.37-1.26.29-1.09.58,0,.13.55.48,1.33.72,2.28.12.47.29.98.38,1.53.07.54.12,1.11.14,1.7.04,2.1.1,4.2.1,6.3-.06,2.1-.16,4.19-.27,6.29l-.19,3.15-.3,3.14c-.21,2.1-.46,4.19-.73,6.29-.64,5.02-.91,10.28-1.43,15.43-.58,5.66-1.26,11.31-2.04,16.95-.47,3.47-.98,6.94-1.49,10.4-.76,5.25-1.69,10.5-2.48,15.7-.33,2.02-.6,4.03-.86,6.04-.28,2-.56,4-.85,6.01-.13.88-.22,1.75-.4,2.64-.62,3.28-1.06,4.27-2.21,4.76-.25.11-.51.28-.74.32-.75.16-1.19-1.31-.9-3.73.78-7.17,2.03-14.63,3.15-22.15.85-5.58,1.71-11.19,2.43-16.81h.09Z"/><path class="cls-1" d="M315.47,404.28c7.63,2.52,15.45,4.57,23.34,6.29,7.88,1.74,15.79,2.91,23.84,3.47,5.86.44,11.75.45,17.62.35,10.35-.17,20.74-1.07,30.83-3.16,5.02-1.09,10.01-2.44,14.59-4.49,2.26-1.03,4.44-2.29,6.03-3.89.19-.2.41-.39.57-.6l.47-.64c.31-.44.55-1.01.83-1.51.49-1.05.84-2.14,1-3.27.59-4.03-1.36-8.22-4.17-11.61-2.82-3.43-6.35-6.36-10.07-8.92-9.63-6.59-20.66-11.1-31.55-15.19-1.72-.57-2.46-.84-2.38-1.08.08-.21,1.02-.4,2.65-.41,1.61.03,4.03-.14,6.74.45,1.36.25,2.83.6,4.36,1.04.76.24,1.54.48,2.34.73.78.3,1.58.61,2.39.96,5.69,2.47,11.21,5.34,16.45,8.79,2.61,1.74,5.16,3.62,7.56,5.74,2.39,2.13,4.66,4.48,6.56,7.28,1.87,2.78,3.41,6.1,3.68,9.84.01.93.03,1.87-.08,2.79-.18.91-.25,1.87-.6,2.72l-.45,1.31c-.14.44-.39.82-.58,1.23l-.62,1.2c-.26.41-.56.82-.85,1.22-1.23,1.5-2.61,2.69-4.04,3.61-.7.52-1.44.87-2.16,1.31-.73.39-1.47.74-2.2,1.11-2.96,1.35-5.97,2.38-9.01,3.19-7.28,1.94-14.76,3.16-22.31,4.02-7.55.82-15.19,1.24-22.75,1.13-8.32-.09-16.63-.75-24.87-1.98-4.13-.61-8.21-1.46-12.25-2.34-4.05-.88-8.07-1.88-12.07-2.97-9.84-2.7-19.55-5.99-28.84-10.35-1.75-.85-3.49-1.72-5.2-2.65-1.72-.94-3.4-1.95-5.02-2.9-3.29-1.91-6.64-3.72-10.04-5.45-6.79-3.44-13.75-6.55-20.84-9.12-5.51-2.02-11.09-3.65-16.71-4.86-5.62-1.23-11.31-1.94-16.97-2.08-2.49.01-4.92.09-7.38.38-4.57.49-7.43,1.33-9.51,1.76-2.05.49-3.37.57-4.53.55-.53-.02-1.2.05-1.56-.01-.61-.12-.14-.78,1.26-2.04.68-.69,1.72-1.23,2.96-1.98.63-.36,1.34-.63,2.11-.95.76-.34,1.61-.59,2.51-.84,5.33-1.56,10.95-2.01,16.51-1.78,5.57.21,11.11,1.1,16.55,2.36,10.9,2.53,21.45,6.56,31.64,11.28,3.78,1.76,7.51,3.63,11.2,5.61,1.84,1,3.67,2,5.49,3.06,1.87,1.08,3.5,2.07,5.27,3,7.03,3.73,14.59,6.71,22.3,9.18l-.02.12Z"/><path class="cls-1" d="M131.67,317.29c-2.5,8.88-3.09,18.29-.96,27.21.78,3.25,2.02,6.37,3.46,9.37,1.28,2.64,2.79,5.19,4.56,7.55,1.78,2.35,3.79,4.53,5.99,6.51,4.39,3.98,9.65,6.98,15.27,9.01,5.01,1.73,10.36,2.62,15.65,2.62,1.7.04,3.4-.09,5.09-.2,1.69-.2,3.38-.34,5.07-.6,3.38-.47,6.7-1.19,10.14-1.71,1.11-.04,1.62.01,1.64.16.02.16-.44.46-1.19,1.13-.76.68-1.9,1.48-3.35,2.31-1.46.83-3.28,1.44-5.31,1.94-1.82.33-3.63.74-5.48.88-.92.11-1.85.17-2.78.2-.93.03-1.86.1-2.79.07-3.72.02-7.46-.34-11.12-1.1-7.32-1.5-14.38-4.62-20.28-9.26-3.52-2.77-6.82-5.96-9.64-9.58-2.8-3.63-5.14-7.65-6.81-11.89-1.83-4.67-2.91-9.61-3.34-14.58-.37-4.99-.06-9.98.83-14.84.52-3,1.28-5.95,2.2-8.83.91-2.89,2.01-5.72,3.3-8.46,3.83-8.33,9.37-15.92,16.22-21.94,5.32-4.65,11.36-8.48,18.14-10.66.74-.26,1.47-.5,2.23-.69.75-.2,1.5-.42,2.27-.58,5.77-1.1,7.7-.65,8.93.31.28.22.65.44.81.65.27.37-.17.73-1.16,1.08-.5.18-1.13.33-1.89.46-.75.17-1.62.36-2.61.51-2.89.58-5.79,1.29-8.57,2.37-2.79,1.07-5.51,2.37-8.11,3.92-5.16,3.17-9.86,7.26-13.76,12.08-2.93,3.55-5.46,7.46-7.55,11.6-2.11,4.13-3.81,8.49-4.99,12.99l-.1-.02Z"/><path class="cls-1" d="M132.76,271.59c-5.95,2.33-11.41,5.83-16.28,10.09-1.79,1.54-3.38,3.29-5,5-5.65,6.1-10.31,13.25-13.21,21.11-1.3,3.48-2.15,7.14-2.57,10.79-.16,1.17-.2,2.35-.27,3.53-.01,1.18-.02,2.36,0,3.54-.02,1.18.07,2.35.11,3.54l.15,1.77.06,1.79c.02,1.51-.21,1.38-.99.23-.89-1.12-2.05-3.41-2.4-6.31-.5-5.14.13-10.34,1.4-15.3,1.33-4.96,3.38-9.7,6.01-14.08,3.13-5.23,6.74-10.48,11.11-14.94,4.77-4.91,10.32-9.09,16.47-12.16,3.79-1.85,7.75-3.31,11.8-4.4,3.06-.86,6.22-1.36,9.36-1.77l2.37-.2,1.19-.1,1.19-.03,2.37-.06,2.37.07c4.9.19,9.75.82,14.45,2.4,1.02.39,2.02.75,3.04,1.17,3.69,1.8,4.59,2.87,4.75,4.12.04.28.13.59.1.81-.05.38-.49.46-1.24.33-.78-.08-1.69-.63-2.97-1.14-7.35-3.43-15.99-4.73-24.59-4.11-3.2.2-6.38.76-9.53,1.44-3.15.73-6.22,1.74-9.22,2.93l-.04-.08Z"/><path class="cls-1" d="M134.36,258.4c-1.37.33-2.75.59-4.12.97-1.36.36-2.76.69-4.03,1.15l-1.95.64c-.64.25-1.27.54-1.9.81-.63.28-1.28.53-1.9.84l-1.84.97-1.34.73-1.27.84c-.84.57-1.72,1.08-2.55,1.67-5.93,4.04-11.37,9.02-15.65,14.88-1.97,2.56-3.48,5.44-4.85,8.3l-1.15,2.83c-.34.96-.6,1.94-.91,2.9-.17.48-.27.97-.38,1.46l-.4,1.46-.21.73c-.06.25-.08.49-.13.74-.11.49-.26.99-.45,1.49-.28.63-.44.91-.52.89-.09-.02-.16-.33-.42-.9-.24-.57-.67-1.41-.88-2.45-.07-.51-.11-1.07-.13-1.66,0-.3,0-.61,0-.92.03-.31.07-.62.12-.94.95-4.46,2.71-8.66,5.1-12.44,2.34-3.8,5.15-7.29,8.35-10.36,3.8-3.69,7.86-7.44,12.44-10.39l1.89-1.2,1.98-1.06c.66-.34,1.31-.72,1.99-1.03l2.07-.9c1.35-.64,2.8-1.08,4.23-1.56l1.07-.35,1.07-.28,2.13-.57c3.52-.86,7.07-1.59,10.67-2.07,5.45-.72,11.04-.78,16.49-.09,4.23.56,8.38,1.48,12.35,3.12.86.39,1.74.69,2.58,1.13,3.12,1.65,3.88,2.58,3.91,3.82.02.26.1.53.09.71.01.53-1.72.61-3.79-.54-6.39-3.14-13.58-4.98-21.04-5.1-5.53-.12-11.15.58-16.69,1.81l-.03-.09Z"/><path class="cls-1" d="M243.48,293.99c3.24,4.41,5.89,9.24,7.97,14.28.4.91.75,1.85,1.11,2.77l.53,1.4.44,1.43c.99,3.37,1.69,6.83,2,10.32.31,3.49.4,7,.02,10.47-.04.77-.17,1.54-.26,2.31-.11.77-.15,1.54-.33,2.3-.3,1.52-.56,3.04-.98,4.52-.44,1.92-1.07,3.8-1.82,5.62-.41.9-.79,1.8-1.26,2.67-.25.42-.53.84-.79,1.25-.28.41-.63.78-.94,1.16-.86.92-.77.77-.76-.36.02-.56-.09-1.41.02-2.29.05-.44.08-.93.15-1.44.09-.49.2-1,.37-1.51,1.05-3.64,2.05-7.25,2.56-10.97.64-3.69.85-7.47.75-11.29-.1-4.58-1.34-9.26-2.92-13.68-1.74-4.86-4.02-9.57-6.92-13.91-1.75-2.69-3.75-5.22-5.87-7.64-3.26-3.62-6.89-6.97-10.87-9.74-3.11-2.13-6.43-3.77-9.83-5.19-.75-.31-1.49-.6-2.26-.87-2.8-1.14-3.67-1.52-3.93-2.86-.07-.27-.2-.53-.22-.74-.12-.62,1.42-1.21,3.7-.53,6.77,1.89,13.36,5.65,19.06,10.4,4.27,3.51,8.03,7.63,11.36,12.04l-.07.06Z"/><path class="cls-1" d="M256.24,282.72c4.85,4.26,9.08,9.19,12.4,14.65l1.8,2.99c.55,1.03,1.1,2.05,1.62,3.09,1.73,3.73,3.11,7.59,4.14,11.54,1.02,3.96,1.6,8.01,1.85,12.06l.13,2.7-.02,2.71c.02.9-.06,1.8-.12,2.7-.07.9-.08,1.8-.23,2.68-.17,1.14-.3,2.28-.49,3.42l-.73,3.38c-.74,2.18-1.43,4.39-2.72,6.33-.77,1.22-.67,1.04-.59-.2.05-.62-.03-1.54.11-2.55.09-1.03.11-2.24.33-3.48,1.8-8.72,1.82-17.7,0-26.54-1.08-5.3-3.36-10.52-6.05-15.33-.72-1.34-1.56-2.6-2.35-3.91l-1.3-1.87c-.43-.63-.86-1.25-1.35-1.84l-1.4-1.8c-.47-.6-.99-1.15-1.48-1.73-.97-1.17-2.06-2.24-3.13-3.32-2.7-2.59-5.59-5.03-8.76-7.04-4.75-3.12-10.07-5.43-15.56-6.74-4.27-.99-8.6-1.29-12.9-1.02-.95-.01-1.87.2-2.82.25-1.77.11-2.92.24-3.77.15-.84-.06-1.37-.34-1.83-.76-.21-.19-.48-.35-.62-.53-.46-.54.89-1.55,3.6-2.2,4.03-.75,8.32-1.08,12.64-.71,4.31.4,8.67,1.32,12.81,2.87,6.14,2.33,11.86,5.75,16.83,9.98l-.06.08Z"/><path class="cls-1" d="M270.99,266.08l2.5,1.87c.85.6,1.57,1.37,2.36,2.04.76.71,1.58,1.35,2.28,2.13l2.11,2.29c.34.39.72.74,1.03,1.16l.95,1.24,1.89,2.47c1.17,1.72,2.25,3.49,3.22,5.3,1.42,2.65,2.73,5.34,3.77,8.13,3.63,9.84,5.4,20.39,4.56,30.84-.42,4.62-1.2,9.28-2.83,13.63-1.02,2.8-2.31,5.52-3.96,8.03l-1.31,1.83c-.48.58-.99,1.13-1.49,1.68-.49.57-1.07,1.05-1.6,1.57-.55.5-1.11.99-1.78,1.36-.85.43-1.23.58-1.26.51-.03-.08.26-.43.6-1.17.77-1.43,2.03-3.96,3.7-6.63,3.1-4.69,4.93-10.09,5.93-15.66.98-5.59,1.08-11.38.54-17.17-.61-6.95-2.78-14.01-5.65-20.52-.79-1.79-1.65-3.55-2.61-5.25-.95-1.71-1.97-3.36-3.14-4.91-1.21-1.52-2.32-3.14-3.72-4.5-.67-.71-1.32-1.43-2.01-2.12l-2.19-1.94c-.46-.39-.88-.82-1.36-1.18l-1.45-1.07c-.98-.69-1.9-1.49-2.96-2.06l-3.1-1.87-3.26-1.57c-6.62-3.06-14.02-4.59-21.26-4.31-1.41.07-2.81.08-4.19.38l-2.06.35c-.69.11-1.37.22-2.03.44l-3.99,1.15c-1.28.52-2.56,1.03-3.84,1.55-.28.12-.57.22-.84.35l-.8.43c-.53.28-1.07.56-1.61.85-1,.54-1.89.87-2.56,1.29-.69.39-1.25.69-1.75.89-1.01.38-1.7.44-2.39.32-.31-.06-.69-.07-.92-.16-.39-.17-.27-.62.3-1.33.57-.7,1.59-1.68,3.05-2.71,4.45-2.83,9.49-5.18,14.96-6.42,5.46-1.2,11.21-1.46,16.86-.77,2.09.33,4.19.59,6.22,1.22,1.02.29,2.05.51,3.05.87l2.97,1.11c.49.19.99.36,1.48.57l1.43.69,2.85,1.38c.91.53,1.81,1.08,2.71,1.62.9.54,1.82,1.07,2.65,1.72l-.04.08Z"/><path class="cls-1" d="M90.38,382.87c-3.93.79-7.78,1.05-11.69.92-1.42-.05-2.86-.06-4.29-.27-2.52-.38-5.06-1.04-7.46-2.41-.6-.34-1.18-.75-1.71-1.24-.54-.47-1.02-1.02-1.46-1.8-.72-1.44-.81-2.77-.91-4.06-.09-2.28,0-4.48.24-6.63.19-1.38.38-2.75.67-4.1.36-1.34.83-2.66,1.56-3.89.64-.72.53-.62.85.2.3.81.92,2.28.95,3.82-.23,2.69-.37,5.37-.61,7.92-.07,1.27-.1,2.55.02,3.66l.13.77c.07.19.11.45.17.6.05.22.39.71.76,1.06.9.93,2.35,1.54,3.86,1.88,1.53.35,3.15.51,4.77.61,3.57.21,7.25-.01,10.84-.55,1.1-.18,2.2-.39,3.25-.66.53-.14,1.04-.29,1.52-.47l.35-.13.2-.09c.13-.07.26-.14.37-.25.15-.17.23-.39.29-.61.09-.32.16-.72.21-1.12.1-.8.15-1.64.17-2.49.04-1.7-.04-3.42-.21-5.12-.27-2.65-.88-5.23-1.43-7.79-.12-.57-.29-1.11-.4-1.68-.12-.52-.17-.96-.16-1.34,0-.37.02-.68.11-.95.21-.54.49-.89.88-1.23.17-.15.32-.34.48-.45.27-.19.58-.1,1.02.23.42.32,1.01.88,1.32,1.67.54,1.16.82,2.37,1.16,3.59.31,1.22.57,2.46.79,3.72.38,2.52.6,5.1.64,7.76.01.99,0,1.99-.07,3.02-.04.52-.08,1.05-.16,1.6-.04.28-.08.55-.14.86-.03.15-.05.29-.09.45l-.15.58c-.29.88-.71,1.73-1.39,2.34-.16.16-.36.29-.54.42-.18.14-.37.27-.58.37-.2.11-.42.22-.61.3l-.42.17c-1.1.42-2.08.67-3.08.91l-.03-.1Z"/><path class="cls-1" d="M78.85,330.05l.23-3.16c.04-.39-.03-.77.01-1.16l.24-2.07c.09-.69.25-1.39.33-2.08.09-.61.07-1.22.14-1.83.06-.78.06-1.56.46-2.34.06-.24.13-.21.29-.01.09.1.15.24.38.41.09.08.24.17.32.27.07.1.13.2.17.31.27.78.63,1.54.76,2.32.13.78.21,1.56.16,2.36-.14.96.09,1.93.13,2.91.06,1.07-.03,2.15-.07,3.24l-.09,2c-.03,1.01-.12,2.02-.07,3.02.03.78.3,1.54.41,2.32.02.17.07.34.07.51,0,.32-.06.53-.25.67-.23.14-.52.21-.95.27-.19.02-.38.06-.56.07-.31.02-.59-.04-.86-.16-.27-.12-.56-.31-.65-.54-.74-1.36-.75-2.75-.78-4.15,0-1.04.05-2.09.07-3.15h.09Z"/><path class="cls-1" d="M88.08,329.44c-2.06,1.35-4.35,2.1-6.69,2.31-2.33.19-4.75-.13-6.94-1.25-.8-.4-1.56-.91-2.26-1.49-.33-.31-.66-.65-.96-.98-.26-.33-.51-.66-.75-1-.81-1.23-1.46-2.57-1.88-3.98-.43-1.41-.59-2.87-.58-4.29,0-2.87.77-5.57,1.8-8.05.93-2.21,2.02-4.32,3.26-6.31.81-1.27,1.6-2.56,2.64-3.67.51-.56,1.03-1.12,1.63-1.6.31-.24.62-.46.94-.68.15-.12.37-.17.55-.25.19-.07.37-.16.59-.2.51-.13.77-.12.8-.03.04.1-.11.29-.23.75-.22.95-.35,2.63-1.28,3.88-.41.56-.75,1.18-1.16,1.74-.41.56-.81,1.13-1.19,1.72-.76,1.16-1.47,2.36-2.11,3.58-1.27,2.45-2.26,5.01-2.7,7.63-.26,1.57-.14,3.2.35,4.71.47,1.49,1.4,2.93,2.39,4.04,1.04,1.15,2.64,1.87,4.35,2.1.86.12,1.75.14,2.63.03.88-.09,1.76-.3,2.59-.63,2.01-.78,3.89-2.23,4.49-4.12.49-1.42.3-3.12-.24-4.77-.54-1.65-1.39-3.27-2.35-4.82-1.5-2.42-3.33-4.59-4.96-7.09-.36-.55-.73-1.1-1.04-1.72-.29-.58-.5-1.08-.62-1.54-.13-.45-.12-.88-.1-1.2.07-.69.34-1.11.81-1.43.21-.14.41-.3.61-.37.34-.11.68.08,1,.38.16.15.36.35.53.57.2.24.39.48.6.8,1.1,1.91,2.7,3.92,4.23,6.09,1.57,2.17,3.07,4.55,4.29,7.33.87,2.05,1.63,4.48,1.27,7.26-.19,1.37-.71,2.76-1.51,3.88-.79,1.12-1.75,2-2.77,2.74l-.06-.07Z"/><path class="cls-1" d="M83.08,359.37c-.01-.09-.06-.25-.18-.26-.11-.02-.21.06-.27.17-.03.05-.05.11-.07.18l-.02.05s0,.01-.03.15l-.1.68c-.13.92-.22,1.93-.41,3.02-.04.26-.1.56-.17.85-.05.28-.15.6-.27.93-.07.31-.32.73-.54,1.12-.09.2-.23.38-.39.54l-.44.5c-.68.56-1.51.93-2.38,1.04-.89.12-1.62.01-2.33-.19-.7-.21-1.32-.52-1.88-.9-.28-.19-.54-.4-.79-.62l-.36-.34c-.11-.12-.22-.24-.36-.42-.46-.61-.79-1.37-.9-2.09-.16-1-.1-1.75-.05-2.48l.17-2.01c.03-.31.04-.61.04-.88,0-.17,0-.15,0-.2,0-.04,0-.08-.01-.12-.02-.15-.08-.32-.23-.41-.05-.02-.09-.05-.14-.06-.14-.03-.29.02-.43.08l-.1.05-.25.15c-.19.13-.38.27-.57.42-.38.3-.74.65-1.08,1.01-.18.2-.3.34-.5.59-.22.28-.46.55-.72.79-1.02.97-2.23,1.82-3.92,2.09-.83.13-1.82,0-2.64-.44-.83-.41-1.48-1.13-1.86-1.87-.75-1.5-.76-2.92-.69-4.2.1-1.25.3-2.49.62-3.69.65-2.4,1.72-4.68,3.14-6.69,1.27-1.84,2.81-3.48,4.53-4.89.86-.71,1.77-1.35,2.72-1.93.97-.56,1.97-1.07,3-1.46,1.32-.53,2.67-.96,4.05-1.26,1.38-.31,2.79-.51,4.22-.55,2.82-.06,5.84.5,8.23,2.22.65.69.85,1.03.75,1.13-.1.11-.55,0-1.31-.04-.41.05-.83-.01-1.31,0-.5.03-1.01,0-1.59.08-1.13.06-2.39.18-3.76.31-2.42.1-4.88.59-7.16,1.47-1.14.44-2.22.97-3.23,1.57-1.04.61-2.03,1.31-2.96,2.09-1.86,1.56-3.41,3.48-4.58,5.62-.57,1.08-1.03,2.21-1.37,3.38-.18.59-.3,1.18-.42,1.79-.08.6-.2,1.24-.21,1.77-.02.54.03,1.04.14,1.43.12.39.27.61.46.76.21.13.41.22.77.17.35-.04.8-.22,1.23-.51.43-.28.84-.65,1.18-1.06l.69-.84c.26-.3.52-.58.81-.86.28-.28.58-.54.89-.79.15-.13.33-.25.49-.37.18-.12.32-.23.6-.38.5-.3,1.03-.52,1.57-.68.55-.14,1.09-.14,1.63-.07.24.05.45.17.68.25l.34.13c.11.06.2.14.29.21.19.15.39.29.53.49.14.19.33.36.41.59.1.22.24.43.3.67l.19.73c.04.25.05.51.08.76l.04.38v.28c-.01,1.2-.16,2.25-.2,3.21-.03.48-.03.92.01,1.28.03.34.09.41.19.61.39.45,1.02.92,1.59,1.09.63.17.97.13,1.29-.11.12-.12.21-.24.28-.42l.14-.42.12-.52c.14-.73.24-1.53.34-2.36l.16-1.28.11-.73.21-.95c.31-1.25.81-2.36,1.6-3.09.58-.48,1.28-.78,2.06-.9.65-.08,1.32.14,1.77.54.47.38.84.89,1.15,1.51.31.62.54,1.34.75,2.07l.44,1.62c.14.49.27.97.56,1.4.25.44.91.66,1.32.31.32-.27.44-.69.55-1.09.05-.2.09-.41.13-.62l.14-1.04c.1-.79.18-1.59.35-2.47.1-.45.17-.89.49-1.48.14-.27.44-.7,1.02-.93.31-.12.5-.11.75-.12.24.02.47.06.65.14.77.32,1.07.75,1.4,1.12.3.38.54.75.76,1.12.44.73.81,1.44,1.2,2.12.45.79.6,1.04.91,1.42.27.33.7.69,1.16.52.27-.08.49-.28.65-.5.22-.31.33-.68.38-1.05.02-.22,0-.28.01-.6,0-.27-.07-.57-.09-.85-.21-1.16-.55-2.35-1.03-3.51-.91-2.32-2.16-4.54-3.6-6.59-.63-.9-1.32-1.73-2.03-2.55-1.31-1.55-2.29-2.35-2.88-3.06-.64-.62-.88-1.21-1.07-1.83-.09-.29-.25-.6-.3-.83-.07-.4.33-.54,1.29-.49.98.03,2.24.71,3.64,1.77,1.64,1.3,3.01,2.84,4.26,4.48,1.24,1.65,2.35,3.41,3.28,5.3.92,1.9,1.75,3.88,2.14,6.21.11.58.15,1.22.19,1.86l-.03.58-.05.77c-.08.47-.19.95-.35,1.4-.62,1.8-1.93,3.14-3.6,3.57-1.65.39-3.23-.26-4.45-1.7-.31-.36-.59-.74-.86-1.15-.13-.18-.29-.44-.38-.59l-.21-.35-.75-1.32c-.43-.77-.9-1.58-1.17-1.88-.03-.04-.05-.06-.05-.06h0s.09-.12.09-.12l.18-.2c.11-.13.21-.27.29-.41.32-.45.35-.78.34-.75h0s0,.02,0,.02h0c.06.27-.09-.36-.07-.3h0s0,.02,0,.02l.05.09c.04.06.08.08.19.2.1.1.17.11.34.25.16.11.31.18.49.27.11.06.22.12.33.17l.17.07.09.03s0,0,0,0c0,0-.01.04-.03.08-.14.45-.26,1.41-.36,2.31l-.09.71-.14.93c-.14.9-.34,1.8-.65,2.59-.63,1.58-1.62,2.56-3.02,2.96-.71.17-1.47.17-2.16-.01-.69-.19-1.29-.54-1.82-1.04-.54-.49-.99-1.17-1.36-1.95-.19-.39-.35-.81-.5-1.23l-.21-.65-.15-.52-.27-.98v-.08s.06-.09.06-.09Z"/><path class="cls-1" d="M208.94,248.46c1.93,3.06,3.62,6.3,4.83,9.81.59,1.76,1.06,3.6,1.26,5.56.09.98.12,1.99,0,3.03-.04.52-.16,1.04-.28,1.57-.18.55-.26.99-.64,1.67-.23.49-.54.79-.83,1.16-.3.3-.6.6-.91.85-.62.49-1.25.89-1.88,1.24-1.26.7-2.53,1.2-3.81,1.6-4.52,1.38-9.07,1.95-13.66,2.08-2.3.04-4.6-.02-6.92-.36-1.16-.16-2.32-.42-3.49-.79-1.16-.39-2.38-.86-3.44-1.95-.23-.25-.46-.5-.62-.83-.09-.16-.18-.32-.25-.47l-.15-.41c-.21-.53-.34-1.12-.43-1.72-.18-1.21.08-2.61.77-3.7.68-1.1,1.63-1.87,2.59-2.46.96-.59,1.96-1.02,2.96-1.36,2.58-.83,5.19-1.23,7.79-1.41.65-.04,1.3-.07,1.95-.08.65.04,1.3.09,1.95.17.65.06,1.29.18,1.93.31.64.15,1.29.23,1.91.5.77.39,1.08.63,1.04.72-.04.11-.45.14-1.14.44-.69.31-1.64.61-2.76,1.06-.56.21-1.16.38-1.79.57-.31.09-.64.16-.97.27-.33.03-.67.07-1.01.09-2.43.16-4.85.47-7.03,1.09-1.08.32-2.12.63-2.94,1.09-.83.45-1.31.95-1.5,1.4-.11.23-.14.52-.14.88.01.18.06.39.08.59l.18.62c0,.08.15.3.43.54.16.12.34.24.54.36.23.1.43.23.68.33,1.99.78,4.52,1.05,6.97,1.19,2.97.14,6.07-.1,9.1-.64,3.02-.54,6.07-1.34,8.7-2.55,1.4-.65,2.75-1.59,2.99-2.39.46-1.26.49-2.81.27-4.37-.46-3.15-1.78-6.32-3.36-9.29-1.97-3.67-4.4-7.14-7.17-10.28-2.11-2.36-4.43-4.58-7-6.3-.33-.24-.62-.37-.93-.57-.32-.14-.63-.31-.96-.41-.65-.25-1.32-.37-1.97-.36-1.3,0-2.52.65-2.89,1.69-.12.27-.15.64-.16.9.01.51.72,1.44,1.42,2.25.71.83,1.49,1.66,2.25,2.51,1.53,1.7,3.06,3.51,4.23,5.66.57,1.04,1.07,2.12,1.4,3.31.61,2.23.46,3.84.19,4.86-.27,1.04-.76,1.55-1.36,1.86-.27.14-.53.34-.75.39-.74.15-.79-1.59-1-4.09-.3-2.67-1.67-5.18-3.51-7.55-.91-1.2-1.96-2.35-3.09-3.56-.56-.61-1.14-1.23-1.73-1.98-.3-.39-.6-.77-.9-1.3-.08-.12-.15-.26-.23-.44-.09-.2-.19-.39-.24-.58-.13-.39-.2-.79-.22-1.2-.02-.16,0-.33,0-.49l.02-.42c.03-.28.1-.57.16-.85.15-.56.37-1.12.69-1.61.61-1.01,1.51-1.81,2.48-2.32,1.97-1.01,4.08-1.01,5.9-.58,1.16.27,2.19.82,3.13,1.39.81.53,1.6,1.08,2.34,1.67,1.49,1.17,2.86,2.43,4.15,3.76,2.57,2.65,4.85,5.53,6.86,8.59l-.08.06Z"/><path class="cls-1" d="M371.68,224.76l-1.2.12c-.39.04-.88.07-1.01.14-.2.01-.51.21-.78.31-.3.2-.6.33-.9.57-1.24.87-2.45,2.07-3.61,3.31-2.31,2.53-4.45,5.35-6.51,8.23-4.1,5.79-7.95,11.83-11.71,17.93-7.5,12.22-14.64,24.7-21.86,37.15-5.27,9.09-10.44,18.24-15.95,27.2-4.88,7.89-9.84,15.74-15.44,23.25-1.4,1.88-2.87,3.72-4.41,5.51-1.56,1.79-3.19,3.53-5.1,5.12-.96.79-1.99,1.54-3.24,2.13-.65.33-1.17.47-1.75.7-.57.2-1.13.43-1.7.59-2.28.72-4.58,1.29-6.88,1.77-9.23,1.86-18.5,2.5-27.7,3.39-9.17.89-18.39,1.77-27.1,4.28-1.9.6-3.8,1.25-5.57,2.11-1.8.8-3.45,1.86-4.93,3.07-1.5,1.2-2.63,2.72-3.48,4.36-.18.43-.4.84-.56,1.27l-.38,1.35c-.22.89-.25,1.7-.13,2.54.26,1.67,1.29,3.25,2.61,4.58,1.34,1.33,2.89,2.53,4.6,3.51,3.37,2.05,7.14,3.53,10.92,4.82,9.79,3.25,20.12,4.97,30.45,6.08,10.35,1.08,20.76,1.35,31.15,1.19,6.49.1,5.69.39.23,1.69-2.74.64-6.67,1.22-11.45,1.62-4.78.35-10.42.35-16.5-.16-10.77-.95-21.51-2.61-32-5.76-2.62-.78-5.22-1.69-7.78-2.75-2.57-1.04-5.09-2.28-7.52-3.81-2.41-1.54-4.81-3.37-6.64-6.07-.25-.31-.43-.7-.63-1.07-.19-.38-.39-.74-.55-1.14-.25-.84-.59-1.65-.62-2.56-.03-.45-.11-.89-.08-1.34l.14-1.33c.03-.47.17-.81.26-1.2l.32-1.13c.99-3.01,2.96-5.65,5.3-7.55,2.34-1.93,4.95-3.26,7.58-4.32,2.64-1.07,5.33-1.82,8.01-2.44,2.69-.64,5.39-1.09,8.08-1.51,10.78-1.56,21.53-2.1,32.14-3.34,3.17-.36,6.34-.8,9.48-1.4,3.13-.6,6.24-1.33,9.21-2.37l1.1-.41c.18-.07.38-.13.54-.2l.44-.21c.59-.29,1.2-.7,1.79-1.15,1.18-.91,2.32-2,3.41-3.15,2.17-2.33,4.18-4.88,6.12-7.5,3.87-5.26,7.44-10.81,10.94-16.41,3.49-5.6,6.86-11.28,10.2-16.94,7.36-12.46,14.53-25.05,21.86-37.57,3.67-6.26,7.38-12.5,11.21-18.67,3.84-6.17,7.78-12.3,12.17-18.16,1.36-1.8,2.76-3.58,4.28-5.29,1.52-1.71,3.12-3.37,5.1-4.8.99-.68,2.16-1.39,3.57-1.6,1.17-.1,2.36-.29,3.53-.3,1.16.04,2.33,0,3.48.12,1.14.14,2.29.25,3.42.41,4.52.72,8.87,1.99,13.15,3.38,4.27,1.41,8.47,3,12.62,4.66,3.66,1.48,7.35,2.93,11,4.27.92.35,1.83.65,2.74.93.46.16.9.27,1.34.36.43.1.92.23,1.2.23,1.38.03,3.06-.95,4.53-2.04,3-2.28,5.77-5.12,8.68-7.8,1.46-1.35,2.96-2.68,4.57-3.91,1.62-1.23,3.32-2.37,5.33-3.2.96-.35,2.05-.3,2.85-.03.43.1.78.3,1.17.45.36.18.69.38,1.04.57,1.31.82,2.43,1.78,3.49,2.78,2.11,2.02,3.95,4.21,5.68,6.48,3.43,4.55,6.44,9.37,8.74,14.61.53,1.23,1,2.5,1.38,3.82.35,1.34.67,2.72.47,4.37-.03.21-.1.42-.16.66-.06.23-.13.46-.26.66-.11.2-.24.41-.36.6-.14.18-.29.32-.41.46-.51.58-1.17,1.06-1.87,1.46-1.46.75-3.15.85-4.6.62-2.91-.52-5.29-1.85-7.58-3.11-2.29-1.28-4.44-2.69-6.63-3.76-1.09-.53-2.19-.98-3.2-1.16-.13-.03-.25-.04-.37-.05-.1,0-.16-.02-.24-.02-.15,0-.3,0-.45.04-.16,0-.26.14-.36.25l-.29.39c-1.45,1.97-2.83,4.19-4.22,6.34-2.79,4.33-5.6,8.67-8.82,12.84-1.43,1.83-2.88,3.62-4.7,5.3-.48.41-.97.82-1.54,1.21-.27.2-.63.38-.95.56-.18.09-.38.16-.62.24-.23.09-.46.16-.69.18-1.86.23-3.03-.22-4.29-.62-2.25-.81-3.99-1.83-5.57-2.78-1.57-.97-2.91-1.93-4.13-2.81-2.42-1.77-4.28-3.29-5.77-4.58-2.99-2.57-4.51-4.27-5.61-5.82-.5-.71-1.23-1.56-1.47-2.05-.42-.82.91-.39,3.6,1.2,2.7,1.56,6.61,4.44,11.66,7.87,1.86,1.28,3.79,2.45,5.69,3.53.48.28.95.51,1.43.74.48.25.95.44,1.42.62.48.22.92.31,1.36.44.24.09.41.07.59.1.17,0,.41.08.42.04.03,0,.06,0,.09-.02.02-.02,0-.02.07-.04.11-.03.29-.16.44-.23l.54-.39.56-.47c.75-.68,1.49-1.49,2.22-2.32,1.44-1.69,2.82-3.53,4.16-5.41,2.68-3.78,5.21-7.74,7.79-11.74.65-1,1.3-2.01,1.94-3.05l.5-.79.26-.4.13-.2.23-.31.49-.66.57-.63c.2-.19.46-.28.7-.42l.18-.1.05-.02s.06.05.02-.09l.1-.03.4-.1c.27-.06.53-.17.82-.18l.85-.06c.28-.04.57-.01.85.03.24.03.45.04.65.08.8.15,1.55.36,2.22.61,1.35.5,2.53,1.1,3.65,1.71,2.23,1.23,4.26,2.52,6.23,3.67,1.95,1.13,3.99,2.14,5.6,2.35.8.1,1.38.03,1.83-.24.11-.08.24-.12.36-.24.12-.09.25-.19.36-.33.07-.08.11-.12.13-.13,0,0-.02-.02-.01-.02.05,0-.04.04.02-.02.1-.38-.01-1.44-.27-2.4-.24-.99-.6-2.04-1.02-3.08-1.7-4.18-4.11-8.31-6.77-12.16-1.34-1.93-2.76-3.81-4.29-5.54-1.53-1.71-3.18-3.37-4.85-4.53-.29-.19-.58-.4-.85-.53-.14-.07-.28-.16-.41-.22l-.36-.14c-.13-.07-.21-.07-.3-.09-.07-.01-.2-.07-.2-.04-.04.02-.03-.02-.04,0,0,.02,0,.01,0-.01-1.19.51-2.52,1.31-3.75,2.25-1.25.94-2.48,1.99-3.7,3.11-2.45,2.23-4.82,4.67-7.49,7.04-1.36,1.17-2.78,2.33-4.53,3.36-.88.51-1.85,1-3.05,1.3-.3.08-.63.13-.94.18-.33.04-.69.05-1.03.07-.35-.01-.73-.05-1.08-.09l-.73-.17c-.48-.12-1-.23-1.44-.37l-1.3-.43c-.89-.28-1.68-.6-2.51-.9-1.65-.61-3.23-1.3-4.81-1.97-6.32-2.65-12.62-5.15-19-7.23-1.59-.55-3.2-.96-4.8-1.45l-2.41-.6c-.8-.21-1.61-.4-2.41-.53l-2.42-.46-2.4-.28c-.81-.13-1.59-.12-2.38-.14-.78,0-1.59-.09-2.33.04l-.04-.09Z"/><path class="cls-1" d="M170.6,269.9c-.23-.35-.5-.66-.87-.94-.13-.1-.29-.15-.43-.25-.49-.34-1.04-.66-1.64-.91-.27-.11-.55-.17-.83-.22-.36-.08-.71-.21-1.06-.43-.11-.07-.07-.22.06-.4.13-.17.36-.42.59-.49.21-.04.42-.11.62-.12.2.02.4.05.59.09.39.08.79.21,1.16.41.44.24.96.35,1.43.59.51.26,1,.61,1.42,1.02.26.25.5.52.72.81.34.43.58.93.83,1.42.19.38.46.76.6,1.23.03.1.08.2.09.31.05.4-.14.52-.72.52-.13,0-.27,0-.4,0-.45-.04-.82-.2-.94-.34-.39-.44-.48-.79-.69-1.24-.14-.33-.33-.68-.58-1l.03-.04Z"/><path class="cls-1" d="M346.35,120.44c-.06-.29.06-.53.24-.75.06-.07.25-.07.28.01.07.16.13.31.19.47.02.1.32,1.65.48,2.17.14.5.21,1.02.28,1.53l.47,3.12c.04.23.05.46.06.7,0,.81.11,1.6.26,2.4.02.13.03.27.12.39.15.2.4,2.38.38,2.67-.06.72-.07,1.43-.12,2.14,0,.1.03.21-.05.31-.18.23-.13.44-.13.66,0,.3-.04.61-.09.92-.03.15-.13.3-.21.45-.07.14-.35.07-.38.03-.09-.13-.22-.02-.33,0-.04,0-.09.01-.12,0-.05-.02-.71-1.69-.7-1.88,0-.02-.08-.65-.15-1.31-.09-.66-.18-1.35-.21-1.49-.03-.15,0-.3.02-.45,0-.07-.31-2.06-.29-2.14,0-.42-.1-.83.03-1.26.02-.08,0-.17,0-.25-.07-.72-.06-1.44-.08-2.16,0-.37-.05-.74-.07-1.1,0-.07.01-.13.02-.2,0-.08.02-.17.01-.25-.06-.87-.07-1.75-.12-2.62-.01-.2.11-1.17.1-1.41,0-.13.15-.56.12-.68Z"/><path class="cls-1" d="M339.65,130.38c-.18,0-.38-.17-.45-.32-.05-.19-.03-.4.1-.58.06-.11.32-.21.35-.19.07.04.2.05.25,0,0-.02.19-.03.51-.13.43-.1.91-.2,1.16-.26.47-.12.95-.18,1.43-.22l2.91-.31c.22-.02.43-.02.65,0,.75.08,1.49.05,2.23-.04.12-.01.25,0,.37-.09.19-.13,2.2-.26,2.46-.22.65.1,1.3.15,1.96.22.09.01.19-.02.28.06.21.19.4.15.6.15.28,0,.56.02.84.08.14.02.28.15.42.25.13.09.07.38.03.41-.12.1-.01.24,0,.36,0,.04.01.1,0,.13,0,.13-1.58.71-1.75.72-.02,0-.61.07-1.23.14-.62.07-1.27.15-1.4.17-.14.03-.28-.02-.42-.04-.07,0-1.92.24-2,.23-.39,0-.77.08-1.16-.07-.08-.03-.16-.02-.23-.01-.66.07-1.33,0-2-.03-.34-.02-.68.01-1.02.02-.06,0-.12-.02-.19-.03-.08-.01-.16-.03-.23-.03-.8.03-1.61-.03-2.41.05-.18.02-1.08-.13-1.29-.1-.16.04-.66-.28-.79-.31Z"/><path class="cls-1" d="M342.02,124.45c-.24-.14-.31-.4-.31-.71,0-.1.15-.25.23-.22.16.05.32.1.47.17.08.05,1.38.85,1.8,1.15.42.27.81.58,1.19.9l2.34,1.9c.17.14.33.3.48.46.51.57,1.09,1.07,1.7,1.54.1.08.19.17.33.2.23.05,1.83,1.37,2,1.59.47.56.87,1.03,1.31,1.55.06.07.16.12.17.24.02.28.2.39.34.54.2.21.4.41.56.66.08.12.1.31.14.47.04.15-.21.32-.27.31-.16-.02-.18.16-.25.26-.02.03-.06.08-.08.1-.07.06-1.66-.64-1.77-.78-.03-.03-1.87-1.54-2.1-1.73-.12-.08-.19-.22-.27-.34-.06-.05-1.52-1.29-1.58-1.34-.27-.29-.6-.52-.79-.91-.04-.08-.1-.13-.16-.18-.51-.46-.96-.98-1.44-1.48-.24-.26-.51-.48-.76-.73-.05-.04-.08-.1-.12-.15-.05-.06-.1-.13-.15-.19-.61-.56-1.16-1.19-1.8-1.72-.15-.12-.71-.86-.87-1.01-.09-.08-.26-.5-.35-.56Z"/><path class="cls-1" d="M343.43,134.93c-.05.27-.38.31-.73.31-.11,0-.35-.16-.35-.24,0-.17-.02-.35-.01-.52.01-.1.59-1.43.79-1.9.18-.45.42-.86.68-1.27l.78-1.22.85-1.16c.13-.17.27-.32.44-.46.56-.48,1.01-1.04,1.41-1.63.07-.1.15-.19.16-.32.03-.23,1.17-1.76,1.35-1.93.48-.41.9-.86,1.34-1.3.06-.06.09-.16.21-.17.28-.03.36-.21.48-.36.16-.21.34-.41.54-.59.1-.09.28-.13.43-.19.14-.05.38.17.39.23.02.16.21.16.33.22.04.02.09.05.12.07.07.05-.29,1.7-.42,1.83-.01.02-.32.52-.64,1.05-.32.52-.66,1.06-.74,1.18-.07.12-.19.2-.3.29-.05.05-1.06,1.59-1.11,1.63-.26.28-.44.62-.82.79-.07.03-.12.1-.16.16-.39.52-.85.96-1.28,1.43-.22.24-.4.51-.61.76-.04.04-.1.07-.15.11-.06.05-.13.09-.17.15-.49.59-1.04,1.13-1.46,1.77-.1.14-.75.72-.85.89-.06.09-.47.27-.5.38Z"/><path class="cls-1" d="M445.01,179.91c-.04-.19.04-.35.16-.49.04-.05.16-.04.18,0,.05.12.09.23.12.31.02.06.21,1.08.31,1.42.09.33.14.66.18,1l.31,2.04c.02.15.04.3.04.46,0,.53.07,1.05.17,1.57.02.09.02.18.08.26.1.13.26,1.56.25,1.74-.03.53-.05.94-.08,1.4,0,.07.02.14-.03.2-.12.15-.08.29-.09.43,0,.2-.03.4-.06.6-.02.1-.09.2-.14.3-.05.09-.23.05-.25.02-.06-.09-.14-.01-.22,0-.03,0-.06,0-.08,0-.03-.01-.46-1.11-.46-1.23,0-.01-.05-.42-.1-.86-.06-.43-.12-.88-.14-.98-.02-.1,0-.2.01-.29,0-.05-.2-1.35-.19-1.4,0-.27-.06-.54.02-.82.02-.06,0-.11,0-.16-.05-.47-.04-.94-.05-1.42,0-.24-.03-.48-.05-.72,0-.04,0-.09.01-.13,0-.06.01-.11,0-.17-.03-.58-.05-1.05-.08-1.72,0-.13.07-.77.06-.92,0-.09.1-.37.08-.44Z"/><path class="cls-1" d="M440.63,186.41c-.12,0-.25-.11-.3-.21-.04-.12-.01-.26.06-.38.05-.07.21-.14.23-.13.04.03.13.03.17,0,0-.01.12-.02.33-.09.28-.06.59-.13.76-.17.31-.08.62-.12.93-.15l1.9-.21c.14-.01.28-.02.43,0,.49.05.97.03,1.46-.02.08,0,.16,0,.24-.06.12-.09,1.44-.17,1.61-.15.43.07.85.1,1.28.15.06,0,.12-.02.18.04.13.13.26.1.4.1.18,0,.37.01.55.05.09.01.18.1.28.16.08.06.05.25.02.27-.08.07,0,.16,0,.24,0,.03,0,.06,0,.09,0,.09-1.03.46-1.15.47-.03,0-1.51.18-1.72.21-.09.02-.18-.01-.27-.03-.06,0-1.26.15-1.31.15-.25,0-.5.06-.76-.05-.05-.02-.1-.01-.15,0-.43.04-.87,0-1.31-.02-.22-.01-.44,0-.67.01-.04,0-.08-.01-.12-.02-.05,0-.1-.02-.15-.02-.53.02-1.05-.02-1.58.03-.12.01-.7-.09-.84-.07-.1.03-.43-.19-.52-.2Z"/><path class="cls-1" d="M442.18,182.53c-.16-.09-.2-.26-.2-.46,0-.06.1-.16.15-.15.1.03.21.07.31.11.06.03.9.56,1.18.75.27.18.53.38.78.59l1.53,1.24c.11.09.22.19.32.3.33.38.71.7,1.11,1.01.07.05.13.11.22.13.15.03,1.2.9,1.31,1.04.32.38.57.68.85,1.01.04.05.1.08.11.16.01.18.13.26.22.35.13.14.26.27.36.44.05.08.07.2.09.31.02.1-.14.21-.17.21-.1-.01-.11.1-.16.17-.02.02-.04.05-.06.06-.05.04-1.08-.42-1.16-.51-.02-.02-1.21-.99-1.38-1.13-.08-.06-.12-.14-.18-.22-.05-.04-1-.85-1.03-.88-.18-.19-.39-.34-.51-.6-.02-.05-.07-.08-.1-.12-.33-.3-.63-.64-.94-.97-.16-.17-.33-.32-.5-.48-.03-.03-.05-.07-.08-.1-.03-.04-.06-.09-.1-.12-.4-.37-.76-.78-1.18-1.13-.1-.08-.47-.56-.57-.66-.06-.06-.17-.33-.23-.36Z"/><path class="cls-1" d="M443.11,189.39c-.03.18-.25.2-.48.2-.08,0-.23-.1-.23-.16,0-.11-.01-.23,0-.34,0-.06.39-.94.51-1.24.12-.29.27-.57.44-.83.33-.54.68-1.07,1.06-1.56.08-.11.18-.21.28-.3.36-.31.66-.68.92-1.06.04-.06.1-.12.11-.21.02-.15.76-1.15.88-1.26.31-.27.59-.56.88-.85.04-.04.06-.1.14-.11.19-.02.23-.14.31-.24.11-.14.22-.27.36-.39.07-.06.18-.09.28-.12.09-.03.25.11.26.15.01.1.14.1.22.14.03.01.06.03.08.05.05.03-.19,1.11-.27,1.2-.01.02-.79,1.28-.9,1.46-.04.08-.13.13-.2.19-.03.05-.7,1.03-.73,1.07-.17.18-.29.4-.53.52-.05.02-.08.07-.1.1-.25.34-.55.63-.84.94-.15.16-.26.33-.4.5-.03.03-.06.05-.1.07-.04.03-.08.06-.11.09-.32.39-.68.74-.95,1.16-.07.09-.49.47-.56.58-.04.06-.31.18-.33.25Z"/><path class="cls-1" d="M273.3,221.35c-.05-.22.05-.41.19-.58.05-.05.19-.05.22.01.05.12.1.24.15.36.02.08.25,1.27.38,1.67.11.39.16.78.22,1.18l.37,2.4c.03.18.04.36.04.54,0,.62.08,1.23.2,1.85.02.1.03.21.09.3.12.15.31,1.83.29,2.06-.03.61-.06,1.11-.09,1.65,0,.08.02.16-.04.24-.14.17-.1.34-.1.51,0,.23-.03.47-.08.71-.02.12-.1.23-.17.35-.06.11-.27.06-.3.02-.07-.1-.17-.01-.26,0-.03,0-.07,0-.09,0-.04-.01-.56-1.3-.55-1.45,0-.02-.06-.5-.12-1.01-.07-.51-.14-1.04-.16-1.15-.02-.11,0-.23.01-.35,0-.05-.24-1.59-.23-1.65,0-.32-.07-.64.02-.97.02-.07,0-.13,0-.19-.06-.55-.05-1.11-.06-1.67,0-.28-.04-.57-.05-.85,0-.05,0-.1.01-.16,0-.07.01-.13.01-.2-.03-.68-.05-1.26-.09-2.02,0-.16.09-.91.08-1.08,0-.1.12-.43.1-.52Z"/><path class="cls-1" d="M268.14,229.02c-.32-.04-.5-.39-.27-.7.06-.09.25-.18.27-.17.06.04.15.02.2,0,0-.01.14-.02.39-.1.33-.08.7-.16.89-.2.36-.09.73-.14,1.1-.17l2.24-.24c.17-.02.33-.02.5,0,.58.07,1.15.04,1.72-.03.09-.01.19,0,.28-.07.15-.1,1.7-.21,1.9-.17.5.08,1.01.12,1.51.18.07,0,.15-.02.21.05.16.15.31.12.47.12.21,0,.43.02.65.06.11.02.22.12.32.19.1.07.06.3.03.33-.09.08,0,.19,0,.28,0,.03.01.08,0,.1,0,.1-1.22.56-1.35.57-.02,0-.47.05-.95.11-.47.06-.96.12-1.08.14-.11.02-.22-.01-.32-.03-.07,0-1.48.18-1.54.18-.3,0-.59.07-.9-.06-.06-.02-.12-.01-.18,0-.51.05-1.03,0-1.54-.02-.26-.01-.52.01-.79.01-.05,0-.1-.02-.14-.03-.06,0-.12-.03-.18-.02-.62.02-1.24-.03-1.86.04-.14.01-.83-.11-.99-.08-.12.03-.51-.22-.62-.24Z"/><path class="cls-1" d="M269.96,224.45c-.18-.11-.24-.31-.23-.55,0-.08.12-.2.18-.18.12.04.25.08.36.13.07.04,1.07.65,1.39.88.32.21.62.45.92.69l1.81,1.46c.13.11.26.23.37.36.39.44.84.83,1.31,1.19.08.06.15.13.26.15.17.04,1.41,1.06,1.54,1.22.37.44.67.8,1,1.19.05.06.12.09.13.19.01.22.15.3.26.42.15.16.31.32.43.51.06.1.08.24.11.37.03.12-.17.25-.21.25-.12-.01-.14.13-.2.2-.02.03-.05.06-.07.08-.06.05-1.28-.49-1.37-.6-.02-.02-1.43-1.18-1.62-1.33-.09-.07-.15-.17-.21-.26-.05-.04-1.17-.99-1.22-1.03-.21-.23-.46-.4-.61-.7-.03-.06-.08-.1-.12-.14-.39-.35-.74-.75-1.1-1.14-.19-.2-.39-.37-.58-.56-.03-.03-.06-.08-.09-.12-.04-.05-.07-.1-.12-.14-.47-.43-.89-.92-1.38-1.33-.11-.09-.55-.66-.67-.78-.07-.07-.2-.39-.27-.43Z"/><path class="cls-1" d="M271.06,232.53c-.04.21-.29.24-.57.24-.09,0-.27-.12-.28-.19,0-.13-.02-.27-.01-.41,0-.08.45-1.11.6-1.47.14-.35.32-.67.52-.98.39-.64.8-1.26,1.25-1.84.1-.13.21-.25.34-.36.43-.37.78-.8,1.09-1.25.05-.08.12-.14.12-.25.02-.18.9-1.36,1.04-1.49.37-.31.7-.66,1.04-.99.05-.05.07-.12.16-.13.22-.02.28-.16.37-.28.13-.16.26-.32.42-.46.08-.07.22-.1.34-.14.11-.04.3.14.31.18.02.12.16.12.26.17.03.02.07.04.1.06.06.04-.22,1.32-.31,1.42,0,.01-.24.4-.49.81-.25.4-.51.81-.57.91-.05.09-.15.15-.23.22-.04.06-.82,1.22-.85,1.26-.2.21-.34.48-.63.61-.06.03-.09.08-.12.12-.3.4-.65.74-.99,1.1-.17.18-.31.39-.47.58-.03.03-.08.05-.11.08-.05.04-.1.07-.13.11-.38.46-.81.87-1.13,1.36-.08.11-.58.55-.66.69-.05.07-.37.21-.39.29Z"/><path class="cls-1" d="M154.32,144.44c-.04-.19.04-.35.16-.49.04-.05.16-.04.18,0,.05.12.09.23.12.31.02.06.21,1.08.31,1.42.09.33.14.66.18,1l.31,2.04c.02.15.04.3.04.46,0,.53.07,1.05.17,1.57.02.09.02.18.08.26.1.13.26,1.56.25,1.74-.03.53-.05.94-.08,1.4,0,.07.02.14-.03.2-.12.15-.08.29-.09.43,0,.2-.03.4-.06.6-.02.1-.09.2-.14.3-.05.09-.23.05-.25.02-.06-.09-.14-.01-.22,0-.03,0-.06,0-.08,0-.03-.01-.46-1.11-.46-1.23,0-.01-.05-.42-.1-.86-.06-.43-.12-.88-.14-.98-.02-.1,0-.2.01-.29,0-.05-.2-1.35-.19-1.4,0-.27-.06-.54.02-.82.02-.06,0-.11,0-.16-.05-.47-.04-.94-.05-1.42,0-.24-.03-.48-.05-.72,0-.04,0-.09.01-.13,0-.06.01-.11,0-.17-.03-.58-.05-1.05-.08-1.72,0-.13.07-.77.06-.92,0-.09.1-.37.08-.44Z"/><path class="cls-1" d="M149.94,150.94c-.12,0-.25-.11-.3-.21-.04-.12-.01-.26.06-.38.05-.07.21-.14.23-.13.04.03.13.03.17,0,0-.01.12-.02.33-.09.28-.06.59-.13.76-.17.31-.08.62-.12.93-.15l1.9-.21c.14-.01.28-.02.43,0,.49.05.97.03,1.46-.02.08,0,.16,0,.24-.06.12-.09,1.44-.17,1.61-.15.43.07.85.1,1.28.15.06,0,.12-.02.18.04.13.13.26.1.4.1.18,0,.37.01.55.05.09.01.18.1.28.16.08.06.05.25.02.27-.08.07,0,.16,0,.24,0,.03,0,.06,0,.09,0,.09-1.03.46-1.15.47-.03,0-1.51.18-1.72.21-.09.02-.18-.01-.27-.03-.06,0-1.26.15-1.31.15-.25,0-.5.06-.76-.05-.05-.02-.1-.01-.15,0-.43.04-.87,0-1.31-.02-.22-.01-.44,0-.67.01-.04,0-.08-.01-.12-.02-.05,0-.1-.02-.15-.02-.53.02-1.05-.02-1.58.03-.12.01-.7-.09-.84-.07-.1.03-.43-.19-.52-.2Z"/><path class="cls-1" d="M151.49,147.06c-.16-.09-.2-.26-.2-.46,0-.06.1-.16.15-.15.1.03.21.07.31.11.06.03.9.56,1.18.75.27.18.53.38.78.59l1.53,1.24c.11.09.22.19.32.3.33.38.71.7,1.11,1.01.07.05.13.11.22.13.15.03,1.2.9,1.31,1.04.32.38.57.68.85,1.01.04.05.1.08.11.16.01.18.13.26.22.35.13.14.26.27.36.44.05.08.07.2.09.31.02.1-.14.21-.17.21-.1-.01-.12.1-.16.17-.02.02-.04.05-.06.06-.05.04-1.08-.42-1.16-.51-.02-.02-1.21-.99-1.38-1.13-.08-.06-.12-.14-.18-.22-.05-.04-1-.85-1.03-.88-.18-.19-.39-.34-.51-.6-.02-.05-.07-.08-.1-.12-.33-.3-.63-.64-.94-.97-.16-.17-.33-.32-.5-.48-.03-.03-.05-.07-.08-.1-.03-.04-.06-.09-.1-.12-.4-.37-.76-.78-1.18-1.13-.1-.08-.47-.56-.57-.66-.06-.06-.17-.33-.23-.36Z"/><path class="cls-1" d="M152.42,153.91c-.03.18-.25.2-.48.2-.08,0-.23-.1-.23-.16,0-.11-.01-.23,0-.34,0-.06.39-.94.51-1.24.12-.29.28-.57.44-.83.33-.54.68-1.07,1.06-1.56.08-.11.18-.21.28-.3.36-.31.66-.68.92-1.06.04-.06.1-.12.11-.21.02-.15.76-1.15.88-1.26.31-.27.59-.56.88-.85.04-.04.06-.1.14-.11.19-.02.23-.14.31-.24.11-.14.22-.27.36-.39.07-.06.18-.09.28-.12.09-.03.25.11.26.15.01.1.14.1.22.14.03.01.06.03.08.05.05.03-.19,1.11-.27,1.2-.01.02-.79,1.28-.9,1.46-.04.08-.13.13-.2.19-.03.05-.7,1.03-.73,1.07-.17.18-.29.4-.53.52-.05.02-.08.07-.1.1-.25.34-.55.63-.84.94-.15.16-.26.33-.4.5-.03.03-.06.05-.09.07-.04.03-.08.06-.11.09-.32.39-.68.74-.95,1.16-.07.09-.49.47-.56.58-.04.06-.31.18-.33.25Z"/><path class="cls-1" d="M58.68,258.94c-.06-.3.06-.55.26-.78.06-.07.26-.07.3.01.07.16.14.33.2.49.02.1.34,1.71.5,2.25.15.52.22,1.05.29,1.58.15,1.08.32,2.15.49,3.23.04.24.06.48.06.72,0,.84.11,1.66.27,2.49.03.14.03.28.12.41.16.2.42,2.47.4,2.77-.06.74-.07,1.48-.12,2.22,0,.11.03.22-.05.32-.19.23-.14.46-.14.69-.01.32-.04.63-.1.95-.03.16-.14.32-.22.47-.08.14-.37.08-.4.03-.1-.14-.23-.02-.35,0-.04,0-.09.01-.13,0-.06-.02-.74-1.76-.73-1.95,0-.02-.08-.68-.16-1.36-.09-.69-.19-1.4-.22-1.55-.03-.15,0-.31.02-.47,0-.07-.32-2.13-.3-2.22,0-.43-.1-.86.03-1.31.02-.09.01-.18,0-.26-.07-.74-.06-1.49-.08-2.24,0-.38-.05-.76-.07-1.15,0-.07.01-.14.02-.21,0-.09.02-.18.01-.26-.06-.91-.07-1.82-.12-2.72-.01-.21.12-1.22.1-1.46,0-.14.15-.59.13-.7Z"/><path class="cls-1" d="M51.73,269.26c-.42-.05-.67-.52-.37-.94.08-.12.33-.24.36-.22.07.05.2.03.27,0,0-.01.19-.03.53-.14.45-.1.94-.21,1.2-.27.49-.12.99-.18,1.48-.23l3.02-.33c.22-.02.45-.02.67,0,.77.09,1.54.05,2.31-.04.13-.02.26-.01.38-.09.2-.14,2.28-.28,2.56-.23.68.11,1.35.16,2.03.23.1.01.2-.03.29.06.21.2.42.16.63.16.29,0,.58.02.87.08.14.02.29.16.44.26.13.09.08.4.03.44-.12.11-.01.25,0,.38,0,.04.01.1,0,.14,0,.14-1.64.74-1.82.75-.02,0-.63.07-1.28.15-.64.08-1.31.16-1.45.18-.14.03-.29-.02-.43-.04-.07-.01-1.99.25-2.07.24-.4,0-.8.09-1.21-.08-.08-.03-.16-.02-.24-.01-.69.07-1.38,0-2.07-.03-.35-.02-.7.01-1.06.02-.06,0-.13-.02-.19-.03-.08-.01-.16-.03-.24-.03-.83.03-1.67-.04-2.5.05-.19.02-1.12-.14-1.34-.11-.16.04-.69-.3-.83-.32Z"/><path class="cls-1" d="M54.19,263.1c-.25-.15-.32-.42-.32-.74,0-.1.16-.26.24-.23.16.05.33.11.49.17.09.05,1.43.88,1.87,1.19.43.28.84.6,1.24.93l2.43,1.97c.18.15.35.31.5.48.53.6,1.13,1.11,1.77,1.6.11.08.2.18.34.21.23.05,1.9,1.42,2.08,1.64.49.58.91,1.07,1.35,1.61.06.08.16.12.17.25.02.29.2.41.35.56.21.22.42.42.58.69.08.13.1.32.15.49.04.15-.22.34-.28.33-.17-.02-.18.17-.26.27-.03.04-.06.08-.09.1-.03.02-.48-.12-.91-.32-.43-.2-.87-.42-.93-.49-.03-.03-1.94-1.6-2.18-1.8-.12-.09-.2-.23-.28-.35-.06-.05-1.58-1.34-1.64-1.39-.28-.3-.62-.54-.82-.95-.04-.08-.1-.13-.17-.19-.53-.48-1-1.01-1.49-1.53-.25-.27-.52-.5-.79-.76-.05-.05-.08-.11-.12-.16-.05-.07-.1-.14-.16-.19-.63-.58-1.2-1.23-1.86-1.79-.15-.13-.74-.89-.9-1.05-.09-.09-.26-.52-.37-.58Z"/><path class="cls-1" d="M55.66,273.97c-.05.28-.39.32-.76.32-.12,0-.37-.16-.37-.26,0-.18-.02-.37-.02-.55.01-.1.61-1.49.81-1.97.19-.47.44-.9.7-1.31l.8-1.27c.29-.41.58-.81.88-1.2.13-.17.28-.34.45-.48.58-.49,1.05-1.08,1.46-1.69.07-.1.16-.19.17-.34.03-.24,1.21-1.83,1.4-2,.5-.42.94-.89,1.4-1.34.06-.07.09-.16.22-.18.3-.03.37-.22.5-.37.17-.22.35-.43.57-.61.11-.09.29-.14.45-.19.15-.05.4.18.41.24.02.16.22.16.34.23.04.02.1.05.13.08.08.06-.3,1.77-.42,1.9-.01.02-.33.54-.66,1.09-.34.54-.69,1.1-.77,1.23-.07.13-.2.21-.31.3-.05.05-1.09,1.65-1.15,1.7-.27.29-.45.64-.85.82-.08.04-.12.1-.17.17-.4.53-.88,1-1.33,1.48-.23.25-.42.53-.64.79-.04.05-.1.07-.15.11-.06.05-.13.09-.18.15-.5.61-1.08,1.17-1.52,1.84-.11.15-.78.74-.89.93-.06.1-.49.28-.52.39Z"/><path class="cls-1" d="M461.08,319.53c-.04-.19.04-.35.16-.49.04-.05.16-.04.18,0,.05.12.09.23.12.31.02.06.21,1.08.31,1.42.09.33.14.66.18,1l.31,2.04c.02.15.04.3.04.46,0,.53.07,1.05.17,1.57.02.09.02.18.08.26.1.13.26,1.56.25,1.74-.03.53-.05.94-.08,1.4,0,.07.02.14-.03.2-.12.15-.08.29-.09.43,0,.2-.03.4-.06.6-.02.1-.09.2-.14.3-.05.09-.23.05-.25.02-.06-.09-.14-.01-.22,0-.03,0-.06,0-.08,0-.03-.01-.46-1.11-.46-1.23,0-.01-.05-.42-.1-.86-.06-.43-.12-.88-.14-.98-.02-.1,0-.2.01-.29,0-.05-.2-1.35-.19-1.4,0-.27-.06-.54.02-.82.02-.06,0-.11,0-.16-.05-.47-.04-.94-.05-1.42,0-.24-.03-.48-.05-.72,0-.04,0-.09.01-.13,0-.06.01-.11,0-.17-.03-.58-.05-1.05-.08-1.72,0-.13.07-.77.06-.92,0-.09.1-.37.08-.44Z"/><path class="cls-1" d="M456.7,326.03c-.12,0-.25-.11-.3-.21-.04-.12-.01-.26.06-.38.05-.07.21-.14.23-.13.04.03.13.03.17,0,0-.01.12-.02.33-.09.28-.06.59-.13.76-.17.31-.08.62-.12.93-.15l1.9-.21c.14-.01.28-.02.43,0,.49.05.97.03,1.46-.02.08,0,.16,0,.24-.06.12-.09,1.44-.17,1.61-.15.43.07.85.1,1.28.15.06,0,.12-.02.18.04.13.13.26.1.4.1.18,0,.37.01.55.05.09.01.18.1.28.16.08.06.05.25.02.27-.08.07,0,.16,0,.24,0,.03,0,.06,0,.09,0,.09-1.03.46-1.15.47-.03,0-1.51.18-1.72.21-.09.02-.18-.01-.27-.03-.06,0-1.26.15-1.31.15-.25,0-.5.06-.76-.05-.05-.02-.1-.01-.15,0-.43.04-.87,0-1.31-.02-.22-.01-.44,0-.67.01-.04,0-.08-.01-.12-.02-.05,0-.1-.02-.15-.02-.53.02-1.05-.02-1.58.03-.12.01-.7-.09-.84-.07-.1.03-.43-.19-.52-.2Z"/><path class="cls-1" d="M458.25,322.15c-.16-.09-.2-.26-.2-.46,0-.06.1-.16.15-.15.1.03.21.07.31.11.06.03.9.56,1.18.75.27.18.53.38.78.58l1.53,1.24c.11.09.22.19.32.3.33.38.71.7,1.11,1.01.07.05.13.11.22.13.15.03,1.2.9,1.31,1.04.32.38.57.68.85,1.01.04.05.1.08.11.16.01.18.13.26.22.35.13.14.26.27.36.44.05.08.07.2.09.31.02.1-.14.21-.17.21-.1-.01-.11.1-.16.17-.02.02-.04.05-.06.06-.05.04-1.08-.42-1.16-.51-.02-.02-1.21-.99-1.38-1.13-.08-.06-.12-.14-.18-.22-.05-.04-1-.85-1.03-.88-.18-.19-.39-.34-.51-.6-.02-.05-.07-.08-.1-.12-.33-.3-.63-.64-.94-.97-.16-.17-.33-.32-.5-.48-.03-.03-.05-.07-.08-.1-.03-.04-.06-.09-.1-.12-.4-.37-.76-.78-1.18-1.13-.1-.08-.47-.56-.57-.66-.06-.06-.17-.33-.23-.36Z"/><path class="cls-1" d="M459.18,329.01c-.03.18-.25.2-.48.2-.08,0-.23-.1-.23-.16,0-.11-.01-.23,0-.34,0-.06.39-.94.51-1.24.12-.29.27-.57.44-.83.33-.54.68-1.07,1.06-1.56.08-.11.18-.21.28-.3.36-.31.66-.68.92-1.06.04-.06.1-.12.11-.21.02-.15.76-1.15.88-1.26.31-.27.59-.56.88-.85.04-.04.06-.1.14-.11.19-.02.23-.14.31-.24.11-.14.22-.27.36-.39.07-.06.18-.09.28-.12.09-.03.25.11.26.15.01.1.14.1.22.14.03.01.06.03.08.05.05.03-.19,1.11-.27,1.2-.01.02-.79,1.28-.9,1.46-.04.08-.13.13-.2.19-.03.05-.7,1.03-.73,1.07-.17.18-.29.4-.53.52-.05.02-.08.07-.1.1-.25.34-.55.63-.84.94-.15.16-.26.33-.4.5-.03.03-.06.05-.09.07-.04.03-.08.06-.11.09-.32.39-.68.74-.95,1.16-.07.09-.49.47-.56.58-.04.06-.31.18-.33.25Z"/></svg>