<?xml version="1.0" encoding="UTF-8"?><svg id="Layer_1" xmlns="http://www.w3.org/2000/svg" width="520" height="520" viewBox="0 0 520 520"><defs><style>.cls-1,.cls-2,.cls-3{fill:#231f20;}.cls-4{opacity:.35;}.cls-2{opacity:.65;}.cls-3{opacity:.45;}</style></defs><path class="cls-1" d="M219.67,470.55c-2.45.24-4.52-.16-6.46-.48-.61-.11-.61-.6.08-.84,1.35-.44,2.71-1,4.12-1.45.42-.19,4.1-.87,8.27-1.26,4.18-.4,8.83-.44,11.18-.5,4.56-.1,9.11.09,13.65.34,9.21.53,18.4,1.24,27.5,1.8,2.02.12,4.04.28,6.02.44,1.72.16,3.4.22,5.06.25.81-.03,1.59-.02,2.43-.08.85-.07,1.69-.15,2.54-.25,3.39-.38,6.8-.97,10.2-1.63,1.13-.22,2.31-.41,3.38-.78.89-.28,5.94-1.39,11.25-2.31,5.42-.97,10.98-1.09,12.22-1.07,6.26.14,12.32.5,18.44.77.87.04,1.8,0,2.59.19,1.84.46,3.72.4,5.61.45,2.62.07,5.24.17,7.85.34,1.29.07,2.57.39,3.84.61,1.16.21.52.78.11.85-1.18.19-.23.49-.12.74.04.09.08.2.02.27-.03.04-1,.15-2.45.32-1.46.11-3.4.25-5.39.39-3.99.27-8.16.52-8.98.51-.2,0-5.8.05-11.65.09-2.93.02-5.89.07-8.26.17-2.37.1-4.16.24-4.76.3-1.26.13-2.53.12-3.79.2-.15,0-1.31.15-2.96.43-1.67.29-3.87.73-6.09,1.2-4.43.95-8.94,1.91-9.3,1.96-3.62.61-7.25,1.42-10.99,1.48-.73.01-1.49.13-2.23.21-.78.11-1.64.15-2.48.19l-1.27.06h-1.22s-2.43-.05-2.43-.05l-2.38-.12c-3.18-.17-6.31-.44-9.44-.7-3.2-.27-6.39-.45-9.58-.68-.57-.04-1.14-.14-1.72-.21-.72-.09-1.44-.19-2.16-.24-7.54-.48-15.06-1.17-22.57-1.17-.86.02-3.36-.17-5.88-.27-2.52-.09-5.08-.16-6.06-.12-.55.02-1.74-.13-2.93-.26-1.18-.12-2.34-.15-2.82-.08Z"/><path class="cls-1" d="M280.45,209.77c-.38-1.8-.32-3.6,0-5.3.12-.62.21-1.24.4-1.84.66-2.12,1.76-4,2.99-5.72.54-.77,1.08-1.53,1.65-2.25.72-.94,1.48-1.85,2.31-2.68.26-.26.33-.14.28.21-.06.34-.21.95-.53,1.54-.58,1.03-1.16,2.06-1.74,3.1-.61.99-1.2,1.98-1.78,2.98-.73,1.19-1.13,2.57-1.42,3.92-.33,1.49-.45,3.02-.23,4.51.13.91.37,1.81.78,2.63.59,1.23,1.56,2.33,2.73,3.05.93.53,1.98.76,2.96.73.22,0,.43-.03.64-.06.77-.05,1.03.08,1.37.63.08.13.17.25.23.38.22.41-.07.95-.88,1.24-1.2.38-2.55.27-3.77-.13-1.23-.41-2.35-1.11-3.28-2-1.4-1.3-2.35-3.13-2.77-4.91l.05-.02Z"/><path class="cls-1" d="M364.13,262.1c-.21-1.02-.38-2.07-.66-3.08-.13-.51-.25-1.02-.4-1.53l-.48-1.51c-.22-.74-.56-1.43-.84-2.15-.97-2.54-2.12-5.03-3.58-7.34-.29-.54-.63-1.04-.98-1.54-.35-.49-.69-1-1.06-1.48l-1.47-1.81c-.51-.58-1.02-1.18-1.49-1.8-.3-.39-.11-.49.34-.35.45.14,1.19.49,1.88,1.11,2.35,2.26,4.51,4.81,5.92,7.82.89,1.76,1.88,3.56,2.66,5.42.44,1.02.78,2.08,1.16,3.12.3,1.07.66,2.12.9,3.2l.46,1.99.34,2.01c.19,1.01.26,2.05.39,3.06.08,1.03.16,2.05.24,3.07.03.79.1,1.58.17,2.36.05.79.08,1.57.11,2.37.02.35.04.69,0,1.04-.1,1.3-.31,1.7-.96,1.89-.15.04-.3.11-.44.13-.49.06-.84-.5-.91-1.42-.2-2.71-.18-5.51-.46-8.32-.07-1.05-.24-2.08-.34-3.13-.19-1.03-.32-2.08-.56-3.11l.06-.02Z"/><g class="cls-4"><path class="cls-1" d="M347.17,427.21c.94-2.56,1.58-5.21,2.14-7.86.44-2.66.8-5.39.87-8.15.04-1,.06-2.01,0-3.01-.04-1-.02-2.01-.09-3.01-.07-3.55-.48-7.1-1.06-10.63-.57-3.53-1.45-7.02-2.55-10.43-.96-3.04-2.24-5.99-3.61-8.84-.46-.9-.95-1.8-1.39-2.71l-1.45-2.69c-1.02-1.76-2.03-3.53-2.99-5.37-.59-1.15-.38-1.11.56-.45.54.38,1.21.85,1.97,1.38.77.62,1.53,1.46,2.3,2.41,5.3,6.89,8.42,15.23,10.09,23.73.95,5.1,1.92,10.43,2.07,15.76l.03,2.19-.08,2.2c-.02,1.46-.21,2.92-.32,4.38-.36,2.92-.87,5.83-1.67,8.65-.92,3.49-2.22,6.86-3.71,10.11-2.27,4.94-5.17,9.57-8.38,13.88-2.52,3.33-5.09,6.56-8.11,9.44-.68.62-1.31,1.27-2.05,1.82-2.67,2.18-3.87,2.39-4.9,2.15-.24-.06-.52-.09-.69-.18-.3-.16-.24-.54.1-1.11.33-.57.94-1.32,1.81-2.13.62-.63,1.25-1.27,1.87-1.91.62-.64,1.2-1.34,1.81-1.99.64-.62,1.23-1.31,1.83-1.98.61-.67,1.22-1.33,1.79-2.05,2.37-2.76,4.58-5.73,6.54-8.86,2.97-4.61,5.45-9.58,7.17-14.79l.1.02Z"/></g><g class="cls-4"><path class="cls-1" d="M364.93,428.26c1.24-2.81,2.25-5.63,3.04-8.55.34-1.47.79-2.92.99-4.44.24-1.5.55-3,.64-4.52.09-1.11.2-2.22.23-3.34,0-1.12,0-2.23.04-3.35.12-7.88-1.06-15.83-3.33-23.46-.57-1.67-1.08-3.37-1.77-4.99-.69-1.62-1.39-3.24-2.19-4.8-.52-1-.95-2.04-1.56-2.99-.56-.97-1.15-1.93-1.68-2.93-.6-.95-1.18-1.92-1.76-2.89-.59-.97-1.27-1.88-1.88-2.85-.71-1.27-.61-1.13.47-.47.55.32,1.31.8,2.26,1.4.92.62,1.86,1.48,2.84,2.47,3.23,3.67,5.77,7.91,7.6,12.42,1.86,4.5,2.99,9.27,3.72,14.07.84,5.74,1.57,11.74,1.35,17.69-.25,6.52-1.37,13.04-3.64,19.2-1.4,3.75-3.1,7.37-5.07,10.84-1.51,2.62-3.16,5.17-5.03,7.55-.89,1.22-1.92,2.34-2.88,3.5-1.04,1.09-2.02,2.24-3.11,3.27-3.3,3.29-6.79,6.32-10.67,8.88-.86.56-1.66,1.16-2.58,1.64-.84.45-1.56.8-2.16,1.07-.61.26-1.13.41-1.57.51-.88.19-1.47.12-2.03-.16-.26-.13-.56-.23-.75-.38-.61-.53.5-1.74,2.75-3.15,3.3-2.19,6.6-4.43,9.68-7.03,3.09-2.58,5.98-5.46,8.56-8.62,1.92-2.34,3.69-4.82,5.24-7.45,1.56-2.62,2.99-5.34,4.16-8.18l.1.03Z"/></g><g class="cls-4"><path class="cls-1" d="M204.35,426.66c-1.81-5.89-2.91-12-3.17-18.14-.12-2.24-.19-4.48-.11-6.72.44-7.88,2.05-15.68,4.95-22.95,1.21-3.25,2.68-6.42,4.24-9.48,2.03-3.92,4.34-7.76,7.43-10.94,1.19-.81.95-.75.63.46-.14.62-.47,1.38-.88,2.29-.42.9-.82,2.01-1.5,3.03-4.55,7.48-7.71,15.66-9.93,24.17-1.37,5.09-1.81,10.61-1.86,15.99-.06,2.96.16,5.93.46,8.88.4,2.94.87,5.88,1.63,8.76.41,1.79.99,3.53,1.52,5.28.63,1.72,1.22,3.46,1.97,5.14,2.18,5.11,4.89,10.05,8.23,14.46,2.57,3.45,5.56,6.45,8.71,9.25.35.31.69.61,1.04.92.36.29.72.58,1.08.88.66.56,1.21,1.03,1.65,1.44.46.39.81.73,1.09,1.03.55.6.75,1.1.81,1.66.03.25.1.54.07.74-.08.68-1.57.26-3.77-1.24-6.39-4.58-12.15-10.83-16.55-17.95-1.68-2.61-3.1-5.4-4.44-8.2-1.26-2.85-2.44-5.74-3.35-8.72l.07-.03Z"/></g><g class="cls-4"><path class="cls-1" d="M220.63,429.76c-1.8-5.97-2.68-12.18-2.67-18.37.02-1.13-.02-2.26.03-3.38.08-1.12.17-2.25.28-3.37.89-7.9,3.25-15.52,6.52-22.62.75-1.57,1.43-3.17,2.28-4.69.8-1.54,1.56-3.1,2.5-4.54l1.72-2.83c.61-.92,1.24-1.83,1.87-2.73,1.26-1.82,2.77-3.44,4.19-5.12.9-1.03.86-.83.35.24-.49,1.07-1.41,3.02-2.5,5.29-4.33,7.72-8.12,15.58-10.97,23.93-1.71,4.99-2.6,10.46-2.83,15.82-.32,5.89.11,11.84,1.49,17.61l.65,2.66c.27.87.58,1.73.86,2.6.3.86.56,1.74.9,2.59l1.1,2.51c1.04,2.58,2.41,4.98,3.9,7.33,1.5,2.34,3.16,4.58,4.95,6.68,2.78,3.28,5.94,6.1,9.32,8.53.75.53,1.52.98,2.28,1.48,2.83,1.84,3.74,2.3,4.09,3.44.09.24.23.5.27.71.06.35-.29.5-1.02.51-.37.02-.82-.04-1.35-.16-.51-.15-1.09-.35-1.73-.62-1.87-.82-3.66-1.87-5.31-3.1-1.69-1.19-3.24-2.56-4.77-3.97-3-2.87-5.71-6.09-8.16-9.52-1.8-2.56-3.47-5.24-4.84-8.11l-1.91-4.32c-.57-1.47-1.04-2.97-1.57-4.45l.08-.03Z"/></g><path class="cls-1" d="M215.14,347.79c-.95.17-1.9.4-2.83.76-.33.14-.63.34-.95.5-1.15.53-2.25,1.25-3.31,2.13-.49.37-.93.81-1.37,1.24-.57.55-1.17,1.12-1.99,1.39-.27.07-.36-.1-.39-.47-.05-.39-.06-.95.18-1.32.4-.69.91-1.28,1.46-1.87.53-.61,1.19-1.13,1.92-1.6.87-.55,1.68-1.3,2.61-1.82,1.03-.56,2.12-1.01,3.24-1.29.69-.18,1.39-.31,2.09-.41,1.06-.16,2.13-.17,3.19-.19.82-.03,1.65-.14,2.49-.12.19,0,.37-.01.56.01.68.12.87.3.78,1.13-.01.16-.01.31-.03.43-.04.34-.51,1.06-.92,1.03-1.32.17-2.56.14-3.85.2-.95.05-1.92.13-2.86.34l-.02-.06Z"/><path class="cls-1" d="M363.63,457.1c-1.01.54-2.01,1.08-3.04,1.56-1.02.51-2.06.97-3.1,1.42-.75.35-1.49.72-2.27,1.01-2.73,1.04-5.55,1.82-8.37,2.49-1.25.32-2.5.64-3.74.92-.8.16-1.6.35-2.41.5-.82.06-1.65.07-2.5-.06-.55-.27-.47-.18-.11-.64.36-.44,1.03-1.18,1.88-1.57.77-.26,1.55-.47,2.32-.7.78-.21,1.53-.49,2.32-.65,1.56-.38,3.13-.76,4.72-1.14,1.91-.44,3.74-1.35,5.58-2.1,1.02-.41,2-.89,3.01-1.33.98-.5,1.98-.95,2.94-1.49l1.78-.98,1.74-1.06c.88-.53,1.72-1.13,2.58-1.7.84-.6,1.65-1.22,2.44-1.87.6-.52,1.17-1.06,1.73-1.61l1.6-1.71c.24-.25.45-.52.7-.75.93-.88,1.4-.99,2.06-.74.15.06.31.09.44.16.41.22.37.93-.15,1.79-.74,1.32-1.79,2.39-2.84,3.51-.55.53-1.11,1.06-1.68,1.58-.58.51-1.21.97-1.82,1.44-.91.71-1.88,1.33-2.83,1.98-.99.6-1.95,1.23-2.96,1.8l-.04-.06Z"/><path class="cls-1" d="M218.8,450.84c-.95-1.14-1.8-2.37-2.69-3.56-.83-1.24-1.7-2.43-2.47-3.71-.58-.91-1.21-1.8-1.72-2.76-1.87-3.33-3.38-6.86-4.53-10.48-.24-.81-.49-1.62-.75-2.42-.22-.81-.44-1.63-.63-2.44-.44-2.09-.93-4.22-.67-6.39.04-.67.05-.58.28-.04.12.27.3.65.54,1.1.11.23.26.46.36.72.09.26.15.54.23.83,1.08,4.12,2.38,8.1,4.03,12.05.93,2.39,2.37,4.65,3.74,6.88,1.56,2.42,3.2,4.81,5.03,7.06,1.12,1.38,2.26,2.76,3.49,4.06,1.82,2,3.76,3.93,5.79,5.69.81.68,1.61,1.3,2.47,1.93.85.66,1.88,1.43,2.41,2.87.25.63.31,1.46.07,2.18-.49,1.37-1.42,1.95-2.05,2.03-.73.13-1.24-.24-1.36-.71-.06-.22-.1-.44-.06-.62.07-.31.35-.51.44-.76.05-.12.04-.23.04-.31.03-.09.1-.22.13-.31.05-.15.06-.29.02-.4-.03-.11-.09-.14-.21-.37-.23-.38-.76-.88-1.47-1.44-1.5-1.22-3.03-2.57-4.46-3.98-2.13-2.1-4.17-4.32-6.06-6.65l.05-.05Z"/><path class="cls-1" d="M233.39,464.81c.09-.12.17-.26.22-.41.02-.05-.03-.08-.01-.14.07-.2.12-.43.12-.65,0-.1-.05-.17-.11-.23-.08-.07-.21-.09-.15-.31.02-.07.29-.37.59-.64.3-.27.66-.51.77-.46.35.19.68.49.61.96-.03.27.16.42.21.64.06.24.07.49.06.73,0,.15-.02.3-.02.44-.01.22-.06.44-.05.65,0,.17.13.35.17.55.01.04.04.09.04.13-.02.15-.19.16-.77,0l-.4-.1c-.44-.13-.8-.28-.94-.37-.38-.26-.58-.37-.54-.49.03-.09.11-.19.15-.3h.06Z"/><path class="cls-1" d="M228.69,464.18c-.63-.1-1.25-.19-1.86-.35-.22-.06-.45-.06-.67-.13-.77-.26-1.52-.54-2.24-.86-.32-.14-.65-.25-.97-.35-.21-.07-.42-.12-.62-.22-.2-.11-.38-.24-.56-.39-.11-.1-.04-.25.14-.42.17-.16.46-.39.72-.43.45-.03.86.02,1.28.04.21.03.41.04.61.08.2.06.4.13.59.21.47.2,1.01.14,1.51.19.56.04,1.11.15,1.67.2.35.04.69.07,1.04.07.53,0,1.06.03,1.58-.08.4-.08.76-.34,1.13-.5.08-.03.16-.09.24-.11.31-.1.47.12.67.68l.14.39c.14.43.09.85-.12,1.12-.66.72-1.53.85-2.38.93-.64.05-1.28.01-1.91-.03v-.06Z"/><path class="cls-1" d="M227.13,460.04c.21-.29.35-.53.34-1,0-.16-.07-.3-.08-.46-.06-.58-.28-1.22-.63-1.8-.15-.26-.36-.49-.57-.7-.27-.28-.59-.51-.77-.9-.06-.12.14-.31.41-.44.27-.13.62-.22.82-.08.69.48,1.36,1.07,1.77,1.92.24.5.63.95.84,1.51.12.31.19.64.24.97.04.36.04.73-.02,1.07-.06.43-.22.83-.39,1.21-.27.58-.69,1.07-1.18,1.5-.37.34-.78.76-1.39.98-.13.05-.26.12-.41.12-.54.05-.69-.21-.59-.92.02-.16.04-.32.07-.47.12-.49.36-.99.43-1.11.13-.23.12-.38.17-.48.04-.1.13-.18.24-.3.2-.14.46-.36.62-.63h.06Z"/><path class="cls-1" d="M225.91,459.84c-.17-.56-.44-1.16-.76-1.77-.11-.22-.28-.41-.39-.64-.38-.8-.78-1.59-1.18-2.37-.17-.35-.38-.68-.59-1-.28-.41-.57-.8-.75-1.29-.05-.15.12-.25.37-.27.25-.02.6.02.82.21.72.72,1.54,1.37,1.95,2.32.27.55.74,1,1.1,1.5.39.55.79,1.11,1.16,1.75.23.39.44.81.62,1.25.27.67.4,1.45.4,2.22,0,.59.05,1.25-.2,1.93-.06.15-.1.31-.2.45-.36.52-.71.49-1.2-.05-.11-.12-.23-.25-.33-.38-.33-.47-.49-.92-.53-1.1-.06-.29-.11-.46-.09-.67,0-.2.03-.44.03-.67,0-.33-.09-.85-.28-1.38l.05-.03Z"/><path class="cls-3" d="M270.46,386.7c-1.58-2.39-2.82-2.56-6.16.62s-5.16,15.9-5.16,15.9c0,0,16.64,2.1,16.24-3.5s-4.92-13.03-4.92-13.03Z"/><path class="cls-3" d="M312.98,385.78c-1.58-2.39-2.82-2.56-6.16.62s-5.16,15.9-5.16,15.9c0,0,16.64,2.1,16.24-3.5s-4.92-13.03-4.92-13.03Z"/><path class="cls-3" d="M262.64,429.37s3.7,14.04,25.3,14.65,26.01-15.77,26.01-15.77l-51.31,1.12Z"/><path class="cls-1" d="M302.15,440.35c-2.06.96-4.19,1.74-6.35,2.36-.79.22-1.56.51-2.37.68-2.84.57-5.75.79-8.64.63-1.28-.06-2.56-.21-3.81-.45-1.6-.29-3.22-.8-4.5-1.88-.4-.32-.31-.34.16-.37.24-.02.56-.04.96-.1.2-.02.41-.07.62-.08.2.01.42.02.63.05,1.53.17,3,.4,4.52.41,1.51.07,3.03.12,4.59.07,1.87-.04,3.76-.62,5.61-1.12,2.04-.55,4.05-1.25,5.99-2.13,1.19-.55,2.37-1.12,3.49-1.8,1.71-1.01,3.38-2.12,4.86-3.44,1.15-1.02,2.07-2.24,3-3.42.2-.27.37-.55.58-.81.4-.47.66-.78.97-.89.32-.1.64-.06,1.04.08.18.07.37.11.54.2.27.14.43.38.47.72.04.34-.01.78-.27,1.2-1.45,2.56-3.69,4.75-6.16,6.6-1.84,1.37-3.84,2.54-5.89,3.55l-.04-.06Z"/><path class="cls-1" d="M203.98,351.98c-.47.73-.95,1.46-1.44,2.2-.17.27-.29.57-.47.84-.65.93-1.31,1.87-1.96,2.8-.28.42-.5.88-.79,1.29-.31.57-.73,1.07-1.31,1.47-.18.12-.36-.03-.53-.34-.16-.3-.37-.79-.33-1.18.03-.35.13-.66.24-.95.11-.3.2-.62.39-.87.34-.54.72-1.06,1.15-1.56.52-.6.78-1.38,1.17-2.07.43-.76.88-1.52,1.35-2.27l.85-1.39c.42-.71.88-1.41,1.24-2.14.29-.57.44-1.21.68-1.81.05-.13.08-.28.15-.41.16-.21.3-.33.48-.36.21-.01.42.04.69.15.12.05.24.08.34.13.18.09.3.21.42.4.11.18.24.43.21.63-.09,1.21-.66,2.18-1.19,3.22-.4.76-.86,1.5-1.29,2.27l-.06-.03Z"/><path class="cls-1" d="M253.3,336.99s16.25-9.79,34.7-9.83c23.79-.05,36.17,7.89,36.17,7.89,0,0-15.14,11.71-27.03,11.7s-26.62-1.62-27.75-1.91-16.09-7.86-16.09-7.86Z"/><path class="cls-1" d="M217.66,344.55c-.7.16-1.44.45-2.2.83-.28.14-.5.36-.79.5-1.01.51-2.11,1.06-3.25,1.52-.51.2-1,.47-1.53.64-.67.2-1.41.57-2.18.09-.23-.13-.19-.46-.06-.92.09-.28.17-.56.24-.78.09-.3.18-.51.31-.57.47-.22.87-.57,1.39-.74.51-.18,1.07-.38,1.69-.56.74-.22,1.32-.81,2.02-1.25.78-.48,1.62-.95,2.53-1.33.56-.24,1.15-.42,1.76-.57.95-.24,1.92-.2,2.88-.12.74.08,1.55.07,2.36.41.18.07.37.13.53.24.29.21.43.44.42.67-.02.13-.07.26-.15.39-.09.14-.21.29-.33.43-.11.13-.21.25-.3.33-.16.16-.35.24-.65.4-.32.17-.52.24-.68.24-.46.03-.75.01-1.11,0-.34-.01-.69-.04-1.08-.03-.58.02-1.13.04-1.82.27l-.03-.07Z"/><path class="cls-1" d="M219.87,346.63c-.29-.3-.61-.59-.98-.82-.13-.09-.29-.11-.43-.19-.49-.29-1.02-.51-1.59-.66-.25-.08-.51-.08-.77-.08-.33.02-.65.08-1.01.01-.11-.02-.16-.23-.12-.47.04-.24.16-.55.37-.66.38-.17.78-.3,1.19-.36.41-.08.83-.05,1.22.12.47.17.98.18,1.45.33.52.17,1.01.42,1.47.7.29.17.56.37.82.57.41.3.75.67,1.13.99.29.26.68.43,1.01.69.08.05.17.1.22.17.2.27.1.46-.47.87l-.26.2c-.13.1-.92.43-1.09.34-.69-.15-.98-.51-1.37-.86-.26-.28-.51-.6-.82-.86l.03-.05Z"/><path class="cls-2" d="M295.13,231.49c-.41,2.21-1.05,11.57,2.01,12.28s-14.48,4.12-15.76.4-5.14-11.9-1.06-13.01,14.8.33,14.8.33Z"/><path class="cls-2" d="M299.6,283.12s0,15.8,2.67,17.24c4.29,2.31-11.55,3.23-15.57.91-4.02-2.31-4.94-8.48-4.94-8.48,0,0,.03-9.73,5.86-10.52,5.83-.79,11.98.84,11.98.84Z"/><path class="cls-1" d="M279.82,212.34c-.75-1.59-.89-3.17-.79-4.67.06-.54.03-1.09.15-1.61.38-1.84,1.08-3.53,1.97-5.08.38-.69.73-1.4,1.16-2.05.52-.85,1.07-1.7,1.92-2.3.25-.2.35-.06.39.3.02.34.09.95-.09,1.47-.4.87-.69,1.78-1.08,2.63-.4.84-.76,1.7-1.17,2.55-.51,1.01-.66,2.19-.78,3.28-.13,1.21-.08,2.42.29,3.52.21.71.53,1.2,1.06,1.69.79.7,1.86,1.23,3,1.48.89.2,1.82.14,2.72.08.2-.01.4-.06.59-.04.37.02.61.09.77.27.17.17.26.4.34.74.04.16.09.31.11.46.08.49-.25.96-.88,1.23-.92.31-1.89.29-2.87.2-.98-.11-1.98-.36-2.97-.77-.73-.3-1.47-.7-2.15-1.25-.68-.54-1.32-1.23-1.76-2.08l.06-.03Z"/><path class="cls-1" d="M288.15,275.7c-.38.11-.77.23-1.14.38-.14.05-.22.18-.36.24-.47.21-1.05.32-1.52.58-.21.12-.4.25-.58.4-.2.22-.45.38-.85.44-.13.01-.32-.17-.52-.45-.19-.27-.42-.69-.41-.93.04-.42.23-.72.42-1.02.23-.26.54-.44.89-.56.41-.15.65-.52,1.02-.74.4-.24.82-.44,1.24-.63.26-.11.52-.23.77-.34.38-.18.79-.31,1.14-.54.27-.18.47-.51.71-.77.05-.06.09-.15.17-.16.26-.07.43.1.75.76l.22.44c.22.5.31.98.24,1.27-.07.48-.27.64-.45.84-.19.18-.42.3-.64.41-.34.17-.71.28-1.07.44l-.04-.06Z"/><path class="cls-1" d="M299.18,283.53c-1.1.17-2.58.48-3.91.57-.5.04-.98.16-1.48.16-1.76-.05-3.49-.34-5.15-.74-.74-.18-1.47-.29-2.27-.51-.51-.14-1.04-.3-1.53-.65-.5-.31-.94-.9-.94-1.58.23-.53.29-.41.91-.49.32-.05.62-.1.92-.21.15-.06.28-.11.4-.16.09-.02.17-.04.23-.01.85.35,2.79.74,4.45,1.18,1.04.28,2.15.07,3.22.01,1.2-.06,2.34-.2,3.58-.47.77-.16,1.62-.33,2.54-.36,1.44-.08,2.83.45,3.98,1.17.9.55,1.8,1.18,2.49,2.09.14.21.33.39.4.64.09.22.14.41.15.58,0,.17-.06.33-.12.45-.15.26-.37.42-.69.56-.15.07-.28.14-.42.18-.46.14-.96-.09-1.48-.32-.56-.41-.93-.78-1.38-1.11-.44-.33-.91-.61-1.38-.8-.36-.14-.71-.22-1.06-.25-.39-.02-.86.02-1.41.14l-.02-.08Z"/><path class="cls-1" d="M291.85,245.73c-1.11.05-2.25.11-3.42.13-.42.01-.84.1-1.28.1-1.53-.04-3.04-.07-4.69-.49-.71-.2-1.48-.42-2.13-.91-.4-.32-.79-.68-1.02-1.16-.2-.5-.28-1.05-.18-1.56.08-.32.33-.24.67-.07.34.18.86.33,1.21.41.54.25.9.37,1.39.62.51.22,1.18.38,1.96.53.95.17,1.97-.03,2.97-.12,1.11-.09,2.25-.19,3.41-.26l2.15-.11c1.1-.05,2.21-.03,3.32-.01.86.03,1.76-.15,2.63.04.19.04.39.05.58.11.7.24.85.54.78,1.16-.02.14-.02.27-.05.39-.08.37-.51.76-.98.82-1.44.32-2.67.24-4.09.27-1.04.02-2.12.05-3.23.16v-.07Z"/><path class="cls-1" d="M284.6,244.89c-1.24-.6-2.44-1.49-3.29-2.64-.3-.43-.64-.81-.84-1.21-.73-1.46-1.37-2.99-1.6-4.6-.12-.71-.22-1.42-.26-2.13-.08-.91.06-1.84.41-2.67.11-.26.21-.19.33.06.11.25.34.69.45,1.15.2.82.34,1.59.61,2.35.24.76.58,1.48.78,2.28.27.96.93,1.79,1.51,2.63.58.83,1.3,1.53,2.24,2.05.57.32,1.19.58,1.85.77,1,.29,2.07.51,3.15.57.85.05,1.69-.1,2.56-.17.19-.02.39-.06.58-.02.72.09.94.37.99,1.06.01.16.04.31.03.47,0,.5-.35.93-.85,1.1-.76.32-1.52.31-2.33.34-.81,0-1.63-.06-2.49-.2-1.27-.19-2.57-.55-3.86-1.11l.02-.06Z"/><path class="cls-1" d="M221.8,97.86c.32.83,5.61,8.92,13.51,12.17,7.91,3.25,21.25,4.86,27.64,1.41s4.35-1.37,8.07-6.02c5.78-7.23,7.27-35.48-8.63-46.49s-30.7-9.74-43.2-1.69c-4.42,2.84-5.96,7.44-5.96,7.44,0,0-15.89-10.7-24.87-7.78-8.98,2.91-21.32,7.05-25.17,10.62s-6.52,16-6.52,16v11.41l1.84,7.08s-8.9,2.1-14.81,7.95c-5.9,5.85-9.35,17.31-9.71,22.7s1.37,20.04,3.27,24.13,8.06,11.74,11.54,15.16,14.15,9,14.15,9c0,0,8,1,14.5,0,10.23-1.58,12.81-9.61,12.81-9.61,0,0-14.73-.96-17.13-8.51-1.71-5.38,2.13-11.13,2.13-11.13l10.1-.83s1.57-1.6,1.61-5.27-1.09-13.57-1.09-13.57c0,0,5.85.86,12.24-1.57s15.31-9.09,15.31-9.09l5.22-7.41,3.15-16.1Z"/><path class="cls-1" d="M385.13,419.79c1-4.6,1.55-9.32,1.73-14.07l.07-3.57-.07-3.58c-.03-1.19-.15-2.36-.22-3.54-.13-1.17-.26-2.35-.43-3.51-.5-3.41-1.43-6.75-2.46-10.03-3.67-11.62-10.61-22.21-19.51-30.75-3.96-3.78-8.37-7.15-13.02-9.96-2.99-1.8-6.09-3.43-9.26-4.87-.8-.35-1.59-.73-2.4-1.05-.8-.36-1.58-.74-2.4-1.06-.81-.33-1.61-.69-2.43-.99-.81-.32-1.58-.8-2.41-1.1-2.03-.86-1.73-.94.22-.95,1.96-.13,5.69-.1,9.62,1.44,6.93,2.76,13.37,6.65,19.16,11.32,5.8,4.67,10.98,10.13,15.27,16.26,5.1,7.31,9.56,15.64,11.91,24.53,1.32,4.86,2,9.91,2.17,14.91.2,4.98.04,9.99-.58,14.96-.74,6.11-2.25,12.14-4.46,17.9-3.41,8.71-8.92,16.64-15.92,22.78-5.43,4.76-11.6,8.58-18.46,10.94-.76.24-1.51.48-2.27.72-.77.19-1.54.38-2.32.58-1.47.28-2.69.49-3.73.52-.52.03-.99.05-1.41.06-.43-.01-.81-.03-1.16-.06-1.39-.1-2.19-.44-2.82-.9-.29-.21-.66-.41-.82-.61-.54-.7,1.79-1.24,5.72-2.18,5.84-1.4,11.59-3.51,16.9-6.65,5.31-3.11,10.07-7.27,14.01-12.12,2.9-3.62,5.4-7.62,7.33-11.9,1.94-4.28,3.38-8.81,4.35-13.45h.1Z"/><path class="cls-1" d="M190.13,434.92c-3.87-7.77-6.13-16.22-7.06-24.71l-.43-4.66-.11-1.16-.03-1.17-.04-2.34c.09-11.03,2.81-21.98,7.71-31.75,2.13-4.36,4.67-8.53,7.45-12.44.88-1.27,1.84-2.48,2.8-3.69.93-1.23,1.98-2.37,3-3.53,1.01-1.17,2.19-2.18,3.31-3.23.56-.53,1.15-1.03,1.77-1.48l.92-.7.46-.35.23-.17c.05-.02.04-.1.14-.06l.14-.06c.91-.42,1.33-.56,1.38-.46.06.11-.21.51-.52,1.35-.3.85-.89,1.87-1.57,3.11-.67,1.25-1.57,2.56-2.64,3.89-.93,1.19-1.96,2.29-2.89,3.48-.9,1.2-1.88,2.35-2.73,3.58-1.76,2.43-3.5,4.88-5.02,7.46-3.09,5.14-5.63,10.62-7.5,16.4-2.29,6.92-2.82,14.59-2.54,22.02.39,8.21,1.91,16.41,5.01,24.03l1.56,3.46c.27.57.5,1.17.8,1.72l.93,1.65c.64,1.09,1.22,2.22,1.9,3.28l2.17,3.11c4.53,6.17,10.3,11.52,16.84,15.47,5.12,3.02,10.59,5.12,16.2,6.75,1.26.3,2.49.55,3.75.88,2.31.66,3.89.89,4.94,1.32,1.06.4,1.63.86,2.06,1.48.19.28.47.58.57.84.35.88-1.75,1.2-5.42.73-5.39-.89-10.92-2.28-16.19-4.65l-1.99-.85c-.67-.28-1.29-.66-1.94-.99-1.28-.69-2.57-1.37-3.84-2.09-2.44-1.62-4.95-3.16-7.19-5.1-6.82-5.49-12.48-12.5-16.49-20.29l.08-.06Z"/><path class="cls-1" d="M300.17,303.26c-3.88.56-7.69.63-11.62.19-1.43-.18-2.91-.36-4.43-.99-.27-.12-.55-.27-.82-.41-.28-.19-.55-.33-.83-.57-.54-.4-1.11-1.11-1.43-1.85-.8-2.15-.87-4.26-.78-6.25.1-1.99.38-3.91.67-5.79.35-2.09.68-4.17.89-6.21.3-2.65.23-5.17.65-7.81.18-.85.26-.78.79-.14.23.32.84.78,1.07,1.4.3.62.59,1.37.67,2.18.38,5.81-.9,11.21-1.4,16.33-.16,1.73.06,3.48.64,4.91.04.05.06.1.09.15.05.03.06.09.14.15.13.12.33.25.55.37.46.25,1.06.44,1.67.62,3.22.82,6.95.77,10.48.4,2.18-.25,4.4-.63,6.33-1.37.36-.14.7-.3.99-.46.22-.13.41-.24.55-.43.13-.2.18-.4.22-.7.06-.32.04-.76.06-1.13-.02-1.62-.23-3.33-.49-5-.38-2.62-1.16-5.14-1.58-7.8-.1-.58-.22-1.16-.28-1.76-.12-1.12,0-1.9.2-2.46.17-.53.59-.87,1.07-1.06.22-.09.43-.21.62-.24.32-.06.59.15.91.53.32.35.53.91.75,1.63,1.24,4.37,2.2,9.17,2.62,14.42.06,1,.12,1.99-.02,3.27l-.08.59c-.02.22-.11.43-.19.65l-.24.64c-.04.11-.08.21-.12.32l-.21.27c-.26.38-.6.69-.93,1-.35.28-.79.57-1.05.69-1.14.6-2.14.91-3.15,1.19-1,.27-1.98.48-2.96.64l-.02-.09Z"/><path class="cls-1" d="M198.1,208s10.07-9.48,17.56-9.31c10.61.25,17.42,5.12,30.79,3.1,10.09-1.53,18.8-8.82,23.69-20.09,4.3-9.91-1.16,3.63-9.19,7.56s-16.85,8.01-22.34,7.4c-5.5-.61-23.17-4.74-23.17-4.74,0,0-2.57-.21-8.11,4.74-5.54,4.95-9.22,11.34-9.22,11.34Z"/><path class="cls-1" d="M170.57,157.72c0-.96.17-1.92.42-2.86l.22-.69c.08-.22.16-.4.24-.61.17-.4.31-.78.51-1.19.22-.42.43-.82.68-1.23l.47-.64.24-.32c.08-.1.24-.22.35-.33.9-1,2.28-1.49,3.6-1.4.26,0,.43.04.64.07.19.03.43.06.57.1l.88.2.39.09.32.07c.23.06.38.06.56.11.56.09.89.05,1.44-.27.26-.11.54-.41.82-.63.25-.28.52-.55.75-.88.91-1.29,1.53-2.95,1.84-4.69.27-1.56.11-3.17-.19-4.71-.1-.5-.25-.98-.39-1.47-.19-.47-.32-.96-.53-1.42-.44-.9-.66-1.94-1.17-2.88-.26-.62,0-.78.75-.62.36.09.9.22,1.43.52.27.14.56.31.84.52.15.1.28.21.42.33.1.14.21.28.3.43,1.33,2.15,2.29,4.63,2.34,7.2.11,2.54-.29,5.22-1.72,7.54-.85,1.38-1.8,2.73-3.29,3.83-.2.14-.38.28-.59.4l-.69.32c-.45.23-1,.3-1.5.4-1.03.09-1.95-.07-2.69-.27-1.76-.5-1.87-.56-2.43-.09-.14.23-.32.38-.47.66-.14.28-.31.54-.44.85-.26.64-.54,1.28-.68,1.86-.38,1.48-.25,3.14.28,4.72.82,2.38,2.44,4.63,4.55,6.13,1.65,1.15,3.62,1.69,5.39,1.67.39,0,.76-.08,1.13-.11,1.35-.2,1.75-.15,2.51.8.17.21.38.41.53.63.26.37.29.79.06,1.23-.23.44-.76.87-1.54,1.13-2.33.8-4.97.51-7.2-.39-2.25-.92-4.2-2.39-5.84-4.13-2.39-2.6-4.14-6.05-4.2-9.98h.1Z"/><path class="cls-1" d="M162.47,66.89c1.59-1.95,3.52-3.64,5.54-5.19.51-.38,1.08-.7,1.61-1.05.54-.34,1.08-.71,1.63-.96,1.1-.54,2.15-1.16,3.29-1.62.83-.35,1.62-.76,2.45-1.1.84-.32,1.68-.65,2.53-.94,3.05-.9,6.22-1.45,9.41-1.54,3.19-.12,6.39.38,9.41,1.29,1.36.35,2.65.91,3.96,1.37,1.26.59,2.56,1.1,3.73,1.84,1.55.86,3.04,1.81,4.39,2.94l.98.88.48.45c.08.07.16.15.24.22.05.11.13.19.19.28.14.17.24.39.39.55l.44.49.86.98c.7.83.42.89-.51.58-.47-.16-1.1-.4-1.83-.71-.35-.17-.89-.17-1.32-.32-.41-.17-.83-.37-1.24-.61-.37-.2-.71-.44-1.09-.62-.38-.18-.75-.36-1.11-.58l-1.07-.62-1.1-.54c-.73-.36-1.46-.74-2.21-1.02-.74-.31-1.46-.7-2.23-.94-3.01-1.16-6.15-1.82-9.41-2.15-3.93-.35-8.04.69-11.87,2.12l-.8.28-.78.34-1.56.68c-1.04.47-2.03,1.03-3.06,1.54-1.9,1.12-3.73,2.39-5.31,4-1.03.93-1.89,2.03-2.8,3.08-.8,1.14-1.68,2.24-2.35,3.48-2.17,3.65-3.79,7.71-4.43,11.89-.46,3.25-.23,6.49.56,9.5.2.66.34,1.32.62,1.93.87,2.36.97,3.17.45,4.16-.12.22-.21.49-.34.66-.22.3-.58.27-1.08-.05-.48-.33-1.2-.93-1.81-1.87-1.66-2.9-2.39-6.32-2.53-9.73-.14-3.42.39-6.86,1.41-10.12,1.45-4.87,3.94-9.39,7.18-13.32l.08.06Z"/><path class="cls-1" d="M170.03,251.68c-5.07,8.51-9.83,17.22-14.19,26.13-1.62,3.24-3,6.58-4.53,9.86-2.6,5.82-5.16,11.66-7.4,17.62-1.19,2.96-2.19,5.98-3.28,8.98l-1.48,4.54-.73,2.27-.66,2.29-1.15,4.08-.97,4.13c-.69,2.74-1.1,5.53-1.63,8.28l-.72,5.34c-.24,1.78-.35,3.57-.55,5.35l-.14,1.34-.07,1.34-.17,2.68c-.18,1.79-.19,3.56-.39,5.36-.45,2.25-.68,2-1.59.11-.47-.94-.94-2.31-1.41-4-.33-1.68-.5-3.67-.47-5.81.29-7.6,1.7-15.06,3.46-22.37,1.81-7.31,4.06-14.5,6.82-21.52,3.26-8.4,6.58-17.15,10.42-25.51,4.22-9.18,8.86-18.17,13.83-26.96,1.51-2.72,3.12-5.38,4.68-8.06,1.63-2.64,3.2-5.32,4.89-7.93,5.01-7.96,10.42-15.72,16.04-23.2,4.39-5.79,8.73-11.48,13.8-16.74,1.14-1.14,2.25-2.26,3.45-3.37,1.18-.97,2.17-1.76,3.03-2.38.92-.57,1.66-1.03,2.34-1.29.67-.27,1.28-.37,1.8-.4.51-.05.94,0,1.34.06.36.07.79.08,1.02.18.39.17.1.67-.61,1.5-.35.44-.84.85-1.37,1.47-.52.65-1.25,1.17-2.03,1.82-4.58,4.05-8.89,8.83-13.05,13.86-4.15,5.05-8.19,10.35-12.03,15.82-5.74,8.11-11.15,16.54-16.2,25.16l-.1-.04Z"/><path class="cls-1" d="M349.45,230.05c3.55,4.22,6.95,8.56,10.26,12.99,1.22,1.61,2.5,3.18,3.66,4.85,1,1.51,2,2.97,2.92,4.64.47.73.93,1.83,1.3,2.79.24.88.49,1.75.71,2.64.87,3.54,1.37,7.2,1.37,10.86.01,3.25-.32,6.52-1.04,9.67-.41,2.03-1.07,4.01-1.86,5.92-.45.93-.82,1.9-1.41,2.75l-.87,1.28c-.32.4-.73.76-1.09,1.13-.99.88-1.01.65-1.07-.59-.08-1.26-.37-3.51.42-5.49,1.26-3.61,2.24-7.23,2.55-10.97.35-3.74.05-7.54-.55-11.4-.21-1.15-.45-2.31-.8-3.46l-.25-.86c-.08-.32-.2-.46-.3-.7l-.3-.65-.46-.75c-.59-1-1.31-1.99-2.02-2.99-.69-1-1.48-1.98-2.19-2.98-3.24-4.37-6.68-8.64-10.16-12.87-2.15-2.6-4.34-5.17-6.57-7.7-3.41-3.81-6.84-7.64-10.48-11.17-1.41-1.38-2.89-2.65-4.36-3.92-1.5-1.23-3-2.46-4.51-3.66-.67-.52-1.36-.99-2.01-1.55-1.19-1.05-1.99-1.69-2.4-2.35-.4-.67-.5-1.24-.43-1.9.03-.3.02-.63.09-.88.12-.43.54-.57,1.23-.49.68.08,1.65.37,2.68,1.02,1.55.94,3.02,1.99,4.49,3.1,1.42,1.14,2.86,2.3,4.25,3.52,2.77,2.45,5.46,5.06,8.07,7.74,3.88,3.98,7.57,8.16,11.23,12.35l-.08.08Z"/><path class="cls-1" d="M284.18,265.81c-1.38-.04-2.78-.14-4.25-.44-.76-.18-1.48-.34-2.36-.76-1.03-.51-1.96-1.33-2.33-2.41-.08-.32-.16-.64-.21-.97-.14-1.38.26-2.63.96-3.53.78-.99,1.72-1.59,2.61-2.03.9-.44,1.79-.74,2.67-.98,1.76-.46,3.49-.71,5.21-.9,1.52-.19,3.03-.35,4.52-.49.95-.11,1.91-.18,2.86-.22.48,0,.95-.06,1.43.03.48.1.96.2,1.44.3.6.14.57.38.12.92-.22.27-.55.63-.95,1.02-.2.19-.42.43-.66.58-.24.13-.5.23-.77.29-1.91.48-3.8.74-5.67,1.01-1.87.16-3.73.29-5.54.54-1.08.14-2.13.48-2.98.96-.87.47-1.45,1.08-1.62,1.58-.09.2-.09.28-.11.43,0,.2.07.4.22.54.07.08.16.13.25.19.14.06.34.18.56.24.86.32,1.9.5,2.95.62,1.53.17,3.13.2,4.72.15,2.41-.08,4.86-.24,7.25-.6,1.86-.28,3.65-.78,5.47-1.22.4-.1.79-.22,1.19-.31,1.51-.29,2.02-.19,2.51.7.11.19.24.36.31.53.24.52-.25,1.4-1.34,1.74-3.22,1.15-6.74,1.78-10.32,2.18-2.67.3-5.38.42-8.16.41v-.08Z"/><path class="cls-1" d="M285.01,267.76c-.85.39-1.68.84-2.25,1.31l-.2.17-.06.04s-.08.06-.11.1c-.08.08-.1.18-.11.3.03.09.06.18.13.26.1.09.1.08.45.21.31.09.66.16,1.04.23,1.34.27,2.92.31,4.47.29,1.56-.03,3.16-.15,4.75-.27,1.42-.12,2.83-.37,4.23-.64,1.79-.37,3.62-.64,5.54-.31.6.09.54.34.13.83-.21.24-.5.57-.86.92-.18.18-.38.35-.59.52-.1.09-.22.15-.33.25-.12.05-.24.1-.36.14l-1.33.45-.67.22-.69.14c-.92.19-1.84.36-2.78.51-1.87.29-3.77.53-5.74.47-1.17-.02-2.36.04-3.59.05-1.23,0-2.5,0-3.87-.39-.3-.07-.59-.19-.91-.32-.35-.17-.74-.35-1.06-.61-.65-.49-1.15-1.15-1.36-1.92-.33-1.17.06-2.45.89-3.35.21-.2.43-.5.62-.6.18-.14.36-.3.55-.42.37-.26.74-.47,1.11-.68,1.51-.8,3.03-1.34,4.55-1.85,2.3-.76,4.66-1.28,6.97-1.82,1.8-.42,3.54-.95,5.36-1.32.4-.08.79-.19,1.2-.24,1.52-.22,2.04.03,2.4.82.08.18.18.36.23.54.16.59-.41,1.18-1.43,1.46-3.03.83-6.26,1.51-9.45,2.33-2.35.63-4.74,1.26-6.82,2.26l-.04-.07Z"/><path class="cls-1" d="M287.58,222.23c.1-1.16.17-2.32.21-3.5.01-.43-.08-.85-.06-1.28.05-1.52.23-3.06.32-4.59.02-.68-.02-1.36-.02-2.03-.05-.86-.1-1.72.35-2.61.13-.28.4-.26.82-.06.21.1.47.24.75.42.29.18.53.39.63.63.21.42.33.85.44,1.28.1.43.24.86.26,1.29.04.87.02,1.75-.1,2.65-.13,1.07.07,2.16.1,3.25.02,1.2-.01,2.41-.04,3.62l-.07,2.23c-.03,1.12-.13,2.25-.1,3.36.03.86.26,1.72.39,2.58.03.19.09.38.1.57.02.71-.21.92-1.22,1.03-.22.02-.43.06-.64.07-.68.04-1.4-.28-1.58-.79-.61-1.52-.69-3.07-.72-4.63,0-1.16.09-2.32.11-3.48h.09Z"/><path class="cls-1" d="M213.04,345.62c-.89.36-1.82.61-2.73.84-.33.09-.64.24-.97.3-1.21.17-2.41.23-3.59.13-.52-.04-1.04-.04-1.55-.04-.33-.02-.66,0-.99-.03-.33-.04-.64-.24-.93-.46-.18-.15-.03-.64.23-1.16.27-.5.64-1.17.93-1.23,1.05-.09,1.99-.31,3.12-.08.34.06.67,0,.99-.11.32-.09.63-.24.95-.34.71-.21,1.42-.47,2.12-.78.42-.21.86-.4,1.25-.66.61-.37,1.22-.77,1.7-1.3.36-.42.51-1.01.68-1.53.04-.11.05-.24.09-.35.16-.39.49-.31,1.46.21l.66.35c.72.4,1.22.98,1.18,1.47-.13,1.44-1.03,2.53-2.03,3.37-.78.6-1.65,1.07-2.53,1.48l-.05-.08Z"/><path class="cls-1" d="M230.23,342.8s.09-.02.15-.07c.03-.03.05-.03.08-.1l.2-.57c.24-.79.42-1.64.49-2.52.06-.64-.03-1.27-.05-1.9-.05-1.1-.25-2.2-.67-3.05-.52-.96-1.27-1.85-2.17-2.62-.79-.71-1.74-1.26-2.72-1.75-1.24-.67-2.57-1.26-3.73-2.28-.36-.31-.24-.44.24-.59.24-.08.57-.17.97-.26.4-.11.84-.16,1.27-.07.76.15,1.53.29,2.29.53.73.29,1.47.62,2.19,1.01,1.46.76,2.79,1.97,3.76,3.45l.42.67.42.76c.15.26.24.51.36.77.1.26.23.51.3.77.37,1.02.56,2.05.66,3.08.06,1.12.03,2.24-.16,3.35-.11.55-.2,1.1-.37,1.65-.1.3-.13.49-.29.88l-.46,1.07c-.84,1.71-2.19,2.78-3.76,2.99-.58.1-1.24-.11-1.65-.51-.41-.39-.7-.88-.91-1.46-.21-.58-.34-1.23-.43-1.9l-.22-1.74c-.2-1.41-.63-2.76-1.18-3.78-.12-.22-.28-.4-.4-.58-.2-.35-.3-.53-.32-.77-.02-.23.05-.53.16-.95.04-.19.09-.38.13-.57.09-.3.29-.5.67-.59.39-.1.89.04,1.42.4.77.54,1.3,1.29,1.69,2.02.39.74.66,1.48.87,2.2.21.72.36,1.43.48,2.11l.09.5.03.13h0s-.04.2.08.15l.06.1Z"/><path class="cls-1" d="M235.92,333.71c-.14-1.27-.42-2.59-.81-3.85-.14-.46-.4-.87-.57-1.3-.08-.21-.14-.35-.2-.5-.05-.15-.15-.29-.23-.44-.17-.29-.39-.57-.65-.84-.52-.52-1.17-1.04-1.9-1.47-.66-.38-1.41-.59-2.15-.79-.48-.13-.97-.21-1.46-.32-.49-.13-.98-.31-1.48-.51-.31-.14-.26-.46.05-.85.3-.38.88-.93,1.55-1.06,1.16-.1,2.36-.09,3.53.24,1.16.32,2.39.77,3.35,1.72.58.53,1.18,1.09,1.73,1.73.28.32.53.66.75,1.03.21.35.37.65.52.99.63,1.44,1.1,2.91,1.41,4.43.2.93.32,1.89.41,2.85.11,1.47.01,3.01-.54,4.58-.09.32-.28.63-.41.95-.16.32-.38.6-.6.94-.53.6-1.09,1-1.74,1.29-.3.13-.61.28-.98.34-.7.11-1.4-.08-1.78-.49-.39-.41-.36-.94-.01-1.36.15-.2.32-.37.51-.49.16-.1.33-.17.5-.25l.11-.06h-.01s-.02.02-.03.03c.03-.03.01,0,.09-.12.01-.03.05-.11.09-.21.02-.08.06-.21.09-.36l.04-.33v-.09s0-.02,0-.02c0,0,0-.02,0-.03.02-.04.03-.07.06-.11.05-.07.13-.15.2-.23.15-.16.28-.32.21-.37.05-.18.25-.58.34-1.22.13-.93.12-2.18-.09-3.43l.09-.02Z"/><path class="cls-1" d="M210.5,436.31c-3.03-6.5-5.16-13.38-6.28-20.44-.41-2.57-.81-5.16-.88-7.79-.16-9.23,1.44-18.31,4.46-26.88,1.35-3.79,2.89-7.54,4.64-11.12,1.12-2.3,2.36-4.56,3.77-6.7.7-1.08,1.39-2.15,2.22-3.14.42-.49.81-.99,1.25-1.46.44-.47.96-.87,1.43-1.32,1.24-1.05,1.16-.83.83.58-.17.7-.29,1.77-.64,2.89-.16.57-.32,1.2-.56,1.81-.26.6-.56,1.21-.89,1.84-1.24,2.18-2.27,4.47-3.41,6.68-1.13,2.22-2.13,4.5-3.09,6.8-.91,2.32-1.78,4.66-2.53,7.04l-.59,1.78-.52,1.81c-.37,1.2-.65,2.43-.96,3.65-1.38,5.87-1.67,12.28-1.14,18.34.59,6.73,2.25,13.43,4.78,19.78,1.57,3.9,3.45,7.69,5.67,11.26,3.39,5.39,7.52,10.4,12.42,14.4,3.82,3.09,8.06,5.44,12.53,7.19.97.41,1.97.7,2.97,1.05,3.73,1.26,4.89,1.7,5.47,3,.13.29.33.6.39.87.1.46-.29.76-1.1.88-.81.11-2.05.09-3.56-.29-4.5-1.02-9.01-2.79-13.16-5.31-4.16-2.5-8.03-5.61-11.4-9.18-5.05-5.28-9.09-11.44-12.23-17.96l.09-.05Z"/><path class="cls-1" d="M319.67,466.27c-1.91,1.01-3.86,1.8-5.83,2.46-1.97.67-3.95,1.21-5.95,1.67-3.99.92-8.01,1.5-12.04,1.87-8.06.73-16.17.6-24.21-.51-5.85-.86-11.74-2.11-17.26-4.81l-1.79-.97-1.74-1.09c-1.06-.76-2.13-1.49-3.17-2.28-2.08-1.58-4.11-3.21-6.02-5-3.85-3.54-7.32-7.52-10.21-11.9-2.88-4.38-5.21-9.13-6.84-14.1-1.6-4.98-2.57-10.13-3.05-15.3-.66-9.18-.12-18.5,2.22-27.39.72-2.86,1.73-5.64,2.81-8.39,1.16-2.72,2.43-5.38,3.89-7.94,2.97-5.07,6.39-9.83,10.38-14.05,2.52-2.61,2.31-2.16,1.04.69-.63,1.42-1.49,3.47-2.59,5.86-.56,1.19-1.22,2.43-1.93,3.73-.68,1.32-1.46,2.67-2.23,4.09-2.91,4.93-5.3,10.07-6.92,15.47-1.59,5.41-2.52,11.03-2.81,16.74-.33,5.71-.07,11.44.86,17.05.93,5.61,2.64,11.11,5.19,16.23,3.07,6.11,7.42,11.76,12.72,16.47,2.64,2.37,5.45,4.58,8.42,6.57,2.82,1.93,6.02,3.3,9.38,4.33,3.68,1.14,7.52,1.9,11.4,2.39,3.88.5,7.81.75,11.74.76,7.85.03,15.77-.69,23.34-2.62,2.32-.6,4.62-1.31,6.79-2.23l1.61-.73,1.55-.81c.49-.31.99-.57,1.47-.93l1.46-1.06c.96-.72,1.96-1.39,2.9-2.14l2.71-2.37c.94-.75,1.73-1.66,2.57-2.52.81-.88,1.71-1.69,2.43-2.66,4.69-5.56,8.33-12.01,10.84-18.88,2.45-6.89,3.89-14.14,4.36-21.41.36-5.66.16-11.28-.79-16.73-.98-5.45-2.71-10.7-5.08-15.73-1.02-2.23-2.17-4.34-3.35-6.53-2.2-4.05-3.74-6.72-4.63-8.7-.9-1.98-1.19-3.25-1.25-4.37-.03-.51-.15-1.13-.12-1.46.07-.56.69-.08,1.86,1.2,1.18,1.27,2.75,3.44,4.56,6.36,2.69,4.34,5.33,8.86,7.52,13.76,2.15,4.91,3.84,10.18,4.68,15.63.83,5.46.95,11.01.62,16.48-.36,5.49-1.21,10.99-2.63,16.37-2.06,8-5.55,15.72-10.4,22.53-.56.88-1.25,1.67-1.9,2.49l-1.98,2.43-2.17,2.26c-.73.75-1.42,1.53-2.24,2.19l-2.36,2.06c-.4.34-.78.7-1.19,1.01l-1.26.92-2.53,1.84-.63.46-.71.44c-.47.29-.95.58-1.43.82l-.07-.08Z"/><path class="cls-1" d="M361.38,431.58c2.84-5.87,4.84-12.17,5.89-18.65.29-2.38.59-4.75.66-7.15.64-8.39-.72-16.91-3.31-25.04-1.16-3.61-2.63-7.14-4.3-10.51-1.11-2.15-2.24-4.29-3.45-6.38-1.19-2.11-2.5-4.14-3.55-6.36-.6-1.43-.46-1.29.66-.51,1.15.76,3.24,2.27,4.77,4.7,2.84,4.23,5.15,8.8,7.01,13.55,1.86,4.75,3.3,9.69,4.17,14.76.48,3.04.98,6.14,1.15,9.3.08.79.07,1.58.1,2.38.02.79.05,1.59,0,2.38-.07,1.58-.1,3.16-.23,4.72-.62,6.88-2.25,13.67-4.8,20.07l-1.27,2.92-.64,1.46-.74,1.41-1.48,2.81c-.52.92-1.11,1.81-1.66,2.71-3.4,5.44-7.64,10.37-12.37,14.62-.93.82-1.85,1.63-2.77,2.45-.97.75-1.94,1.5-2.91,2.25-.94.79-1.99,1.43-3.01,2.11l-1.54,1.01c-.51.34-1.03.68-1.58.96-.95.51-1.88,1.05-2.85,1.55-.46.22-.87.43-1.26.61-.4.14-.77.28-1.1.4-.67.23-1.22.38-1.69.47-.93.19-1.54.1-2.09-.17-.25-.12-.55-.21-.72-.35-.55-.45.71-1.68,3.25-2.92,7.49-3.78,14.62-8.98,20.64-15.38,4.41-4.8,8.13-10.3,10.93-16.24l.08.03Z"/><path class="cls-1" d="M300.08,347.82c-4.47.72-8.99,1.04-13.49.96-1.64-.07-3.28,0-4.92-.16-2.88-.29-5.74-.71-8.54-1.34-2.81-.58-5.6-1.38-8.31-2.39-2.4-.9-4.79-1.9-7.05-3.13-1.44-.8-2.87-1.68-4.18-2.72-1.32-1.03-2.52-2.25-3.32-3.75-.44-.99.06-1.15,1.18-1.01.56.07,1.24.23,1.97.45.7.25,1.39.63,2.05,1.15,4.65,3.72,10.51,5.91,16.62,7.56,3.67,1.09,7.68,1.29,11.57,1.5,4.29.22,8.61.06,12.88-.54,2.63-.34,5.24-.86,7.81-1.53,3.88-1.05,7.73-2.37,11.29-4.2,1.36-.75,2.69-1.53,3.94-2.4,1.23-.92,2.49-1.76,3.65-2.76.52-.43,1-.87,1.54-1.28,1.91-1.6,2.68-1.9,3.87-1.36.26.11.55.2.77.33.7.42.46,1.77-.92,3.18-4.07,4.2-9.44,7.51-15.17,9.8-4.24,1.77-8.73,2.93-13.22,3.75l-.02-.1Z"/><path class="cls-1" d="M306.67,426.01l5.9.19c1.44.07,3.03.08,3.9.53.45.21.74.46.97.72.13.13.2.25.2.52h0c-.12.07.16-.06.13-.04h0s0,.02,0,.02v.03s.01.07.01.07l.02.13.04.27.07.53c.04.07-.05.22-.11.35l-.19.39-.37.78-.19.39c-.08.13-.2.28-.3.42l-1.27,1.66c-.43.52-.87.99-1.31,1.48l-.64.71-.46.44-.93.88c-.66.54-1.27,1.13-1.96,1.63-1.95,1.53-3.99,2.97-6.23,4.03-3.92,1.94-8.24,2.98-12.53,3.29-4.31.28-8.58-.16-12.71-1.24-3.66-.97-7.19-2.45-10.4-4.41-4.08-2.48-8-5.69-10.12-10.07-.57-1.41-.33-1.3.83-.64.57.34,1.52.69,2.37,1.3.88.59,1.86,1.28,2.83,2.1,3.3,3.04,7.09,5.51,11.25,7.12,4.16,1.61,8.64,2.48,13.22,2.54,5.47.18,11.04-1.67,15.73-4.6,1.31-.78,2.53-1.71,3.72-2.67.57-.51,1.16-1,1.71-1.54l.82-.81.46-.48c.16-.16.28-.29.37-.41.11-.12.22-.24.33-.38.22-.26.43-.54.64-.84-.57-.19-1.27-.15-1.98-.21l-5.6-.1-5.96-.08c-6.02-.08-12.07-.24-18.04-.28-4.65-.02-9.21.17-13.81.22-1.01.01-2.01.06-3.03.04-3.79-.06-4.98-.4-5.74-1.56-.17-.26-.41-.53-.5-.79-.32-.89,1.24-1.54,4.01-1.69,8.2-.46,16.82-.39,25.48-.31,6.43.07,12.89.13,19.37.26v.1Z"/><path class="cls-1" d="M296.25,324.66c-1.89-.14-3.78-.26-5.69-.34-1.93-.08-3.76-.16-5.62-.07-1.36.05-2.71.23-4.08.36-2.4.2-4.81.52-7.2.94-2.4.41-4.77.94-7.12,1.59-2.09.56-4.11,1.35-6.09,2.16l-1.87.85-1.84.91c-1.22.61-2.42,1.24-3.77,1.64-.93.11-1.03-.22-.79-1.26.11-.53.38-1.13.76-1.8.41-.6,1-1.15,1.73-1.57,2.61-1.43,5.32-2.64,8.12-3.57,2.81-.9,5.68-1.58,8.6-2.03,3.48-.54,7.05-1.34,10.66-1.65,1.98-.17,3.97-.25,5.96-.23,1.97.03,3.91.11,5.86.19,2.4.12,4.81.3,7.21.52,3.64.35,7.29.97,10.86,1.8,2.78.64,5.54,1.31,8.22,2.47.58.27,1.18.47,1.75.81,2.11,1.2,2.53,1.98,2.31,3.05-.05.25-.08.52-.17.73-.33.73-1.44.69-2.83.01-4.18-1.95-8.84-3.21-13.75-4.13-3.65-.64-7.42-1.07-11.23-1.29v-.09Z"/><path class="cls-1" d="M255.31,211.26c.27.81.37,1.67.26,2.49-.17.81-.42,1.58-.87,2.22-.21.21-.35.44-.56.61-.46.44-.92.86-1.48,1.08-.98.39-1.98.35-2.88.17-.91-.22-1.7-.59-2.42-1.26-.6-.64-.99-1.32-1.13-2.08-.08-.48-.11-1.01.09-1.55.17-.54.74-1.05,1.31-1.09.36-.03.32.35.31.78,0,.21.03.45.13.62.1.18.25.24.31.29.09.06.17.2.29.34.13.13.24.26.32.36.04.05.08.09.11.11.04.03,0,.02.11.08.14.1.31.2.51.3.24.12.54.11.8.01.25-.11.46-.23.65-.34.15-.09.29-.2.38-.31.2-.16.3-.43.32-.73.01-.29-.06-.64-.27-.9-.16-.2-.38-.38-.64-.45-.15-.04-.34,0-.51.16-.3.23-.29.83-.11.99.02.04.13.06.12.05-.1.01-.12,0-.18.03,0,0,0,0-.04.01-.19.09-.48.28-.93.63-.2.16-.39.34-.59.51-.33.29-.67.49-1.05.5-.38.02-.77-.19-1.05-.62-.38-.64-.53-1.4-.5-2.11.03-.72.25-1.37.58-1.98.65-1.18,1.92-2.24,3.74-2.37.32-.04.66.02.98.04.32.03.53.1.79.17.48.19.96.41,1.36.74.82.62,1.47,1.48,1.83,2.46l-.09.05Z"/><path class="cls-1" d="M257.84,227.82c-.24,1.54-1.33,2.87-2.66,3.54-.49.22-.97.51-1.52.49-.65,0-1.27-.05-1.83-.32-.5-.3-.97-.63-1.28-1.09-.32-.43-.47-.91-.58-1.35-.13-.61-.2-1.2-.15-1.79.02-.38.11-.76.27-1.12.18-.35.44-.68.81-.85.23-.12.47.26.71.68.23.43.56.84.6.99.02.28.13.58.23.82.1.26.25.4.2.65-.01.12.04.2.12.23.12.11.29.04.44.04.27,0,.62-.16.85-.49.13-.21.24-.45.16-.75-.04-.18-.08-.23-.2-.37-.12-.12-.32-.21-.54-.22-.35,0-.66.36-.62.58,0,.05.03.11.06.13-.12-.11.02-.01-.17-.13-.16-.09-.47-.23-.97-.42-.23-.09-.47-.15-.7-.23-.4-.13-.73-.3-.94-.56-.21-.26-.3-.62-.16-.98.19-.55.56-1.01,1-1.39.44-.34.94-.6,1.46-.73,1.03-.27,2.11-.17,3.16.34.77.37,1.55,1.04,1.98,1.96.34.72.48,1.54.39,2.33h-.09Z"/><path class="cls-1" d="M272.73,59.42c6.28,7.43,9.89,17.05,9.58,26.77-.11,3.53-.64,7.1-1.93,10.44-1.15,2.94-2.78,5.69-4.84,8.07-2.06,2.38-4.53,4.37-7.21,5.92-1.33.81-2.75,1.41-4.17,2.02-1.45.51-2.89,1.04-4.38,1.37-1.47.43-2.98.6-4.47.88l-2.25.22c-.38.03-.75.08-1.13.11l-1.16.03c-2.73.04-5.41-.28-8.05-.81-2.63-.51-5.2-1.32-7.67-2.34-3.16-1.32-6.23-3.04-8.8-5.44l-.96-.9c-.31-.31-.58-.67-.87-1l-.84-1.02c-.26-.35-.49-.74-.73-1.11-.23-.38-.48-.74-.69-1.13-.19-.4-.34-.82-.5-1.23-.32-.82-.59-1.66-.64-2.56-.06-1.11-.04-1.57.06-1.57.11,0,.35.48.96,1.18.36.33.58.79,1.08,1.2.12.1.22.22.37.32.1.12.22.23.33.36.22.24.46.49.7.75.55.48,1.05,1.02,1.57,1.6.59.53,1.17,1.12,1.77,1.73,4.46,4.19,10.58,6.78,16.84,7.87.78.13,1.57.27,2.36.33.79.1,1.57.14,2.36.17.79.06,1.54-.02,2.32-.02l2.41-.24c3.2-.4,6.35-1.11,9.31-2.31,3.52-1.45,6.82-3.71,9.25-6.75l.89-1.15c.29-.39.53-.82.8-1.22.56-.8.95-1.7,1.41-2.56.77-1.79,1.48-3.62,1.86-5.54,1.91-8.43-.06-17.65-4.66-25.13-2.88-4.58-6.73-8.62-11.34-11.48-3.49-2.14-7.4-3.68-11.45-4.59-4.05-.94-8.25-1.24-12.35-.94-6.36.52-12.54,2.68-17.15,6.64-1.03.85-1.89,1.82-2.76,2.82-1.55,1.9-2.34,3.32-3.08,4.24-.69.96-1.25,1.48-1.85,1.87-.28.18-.57.45-.8.55-.38.16-.52-.31-.52-1.39-.03-.55.09-1.21.29-2.01.17-.8.51-1.7.94-2.68,1.47-2.83,3.6-5.39,6.16-7.46,2.59-2.02,5.55-3.56,8.64-4.66,6.22-2.13,12.93-2.61,19.43-1.76,4.83.64,9.62,1.97,14.04,4.26,4.47,2.28,8.34,5.48,11.57,9.2l-.07.08Z"/><path class="cls-1" d="M206.08,124.45c1.13-.76,2.25-1.59,3.34-2.5.55-.45,1.1-.91,1.63-1.39l.81-.72.73-.7c.37-.33.67-.72.98-1.11.32-.38.62-.77.92-1.16,2.23-2.69,3.9-5.93,4.84-9.41.4-1.55.59-3.16.63-4.74-.02-.51,0-1.02,0-1.53l-.03-1.53c0-.26-.02-.51-.03-.77l.05-.78c.06-.53.02-1.05.11-1.59.23-.71.42-.68,1.12-.23.66.44,1.78,1.37,2.17,2.68.24,1.16.46,2.34.52,3.53,0,1.19-.08,2.39-.26,3.57-.34,2.37-1.16,4.66-2.25,6.78-1.31,2.51-2.58,5.18-4.47,7.4-1,1.22-2.19,2.36-3.29,3.34-1.12,1.02-2.29,2-3.49,2.96-1.5,1.16-3.11,2.23-4.81,3.14-2.59,1.39-5.44,2.23-8.22,2.8-2.16.49-4.28.95-6.44,1.21-.47.05-.94.15-1.42.18-.45.05-.81.01-1.12-.06-.31-.06-.56-.14-.76-.25-.41-.21-.65-.54-.84-1.02-.09-.22-.2-.43-.25-.64-.17-.68.54-1.37,1.78-1.78.92-.29,1.84-.45,2.76-.64.91-.18,1.83-.37,2.75-.55,1.83-.3,3.61-.66,5.32-1.15,2.54-.71,4.89-1.82,7.12-3.4l.06.08Z"/><path class="cls-1" d="M139.81,165.85c-2.2-3.1-4.04-6.39-5.43-9.99-1.38-3.6-2.16-7.34-2.52-11.08-.26-2.73-.45-5.47-.25-8.19.31-4.8,1.22-9.55,2.83-14.08l.61-1.69.71-1.66c.44-1.12,1.05-2.17,1.57-3.25.29-.53.61-1.04.92-1.56.31-.52.61-1.03.99-1.56.73-1.03,1.55-1.96,2.4-2.83,3.04-3.06,6.55-5.6,10.44-7.4,2.5-1.12,5.2-2.05,8.1-2.13,1.44-.03,2.91.16,4.31.62.34.14.7.24,1.02.41.32.2.63.39.93.59.29.22.57.46.85.68l.77.74c1.16,1.34.77,1.27-.6.85-.71-.16-1.73-.31-2.86-.19-1.09.03-2.22.02-3.47.1-1.1.08-2.23.26-3.36.53-1.13.28-2.25.69-3.36,1.17-2.22.96-4.31,2.3-6.32,3.74-1.99,1.45-3.87,3.13-5.33,4.96-.37.45-.67.91-1.01,1.47-.33.54-.68,1.06-.99,1.61-.6,1.11-1.22,2.23-1.74,3.41-2.58,5.61-3.57,12.19-3.53,18.53,0,3.49.37,6.99,1.18,10.37.8,3.38,2.11,6.58,3.87,9.64,2.15,3.74,4.84,7.2,7.97,10.2,2.37,2.27,5,4.28,7.82,5.98,2.83,1.65,5.85,3.01,8.99,3.84,4.88,1.32,9.93,1.29,14.71.24,1.05-.26,2.06-.55,3.09-.88.97-.25,1.75-.55,2.44-.72.67-.21,1.22-.38,1.69-.45.96-.15,1.58-.13,2.2.11.28.11.62.18.83.31.35.22.2.65-.38,1.27-.29.3-.68.67-1.2,1.04-.52.36-1.15.73-1.88,1.1-4.38,2.15-9.53,3.14-14.69,2.97-5.18-.2-10.33-1.62-15.01-3.91-6.97-3.4-12.88-8.67-17.38-14.86l.07-.07Z"/><path class="cls-1" d="M235.12,193.53c4.22.1,8.46-.3,12.59-1.29,4.14-.98,8.14-2.38,11.68-4.53,2.57-1.58,4.87-3.56,6.76-5.88,1.68-2.04,3.1-4.3,4.21-6.74,1.07-2.47,1.85-5.07,2.41-7.76.5-2.69.79-5.45.91-8.23.06-2.78-.02-5.58-.27-8.37-.44-4.97-1.52-9.9-2.69-14.73-1.58-6.2-3.61-12.3-5.36-18.51-.47-1.97-.25-1.77.83-.37.54.7,1.25,1.73,2.06,3,.83,1.26,1.68,2.79,2.38,4.54,1.27,3.09,2.45,6.23,3.4,9.45.49,1.6.95,3.22,1.36,4.86.38,1.64.7,3.3,1,4.96.57,3.33.97,6.72,1.12,10.13.16,3.41.07,6.86-.4,10.3-.56,4.1-1.48,8.28-3.17,12.26-1.68,3.97-4.16,7.7-7.34,10.65-3.49,3.26-7.69,5.62-12.07,7.18-4.35,1.61-8.91,2.52-13.5,2.9-2.82.25-5.67.25-8.48.03-2.82-.21-5.62-.63-8.36-1.29-4.16-.96-8.2-2.45-12-4.4-3.79-1.94-7.38-4.28-10.61-7-5.05-4.2-9.35-9.16-12.61-14.84-.35-.63-.72-1.24-1.05-1.88-.31-.64-.63-1.29-.95-1.94-.55-1.23-.94-2.28-1.25-3.17-.27-.9-.46-1.63-.58-2.25-.22-1.24-.1-2.01.19-2.68.13-.3.25-.68.41-.88.28-.33.71-.02,1.22.81.26.41.52.95.83,1.6.32.64.67,1.4,1.02,2.26,4.39,10.08,12.07,19.2,22.01,24.91,7.34,4.24,15.79,6.69,24.3,6.78v.1Z"/><path class="cls-1" d="M289.24,193.23c.03-.38-.22-.21-.44-.04-1.11,1.21-2.24,2.63-3.23,4.04-.73,1.04-1.31,2.17-1.94,3.25-1.09,1.92-2.01,3.93-2.46,5.96-.46,2.03-.37,4.08.65,5.7.43.72,1.08,1.32,1.84,1.88.75.53,1.54.94,2.35,1.21,1.05.31,2.12.36,3.21.21.55-.06,1.1-.2,1.67-.35.28-.1.57-.17.85-.29.29-.11.65-.1.96-.21.84-.17.86-.05.61.83-.13.42-.28,1.18-.75,1.75-.44.61-1.11,1.24-2.01,1.62-1.59.65-3.52.85-5.25.38-.88-.2-1.7-.53-2.46-.93-.74-.44-1.43-.92-2.03-1.47-1.25-1.04-2.43-2.61-2.99-4.29-.59-1.69-.64-3.43-.41-5,.6-3.74,1.99-7.08,3.79-10.07,1-1.63,2.12-3.17,3.31-4.65l.92-1.09.47-.53.63-.67c.98-1.02,2.03-2.06,2.98-2.36.23-.07.43-.14.7-.12.2.11.31.3.46.45l.43.48.43.86.28.77.3.66c.19.42.41.93.55,1.15.3.58.64,1.15.99,1.71,1.75,2.78,4.11,5.3,5.99,8.38.36.6.7,1.21,1.02,1.93.27.71.51,1.46.59,2.23.22,1.54-.04,3.16-.7,4.63-.31.63-.64,1.27-1.14,1.79-.91.98-1.73,1.38-2.34,1.5-.61.13-1.05-.04-1.45-.37-.18-.15-.38-.28-.5-.44-.4-.54.19-1.4.94-2.34,1.07-1.46,1.62-3.06,1.35-4.62-.12-.81-.39-1.38-.97-2.37-.53-.9-1.18-1.82-1.88-2.78-1.01-1.38-2.14-2.85-3.2-4.44-.53-.79-1.04-1.63-1.51-2.49-.58-1.07-.64-1.3-.65-1.33v-.02s.05-.1.05-.1Z"/><path class="cls-1" d="M296.6,231.48c-3.25.58-6.47.65-9.6.5-1.14-.05-2.28,0-3.39-.1l-2.21-.18c-.07,0-.21-.01-.24-.02l-.09-.02-.18-.03c-.12-.02-.25-.04-.39-.04-.11-.01-.24,0-.34.03-.06.09-.06.19-.07.29,0,.21,0,.43.02.68l.56,3.56c.27,1.74.64,3.48.87,5.24.13,1.13.29,2.28.24,3.45-.03.58-.11,1.18-.22,1.76-.13.58-.23,1.18-.61,1.71-.32.31-.5.42-.6.39-.11-.04-.18-.24-.45-.58-.53-.69-1.19-1.71-1.45-2.85-.34-2.05-.7-4.15-1.01-6.32-.17-1.1-.34-2.19-.51-3.3-.17-1.22-.3-1.89-.5-4.22-.03-.71.03-1.37.26-1.9.05-.14.12-.26.23-.38.06-.06.11-.11.18-.16l.02-.02h0s0,0,0,0c.05.04-.07-.06-.05-.05h0s0,0,0,0h.01s.05-.04.05-.04l.09-.06c.25-.15.49-.33.79-.41.69-.18,1.5-.18,2.27-.23l1.11.03.74.03c.96.05,1.91.11,2.86.16,3.01.22,5.99.25,8.91-.1.89-.14,1.79-.24,2.66-.47.43-.11.88-.18,1.3-.34l.85-.28c.33-.11.67-.27,1-.4l.24-.1,1.19-.22.59-.11c.1-.02.2-.05.28-.02.1.02.19.1.26.18.47.62.61,1.47.65,2.47,0,2.27-.11,3.34-.11,4.79-.03,2.2.19,4.34.44,6.44.07.46.14.91.21,1.37.21,1.7.09,2.23-.78,2.77-.2.12-.39.28-.59.37-.68.32-1.45-.31-1.83-1.68-.56-2.01-.81-4.1-.91-6.19-.05-1.04-.06-2.09-.05-3.13.02-.95.03-1.91.05-2.86,0,.02.05-.05.01-.07-.01,0,0-.01-.04,0h-.02s-.01,0-.01,0l-.13.04-.51.17-2.04.51-.02-.09Z"/><path class="cls-1" d="M314.25,268.79c.97-2.95,1.2-6.53.77-9.81-.19-1.66-.61-3.28-1.23-4.77-.28-.77-.69-1.45-1.07-2.15-.46-.63-.88-1.32-1.45-1.85-.2-.2-.38-.43-.6-.61l-.67-.52c-.45-.37-.9-.64-1.4-.88-1.01-.49-2.15-.86-3.34-1.14-4.23-.97-8.88-.94-13.36-.36-2.25.31-4.48.77-6.62,1.45-2.12.67-4.23,1.57-5.78,2.86-.16.16-.34.31-.49.46-.12.16-.3.35-.37.45-.14.22-.27.45-.3.72-.05.18-.02.38.05.55.09.17.24.29.39.39.17.09.32.16.54.22.3.08.62.14.96.19,1.36.2,2.83.22,4.3.16,2.56-.11,5.15-.48,7.73-.88l1.94-.31,1.95-.26,1.95-.26c.66-.06,1.33-.05,2.01-.03.86.07,1.25.17,1.26.33.02.16-.33.43-.92.99-1.15,1.21-3.51,2.83-6.59,3.43-3.05.54-6.13.96-9.34,1.07-1.61.04-3.24.05-5.05-.28-.45-.09-.93-.22-1.41-.37l-1.02-.43c-.31-.18-.65-.35-.92-.58-.57-.43-.99-1-1.35-1.61-.26-.65-.36-1.36-.33-2.05.09-.57.28-1.11.45-1.65.06-.28.26-.51.39-.77.15-.24.28-.52.44-.73.55-.7,1.11-1.24,1.7-1.69,1.17-.91,2.38-1.54,3.6-2.06,2.43-1.02,4.89-1.65,7.37-2.08,3.35-.56,6.77-.96,10.25-.97,3.47.01,7.04.27,10.5,1.65.93.4,1.92.88,2.72,1.54.41.32.82.63,1.21.97l1.07,1.11c1.34,1.56,2.37,3.33,3.07,5.19.68,1.86,1.12,3.78,1.35,5.71.2,1.93.22,3.86.05,5.79-.11,1.18-.27,2.36-.57,3.54-.12.59-.33,1.18-.51,1.77-.24.59-.47,1.2-.81,1.74-1.29,2.24-3.2,3.85-5.18,5.16-3.03,1.96-6.37,3.24-9.77,4.15-3.41.88-6.89,1.45-10.48,1.31-1.03-.05-2.07-.16-3.14-.47-.28-.1-.53-.17-.83-.3-.31-.16-.64-.3-.91-.51-.58-.39-.99-.96-1.29-1.58-.44-1.14-.16-2.45.6-3.43.18-.25.4-.51.59-.68.18-.19.36-.34.55-.5.37-.31.75-.57,1.13-.83,1.53-.96,3.07-1.7,4.63-2.36,1.09-.46,2.15-.91,3.25-1.3,4.11-1.42,5.43-1.62,6.63-.95.27.14.6.24.78.39.61.44-.82,1.82-3.77,2.92-2.41.96-4.87,1.89-7.15,2.98-1.13.53-2.24,1.15-3.03,1.82-.2.16-.37.33-.5.48-.06.07-.03.06-.05.09,0,.04.01.07.03.1.02.01.04.02.06.02h.01s0,0,0,0l.09.03c.15.05.3.1.5.14.74.17,1.67.24,2.62.27,1.91.02,3.94-.21,5.94-.59,3.36-.65,6.71-1.72,9.68-3.27,2.95-1.55,5.57-3.64,6.37-6.29l.09.02Z"/><path class="cls-1" d="M202.54,321.08c2.48-2.06,5.02-4.07,7.89-5.79,1.42-.87,2.93-1.66,4.6-2.27.8-.32,1.76-.56,2.62-.72.86-.13,1.72-.26,2.57-.3,2.49-.16,4.95-.08,7.34.36,2.11.39,4.17.95,6.18,1.7,2.01.74,3.95,1.68,5.76,2.97.45.34.91.64,1.33,1.05l.64.58.61.67c.83.94,1.34,2.05,1.73,3.11.73,2.15.97,4.32.9,6.49-.04.96-.13,1.93-.34,2.9-.11.48-.23.97-.4,1.45-.08.24-.18.48-.28.73-.15.28-.29.61-.47.88-.71,1.15-1.77,1.97-2.95,2.19-.29.08-.59.07-.89.07-.3-.03-.59-.16-.8-.33-.44-.35-.74-.82-.97-1.42-.16-.37-.26-.8-.36-1.23l-.23-1.21-.29-1.69c-.21-1.08-.41-2.19-.77-2.94-.05-.1-.08-.15-.14-.26l-.23-.35-.46-.67c-.3-.45-.64-.84-.95-1.25-.65-.8-1.41-1.42-2.33-1.85-1.14-.54-1.14-.72.25-1.04.69-.13,1.75-.03,2.91.47.57.25,1.17.59,1.71,1.02.53.44,1.03.96,1.47,1.51l.29.36c.13.18.27.39.37.58.22.38.38.74.51,1.08.27.69.45,1.32.57,1.95.13.62.24,1.22.34,1.8l.15.85c.01.09,0,.03,0,.05,0,0-.01.04,0,.05,0,0,.02,0,.04,0,0,0,.02,0,.02-.01.02-.02-.01.06.1-.21.63-1.59.78-3.8.55-5.82-.25-2.04-.82-4.06-1.99-5.25-.76-.82-1.84-1.55-2.98-2.19-1.16-.62-2.41-1.16-3.69-1.63-2.58-.91-5.31-1.47-8.01-1.74-1.48-.11-2.98-.19-4.43-.05-.37.01-.73.07-1.09.12-.35.06-.74.08-1.06.17-.33.09-.66.15-.99.25l-1,.36c-2.69,1.1-5.29,2.84-7.75,4.71-3.06,2.31-5.89,4.9-8.87,7.52-2.24,1.92-4.47,3.83-6.53,5.88-2.06,2.04-3.92,4.25-5.5,6.64-2.48,3.71-4.16,7.79-5.41,11.96-.27.92-.5,1.83-.73,2.77-.23.87-.41,1.59-.57,2.19-.19.6-.39,1.07-.57,1.47-.36.79-.66,1.23-1.1,1.57-.2.16-.39.37-.57.46-.56.29-.92-1.28-.85-4.13.83-8.37,4.84-16.82,10.8-23.54,2.22-2.5,4.64-4.71,7.05-6.82l1.8-1.57,1.74-1.56c1.18-1.07,2.38-2.15,3.61-3.21l.07.07Z"/><path class="cls-1" d="M224.72,346.29c.04-.08.09-.2.11-.24v.02s.04.03.07.05l.1.04s.03,0,.05,0c.07.03.15.05.25,0,.21-.1.67-.74.85-1.48.15-.55.14-1.16.16-1.77.05-1.09-.09-2.15-.48-3.18-.43-1.11-.98-2.15-1.77-2.99-.7-.74-1.57-1.37-2.58-1.83-.63-.31-1.32-.56-1.98-.88-.34-.16-.68-.3-1-.51-.32-.22-.63-.44-.96-.67-.39-.3-.26-.48.24-.7.25-.11.59-.25,1-.39.2-.06.43-.15.65-.18.21-.02.44-.02.66.02.78.12,1.59.27,2.38.55.8.26,1.62.6,2.41,1.07,1.62.93,2.83,2.56,3.54,4.15.22.5.42.92.64,1.47.23.53.39,1.08.54,1.62.28,1.09.4,2.2.33,3.3-.09,1.22-.35,2.45-1,3.66-.14.3-.39.6-.59.88-.25.28-.54.57-.85.81-.34.22-.69.45-1.09.55-.2.05-.38.15-.58.17l-.6.04c-.25.04-.48-.01-.7-.05-.23-.05-.45-.04-.69-.13-.24-.09-.48-.17-.71-.29-.23-.15-.47-.29-.66-.48-.82-.8-1.02-1.74-1.16-2.42-.31-2.14-.37-3.65-1.77-4.28-1.22-.61-2.7-.92-4.07-1.26-.3-.07-.61-.11-.91-.19-1.11-.3-1.3-.56-1.35-1.6-.01-.23-.06-.46-.06-.68-.07-.72.71-1.35,1.71-1.26,1.48.1,2.86.43,4.24.9.7.24,1.35.5,2.12.88.87.44,1.93,1.29,2.51,2.29.88,1.49,1.03,2.91,1.18,3.84.07.47.16.87.2.95,0,.01,0,.05,0,.04h0s0,0,0,0l-.07.04c-.09.06-.19.12-.27.2l-.09.06c-.18.18-.01.03.03-.13h0Z"/><path class="cls-1" d="M272.24,398.7c.3-.96.29-1.94-.09-3.1-.14-.42-.38-.81-.56-1.25-.65-1.61-1.32-3.29-2.04-4.9-.33-.71-.71-1.4-1.05-2.1-.23-.44-.48-.88-.69-1.33-.11-.23-.18-.47-.26-.71l-.11-.37c-.03-.13.08-.33.05-.46-.03-.34.06-.34.4-.23.14.07.61.03.83.16.27.11.56.25.77.47.64.81,1.28,1.62,1.8,2.5.48.9.92,1.82,1.3,2.79.44,1.18,1.21,2.16,1.8,3.36.64,1.3,1.18,2.94,1.07,4.59-.05,1-.31,1.97-.69,2.87-.59,1.37-1.62,2.54-2.81,3.4-.91.68-1.89,1.33-3.04,1.7-.25.07-.5.19-.77.18-.5.03-.83-.09-1.04-.31-.21-.21-.31-.49-.36-.87-.02-.18-.05-.35-.05-.51,0-.54.39-1,.83-1.39.66-.48,1.23-.68,1.77-1.03.53-.33,1.04-.66,1.47-1.07.63-.6,1.19-1.44,1.41-2.39h.08Z"/><path class="cls-1" d="M301.29,396.93c.21-1.56.71-2.93,1.26-4.2.2-.46.32-.95.56-1.38.85-1.51,1.82-2.93,2.81-4.31.44-.61.81-1.26,1.26-1.86.28-.39.54-.79.85-1.15.33-.35.73-.64,1.16-.91.27-.16.52.1.71.56.18.45.39,1.17.26,1.71-.17.43-.38.83-.57,1.25-.2.41-.37.83-.64,1.18-.5.74-1.02,1.48-1.6,2.2-.69.87-1,1.99-1.43,3.01-.49,1.1-.93,2.21-1.15,3.32-.14.68-.21,1.37-.15,2.04.05.52.13,1,.32,1.45.18.45.45.89.8,1.23.54.55,1.32.76,1.92.77.14,0,.27-.04.38,0,.43.08.55.29.82,1.15l.19.58c.09.32.09.63-.05.91-.14.28-.42.52-.82.64-1.21.41-2.55.02-3.58-.59-1.06-.63-1.88-1.55-2.47-2.6-.22-.39-.4-.81-.55-1.24-.15-.45-.24-.88-.31-1.29-.13-.84-.13-1.67-.07-2.46h.08Z"/><path class="cls-1" d="M300.62,403.23c-.11-.34-.14-.69-.12-1.03,0-.12-.05-.23-.04-.35.05-.43.18-.84.32-1.21.05-.16.08-.33.1-.49.03-.21.02-.46.27-.59.08-.04.41.13.75.32.33.19.67.38.68.45.03.24.01.43-.18.69-.12.16.02.32.05.47.02.18.07.35.09.54.02.12.04.24.09.35.07.16.14.35.29.44.12.08.33.02.47,0,.03,0,.07-.02.09-.01.09.03.03.18-.19.72l-.15.37c-.17.41-.39.71-.6.78-.63.23-1.09-.11-1.41-.47-.25-.28-.41-.61-.55-.93l.05-.03Z"/><path class="cls-1" d="M309.96,404.66c-.91-.24-1.82-.48-2.75-.96-.33-.16-.67-.27-.98-.46-1.07-.71-2.03-1.56-2.74-2.59-.32-.45-.62-.92-.86-1.41-.31-.63-.52-1.36-.37-2.06.04-.22.29-.18.58-.03.27.16.62.38.75.64.45.97,1.24,1.63,2.03,2.44.48.5,1.2.72,1.86.96.36.14.73.25,1.11.35.39.1.78.23,1.19.31.5.12,1.02.22,1.54.3.8.11,1.61.25,2.45.3.65.04,1.32-.1,2-.08.15.01.3,0,.45.04.54.16.64.51.57,1.14-.02.15-.03.3-.05.44-.09.47-.41.82-.81,1.02-.3.15-.56.18-.84.26-.26.02-.53.04-.8.03-.53,0-1.09-.06-1.66-.13-.85-.1-1.75-.26-2.67-.44v-.07Z"/><path class="cls-1" d="M272.17,403.29c-.79.4-1.62.7-2.42.92-.29.08-.56.23-.86.29-1.06.15-2.09.2-3.1.19-.45,0-.88.04-1.31.08-.28.02-.55.09-.83.07-.28-.03-.57-.1-.85-.18-.18-.06-.18-.26-.07-.54.11-.27.32-.72.61-.93.52-.3,1.05-.41,1.57-.57.26-.07.52-.13.78-.18.27-.02.53-.02.81-.02.66.02,1.24-.31,1.84-.48.67-.19,1.32-.4,1.93-.69.38-.18.75-.38,1.09-.63.51-.37,1.02-.78,1.35-1.31.26-.41.3-.92.4-1.35.02-.1.02-.2.04-.29.15-.32.44-.35,1.05-.31l.41.03c.44.05.8.32.98.78.16.65.06,1.32-.16,1.92-.25.59-.63,1.12-1.06,1.58-.63.69-1.39,1.22-2.16,1.67l-.04-.06Z"/><path class="cls-1" d="M276.87,400.29c-.16.34-.31.67-.53.98-.07.11-.09.24-.17.34-.29.38-.6.72-.88,1.05-.12.15-.21.31-.29.47-.1.21-.18.44-.44.55-.08.04-.32-.13-.54-.34-.22-.21-.45-.46-.43-.57.07-.42.16-.79.44-1.1.18-.19.13-.47.18-.7.05-.26.13-.51.23-.77.05-.16.11-.32.13-.49.05-.25.1-.51.06-.76-.03-.2-.22-.37-.34-.54-.03-.04-.05-.07-.05-.12,0-.15.18-.23.76-.37l.39-.1c.43-.1.82-.09,1.04.03.37.17.53.39.63.63.1.24.16.49.13.74-.03.37-.14.74-.24,1.09h-.06Z"/><path class="cls-1" d="M275.11,399.72c-1.02-2.84-2.49-5.77-4.03-8.55-.57-1.02-1.25-1.97-1.86-2.94l-.82-1.26-.19-.27-.06-.1-.13-.21c-.1-.12-.19-.34-.37-.37-.17.02-.31.12-.46.23-.07.06-.15.12-.22.18-.04.04-.06.04-.13.12l-.24.27c-.32.37-.64.75-.95,1.15-.61.79-1.2,1.63-1.75,2.5-.98,1.53-1.78,3.19-2.45,4.86-.44,1.07-.82,2.16-1.23,3.24l-.65,1.61c-.06.13-.09.27-.18.4l-.29.37c-.2.25-.29.53-.5.78-.28.32-.42.46-.47.44-.06-.02-.06-.2-.25-.56-.2-.36-.34-.85-.74-1.53-.25-.64-.26-1.34-.16-2.07.09-.65.24-1.27.43-1.89.18-.62.36-1.23.6-1.83.47-1.19,1.01-2.34,1.6-3.47,1.2-2.26,2.56-4.4,4.4-6.39.1-.11.38-.41.59-.62.22-.24.45-.43.68-.64.47-.4.95-.75,1.46-.94.25-.11.51-.18.79-.21.27-.05.58,0,.81.08.25.07.48.22.71.35.22.2.46.34.66.58.43.42.83.93,1.21,1.42.32.42.49.67.73,1.01.45.64.87,1.29,1.28,1.95,1.76,2.88,3.32,5.83,4.7,8.93.42.96.81,1.93,1.16,2.97.08.27.17.53.24.81.08.29.16.72.19,1.08.03.37.01.75-.11,1.1-.13.34-.3.68-.53.97-.16.23-.33.46-.54.64-.18.18-.36.33-.56.47-.38.29-.78.52-1.18.71-.8.39-1.61.65-2.42.86-1.62.39-3.22.55-4.82.63-2.48.11-4.93.19-7.48-.35-.56-.12-1.13-.23-1.7-.44-2.12-.82-2.76-2.03-2.12-3.08.13-.25.26-.49.44-.65.29-.28.71-.34,1.09-.41.44-.09.76-.04,1.27.1,1.53.44,3.49.65,5.42.78,1.94.14,3.97.16,5.85-.1,1.37-.17,2.74-.59,3.4-1.08.2-.16.17-.12.19-.13.01,0,.03-.02.03-.03v-.03s-.03-.16-.03-.16c-.02-.07-.03-.15-.06-.23-.09-.32-.2-.67-.33-1.01l.08-.04Z"/><path class="cls-1" d="M316.83,399.46c-.77-2.91-1.97-5.94-3.38-8.71-.53-1.01-1.17-1.95-1.78-2.86-.48-.75-1.29-1.69-1.33-1.74-.11-.12-.26-.24-.44-.29-.19-.04-.33.1-.46.22-.13.04-.89,1.15-1.38,1.95-.54.87-1.05,1.77-1.56,2.69-.89,1.62-1.67,3.33-2.43,5.02-.49,1.08-.98,2.18-1.54,3.24-.29.52-.6,1.04-.93,1.55-.09.12-.15.26-.27.37l-.38.32c-.26.21-.41.46-.69.66-.36.24-.53.33-.57.3-.05-.04,0-.22-.09-.61-.1-.4-.12-.91-.37-1.62-.12-.65-.02-1.3.16-1.97.16-.59.37-1.16.6-1.72.22-.56.43-1.14.68-1.69.5-1.11,1.02-2.21,1.56-3.31,1.1-2.2,2.22-4.38,3.8-6.55l.18-.25.29-.37c.19-.26.4-.49.61-.72.43-.44.88-.84,1.39-1.08.25-.14.55-.16.83-.23.29.02.58.02.86.09.57.08,1.11.39,1.62.72.25.18.49.39.73.58.22.18.5.49.62.61.29.32.58.64.83.97.51.66.97,1.32,1.38,2,1.79,2.98,3.14,6.07,4.26,9.29.34,1,.64,2,.89,3.07.06.27.12.54.17.82.03.14.05.28.06.44.02.19.05.38.04.57.01.38-.01.76-.14,1.11-.15.34-.3.69-.54.98-.67.92-1.45,1.4-2.26,1.81-.8.39-1.61.66-2.42.86-1.62.39-3.23.56-4.82.63-2.48.11-4.94.19-7.49-.35-.56-.12-1.13-.23-1.7-.44-2.12-.82-2.77-2.03-2.12-3.08.13-.25.26-.49.44-.65.29-.28.71-.34,1.09-.41.44-.09.76-.04,1.27.1,1.53.44,3.49.65,5.42.78,1.94.14,3.97.16,5.85-.1,1.37-.17,2.74-.59,3.4-1.08.1-.05.13-.12.2-.16.05-.03.02-.01.04-.02.01,0,.02-.02.03-.03h0s0,0,0-.02v-.1s-.08-.47-.08-.47c-.06-.34-.15-.69-.24-1.05l.09-.03Z"/><path class="cls-1" d="M295.16,178.15c.06.25-.22.4-.64.53-.14.04-.51-.02-.56-.1-.09-.15-.19-.31-.26-.47-.04-.09-.2-1.55-.19-2.05-.03-.49.03-.96.12-1.43.19-.95.39-1.91.68-2.84.06-.21.15-.41.29-.58.44-.61.73-1.28.99-1.99.04-.12.11-.22.07-.39-.11-.29.92-2.06,1.16-2.22.56-.41,1.05-.85,1.6-1.23.08-.05.11-.15.29-.12.4.09.49-.09.64-.22.21-.18.45-.33.72-.44.14-.05.37-.01.57,0,.18.02.5.42.52.49.04.2.27.3.43.44.05.05.12.11.16.16.06.1-.18,1.77-.25,1.88,0,0-.07.12-.17.29-.11.16-.25.38-.39.6-.27.45-.55.93-.58,1.04-.04.11-.18.16-.29.23-.08.02-.7,1.48-.75,1.52-.23.25-.3.57-.73.72-.08.03-.11.09-.14.15-.26.5-.64.95-.96,1.44-.17.25-.26.53-.39.79-.02.05-.08.08-.12.13-.05.05-.1.11-.13.17-.26.65-.64,1.27-.77,1.97-.04.15-.5.85-.53,1.04-.03.1-.42.38-.39.49Z"/><path class="cls-1" d="M302.82,181.16c-.1.26-.44.08-.93-.33-.15-.13-.48-.63-.47-.74.02-.21.04-.42.09-.6.03-.11.95-1.13,1.27-1.5.3-.36.66-.62,1.04-.87.76-.49,1.52-1,2.32-1.44.18-.1.37-.17.58-.2.71-.11,1.34-.36,1.96-.69.1-.05.22-.08.28-.24.09-.28,1.87-.93,2.13-.91.66.07,1.25-.04,1.91.12.09.01.17-.04.29.09.26.31.43.22.62.22.26,0,.52.02.8.09.14.05.3.2.44.32.13.11.16.52.13.58-.08.16.05.34.09.51.02.06.04.13.04.18,0,.11-1.11,1.37-1.23,1.45,0,0-.13.07-.3.17-.17.11-.39.25-.64.34-.48.21-.97.44-1.06.5-.1.07-.23.02-.36,0-.07-.02-1.44.75-1.49.76-.32.07-.57.3-.98.13-.08-.03-.14,0-.19.03-.5.23-1.07.31-1.62.46-.28.07-.52.22-.79.33-.05.02-.11,0-.17,0-.07,0-.15,0-.2.03-.6.3-1.29.46-1.84.88-.13.09-.94.18-1.08.31-.08.06-.59-.12-.63-.02Z"/><path class="cls-1" d="M304.04,188.71c-.21.17-.35-.2-.47-.87-.04-.21,0-.86.06-.95.12-.17.25-.35.38-.47.07-.07,1.28-.38,1.71-.5.41-.13.81-.13,1.21-.11.81.05,1.62.08,2.43.18.18.02.35.08.51.18.55.35,1.15.48,1.77.54.1.01.2.07.33-.04.23-.19,1.85.31,2.01.49.46.46.83.82,1.24,1.23.06.06.15.05.15.23,0,.41.16.42.3.52.19.13.36.29.51.5.07.1.08.34.1.54.02.18-.27.64-.32.68-.16.11-.21.38-.3.58-.03.07-.07.16-.1.21-.08.1-1.56.51-1.67.48,0,0-.12-.03-.29-.06-.17-.03-.39-.06-.62-.1-.46-.04-.91-.17-1.02-.15-.11,0-.17-.12-.24-.21-.03-.05-1.39-.18-1.44-.2-.25-.13-.54-.1-.72-.5-.03-.08-.09-.08-.15-.09-.47-.1-.89-.37-1.34-.57-.23-.11-.48-.12-.71-.19-.04-.01-.08-.07-.12-.1-.05-.04-.1-.09-.15-.1-.57-.1-1.13-.38-1.73-.35-.13,0-.75-.42-.91-.4-.09,0-.34-.48-.43-.41Z"/><path class="cls-1" d="M256.53,140.81c-.04-.29.04.36.05.42.02.22.05.45.06.67.03.36.05.73.05,1.1s-.02.75-.05,1.13.08-.34-.02.11c-.03.14-.06.28-.09.42-.04.15-.09.3-.14.45-.07.18-.05.14.05-.1-.03.07-.06.13-.1.2-.05.09-.11.19-.16.29-.04.06-.08.12-.12.18.17-.21.19-.24.07-.1-.1.1-.2.21-.3.31-.05.05-.11.1-.17.14.19-.15.24-.18.13-.1-.26.13-.5.31-.77.44.44-.21-.08.02-.18.05-.16.05-.32.1-.48.14-.23.06-.45.11-.68.16-.11.02-.22.04-.33.06.2-.02.19-.02-.01,0-.35.03-.7.05-1.05.03-.1,0-.19-.01-.29-.02.23.03.24.04.04,0-.18-.04-.37-.07-.55-.12-.13-.04-.27-.08-.4-.13-.09-.03-.18-.06-.26-.1.2.09.21.09.03,0-.35-.19-.69-.37-1.02-.6-.13-.09-.26-.18-.38-.27.28.21-.24-.2-.28-.24-.36-.31-.71-.64-1.05-.97-.67-.66-1.8-.67-2.47,0s-.68,1.81,0,2.47c1.15,1.13,2.41,2.2,3.91,2.83s3.03.74,4.63.5c2.79-.42,5.2-2.03,5.78-4.93.36-1.78.18-3.57-.07-5.35-.13-.91-1.33-1.49-2.15-1.22-1,.32-1.36,1.18-1.22,2.15h0Z"/><path class="cls-1" d="M219.01,152.41c3.53,3.81,8.9,6.52,14.07,4.46,2.17-.87,4.24-2.38,4.69-4.81.39-2.09-.28-4.16-.95-6.12-.3-.89-1.2-1.48-2.15-1.22-.87.24-1.53,1.25-1.22,2.15.27.79.54,1.59.74,2.4.06.23.1.47.15.71.08.37,0-.18.03.22.03.33.03.66.01.99-.02.21-.02.21,0,.01-.02.1-.04.21-.07.31-.02.07-.19.5-.05.18-.07.15-.15.29-.24.43-.18.3.08-.05-.15.2-.54.58-1.35,1.05-2.2,1.34-3.89,1.34-7.59-.93-10.19-3.73-1.53-1.66-4,.82-2.47,2.47h0Z"/><path class="cls-1" d="M236.68,175.2c3.27,4.87,10.34,5.65,14.65,1.7.7-.64.65-1.83,0-2.47-.69-.69-1.78-.64-2.47,0-.11.1-.23.2-.34.3-.25.21.1-.06-.06.04-.21.14-.41.28-.63.4-.24.13-.48.26-.73.36.34-.15-.29.1-.41.13-.23.07-.47.13-.71.18-.14.03-.29.05-.44.08.25-.04.13-.01-.05,0-.52.04-1.03.03-1.55,0-.34-.02.16.04-.05,0-.12-.03-.24-.04-.36-.06-.24-.05-.48-.11-.72-.18-.14-.04-.28-.09-.42-.14-.04-.02-.42-.17-.2-.07s-.16-.08-.2-.09c-.11-.05-.22-.11-.33-.17-.24-.13-.46-.29-.69-.43-.27-.18.09.09-.06-.04-.1-.08-.19-.16-.29-.24-.19-.17-.37-.35-.54-.54-.02-.02-.34-.41-.12-.12-.1-.12-.18-.25-.27-.38-.53-.78-1.54-1.13-2.39-.63-.78.45-1.16,1.61-.63,2.39h0Z"/><path class="cls-1" d="M232.97,132.43c-1.76-.64-3.66-.95-5.54-.92-.78.01-1.54.68-1.5,1.5s.66,1.51,1.5,1.5c.7-.01,1.4.03,2.09.12l-.4-.05c1.04.14,2.06.39,3.05.75.74.27,1.68-.3,1.85-1.05.19-.85-.26-1.56-1.05-1.85h0Z"/><path class="cls-1" d="M214.9,139.42c2.25-1.94,4.91-3.42,7.75-4.3,2.62-.81,6.07-1.56,8.75-.61.26.09.69.44.92.45.15.19.21.15.16-.11.08-.2.07-.27-.03-.21-.09-.09-.86-.17-1.05-.23-.38-.13-.76-.28-1.14-.4-1.45-.45-2.98-.7-4.49-.76-3.11-.13-6.2.6-8.96,2.02-1.72.88-.2,3.47,1.51,2.59,2.6-1.33,5.54-1.85,8.44-1.54,1.47.16,2.78.68,4.19,1.1s3.04.25,3.96-1.03c2.26-3.11-2.52-4.95-4.82-5.18-2.83-.28-5.87.25-8.56,1.12-3.24,1.05-6.18,2.75-8.76,4.97-1.46,1.26.67,3.38,2.12,2.12h0Z"/><path class="cls-1" d="M250.1,131.96c-.73.3-1.37.7-1.98,1.13-.56.47-1.11.96-1.5,1.57-.24.28-.36.63-.56.94-.13.35-.3.68-.4,1.05-.23.81-.34,1.32-.26,2.05.09,1.06.58,2.2,1.07,3.36.87,2.06,2.07,4.11,3.33,6.15,1.25,2.04,2.61,4.06,3.9,6.17.55.95,1.12,1.9,1.65,2.92.5,1.04,1.06,2.07,1.16,3.58.04,2.32-2.07,3.63-3.55,3.87-1.54.33-2.92.25-4.25.27-.81.02-.83-.43-.19-1.06.63-.63,2.03-1.41,3.29-1.87.55-.2.98-.48,1.13-.71.08-.12.11-.2.1-.3.01-.03,0-.1,0-.15v-.03s0,0,0,0c1.14.43.31.12.57.21h0s-.02-.01-.02-.01l-.04-.02-.07-.03c-.1-.03-.19-.05-.29-.05-.02,0-.16-.02-.21-.03h0s0-.02,0-.04c-.02-.07-.03-.12-.04-.2-.03-.1-.06-.19-.09-.29l-.13-.35c-.21-.49-.47-1.02-.79-1.58-1.31-2.19-2.8-4.61-4.19-7.1-1.65-3-3.85-5.87-5.13-9.46-.33-.99-.62-2.04-.69-3.2-.03-.58,0-1.18.09-1.79.12-.55.25-1.07.41-1.59.7-2.08,2.07-4,3.84-5.22,2.16-1.57,4.67-2.27,7.12-2.6.94-.11,1.85-.19,2.84-.14.98.05,2.01.21,3.02.71,1.01.5,1.93,1.51,2.14,2.77.02.18.05.27.04.58-.03.2-.06.39-.16.58-.12.2-.32.43-.47.51-.38.23-.63.23-.84.25-.2,0-.38,0-.52-.03-.59-.08-1.02-.23-1.47-.36-.34-.1-.67-.2-.95-.27-.15-.04-.26-.05-.36-.06l-.43-.02c-.58,0-1.18.06-1.77.16-1.19.19-2.35.61-3.43,1.12-.47.23-.9.52-1.34.79-1.58,1.06-2.07,1.31-3.03,1.15-.22-.04-.46-.04-.65-.1-.33-.1-.47-.4-.39-.92.07-.52.41-1.23,1.05-1.96,1.99-2.04,4.62-3.38,7.61-3.87.75-.15,1.55-.12,2.37-.04l.62.08c.13.02.32.06.44.1l.33.1.97.34c.28.1.55.19.74.24l.19.05s0-.02,0,.02l-.03.36c-.01.23-.04.36-.04.55,0,.16.02.37.02.5,0,.11,0,.23.04.34.05.14.04.17.07.23.02.06.09.12.06.1-.02,0,.04.03-.03,0-.06-.03-.12-.04-.17-.03-1.75,0-1.78.13-1.89.12,0-.01,0-.04,0-.07,0-.07-.27-.35-.88-.45-.59-.12-1.33-.13-2.18-.07-1.66.13-3.32.49-4.74,1.14l-.04-.08Z"/></svg>