<?xml version="1.0" encoding="UTF-8"?><svg id="Layer_1" xmlns="http://www.w3.org/2000/svg" width="520" height="520" viewBox="0 0 520 520"><defs><style>.cls-1,.cls-2{fill:#231f20;}.cls-3{opacity:.55;}.cls-2{opacity:.15;}</style></defs><path class="cls-2" d="M354.12,287.62c-1.69-5.19-6.25-6.29-6.25-6.29,0,0,5.59-7.42,6.76-11.07,1.18-3.66,1.73-18.36.91-30.64-.82-12.28-5.25-15.58-5.25-15.58,0,0-5.8,3.54-8.23,6.29,0,0-10.28-5.58-22.51-2.99-6.33,1.33-19.41,11.06-19.41,11.06,0,0-4.22-8.38-6.59-7.75-2.38.63-4.53,17.96-4.53,17.96l-3.86-.59s-17.87-7.62-50.25-1c-32.07,6.56-52.56,27.49-58.14,41.69-7.78,19.81,9.68,36.93,9.68,36.93,0,0,11.66-8.78,19.69-13.61,8.02-4.82,32.78-11.11,32.78-11.11,0,0,16.33-3.11,25.95-4.92,9.61-1.81,7.1-12.78,8.03-4.14.94,8.63,26.7,16.19,27.57,16.1.12-.01.64-.04,1.47-.09-4.76-1.43-9.31-3.09-9.31-3.09,0,0,17.69,2.71,20.89,2.71,6.03,0,10.55-3.06,5.01-10.49-4.23-5.67-13.15-11.98-15.42-13.15l16.44,8.01s11.67,4.89,9.01,12.57c-.34.98-.94,1.78-1.73,2.45,2.58,1.38,13.19,6.51,21.22,2.52,9.2-4.57,7.77-16.6,6.07-21.78ZM237.41,300.95s4.33-.5-2.5-2.04c-4.94-1.11-17.3,2.35-22.23,4.14-.83.3-.67-.44-.46-1.3.82-3.28.71-9.62-.15-16.84-1.25-10.45-9.68-19.45-10.76-20.65,0,0,10.14,6.64,13.76,14.8,3.61,8.16,4.92,17.18,4.92,17.18,0,0,9.3-2.67,13.56-2.54,4.26.14,10.61,5.8,10.61,5.8l-6.77,1.46Z"/><path class="cls-2" d="M168.31,293.35c-1.99.33-27.1,11.52-37.28-8.45-8.6-16.88-.6-25.74,5.36-31.44,5.75-5.5,17.07-10.34,14.51-13.85-2.46-3.37-2.36-3.06-9.46,0-7.09,3.06-14.38,7.99-17.76,14.35-3.39,6.36-4.87,16.18-4.55,22.99s5.47,15.47,7.27,18.34,13.03,10.77,17.3,11.2c4.27.43,21.5.02,26.3-4.95s-1.69-8.18-1.69-8.18Z"/><path class="cls-1" d="M124.53,268.23l-5.08.07c-.98.01-1.92.85-1.88,1.88s.82,1.89,1.88,1.88l5.08-.07c.98-.01,1.92-.85,1.88-1.88s-.82-1.89-1.88-1.88h0Z"/><path class="cls-1" d="M124.88,280.54c-.85.28-1.69.56-2.54.85-.46.15-.87.43-1.12.86-.14.22-.21.45-.22.7-.06.25-.04.5.03.75.15.45.43.89.86,1.12s.97.35,1.44.19c.85-.28,1.69-.56,2.54-.85.46-.15.87-.43,1.12-.86.14-.22.21-.45.22-.7.06-.25.04-.5-.03-.75-.15-.45-.43-.89-.86-1.12s-.97-.35-1.44-.19h0Z"/><path class="cls-1" d="M127.58,255.98l-2.54-.85c-.25-.08-.5-.09-.75-.03-.25.01-.48.09-.7.22-.22.12-.39.28-.53.48-.17.18-.28.39-.34.64-.11.48-.09,1.02.19,1.44l.29.38c.23.23.51.39.83.48l2.54.85c.25.08.5.09.75.03.25-.01.48-.09.7-.22.22-.12.39-.28.53-.48.17-.18.28-.39.34-.64.11-.48.09-1.02-.19-1.44l-.29-.38c-.23-.23-.51-.39-.83-.48h0Z"/><path class="cls-1" d="M234.9,257.43c-3.02-6.74-9.08-11.93-16.13-14.06-2.32-.7-3.31,2.92-1,3.62,6.15,1.85,11.23,6.41,13.89,12.33.41.92,1.76,1.14,2.57.67.95-.56,1.09-1.64.67-2.57h0Z"/><path class="cls-1" d="M246.9,252.19c-1.73-6.6-6.73-11.99-13.1-14.36-.95-.35-2.06.39-2.31,1.31-.29,1.05.36,1.95,1.31,2.31.18.07.36.14.54.21-.28-.11.26.12.26.11.32.15.64.3.95.47.65.34,1.28.73,1.89,1.14.13.09.26.18.39.28.08.06.16.11.23.17-.1-.08-.1-.08,0,0,.28.22.55.44.81.68.55.49,1.08,1.01,1.57,1.56.89.99,1.6,1.97,2.32,3.3.17.31.33.62.48.94.18.38.25.54.31.7.28.72.52,1.45.71,2.19.26.98,1.34,1.58,2.31,1.31s1.57-1.32,1.31-2.31h0Z"/><path class="cls-1" d="M261.49,248.07c-2.05-5.1-5.78-9.42-10.66-12.01-.87-.46-2.08-.25-2.57.67-.46.87-.25,2.07.67,2.57.54.29,1.08.6,1.59.93.24.15.47.31.7.47.14.1.27.2.41.3.28.2-.08-.07.09.06.94.75,1.83,1.57,2.64,2.46.19.21.37.42.55.63.11.13.21.26.32.39.22.27-.06-.08.07.09.35.48.69.95,1,1.45s.64,1.06.92,1.6c.13.25.25.5.37.75.07.15.14.31.21.46-.13-.3.03.07.07.17.36.91,1.27,1.65,2.31,1.31.88-.28,1.7-1.33,1.31-2.31h0Z"/><path class="cls-1" d="M402.75,79.35c.94.87,1.92,1.69,2.76,2.66l1.31,1.39,1.2,1.49c.29.37.61.7.88,1.07.27.37.55.75.8,1.13,1.81,2.71,3.27,5.66,4.2,8.75.11.34.24.67.34,1.02l.26,1.05c.15.7.36,1.39.47,2.09.12.9.24,1.81.37,2.71,0,.92-.08,1.83-.14,2.73-.05.56-.18.48-.4.01-.21-.47-.6-1.31-.81-2.29-.17-.87-.4-1.73-.58-2.58-.17-.86-.53-1.68-.77-2.52-.18-.86-.55-1.66-.82-2.5-.25-.85-.64-1.64-.98-2.46-.81-1.98-2.17-3.77-3.49-5.5-.73-.95-1.55-1.83-2.34-2.74l-1.29-1.27c-.42-.43-.86-.85-1.33-1.22l-1.71-1.43-1.82-1.29c-.91-.66-1.92-1.18-2.87-1.79-.99-.53-2.01-1.02-3.03-1.47-.82-.3-1.64-.55-2.46-.79-.83-.2-1.68-.34-2.51-.52-.36-.09-.73-.12-1.11-.17-.69-.11-1.13-.23-1.42-.44-.29-.23-.43-.51-.52-.91-.04-.18-.11-.37-.12-.54-.02-.29.13-.52.43-.7.3-.17.76-.3,1.31-.26,3.31.15,6.72,1.23,9.8,2.87,1.18.55,2.25,1.3,3.35,1.98,1.04.78,2.1,1.52,3.09,2.37l-.04.05Z"/><path class="cls-1" d="M333.22,266.99c-.43-2.72-.87-5.44-1.3-8.16-.15-.97-1.42-1.6-2.31-1.31-1.05.34-1.48,1.27-1.31,2.31.43,2.72.87,5.44,1.3,8.16.15.97,1.42,1.6,2.31,1.31,1.05-.34,1.48-1.27,1.31-2.31h0Z"/><path class="cls-1" d="M314.01,249.41c.59,3.53,3.31,7.24,6.97,7.99,1.87.38,3.91.11,5.37-1.19,1.2-1.08,1.68-2.74,1.7-4.31.02-1.73-.48-3.44-1.22-4.99-.39-.83-1.65-1.11-2.39-.63-.85.55-1.05,1.51-.63,2.39.06.12.1.26.17.37-.02-.03-.16-.4-.06-.13.02.07.05.13.08.2.1.27.19.54.27.82s.15.56.2.85c.03.14.03.3.07.43,0-.03-.05-.44-.02-.14,0,.09.02.18.02.27.02.26.02.53.01.79,0,.13-.05.28-.03.41-.04-.32.05-.33.02-.17-.02.08-.03.16-.05.24-.03.13-.06.25-.1.38-.02.06-.17.51-.06.19.1-.28-.03.05-.08.13-.03.05-.07.11-.1.16-.2.33.05-.07.05-.05.01.03-.21.23-.22.24-.05.04-.1.08-.14.13-.14.16.31-.2.12-.1-.12.06-.23.14-.34.21-.03.02-.12.04-.14.07.24-.1.3-.12.17-.08-.05.02-.1.04-.16.05-.15.05-.29.09-.44.12-.07.01-.17.05-.24.04,0,0,.33-.02.13-.02-.18,0-.35.02-.53.02-.09,0-.17,0-.26-.01-.32-.02-.09-.07.01.01-.07-.06-.41-.08-.5-.1-.17-.04-.33-.09-.49-.15-.08-.03-.17-.05-.24-.09,0,0,.3.14.12.05s-.35-.17-.51-.27c-.15-.09-.29-.18-.44-.28-.07-.05-.14-.1-.21-.15.05.04.28.24.05.03-.28-.25-.56-.51-.81-.79-.09-.1-.43-.55-.19-.22-.12-.17-.24-.33-.35-.5-.22-.34-.42-.7-.6-1.06-.04-.08-.07-.16-.11-.25-.11-.23.14.39,0-.02-.07-.19-.14-.38-.2-.57-.12-.4-.22-.8-.29-1.21-.15-.91-1.32-1.49-2.15-1.22-.98.32-1.39,1.18-1.22,2.15h0Z"/><path class="cls-1" d="M336.92,245.2c.08,1.58.21,3.18.04,4.76-.05.48.08-.38-.01.08-.03.14-.05.28-.09.42s-.07.26-.11.39c-.02.05-.04.1-.05.15-.09.29.21-.42.04-.1-.05.1-.1.2-.16.3-.12.2-.36.35.02.01-.09.08-.17.19-.25.28-.04.04-.08.07-.11.1-.27.27.18-.11.08-.05-.23.14-.45.29-.69.41-.42.2.36-.13-.1.04-.18.06-.36.12-.54.17-.15.04-.31.08-.46.11-.36.08.43-.01.08-.02-.06,0-.12,0-.19,0-.07,0-.15-.01-.23,0-.22.02.46.11.16.02-.15-.04-.3-.09-.45-.12-.2-.05.41.23.15.06-.05-.03-.1-.05-.15-.08-.07-.04-.14-.09-.21-.13-.13-.07-.09-.18.15.12-.18-.23-.45-.44-.65-.65-.15-.17.26.38.08.1-.03-.05-.07-.1-.11-.15-.09-.13-.17-.27-.25-.4-.18-.31-.31-.65-.48-.97.01.02.16.41.06.14-.04-.09-.07-.19-.11-.28-.07-.19-.14-.38-.2-.57-.12-.35-.22-.7-.32-1.05-.19-.66-.35-1.33-.51-2-.22-.89-1.27-1.51-2.15-1.22s-1.46,1.2-1.22,2.15c.34,1.38.68,2.77,1.22,4.1.64,1.55,1.53,3.15,3.08,3.94,1.73.88,3.75.51,5.4-.41,1.37-.76,2.29-2.09,2.62-3.61.43-1.97.24-4.03.15-6.02-.04-.91-.77-1.79-1.75-1.75-.91.04-1.8.77-1.75,1.75h0Z"/><path class="cls-1" d="M319.55,289.6c.75.56,5.55,5.05,6.48,4.89s5.75-6.88,5.75-6.88l-12.24,1.98Z"/><path class="cls-1" d="M351.56,280.91c-.63.03-1.28.1-1.9.24-.23.04-.44.17-.67.22-.8.22-1.66.4-2.43.78-.36.14-.64.41-.98.58-.41.27-.81.55-1.27.78-.15.07-.22-.03-.25-.25-.02-.21-.01-.57.14-.85.53-1.02,1.44-1.72,2.47-2.13.61-.26,1.19-.63,1.82-.87.7-.25,1.41-.44,2.14-.57.45-.09.89-.14,1.34-.2.68-.09,1.36-.08,2.04-.13.52-.03,1.04-.18,1.58-.24.12-.02.24-.05.36-.04.44.04.55.28.55.85,0,.13,0,.27,0,.4-.03.44-.25.79-.55.95-.86.36-1.66.35-2.49.43-.62.02-1.25.01-1.88.09v-.05Z"/><path class="cls-1" d="M294.65,275.95c-.39-.25-.78-.52-1.21-.72-.42-.23-.85-.42-1.3-.58-.33-.13-.67-.18-1-.3-1.17-.41-2.44-.68-3.72-.62-.57-.02-1.12.17-1.68.24-.35.09-.7.19-1.06.27-.35.12-.7.22-1.07.32-.23.06-.26-.05-.15-.27.11-.21.35-.59.72-.89,1.36-1,3.09-1.39,4.75-1.26.99.06,2.03.06,3.04.24.56.09,1.08.32,1.61.48.51.23,1.04.42,1.52.7l.9.5.85.57c.44.27.81.64,1.22.96.38.35.76.7,1.13,1.05.27.29.57.56.88.82.29.28.55.59.82.9.12.14.24.27.33.43.3.61.17.91-.26,1.26-.1.08-.2.17-.3.23-.35.22-.8.15-1.2-.09-.51-.41-.99-.79-1.4-1.22-.22-.21-.42-.42-.62-.65l-.65-.63c-.31-.33-.69-.59-1.02-.91-.38-.26-.74-.57-1.14-.79l.03-.05Z"/><path class="cls-1" d="M292.85,275.39c-.87-.32-1.78-.59-2.71-.72-.34-.07-.69-.05-1.03-.08-1.21-.11-2.46-.1-3.68.12-.55.08-1.07.27-1.59.44-.65.28-1.28.57-1.98.78-.22.06-.26-.05-.17-.28.09-.22.29-.61.63-.91,1.32-.8,2.83-1.34,4.39-1.45.93-.07,1.89-.18,2.84-.16.52,0,1.04.09,1.56.14.51.11,1.03.17,1.53.31l.93.25.9.32c.91.33,1.77.79,2.63,1.23.32.19.66.36,1,.52.33.18.66.37.98.56.15.08.3.16.42.27.43.46.47.71.23,1.12-.05.09-.1.19-.16.28-.2.28-.59.33-1.01.19-.6-.22-1.1-.54-1.62-.84-.53-.29-1.05-.6-1.59-.9-.39-.24-.82-.41-1.22-.63-.43-.17-.85-.38-1.29-.51v-.04Z"/><path class="cls-1" d="M292.23,265.12c-.06.46-.16.91-.3,1.34-.12.44-.28.86-.46,1.27-.11.3-.2.61-.36.9-.57,1-1.29,1.89-2.13,2.61-.34.35-.76.64-1.14.92-.26.17-.53.34-.82.44-.31.09-.63.13-.94.16-.2.01-.23-.16-.19-.44.05-.27.12-.72.29-.98.16-.24.28-.49.45-.65.17-.17.29-.4.45-.58.36-.31.73-.62,1.11-.98.48-.41.66-1.06.9-1.64.14-.32.23-.66.35-.99.07-.34.19-.68.23-1.03.02-.22.07-.43.1-.65l.03-.66c.02-.34-.04-.66-.06-1-.05-.33-.14-.65-.25-.96-.22-.47-.57-.84-.85-1.23-.06-.09-.14-.16-.21-.24-.24-.31-.16-.54.15-.95.07-.1.14-.2.21-.28.24-.29.62-.37,1.02-.2.57.28,1.05.71,1.49,1.21.16.27.31.56.45.86.12.3.21.61.3.92.14.46.17.94.23,1.41,0,.47.04.94-.01,1.41h-.06Z"/><path class="cls-1" d="M291.92,270.07c-.23.24-.51.46-.73.71-.08.09-.11.2-.2.29-.31.3-.63.62-.93.91-.13.14-.22.3-.31.45-.1.2-.19.41-.42.57-.07.05-.25-.04-.43-.19-.18-.14-.38-.35-.39-.5,0-.5.03-1,.34-1.38.21-.22.21-.53.32-.8.13-.29.28-.57.43-.85.1-.17.2-.34.3-.5.14-.26.32-.5.39-.79.07-.22,0-.49-.01-.74,0-.05-.03-.12.01-.16.13-.15.33-.12.88.07l.37.13c.41.16.73.38.88.59.27.34.25.55.27.79.01.23-.07.43-.18.61-.15.28-.37.53-.55.8l-.06-.02Z"/><path class="cls-1" d="M293.04,270.37c-.03.22-.08.45-.1.66,0,.08.04.13.03.21-.05.29-.09.57-.1.84,0,.12.03.22.07.32.06.12.15.23.06.42-.03.06-.3.17-.58.26-.29.09-.61.16-.69.11-.24-.2-.46-.41-.39-.75.03-.2-.14-.31-.21-.47-.07-.18-.12-.36-.17-.55-.03-.12-.04-.24-.07-.35-.05-.17-.06-.36-.18-.5-.08-.11-.33-.15-.48-.23-.03-.02-.08-.03-.1-.05-.07-.09.08-.19.68-.49l.41-.2c.46-.22.87-.35,1.06-.34.59,0,.67.25.75.49.05.19.05.4.07.6l-.05.02Z"/><path class="cls-1" d="M290.83,262.01c-.09.63-.16,1.26-.32,1.88-.12.62-.3,1.22-.5,1.82-.12.44-.24.88-.42,1.3-.63,1.49-1.54,2.84-2.58,4.03-.43.55-.92,1.06-1.37,1.59-.62.63-1.26,1.31-2.19,1.53-.28.07-.37-.14-.39-.55,0-.2,0-.46.02-.73.03-.25.13-.47.28-.64.49-.65,1.04-1.19,1.54-1.8.5-.61,1.01-1.22,1.49-1.88.61-.78.9-1.77,1.25-2.7.2-.51.33-1.05.5-1.58.1-.54.26-1.08.31-1.64l.12-1.02.02-1.03c-.01-1.04-.12-2.09-.38-3.1-.13-.38-.29-.75-.46-1.11-.19-.35-.41-.68-.6-1.02-.08-.15-.19-.28-.29-.43-.34-.54-.31-.79.1-1.22.09-.1.18-.21.27-.29.33-.3.78-.25,1.17.16,1.18,1.18,1.96,2.84,2.31,4.55.17.63.16,1.29.23,1.94-.02.65.01,1.3-.06,1.94h-.06Z"/><path class="cls-1" d="M285.45,240.73c.34.52.62,1.09.89,1.63.21.57.48,1.12.62,1.7.1.42.34.8.36,1.24.21,1.51.15,3-.02,4.44-.08.64-.17,1.27-.29,1.89-.16.79-.39,1.58-.82,2.28-.13.22-.24.13-.34-.13-.1-.26-.2-.68-.16-1.1.13-1.53-.1-2.99-.1-4.47-.02-.45-.11-.89-.22-1.34l-.45-1.28c-.17-.46-.28-.95-.5-1.39l-.29-.68-.37-.63-.23-.39-.28-.35c-.19-.23-.35-.49-.58-.69-.35-.28-.63-.66-1.03-.88-.37-.25-.74-.54-1.18-.67-.64-.3-1.38-.24-2.05-.3-.15.01-.31.05-.46.05-.28,0-.46-.05-.59-.2-.13-.16-.2-.39-.26-.72-.03-.15-.07-.29-.09-.43-.03-.24.02-.45.14-.65.12-.21.33-.38.59-.44,1.56-.46,3.39-.06,4.94.79.29.16.56.35.83.54.25.22.48.45.72.67.5.43.86.97,1.26,1.47l-.05.04Z"/><path class="cls-1" d="M219.51,284.23c.24,1.39.47,2.77.73,4.13.1.5.29.97.38,1.46.17.87.33,1.74.53,2.55.03.15.06.26.11.39.03.14.07.29.14.43.14.28.38.53.66.75.5.38,1.18.56,1.82.53.15,0,.3-.03.45-.05l-.09.02c.79-.27,1.63-.37,2.49-.42.33,0,.37.25.21.64-.16.38-.48.98-.99,1.32-.33.22-.67.43-1.03.58l-.15.04c-2.19.66-4.83-.13-6.12-2.43-.1-.22-.17-.45-.24-.67l-.14-.51-.29-.96c-.2-.63-.41-1.26-.56-1.89-.33-1.39-.61-2.78-.9-4.16-.18-.85-.35-1.7-.54-2.54-.3-1.28-.55-2.57-.96-3.8-.34-.95-.8-1.84-1.18-2.76-.08-.2-.2-.39-.24-.61-.19-.79-.04-1.11.6-1.51.15-.09.28-.19.43-.27.49-.25,1.05-.08,1.5.42.7.73,1.15,1.57,1.6,2.42.4.87.64,1.8.9,2.72.37,1.37.65,2.77.95,4.15l-.08.02Z"/><path class="cls-1" d="M171.65,293.68c.22.98.38,1.96.38,2.94.01.36.09.7.04,1.06-.09,1.25-.51,2.46-1.04,3.51-.25.47-.44.95-.72,1.39-.17.28-.36.56-.61.78-.28.2-.57.38-.83.57-.18.11-.21.04-.23-.19-.04-.47-.08-.87-.09-1.06.07-.31.09-.62.15-.91.09-.26.24-.5.3-.76.08-.26.18-.51.28-.76.07-.26.15-.52.27-.77.14-.31.15-.65.18-.99,0-.34-.06-.68-.06-1.02-.08-.74-.17-1.5-.41-2.24-.12-.46-.31-.9-.51-1.33-.34-.63-.7-1.29-1.24-1.77-.4-.38-.99-.54-1.47-.69-.1-.04-.22-.04-.31-.1-.34-.14-.33-.37-.04-1.26l.18-.57c.19-.59.67-1.11,1.19-1.05,1.59.08,2.66,1.24,3.41,2.38.58.86.94,1.84,1.27,2.79l-.06.03Z"/><path class="cls-1" d="M170.15,289.66c0,.23-.02.47-.01.69,0,.08.06.14.06.23,0,.29-.01.61-.02.89,0,.13.05.24.1.35.07.14.18.26.1.46-.04.12-1.1.46-1.26.34-.23-.24-.41-.5-.39-.85.03-.22-.14-.36-.2-.54-.07-.2-.12-.41-.18-.62-.03-.13-.06-.26-.1-.38-.06-.19-.1-.39-.22-.55-.09-.12-.31-.19-.49-.28-.04-.02-.1-.03-.12-.06-.09-.1.04-.2.62-.48l.39-.19c.45-.21.84-.33,1.01-.3.5.07.6.34.68.62.05.21.06.44.09.66l-.05.02Z"/><path class="cls-1" d="M167.66,296.46c-.44-.72-1-1.42-1.7-2.04-.27-.2-.56-.38-.85-.55-1-.71-2.23-1.13-3.52-1.33-.58-.05-1.17-.09-1.74.01-.37.06-.75.07-1.11.17-.37.06-.76.07-1.16.08-.25,0-.27-.13-.13-.38.14-.23.42-.65.84-.93,1.56-.64,3.37-1.01,5.1-.56.51.16,1.04.26,1.57.37.51.17,1.07.27,1.56.53.54.27,1.08.54,1.56.93.24.19.5.34.72.56l.63.67c.27.26.45.6.68.89.23.29.41.62.58.95.59.97.83,2.09,1.05,3.16.06.42.13.84.22,1.27.06.42.1.86.06,1.29,0,.19-.01.38-.07.56-.21.68-.44.85-.99.85-.13,0-.25,0-.37-.01-.39-.05-.69-.4-.82-.84-.49-1.31-.63-2.37-1.11-3.38-.33-.73-.51-1.55-1.05-2.21l.06-.05Z"/><path class="cls-1" d="M150.83,246.25c-.46.78-.97,1.52-1.55,2.2-.2.26-.4.51-.63.74-.8.81-1.71,1.49-2.69,2.04-.42.26-.86.48-1.29.71-.28.13-.58.26-.86.38-.3.1-.6.18-.91.24-.19.04-.2-.09-.09-.28.11-.18.33-.43.63-.58,1.07-.55,2.02-1.25,2.97-1.97.58-.43,1.05-1.03,1.5-1.6.26-.31.47-.65.72-.97.2-.35.44-.68.61-1.04l.34-.67.28-.69c.26-.71.47-1.44.53-2.19,0-.29-.03-.58-.06-.87-.05-.28-.14-.56-.21-.84-.03-.12-.08-.24-.12-.35-.1-.44.07-.6.64-.78.12-.04.24-.09.36-.12.37-.11.84.04,1.02.42.48,1.16.2,2.47-.11,3.67-.1.45-.29.88-.44,1.32-.2.42-.37.85-.59,1.25h-.03Z"/><path class="cls-1" d="M298.4,230.16c-.1-.73-.26-1.48-.55-2.19-.09-.27-.28-.47-.39-.73-.4-.9-.9-1.81-1.59-2.56-.29-.35-.67-.61-1.01-.89-.24-.16-.49-.3-.72-.47-.25-.13-.46-.35-.66-.6-.12-.16,0-.38.28-.59.14-.11.32-.21.53-.3.21-.1.43-.13.62-.07.63.25,1.28.53,1.83.95.54.42,1.03.92,1.41,1.49.47.67,1.09,1.25,1.55,1.94.5.76.9,1.59,1.22,2.44.2.52.37,1.06.5,1.6.21.82.29,1.66.44,2.49.1.64.37,1.27.5,1.95.04.15.09.3.1.45,0,.56-.26.71-1.16.7-.2,0-.39,0-.57-.01-.6-.04-1.23-.33-1.4-.65-.5-.97-.52-1.84-.66-2.79-.03-.35-.1-.7-.13-1.05-.08-.35-.11-.71-.19-1.07l.07-.03Z"/><path class="cls-1" d="M297.89,225.8c.45.75.86,1.52,1.21,2.3.14.28.31.54.42.83.38,1.03.69,2.07.86,3.13.1.46.19.92.29,1.38.05.29.12.58.16.88.03.3.03.6,0,.9-.03.19-.28.19-.56.07-.28-.12-.62-.34-.72-.64-.36-1.07-.83-2.05-1.08-3.15-.14-.67-.57-1.24-.9-1.83-.37-.65-.77-1.29-1.21-1.9-.27-.38-.56-.74-.88-1.08-.48-.51-.96-1.05-1.53-1.45-.46-.3-1-.45-1.51-.62-.11-.04-.24-.05-.34-.1-.19-.1-.29-.2-.31-.38,0-.2.05-.44.16-.75.05-.14.09-.28.14-.41.09-.22.21-.39.39-.54.18-.15.41-.29.61-.26,1.24.04,2.26.76,3.15,1.55.68.58,1.19,1.33,1.7,2.05l-.05.04Z"/><path class="cls-1" d="M301.18,232.47c.03-.12.07-.25.09-.37,0-.04-.04-.07-.02-.11.06-.17.14-.34.17-.5.02-.07-.02-.12-.06-.17-.05-.06-.17-.09-.03-.23.08-.08,1.52-.59,1.6-.53.12.12.15.27,0,.49-.09.14.04.19.05.29,0,.11,0,.23-.02.34,0,.07-.01.14,0,.21,0,.1,0,.21.06.29.05.06.21.08.32.11.03,0,.07,0,.08.02.06.04-.06.11-.56.32l-.34.15c-.39.16-.72.27-.85.27-.38,0-.47-.11-.51-.24-.03-.1-.02-.22-.03-.33l.04-.02Z"/><path class="cls-1" d="M338.05,313.99c-2.1-.78-4.18-1.58-6.24-2.23-.76-.24-1.53-.37-2.27-.56-1.32-.35-2.57-.59-3.91-.62-1.34-.06-2.7.09-4.11.23-1.25.14-2.52.39-3.8.56-1.63.19-3.39.5-5.01-.25-.5-.19-.41-.3.03-.56.22-.14.53-.31.89-.57.18-.11.37-.27.56-.36.2-.07.4-.14.62-.17,1.53-.24,3.02-.71,4.62-1.11.8-.19,1.63-.37,2.48-.51.87-.1,1.75-.16,2.65-.14,2.13,0,4.47.09,6.52.6,2.27.54,4.41,1.26,6.55,1.95l3.94,1.27c1.99.63,3.98,1.27,5.99,1.74,1.57.36,3.16.49,4.74.69.35.05.7.05,1.04.11,1.29.23,1.64.55,1.69,1.6.01.23.05.47.04.69-.04.74-.71,1.3-1.7,1.28-2.95,0-5.93-.68-8.86-1.5-2.18-.61-4.34-1.32-6.48-2.05l.02-.08Z"/><path class="cls-1" d="M274.02,298.54c.9.19,1.79.38,2.74.63.94.22,1.85.5,2.75.8,1.81.58,3.54,1.28,5.25,1.98,1.24.53,2.5.97,3.71,1.51,4.28,1.89,8.45,3.85,12.89,5.09,1.97.54,3.99.9,6,1.12,2.59.37,5.18.16,7.81.59.84.38.73.25.06.72-.34.25-.83.47-1.43.75-.3.13-.63.27-.99.37-.35.1-.73.12-1.12.14-2.79.15-5.6-.03-8.36-.51-2.75-.53-5.45-1.29-8.05-2.3-3.1-1.2-6.32-2.38-9.39-3.65-3.37-1.39-6.71-2.73-10.16-3.51-2.15-.48-4.39-.88-6.59-1.23-3.35-.52-6.72-.95-10.07-1.04-2.61-.06-5.16.19-7.72.46-.56.07-1.11.13-1.68.2-2.1.22-2.8-.07-3.34-.86-.12-.18-.28-.36-.36-.55-.27-.61.55-1.26,2.12-1.69,4.67-.99,9.76-1.15,14.8-.77,3.75.28,7.46.95,11.1,1.65v.08Z"/><path class="cls-1" d="M182.22,324.21c-.47-.21-.93-.4-1.36-.66-.44-.23-.86-.51-1.26-.8-.3-.19-.61-.38-.88-.61-.49-.4-.91-.89-1.32-1.36-.38-.5-.72-1.03-1.01-1.57-.28-.46-.51-.97-.75-1.44-.13-.32-.27-.64-.38-.96-.08-.34-.13-.68-.14-1.03,0-.22.26-.23.57-.13.31.11.69.31.83.61.56,1.07,1.29,1.96,2,2.92.39.62,1.07,1.02,1.67,1.43.33.24.7.43,1.04.65.37.17.73.38,1.12.52l.72.27.74.18c.37.1.76.11,1.14.17.38.02.77,0,1.15-.03.29-.06.57-.16.84-.27.26-.13.51-.3.75-.43.11-.06.2-.15.31-.21.39-.21.59-.09,1.02.51.1.14.2.27.29.41.3.47.31.98-.04,1.32-1.03,1-2.57,1.31-3.98,1.23-.53,0-1.05-.12-1.57-.2-.5-.15-1.01-.26-1.49-.45v-.06Z"/><path class="cls-1" d="M273.8,303.76c-.87-.07-1.76-.09-2.64.01-.33.02-.63.14-.95.19-1.14.13-2.31.37-3.39.83-.25.09-.48.21-.7.35-.23.13-.47.24-.69.37-.28.18-.56.37-.85.54-.27.19-.56.38-.87.54-.19.1-.29-.04-.29-.31,0-.26.09-.69.36-1.03.5-.55,1.03-1.11,1.66-1.53.64-.39,1.32-.73,2.05-.93.86-.26,1.71-.68,2.61-.88.99-.21,2-.31,3-.33h.93s.92.06.92.06c.93.06,1.85.25,2.76.39.71.13,1.44.15,2.16.29.16.02.33.03.48.09.58.17.68.44.51,1.08-.04.14-.07.29-.12.43-.16.45-.56.78-.96.77-1.18-.05-2.25-.36-3.4-.56-.42-.09-.85-.13-1.28-.22-.43-.03-.87-.11-1.3-.11v-.05Z"/><path class="cls-1" d="M261.53,303.98c-.58-.4-1.17-.8-1.76-1.18-.22-.14-.46-.22-.67-.36-.76-.5-1.51-1.02-2.28-1.48-.34-.2-.7-.4-1.05-.56-.46-.22-.93-.4-1.33-.76-.12-.11,0-.34.23-.54.23-.19.59-.39.88-.33.51.12,1.02.25,1.51.42.49.17.94.45,1.38.74.52.36,1.16.52,1.74.79.64.29,1.26.61,1.89.93.39.19.78.39,1.16.58.59.28,1.17.6,1.79.81.48.17,1.02.16,1.53.25.11.02.23.01.34.04.4.12.44.34.21,1.07-.05.17-.1.33-.16.5-.2.55-.55.93-.9.96-1.03.12-1.88-.28-2.72-.73-.62-.33-1.22-.73-1.82-1.09l.02-.05Z"/><path class="cls-1" d="M175.08,435.41l-3.33-3.74c-.41-.46-.87-.86-1.27-1.31-1.41-1.61-2.83-3.19-4.37-4.63-.68-.64-1.42-1.22-2.19-1.73-.98-.66-2.02-1.22-3.03-1.84-.31-.2-.18-.43.23-.56.41-.14,1.11-.19,1.79.09,2.38,1.04,4.56,2.5,6.3,4.34,1.05,1.1,2.28,2.07,3.38,3.13,1.22,1.14,2.42,2.37,3.56,3.57.71.74,1.43,1.47,2.17,2.16,1.12,1.04,2.27,2.07,3.56,2.8.99.59,2.1.86,3.15,1.03.23.05.46.05.69.07.42.07.68.13.86.3.18.2.27.47.35.86.03.18.09.35.11.52.03.29-.05.54-.26.76-.21.22-.55.44-.97.45-1.25.05-2.53-.23-3.7-.72-1.18-.48-2.22-1.18-3.19-1.91-1.44-1.1-2.67-2.35-3.87-3.58l.04-.05Z"/><path class="cls-1" d="M188.13,438.64c-.09.17-.21.39-.35.62-.18.18-.33.36-.5.54-.16.18-.39.28-.58.42l-.07.05s-.03,0-.03.04h-.05s-.18.03-.18.03l-.36.05-.7.09c-.19,0-.32-.02-.48-.02-.31,0-.62-.06-.92-.1-.44-.07-.89-.13-1.3-.29-1.48-.54-2.67-1.43-3.74-2.34-.48-.4-.95-.79-1.42-1.19-.62-.48-1.16-1.05-1.6-1.7-.14-.21.01-.32.31-.34.3-.02.78,0,1.17.21,1.33.83,2.49,1.74,3.71,2.55.72.5,1.61.69,2.43.81.46.06.91.13,1.37.11h.46c.06.02.12.01.16-.03.05-.03.11-.05.15-.1.18-.11.39-.75.46-1.3.14-.89.2-1.88.15-2.85-.03-.76-.27-1.52-.3-2.33,0-.18-.04-.36-.03-.54.04-.7.37-.92.99-.92.14,0,.29,0,.43.01.46.07.81.38.98.77.44,1.19.56,2.55.54,4.05-.03,1.12-.05,2.28-.63,3.73l-.06-.02Z"/><path class="cls-1" d="M187.39,430.59c-.19.9-.32,1.86-.41,2.86-.06.36,0,.73-.07,1.11-.23,1.33-.39,2.71-.87,4.2-.22.64-.5,1.44-1.25,1.97-.98.62-2.05.54-2.72,0-.22-.15-.13-.35.12-.62.16-.17.33-.33.46-.47.17-.19.32-.36.46-.39.21-.12.37-.23.32-.33-.02-.1-.07-.11-.03-.29.1-.3.19-.98.32-1.66.18-.84-.05-1.78-.09-2.72-.06-1.04.09-2.12.2-3.21.09-.67.2-1.34.34-2.01.2-1.02.55-2.02.92-3.02.27-.78.5-1.61.91-2.4.1-.17.17-.35.28-.51.43-.59.86-.51,1.53.04.16.13.32.25.46.39.48.46.7,1.06.65,1.48-.26,1.17-.52,2.04-.86,3.07-.23.76-.46,1.6-.58,2.51h-.09Z"/><path class="cls-1" d="M191.55,411.76c1.87,2.67,2.48,9.72-.75,9.91-3.23.19,7.72,4.21,7.72,4.21l-.95-5.17-6.01-8.95Z"/><path class="cls-1" d="M223.64,434.84c-.8,1.08-1.55,2.35-2.82,3.51-.48.4-.94.83-1.53,1.09-1.03.46-2.18.59-3.2.47-1.03-.11-1.97-.42-2.84-.78-.77-.34-1.5-.7-2.22-1.08-.45-.25-.91-.49-1.34-.77-.46-.24-.76-.72-1.12-1.09-.21-.26-.11-.32.23-.36.24-.03.48-.05.69-.07.14-.01.29-.02.44-.03.08,0,.15,0,.24,0,.06.02.13.04.2.07.91.4,1.82.76,2.71,1.06.9.28,1.73.62,2.58.8.5.1,1.02.08,1.49-.04.47-.14.88-.39,1.3-.64.92-.54,1.65-1.59,2.42-2.74l1.46-2.15c.76-1.09,1.62-2.12,2.44-3.15.63-.81,1.18-1.66,1.82-2.46.14-.18.26-.37.41-.53.58-.61.91-.64,1.52-.24.14.09.28.17.41.28.41.34.5.92.2,1.44-.89,1.54-2.01,2.89-3.11,4.26-.81,1.02-1.59,2.06-2.34,3.2l-.06-.03Z"/><path class="cls-1" d="M218.89,439.72c-.44.04-.87.08-1.3.14-.15.02-.28.11-.44.13-.55.07-1.13.09-1.66.2-.24.05-.46.13-.67.22-.27.12-.54.27-.87.26-.1,0-.19-.22-.22-.48-.03-.25-.02-.58.11-.7.48-.41.98-.78,1.6-.93.37-.08.65-.38,1-.53.38-.17.76-.32,1.15-.47.24-.1.48-.18.72-.26.36-.13.75-.23,1.08-.43.25-.16.43-.47.67-.65.05-.04.09-.11.15-.14.22-.11.36.02.68.59l.22.39c.23.44.32.86.23,1.1-.13.34-.29.65-.5.85-.22.18-.47.3-.73.41-.39.15-.79.28-1.2.37l-.03-.06Z"/><path class="cls-1" d="M214.74,439.88c.4-.16.8-.31,1.18-.48.14-.06.24-.18.38-.24.51-.21,1.02-.4,1.54-.59.23-.09.42-.23.6-.37.24-.18.44-.41.79-.44.11,0,.31.27.46.6.15.33.27.72.16.87-.38.5-.8.95-1.41,1.17-.39.1-.62.42-.93.63-.35.23-.71.44-1.06.65-.22.13-.44.26-.66.39-.33.2-.69.37-.97.63-.22.2-.35.52-.51.78-.04.06-.06.13-.1.18-.17.18-.33.09-.78-.41l-.3-.34c-.33-.39-.51-.79-.46-1.02.14-.68.54-1.07.97-1.42.33-.25.68-.48,1.06-.66l.04.05Z"/><path class="cls-1" d="M260.82,439.16c-.77-.7-1.5-1.44-2.18-2.21-.26-.27-.53-.53-.77-.82-.84-1.02-1.55-2.15-2.21-3.27-.31-.49-.59-1-.87-1.5-.35-.65-.69-1.31-.89-2.02-.07-.22.08-.26.32-.16.24.1.6.3.85.63.45.57.9,1.13,1.35,1.7.39.59.78,1.18,1.19,1.8.47.74,1.13,1.36,1.72,2.01.66.72,1.35,1.41,2.09,2.05.45.4.91.79,1.4,1.15.73.55,1.49,1.07,2.3,1.49.63.31,1.31.5,1.98.7.15.04.3.08.44.12.27.09.44.17.52.33.06.2.06.41.04.65-.01.11,0,.2-.02.28-.02.14-.11.23-.28.38-.17.15-.41.28-.63.22-1.36-.19-2.65-.81-3.84-1.58-.89-.56-1.72-1.22-2.52-1.9l.03-.04Z"/><path class="cls-1" d="M265.2,443.68c-.22-.23-.45-.46-.68-.66-.08-.07-.19-.1-.27-.17-.29-.28-.58-.56-.89-.8-.14-.1-.29-.17-.45-.22-.2-.07-.42-.1-.56-.32-.09-.13.47-1.09.73-1.09.44.06.86.17,1.21.48.21.19.5.19.75.28.27.11.53.24.8.37.16.08.32.17.49.24.25.1.48.29.74.34.21.05.47-.05.67.01.05,0,.1,0,.13.04.13.14.12.32-.02.78l-.09.31c-.11.33-.29.6-.49.75-.3.24-.55.36-.77.39-.2-.01-.39-.08-.57-.16-.28-.1-.5-.34-.74-.53l.02-.05Z"/><path class="cls-1" d="M260.15,437.65c-.76-.71-1.47-1.46-2.13-2.25-.25-.28-.52-.54-.75-.84-.79-1.06-1.5-2.17-2.07-3.34-.27-.51-.54-1.02-.83-1.51-.4-.62-.59-1.35-.69-2.09-.03-.23.16-.27.45-.19.29.09.74.26,1.01.57.11.14.25.27.36.41.12.13.19.3.28.44l.54.89c.35.6.72,1.19,1.04,1.83.38.77,1.02,1.39,1.59,2.04.62.72,1.28,1.41,1.99,2.06.43.4.88.78,1.36,1.14.71.54,1.46,1.06,2.25,1.45.63.29,1.3.45,1.97.61.15.03.29.06.44.09.27.07.42.17.5.35.08.16.08.37.05.65-.01.13-.02.25-.04.37-.07.38-.42.67-.92.72-1.37-.1-2.69-.69-3.89-1.45-.9-.55-1.73-1.21-2.52-1.9l.03-.04Z"/><path class="cls-1" d="M307.66,436.02c.24-1.02.55-2.01.93-2.98.12-.36.21-.72.36-1.07.54-1.21,1.18-2.37,1.86-3.48.27-.51.62-.98.91-1.47.21-.3.38-.63.63-.9.28-.26.59-.49.89-.71.2-.13.24-.06.28.19.03.25.14.75.1,1.19-.02.09-.02.2-.04.29l-.09.25-.19.49c-.12.33-.25.65-.37.98-.3.62-.69,1.2-1.06,1.81-.47.72-.65,1.59-.91,2.41-.29.9-.55,1.81-.77,2.74-.14.57-.26,1.15-.34,1.73-.12.88-.22,1.78-.18,2.67.05.69.26,1.35.45,2.01.04.14.1.28.14.43.04.55-.06.74-.76.98l-.34.14c-.24.1-1.02-.02-1.19-.44-.71-1.24-.8-2.69-.76-4.11.03-1.06.2-2.11.39-3.15h.06Z"/><path class="cls-1" d="M309.25,437.1c-.24-.48-.41-.97-.51-1.47-.05-.18-.12-.35-.13-.53,0-.66.15-1.3.39-1.87.08-.25.21-.5.32-.73.09-.14.17-.29.27-.43.12-.12.25-.23.39-.32.09-.05.18.06.24.23.06.17.13.39.09.53-.15.5-.13.95-.21,1.43-.08.3.15.59.19.88.07.33.18.66.34.96.1.19.2.38.34.54.2.25.43.48.72.6.12.03.24.03.36.03.12-.02.24-.07.34-.08.04,0,.09-.02.13-.02.16,0,.21.16.29.64l.06.33c.06.36-.03.68-.27.83-.18.1-.37.21-.58.24-.2.01-.41.02-.61-.02-.4-.08-.77-.25-1.09-.48-.49-.33-.84-.79-1.11-1.26l.04-.03Z"/><path class="cls-1" d="M326.31,434.02c.18-.88.4-1.75.66-2.59.08-.31.14-.63.24-.93.39-1.07.82-2.12,1.36-3.1.23-.44.45-.89.66-1.33.31-.55.66-1.08,1.1-1.54.14-.15.22-.07.27.15.05.21.13.59.06.95l-.18.93c-.08.3-.17.58-.27.87-.19.58-.39,1.14-.69,1.68-.35.66-.45,1.42-.62,2.15-.19.8-.37,1.6-.49,2.42-.08.5-.14,1.01-.18,1.52-.05.77-.1,1.55-.03,2.31.07.59.28,1.16.47,1.72.04.12.11.24.1.37.01.48-.14.66-.61.86-.11.05-.21.1-.32.13-.35.12-.71-.02-.99-.36-.48-.49-.55-1.09-.7-1.67-.11-.59-.15-1.2-.16-1.81-.02-.91.12-1.82.25-2.71h.05Z"/><path class="cls-1" d="M368.8,431.02c0-.45.01-.9,0-1.35,0-.16-.08-.31-.07-.48.01-.58.14-1.19.14-1.77.01-.26-.06-.5-.09-.75-.02-.32-.12-.63.13-1.01.07-.12.25-.14.53-.11.14.02.31.04.49.08.19.04.34.09.4.18.54.56.58,1.22.51,1.91-.06.42.16.79.19,1.2.03.45.06.9.08,1.35.02.28.03.55.06.83.04.41.05.84.17,1.23.07.31.36.58.46.88.02.07.05.13.06.2.01.13-.04.23-.17.32-.11.08-.3.16-.54.23l-.28.09c-.24.07-.73.06-1-.08-.81-.42-.84-1.02-.98-1.6-.08-.44-.1-.89-.14-1.34h.06Z"/><path class="cls-1" d="M367.79,435.77c.25-.2.48-.41.7-.62.08-.08.11-.18.19-.25.28-.27.57-.54.78-.84.09-.13.15-.28.21-.43.07-.19.1-.39.28-.54.11-.09.83.36.81.6-.05.42-.21.8-.41,1.17-.14.21-.13.49-.2.74-.08.27-.19.53-.29.79-.06.16-.14.31-.23.47-.12.23-.27.46-.32.71-.03.2.03.44.05.66,0,.05.03.1.02.15-.1.14-.29.12-.81-.05l-.35-.11c-.39-.13-.69-.33-.84-.51-.37-.52-.28-.89-.1-1.23.14-.25.29-.49.48-.71l.05.02Z"/><path class="cls-1" d="M372.82,433.39c-.54.02-1.78-.07-2.61-.22l-.36-.65c-.21-.4-.49-.74-.63-1.17-.28-1.08-.35-2.06-.28-3.04.06-.43.1-.86.17-1.27.08-.53.23-1.05.55-1.5.1-.14.25-.06.4.13.15.18.36.48.41.74.12.97.5,1.73.41,2.61,0,.26.08.52.19.76.1.24.29.51.28.55.03.1.06.2.11.31.02.11.12.07.19.11.09.02.13.04.3.04.36-.01.73-.04,1.09-.14.54-.13,1.1-.3,1.55-.65.36-.25.56-.69.78-1.03.06-.06.1-.14.17-.2.28-.18.53-.11,1.05.19l.35.2c.37.23.57.61.56,1.06-.02.32-.1.62-.21.92-.14.25-.33.48-.52.69-.39.44-.9.75-1.44.99-.8.36-1.66.54-2.52.61v-.07Z"/><path class="cls-1" d="M381.12,425.67c-.35.48-.74.95-1.13,1.4-.43.43-.85.85-1.29,1.26-.34.29-.62.62-.97.9-1.26.93-2.67,1.68-4.2,2.12-.35.08-.69.17-1.03.27l-1.07.1c-.9.05-1.91-.09-2.57-.82-.19-.26-.11-.3.2-.52.34-.28.81-.64,1.18-.65l.51-.12c.16-.05.32,0,.48-.05.32-.09.63-.13.95-.19.32-.09.66-.11,1-.22.33-.12.7-.19,1.05-.32.86-.31,1.58-.98,2.28-1.62.4-.34.79-.7,1.15-1.1.38-.37.72-.79,1.08-1.2.46-.49.83-1.05,1.23-1.59.26-.43.55-.86.8-1.3.23-.45.48-.9.65-1.38.13-.37.23-.75.33-1.12.07-.38.12-.76.24-1.13.05-.16.08-.32.12-.49.17-.6.34-.77.77-.85.1-.02.19-.05.29-.05.31-.02.52.28.59.82.1.79.13,1.62-.06,2.41-.19.78-.44,1.56-.77,2.3-.46,1.12-1.09,2.16-1.76,3.17l-.05-.03Z"/><path class="cls-1" d="M370.18,432.96c.36-.36.76-.71,1.14-1.06.14-.13.21-.3.36-.43.48-.46,1.1-.82,1.59-1.28.23-.19.42-.41.61-.63.23-.29.43-.6.78-.81.11-.06.29.08.44.3.15.22.3.54.23.75-.26.74-.44,1.52-1.03,2.04-.32.33-.48.79-.77,1.16-.32.4-.63.8-.98,1.18-.21.24-.43.47-.62.71-.3.37-.64.72-.87,1.13-.19.32-.21.74-.36,1.08-.03.08-.04.17-.09.23-.18.24-.39.21-.96-.11l-.38-.21c-.42-.25-.69-.59-.73-.89-.15-.89.21-1.47.62-2.03.3-.41.66-.79.99-1.18l.05.04Z"/><path class="cls-1" d="M190.39,427.18c-.6.47-1.06.96-1.4,1.8-.13.29-.15.6-.24.91-.34,1.09-.43,2.31-.41,3.58,0,.56.1,1.12.21,1.67.12.71.26,1.43.26,2.19,0,.24-.19.26-.47.14-.27-.12-.69-.38-.92-.76-.19-.34-.38-.69-.55-1.04-.17-.36-.28-.73-.4-1.11-.23-.76-.38-1.56-.29-2.39.07-.98-.05-2.02.15-3.05.1-.57.28-1.12.48-1.66.24-.56.54-1.1.91-1.57.43-.6,1.01-1.06,1.57-1.49.88-.63,1.9-1.05,2.96-1.33.82-.2,1.72-.45,2.7-.28.21.05.43.07.62.17.18.09.33.18.44.27.1.11.14.25.17.36.05.24-.01.49-.17.79-.07.14-.13.28-.21.4-.26.39-.75.62-1.13.75-.26.05-.48.11-.68.19-.09,0-.19.04-.28.05-.09,0-.18.03-.27.05-.36.08-.77.15-1.19.32-.63.23-1.29.61-1.81,1.11l-.06-.05Z"/><path class="cls-1" d="M163.01,429.01c-.49-.16-.99-.36-1.51-.44-.26-.05-.52-.12-.78-.16l-.8-.09c-.39-.06-.78.02-1.17.02-1.38-.01-2.83.18-4.11.8-.3.11-.57.28-.82.47l-.75.56c-.3.27-.59.54-.91.8-.27.29-.59.57-.93.84-.22.17-.36.06-.45-.27-.08-.31-.15-.91.04-1.47.85-1.9,2.8-3,4.69-3.45,1.14-.28,2.3-.63,3.49-.72.65-.06,1.3,0,1.95.02.64.12,1.29.17,1.91.36l1.15.33,1.1.45c.57.2,1.07.56,1.6.83.51.32.99.69,1.48,1.02.35.31.73.58,1.12.86.34.32.65.68.97,1.04.15.15.28.31.37.5.29.75.22,1.06-.18,1.4-.09.08-.17.17-.27.23-.31.21-.76.1-1.2-.17-.58-.41-1.14-.8-1.71-1.19-.27-.19-.51-.4-.75-.62l-.81-.57c-.4-.29-.87-.49-1.3-.76-.48-.18-.93-.44-1.44-.57l.02-.06Z"/><path class="cls-1" d="M235.31,436.15c-.16-.88-.38-1.76-.74-2.6-.11-.32-.33-.57-.47-.88-.5-1.06-1.11-2.1-1.93-2.98-.33-.42-.77-.74-1.19-1.06-.3-.16-.54-.4-.79-.65-.26-.23-.5-.51-.75-.8-.15-.19-.08-.29.19-.4.26-.1.77-.3,1.28-.29.22.02.42.08.63.12l.32.07.26.15c.36.2.66.47.99.71.33.24.6.55.85.87.27.31.48.65.69,1.01.5.83,1.14,1.58,1.6,2.44.26.47.45.97.67,1.45.16.51.37,1,.49,1.51l.24.94.17.96c.17.97.19,1.95.22,2.92,0,.38.02.75.06,1.13.02.38.02.76.01,1.14,0,.17-.02.33-.08.5-.2.6-.45.74-.94.74-.11,0-.23,0-.33,0-.35-.05-.61-.36-.75-.8-.06-.31-.18-.63-.21-.93-.04-.3-.04-.59-.07-.88-.03-.29-.05-.59-.06-.88-.02-.29-.07-.58-.08-.88,0-.44-.08-.87-.1-1.31-.08-.43-.12-.88-.23-1.31l.06-.02Z"/><path class="cls-1" d="M275.55,430.1c-.88-.68-1.84-1.28-2.87-1.74-.38-.15-.78-.26-1.17-.39-.34-.11-.69-.25-1.04-.34l-.53-.15c-.09-.03-.18-.04-.27-.06-.09-.02-.19-.04-.2-.04-.06-.02-.14-.04-.22-.07-.06.03-.12.08-.18.14-.08.05-.35.4-.53.67-.34.52-.5,1.13-.62,1.74-.08.39-.08.8-.08,1.2-.01.41-.01.83.04,1.26.02.27-.11.3-.37.14-.27-.15-.73-.5-.97-1.07-.18-.5-.27-1.03-.3-1.56-.05-.54.02-1.09.18-1.61.15-.52.38-1.03.67-1.5l.26-.37c.11-.17.28-.31.41-.47.13-.16.28-.29.43-.42.15-.13.27-.3.5-.21.43.06.86.12,1.28.18l.88.15c.59.09,1.18.22,1.75.39,1.25.38,2.43.95,3.54,1.62.68.41,1.33.88,1.95,1.36.94.74,1.76,1.63,2.56,2.5.59.7,1.34,1.28,1.8,2.09.1.17.22.34.32.52.17.34.21.6.18.82-.03.21-.12.37-.28.53-.07.07-.13.15-.2.21-.23.18-.63.05-1.09-.27-.56-.54-1.25-.95-1.71-1.52-.52-.53-1.03-1.06-1.57-1.56-.82-.73-1.63-1.48-2.54-2.13l.03-.05Z"/><path class="cls-1" d="M310.58,427.96c-.23.81-.51,1.6-.86,2.35-.11.28-.21.56-.35.83-.5.93-1.09,1.81-1.75,2.61-.29.36-.61.69-.9,1.04-.2.21-.41.42-.61.62-.22.19-.46.36-.7.52-.15.1-.22-.01-.22-.23,0-.21.04-.56.2-.82.29-.49.55-.97.81-1.45.23-.5.61-.89.91-1.35.41-.53.6-1.2.84-1.82.26-.69.49-1.4.66-2.12.11-.44.2-.89.25-1.35.08-.69.15-1.39.05-2.08-.08-.53-.34-1.03-.52-1.51-.04-.11-.1-.21-.14-.32-.06-.2-.08-.34.02-.47.13-.14.3-.24.55-.36.11-.05.22-.11.33-.16.19-.08.37-.09.56-.05.19.04.44.12.52.28.33.47.58,1.01.67,1.57.09.57.09,1.15.06,1.73-.02.86-.17,1.71-.36,2.54h-.05Z"/><path class="cls-1" d="M257.81,296s10.5-.96,11.45-4.76c1.16-4.65,2.45-9.91,7.12-13,2.07-1.37-4.47,6.26-4.27,9.38s2.27,9.17,2.27,9.17l-9.23.63-7.34-1.41Z"/><path class="cls-1" d="M250.12,299.06c-.95-.24-1.87-.53-2.76-.88-.33-.12-.66-.22-.98-.37-1.11-.53-2.16-1.16-3.15-1.85-.45-.3-.89-.59-1.33-.89-.55-.4-1.05-.87-1.45-1.43-.13-.17,0-.26.25-.29.25-.02.66-.02,1,.14.3.15.61.26.9.42.26.18.55.33.82.51.54.33,1.08.66,1.65,1.01.66.43,1.46.63,2.22.87.83.27,1.67.52,2.54.69.53.11,1.07.2,1.61.25.82.08,1.65.12,2.46.05.63-.08,1.23-.3,1.82-.51.13-.05.26-.06.4-.08.25-.05.45.11.6.19.15.1.25.22.35.38.05.07.1.14.13.2.11.2-.04.49-.37.92-.49.6-1.14.73-1.78.89-.64.13-1.31.19-1.98.2-.99-.01-1.98-.17-2.94-.37v-.05Z"/><path class="cls-1" d="M244.88,298.73c0-.15,0-.29,0-.43,0-.05-.04-.08-.04-.14,0-.19.01-.38.02-.57,0-.08-.03-.15-.06-.21-.05-.08-.12-.15-.06-.28.03-.08.78-.37.89-.31.17.13.3.28.28.5-.03.14.08.22.12.33.04.12.07.25.11.38.02.08.04.16.06.24.04.11.06.24.12.34.05.08.18.12.28.17.02.01.05.02.07.03.05.06-.03.13-.36.31l-.23.13c-.26.14-.5.22-.6.21-.32-.02-.45-.15-.55-.3-.06-.11-.05-.26-.08-.4l.03-.02Z"/><path class="cls-1" d="M399.2,97.18l-.25,1.93c-.05.32-.07.64-.15.96l-.25.94c-.18.62-.31,1.25-.53,1.86l-.74,1.78c-1.03,2.32-2.44,4.4-4.07,6.27-1.21,1.35-2.48,2.64-3.92,3.71-5.13,3.74-11.37,5.58-17.5,5.48-2.72-.06-5.47-.35-8.04-1.21-1.65-.52-3.27-1.2-4.76-2.11-1.51-.89-2.77-2.14-3.86-3.46-.67-.84-.36-.9.52-.55.84.4,2.45.9,4.05,1.66,2.81,1.47,5.93,2.13,9.04,2.41,3.13.28,6.32.04,9.46-.66,3.78-.8,7.36-2.9,10.23-5.52,1.58-1.45,2.97-3.11,4.08-4.94.29-.45.54-.93.78-1.41.27-.47.44-.97.63-1.46.18-.5.42-.98.55-1.49l.37-1.54c.5-2.56.44-5.24-.15-7.84-.93-3.92-2.86-7.71-5.63-10.73-2.12-2.38-4.79-4.12-7.52-5.55-.3-.16-.6-.32-.9-.46-.31-.13-.63-.26-.94-.4-.57-.28-1.03-.54-1.4-.77-.39-.2-.69-.4-.93-.61-.47-.41-.65-.9-.72-1.53-.03-.29-.11-.58-.11-.83,0-.82,1.34-1.22,3.41-.67,6.01,1.87,11.63,6.24,15.26,12.05,2.77,4.24,4.32,9.47,4.11,14.72h-.1Z"/><path class="cls-1" d="M441.49,257.78c-.02-.21.1-.37.25-.52.05-.05.19-.04.21.02.06.13.11.26.15.35.05.07.23,1.21.29,1.6.07.37.1.75.13,1.12.05.76.13,1.52.16,2.28,0,.17,0,.34-.03.5-.09.57-.09,1.15-.04,1.73,0,.1,0,.19.06.29.1.16.15,1.72.1,1.93-.11.5-.17,1-.27,1.5-.01.07.01.15-.06.21-.18.15-.16.3-.17.46-.03.22-.06.43-.13.64-.03.11-.14.21-.22.31-.08.09-.34.03-.37,0-.08-.1-.21-.02-.32-.02-.04,0-.09,0-.12,0-.06-.01-.54-1.27-.53-1.4,0-.03-.06-1.81-.06-2.06-.01-.11.04-.22.06-.32,0-.07-.03-1.51-.03-1.56.04-.3,0-.6.15-.9.03-.06.03-.12.03-.18,0-.52.09-1.03.15-1.55.04-.26.04-.53.07-.79,0-.05.03-.09.04-.14.01-.06.04-.12.04-.18.04-.62.15-1.25.15-1.87,0-.14.17-.83.16-.99,0-.09.18-.39.17-.47Z"/><path class="cls-1" d="M436.27,264.6c-.2.04-.36-.12-.49-.35-.04-.07-.02-.29.04-.32.11-.06.22-.13.33-.18.07-.02,1.13-.26,1.48-.34.35-.08.69-.13,1.04-.16.71-.08,1.41-.12,2.13-.17.16,0,.32,0,.48.03.55.09,1.09.07,1.64.01.09,0,.18,0,.27-.07.14-.11,1.63-.18,1.83-.13.48.11.97.18,1.45.28.07.01.14-.01.2.07.14.19.29.16.44.17.21.02.41.08.62.16.1.04.2.15.29.24.09.08.02.34-.01.36-.1.08-.03.21-.03.31,0,.04,0,.08,0,.11-.02.05-1.18.54-1.3.52-.01,0-.44.02-.89.05-.45.03-.92.07-1.01.08-.1.02-.2-.03-.3-.05-.05-.01-1.4.13-1.46.12-.28-.02-.57.04-.85-.1-.06-.03-.11-.02-.17-.02-.49.03-.98-.03-1.47-.06-.25-.02-.5,0-.75,0-.05,0-.09-.02-.14-.03-.06-.01-.11-.03-.17-.03-.6-.01-1.19-.12-1.79-.1-.14,0-.79-.18-.95-.2-.09,0-.37-.22-.45-.21Z"/><path class="cls-1" d="M437.88,261.08c-.18-.09-.2-.3-.15-.56.01-.08.16-.23.22-.21.12.03.24.05.36.09.07.03.98.59,1.31.76.32.17.61.37.89.57l1.64,1.34c.12.1.23.21.33.34.33.43.73.79,1.16,1.11.07.05.13.12.25.13.19,0,1.28.98,1.38,1.15.26.41.54.79.82,1.18.04.06.11.08.1.19-.03.24.1.31.2.42.13.15.24.33.33.52.05.1.04.24.06.37.01.12-.2.27-.25.27-.12,0-.16.14-.23.23-.02.03-.05.07-.08.09-.05.04-1.29-.33-1.36-.44-.01,0-.34-.28-.7-.56-.35-.28-.72-.58-.8-.63-.08-.06-.13-.16-.18-.25-.03-.03-1.09-.88-1.12-.93-.18-.22-.42-.37-.5-.69-.02-.06-.06-.1-.1-.13-.35-.33-.64-.72-.95-1.09-.16-.19-.34-.35-.51-.53-.03-.03-.05-.08-.07-.12-.03-.05-.06-.1-.1-.14-.42-.4-.76-.89-1.18-1.29-.09-.1-.43-.67-.55-.77-.06-.06-.14-.39-.21-.42Z"/><path class="cls-1" d="M438.39,267.86c-.08.19-.29.21-.58.17-.09-.01-.27-.17-.26-.24.02-.13.04-.26.07-.38.02-.07.6-1.04.8-1.37.18-.33.43-.6.67-.87l1.51-1.6c.11-.12.24-.22.37-.31.47-.31.87-.69,1.23-1.1.06-.07.13-.13.15-.23.04-.18,1.05-1.24,1.22-1.34.41-.24.8-.52,1.19-.79.06-.04.09-.11.18-.1.23.03.31-.1.41-.2.15-.14.31-.26.49-.37.09-.05.24-.06.37-.08.12-.02.3.2.31.24,0,.13.16.16.26.22.03.02.07.05.1.08.02.03-.06.35-.17.69-.11.33-.27.66-.31.71-.01.01-.3.36-.61.73-.31.35-.63.71-.71.8-.07.08-.18.12-.27.17-.05.05-1.02,1.04-1.06,1.08-.23.17-.41.4-.73.48-.06.02-.1.06-.14.1-.36.34-.78.61-1.17.9-.2.15-.38.33-.57.49-.03.03-.08.04-.12.07-.05.03-.11.05-.15.09-.43.4-.91.75-1.3,1.18-.1.09-.67.43-.76.56-.06.06-.39.15-.42.22Z"/><path class="cls-1" d="M375.95,192.05c-.02-.17.08-.31.21-.44.04-.04.16-.03.18.02.05.11.09.22.12.29.04.06.19,1.01.24,1.34.06.31.09.63.11.94.04.64.11,1.27.14,1.91,0,.14,0,.28-.03.42-.08.48-.07.96-.04,1.45,0,.08,0,.16.05.24.08.13.12,1.44.09,1.61-.09.42-.15.84-.22,1.26-.01.06.01.12-.05.18-.15.12-.13.25-.14.38-.02.18-.05.36-.11.54-.03.09-.12.17-.19.26-.06.08-.29.03-.31,0-.07-.08-.18-.02-.27-.02-.03,0-.07,0-.1,0-.05-.01-.45-1.06-.44-1.18,0-.03-.05-1.51-.05-1.72,0-.09.03-.18.05-.27,0-.06-.03-1.26-.03-1.31.03-.25,0-.5.12-.75.02-.05.02-.1.02-.15,0-.43.07-.86.12-1.3.03-.22.04-.44.06-.66,0-.04.02-.08.03-.12.01-.05.03-.1.03-.15.03-.52.12-1.04.13-1.57,0-.12.14-.69.13-.83,0-.08.15-.33.14-.4Z"/><path class="cls-1" d="M371.71,197.77c-.16.03-.29-.1-.39-.29-.03-.06-.02-.24.03-.26.09-.05.18-.11.27-.15.14-.03.9-.21,1.2-.28.28-.07.56-.11.84-.13.57-.07,1.15-.1,1.72-.14.13,0,.26,0,.39.02.44.07.88.06,1.33,0,.07,0,.15,0,.22-.06.11-.09,1.33-.15,1.48-.11.39.09.79.15,1.18.23.06.01.12-.01.17.06.12.15.24.13.36.14.17.02.34.07.5.13.08.03.16.12.24.2.07.07.02.28-.01.3-.08.07-.02.17-.02.26,0,.03,0,.07,0,.1-.01.05-.96.45-1.06.43-.01,0-.35.02-.72.04-.36.03-.74.06-.82.07-.08.01-.16-.02-.25-.04-.04-.01-1.14.11-1.18.1-.23-.02-.46.04-.69-.09-.05-.02-.09-.02-.14-.01-.4.02-.79-.02-1.19-.05-.2-.01-.41,0-.61,0-.04,0-.07-.02-.11-.03-.05,0-.09-.03-.14-.02-.48-.01-.97-.1-1.45-.09-.11,0-.64-.15-.77-.17-.07,0-.3-.19-.37-.17Z"/><path class="cls-1" d="M373.01,194.82c-.14-.08-.16-.25-.11-.46.01-.07.14-.19.19-.18.1.02.2.05.29.08.05.02.8.5,1.07.64.26.14.5.31.73.48l1.34,1.12c.1.08.19.18.26.28.26.36.59.66.94.93.06.05.11.1.2.11.16,0,1.04.82,1.12.96.2.34.44.66.66.99.03.05.09.07.08.16-.03.2.08.26.15.35.11.13.19.28.27.44.04.08.03.2.04.31,0,.1-.17.23-.21.23-.1,0-.13.12-.19.19-.02.02-.05.05-.07.07-.04.03-1.07-.28-1.12-.38,0,0-.28-.23-.57-.47-.29-.24-.59-.48-.65-.53-.07-.05-.1-.13-.14-.21-.03-.03-.89-.74-.91-.78-.14-.18-.34-.31-.41-.57-.01-.05-.05-.08-.08-.11-.28-.28-.52-.6-.77-.91-.13-.16-.28-.29-.41-.44-.02-.03-.04-.07-.06-.1-.02-.04-.05-.09-.08-.12-.34-.33-.61-.74-.95-1.08-.08-.08-.34-.56-.44-.64-.05-.05-.11-.32-.17-.35Z"/><path class="cls-1" d="M373.44,200.5c-.06.16-.24.18-.48.14-.08-.01-.22-.14-.22-.19.01-.11.03-.22.05-.32.01-.06.48-.87.64-1.14.14-.28.34-.5.54-.73l1.22-1.34c.09-.1.19-.18.3-.26.38-.26.71-.58,1-.92.05-.06.11-.11.12-.2.03-.15.85-1.04.98-1.12.34-.21.65-.44.97-.67.05-.03.07-.09.15-.08.19.02.25-.09.34-.17.12-.11.25-.22.4-.31.07-.04.2-.05.3-.07.1-.02.26.16.26.2,0,.11.13.13.22.18.03.02.06.04.08.06.05.04-.28,1.1-.37,1.17,0,0-.24.3-.5.61-.25.29-.51.59-.57.67-.05.07-.14.1-.22.15-.04.04-.83.87-.86.9-.19.15-.34.34-.6.4-.05.01-.08.05-.12.08-.29.28-.63.51-.95.76-.17.13-.31.27-.46.41-.03.02-.07.04-.1.06-.04.02-.09.04-.12.08-.35.33-.74.63-1.06.99-.08.08-.55.37-.62.47-.05.05-.32.12-.35.19Z"/><path class="cls-1" d="M234.5,110.58c-.02-.2.1-.37.25-.51.05-.05.19-.03.21.02.06.13.11.25.15.35.05.07.23,1.19.29,1.57.07.37.1.73.13,1.1.04.75.13,1.49.16,2.24,0,.17,0,.33-.03.49-.09.56-.09,1.13-.04,1.7,0,.09,0,.19.06.28.1.15.14,1.69.1,1.89-.11.49-.18.98-.27,1.48-.01.07.01.15-.06.21-.18.14-.16.3-.17.45-.03.21-.06.42-.13.63-.03.1-.14.2-.22.3-.08.09-.34.03-.37,0-.08-.1-.21-.02-.32-.02-.04,0-.09,0-.12,0-.06-.01-.54-1.25-.53-1.38,0-.03-.05-1.78-.06-2.02-.01-.11.04-.21.07-.32,0-.07-.03-1.48-.03-1.53.04-.29,0-.59.15-.88.03-.06.03-.12.03-.18,0-.51.09-1.01.15-1.52.04-.26.04-.52.07-.78,0-.05.03-.09.04-.14.01-.06.04-.12.04-.18.04-.61.15-1.22.15-1.84,0-.14.17-.81.16-.97,0-.09.18-.38.17-.47Z"/><path class="cls-1" d="M228.99,117.28c-.21.04-.37-.12-.51-.35-.04-.07-.02-.29.04-.32.12-.06.23-.13.35-.18.07-.02,1.19-.27,1.56-.34.36-.08.73-.13,1.1-.16.74-.08,1.49-.12,2.24-.17.17,0,.33,0,.5.03.57.09,1.15.07,1.72.01.1,0,.19,0,.29-.07.15-.11,1.72-.18,1.92-.13.51.11,1.02.18,1.52.28.07.01.15-.01.22.07.15.19.31.16.46.17.22.02.44.08.65.16.11.04.21.15.31.24.09.08.02.34-.01.36-.1.08-.03.21-.03.31,0,.04,0,.08,0,.11-.02.05-1.24.55-1.37.52-.02,0-.46.02-.94.05-.47.03-.97.07-1.07.08-.11.02-.21-.03-.32-.05-.05-.01-1.48.13-1.54.12-.3-.02-.6.04-.9-.1-.06-.03-.12-.02-.18-.02-.51.03-1.03-.03-1.54-.06-.26-.02-.53,0-.79,0-.05,0-.1-.02-.14-.03-.06-.01-.12-.03-.18-.03-.63-.02-1.25-.12-1.88-.1-.15,0-.83-.18-1-.2-.09,0-.39-.22-.47-.2Z"/><path class="cls-1" d="M230.7,113.84c-.18-.09-.21-.3-.18-.56.01-.08.15-.23.22-.22.12.02.25.05.37.08.07.03,1.02.57,1.36.73.33.16.63.35.92.55l1.72,1.31c.13.1.24.21.34.33.35.43.77.78,1.22,1.09.08.05.14.12.25.12.2,0,1.33.95,1.44,1.12.28.41.59.78.88,1.17.04.06.11.08.11.19-.02.24.11.31.22.42.14.15.26.33.36.52.05.1.05.24.07.37.02.12-.19.28-.24.28-.12,0-.15.15-.22.23-.02.03-.05.07-.08.09-.05.04-1.32-.3-1.39-.41-.01,0-.36-.27-.73-.55-.37-.28-.75-.56-.84-.61-.09-.05-.14-.16-.19-.25-.04-.03-1.14-.86-1.17-.91-.19-.21-.44-.37-.54-.68-.02-.06-.07-.1-.11-.13-.37-.32-.68-.71-1.01-1.07-.17-.19-.36-.35-.54-.52-.03-.03-.05-.08-.08-.12-.03-.05-.06-.1-.1-.14-.44-.39-.81-.88-1.25-1.27-.1-.09-.46-.66-.59-.76-.07-.06-.16-.39-.23-.42Z"/><path class="cls-1" d="M231.2,120.49c-.09.19-.3.21-.59.15-.09-.02-.26-.18-.25-.25.02-.13.05-.26.09-.38.02-.07.65-1.03.87-1.36.2-.33.46-.59.72-.86l1.59-1.57c.12-.11.25-.22.39-.3.49-.3.9-.67,1.29-1.07.06-.07.14-.12.17-.23.05-.18,1.12-1.22,1.29-1.32.43-.24.83-.51,1.23-.77.06-.04.09-.11.19-.09.23.03.31-.1.42-.19.16-.13.32-.26.51-.36.09-.05.24-.05.37-.07.12-.01.3.21.3.25,0,.13.15.16.25.23.03.02.07.06.09.08.02.03-.08.35-.2.7-.13.33-.3.66-.34.71-.01.01-.32.35-.65.72-.33.34-.67.7-.75.79-.07.08-.18.12-.28.17-.05.05-1.07,1.02-1.11,1.06-.24.17-.44.4-.76.46-.06.01-.11.06-.15.09-.38.33-.81.59-1.22.88-.21.14-.39.32-.59.48-.04.03-.08.04-.13.06-.05.03-.11.05-.15.09-.45.39-.95.73-1.37,1.15-.1.09-.69.42-.79.54-.06.06-.4.14-.44.21Z"/><path class="cls-1" d="M128.13,183.62c-.11-.17-.07-.36,0-.56.02-.06.15-.12.2-.08.11.09.21.17.29.23.07.04.73.93.95,1.23.22.29.42.59.6.9.37.63.77,1.24,1.13,1.87.08.14.14.29.19.44.17.53.42,1.02.71,1.5.05.08.08.17.18.22.16.09.88,1.4.93,1.6.12.48.28.93.42,1.4.02.07.08.12.03.21-.1.21,0,.33.04.47.07.2.13.4.17.61.02.11-.03.24-.06.37-.03.11-.29.18-.33.17-.12-.05-.2.07-.3.13-.03.02-.08.04-.1.05-.06.02-1.03-.84-1.08-.96-.01-.03-.84-1.52-.95-1.72-.06-.09-.06-.2-.08-.3-.03-.06-.68-1.27-.71-1.32-.1-.27-.27-.51-.26-.83,0-.06-.03-.11-.05-.16-.22-.44-.37-.92-.54-1.39-.08-.24-.19-.47-.28-.7-.02-.04-.02-.09-.03-.14-.01-.06-.02-.12-.04-.17-.24-.55-.41-1.13-.68-1.66-.06-.12-.21-.78-.29-.92-.05-.08,0-.42-.06-.48Z"/><path class="cls-1" d="M126.19,191.97c-.17.13-.39.07-.62-.08-.07-.05-.15-.24-.11-.3.08-.11.15-.22.23-.32.05-.05.94-.78,1.24-1.02.29-.24.6-.45.91-.64.63-.41,1.28-.79,1.93-1.17.14-.08.3-.15.46-.21.55-.18,1.06-.46,1.54-.77.08-.05.17-.09.22-.19.08-.17,1.45-.94,1.66-1,.5-.13.99-.31,1.49-.45.07-.02.13-.08.22-.04.22.1.35,0,.49-.06.2-.08.42-.13.65-.16.11-.01.25.04.38.07.12.03.17.29.16.33-.05.12.07.2.12.29.02.03.04.07.05.1,0,.06-.86,1.05-.99,1.09-.01,0-.4.23-.82.47-.41.24-.83.5-.92.56-.09.06-.2.07-.31.1-.05.01-1.26.79-1.32.81-.27.12-.51.31-.85.32-.07,0-.12.04-.17.07-.45.26-.93.44-1.41.65-.24.1-.47.24-.71.36-.04.02-.1.02-.14.04-.06.02-.12.03-.17.06-.57.27-1.17.47-1.73.77-.13.07-.82.22-.98.28-.09.04-.45-.02-.52.03Z"/><path class="cls-1" d="M126.19,188.19c-.2,0-.32-.16-.41-.41-.03-.08.03-.28.09-.3.12-.04.24-.07.36-.1.07,0,1.16.03,1.53.01.36-.01.72.02,1.07.06l2.11.35c.16.03.31.07.46.13.51.21,1.04.32,1.58.39.09.01.18.04.28,0,.17-.09,1.61.22,1.78.31.43.23.87.41,1.31.62.06.03.14.02.18.11.09.22.24.22.38.27.19.07.38.17.56.29.09.06.16.19.24.3.07.1-.04.34-.08.36-.11.06-.07.2-.08.31,0,.04-.01.08-.03.11-.02.05-1.3.36-1.41.29-.01,0-.44-.07-.89-.14-.45-.07-.92-.14-1.02-.15-.1,0-.19-.07-.28-.13-.05-.01-1.4-.22-1.45-.26-.27-.1-.55-.12-.79-.35-.05-.04-.1-.05-.16-.07-.47-.11-.92-.3-1.38-.47-.23-.09-.48-.14-.72-.21-.04-.01-.08-.05-.12-.07-.05-.03-.1-.06-.16-.07-.57-.14-1.11-.39-1.68-.54-.13-.04-.71-.37-.87-.4-.08-.02-.32-.27-.4-.26Z"/><path class="cls-1" d="M129.58,193.75c0,.2-.18.32-.46.39-.09.02-.31-.04-.33-.11-.04-.13-.07-.25-.09-.38-.01-.08.13-1.2.17-1.59.03-.38.15-.73.26-1.08l.72-2.1c.06-.15.13-.3.22-.44.3-.48.51-.99.68-1.52.03-.09.07-.17.04-.28-.04-.18.46-1.57.56-1.73.28-.4.51-.81.76-1.22.04-.06.03-.13.13-.17.22-.07.24-.22.29-.36.08-.19.17-.37.29-.54.06-.09.19-.15.31-.22.1-.07.36.05.38.09.06.11.21.08.32.1.04,0,.09.02.12.03.03.01.09.35.13.71.03.35.03.71,0,.78,0,.01-.13.46-.26.92-.14.45-.28.92-.32,1.03-.03.1-.11.18-.18.27-.02.06-.5,1.38-.52,1.43-.14.26-.21.54-.47.74-.05.04-.07.1-.09.15-.19.46-.46.88-.7,1.31-.12.22-.21.46-.32.68-.02.04-.06.07-.08.11-.03.05-.07.09-.1.15-.23.54-.52,1.07-.71,1.62-.05.12-.43.68-.47.83-.03.08-.3.3-.29.38Z"/><path class="cls-1" d="M366,86.77c-.02-.15.08-.26.21-.37.04-.03.16-.02.18.02.05.09.09.18.12.25.04.05.19.86.24,1.13.06.27.09.53.11.79.04.54.11,1.08.14,1.61,0,.12,0,.24-.02.36-.07.41-.07.81-.03,1.22,0,.07,0,.14.05.21.08.11.13,1.22.09,1.36-.09.35-.14.71-.22,1.06-.01.05.01.11-.05.15-.15.1-.13.21-.14.32-.02.15-.05.3-.11.46-.03.07-.11.15-.19.22-.06.07-.29.02-.31,0-.07-.07-.18-.02-.27-.01-.03,0-.07,0-.1,0-.05,0-.45-.9-.44-1,0-.02-.05-1.27-.06-1.46,0-.08.03-.15.05-.23,0-.05-.03-1.07-.03-1.11.03-.21,0-.43.12-.63.02-.04.02-.08.02-.13,0-.37.07-.73.12-1.09.03-.19.03-.37.05-.56,0-.03.02-.07.03-.1.01-.04.03-.08.03-.13.03-.44.12-.88.12-1.32,0-.1.14-.58.13-.7,0-.07.15-.28.14-.34Z"/><path class="cls-1" d="M362.31,91.65c-.14.04-.25-.1-.34-.29-.03-.06-.01-.24.03-.26.08-.05.16-.11.24-.15.05-.02.8-.23,1.06-.29.25-.07.49-.11.74-.13.5-.07,1.01-.1,1.51-.13.11,0,.23,0,.34.02.39.08.78.06,1.17.01.06,0,.13,0,.19-.06.1-.09,1.17-.15,1.3-.11.35.09.69.15,1.04.23.05.01.1-.01.15.06.1.15.21.13.32.14.15.02.3.07.44.13.07.03.14.12.21.2.06.07.01.28-.01.3-.07.07-.02.17-.02.26,0,.03,0,.07,0,.1-.01.05-.84.46-.93.44,0,0-.31.02-.63.04-.32.03-.65.06-.72.07-.07.01-.14-.02-.22-.04-.03-.01-1,.1-1.04.1-.2-.02-.4.04-.61-.09-.04-.02-.08-.02-.12-.01-.35.02-.7-.03-1.05-.06-.18-.01-.36,0-.54,0-.03,0-.06-.02-.1-.03-.04,0-.08-.03-.12-.03-.42-.01-.85-.1-1.28-.09-.1,0-.57-.15-.68-.16-.06,0-.26-.19-.32-.17Z"/><path class="cls-1" d="M363.43,89.15c-.13-.06-.13-.22-.08-.42.02-.06.14-.19.19-.18.09.01.18.03.27.05.05.02.72.4.96.51.23.11.45.24.65.39l1.18.93c.09.07.16.15.23.24.23.32.51.57.83.79.05.04.1.09.18.09.15-.01.92.68.99.8.17.3.37.58.56.87.03.04.08.06.06.14-.04.19.06.24.13.31.09.11.16.24.23.38.03.07.02.19.02.28,0,.09-.17.23-.21.23-.09,0-.13.12-.19.19-.02.02-.05.06-.06.07-.04.03-.97-.17-1.02-.25,0,0-.25-.19-.5-.39-.25-.2-.52-.4-.58-.44-.06-.04-.09-.11-.12-.18-.02-.02-.79-.61-.8-.65-.12-.16-.3-.26-.35-.5,0-.05-.04-.07-.07-.1-.25-.23-.45-.52-.67-.78-.11-.14-.24-.25-.36-.38-.02-.02-.03-.06-.05-.09-.02-.04-.04-.08-.07-.1-.3-.28-.53-.64-.83-.93-.07-.07-.29-.49-.38-.56-.04-.04-.08-.29-.14-.31Z"/><path class="cls-1" d="M363.86,93.95c-.05.14-.22.14-.44.09-.07-.02-.22-.15-.22-.2,0-.1.01-.2.03-.29.01-.05.41-.76.55-1,.12-.25.3-.44.47-.63l1.07-1.15c.08-.08.17-.16.27-.22.34-.21.62-.48.88-.77.04-.05.1-.09.1-.17.02-.14.73-.89.85-.96.3-.16.58-.35.87-.53.04-.03.06-.08.14-.06.18.03.23-.06.31-.13.11-.1.22-.18.36-.25.07-.03.18-.03.28-.03.09,0,.25.17.25.2.01.1.13.13.21.19.03.02.06.05.08.06.05.04-.21.99-.29,1.04,0,0-.21.26-.43.52-.21.25-.44.51-.5.58-.05.06-.13.08-.2.12-.04.04-.72.75-.75.77-.17.12-.29.29-.53.33-.05,0-.07.04-.1.07-.26.24-.56.42-.84.63-.15.1-.27.23-.41.34-.02.02-.06.03-.09.04-.04.02-.08.03-.11.06-.31.28-.65.52-.93.83-.07.06-.49.29-.56.38-.04.04-.3.09-.31.14Z"/><path class="cls-1" d="M450.71,130.88c-.02-.1.07-.18.17-.26.03-.02.13-.02.14.01.04.07.07.13.1.17.03.04.16.6.2.79.05.18.07.37.09.55.03.37.09.75.12,1.12,0,.08,0,.17-.02.25-.06.28-.05.57-.02.85,0,.05,0,.1.04.14.07.08.1.85.07.95-.07.25-.11.49-.17.74,0,.04,0,.07-.04.1-.12.07-.1.15-.11.22-.02.11-.04.21-.08.32-.02.05-.09.1-.15.15-.05.05-.23.01-.25,0-.06-.05-.14-.01-.21-.01-.03,0-.06,0-.08,0-.04,0-.37-.63-.36-.69,0-.01-.04-.86-.05-1.01,0-.05.02-.11.04-.16,0-.04-.03-.74-.03-.77.02-.15,0-.3.1-.44.02-.03.02-.06.02-.09,0-.25.05-.51.09-.76.02-.13.03-.26.04-.39,0-.02.02-.05.02-.07,0-.03.02-.06.03-.09.02-.31.09-.61.1-.92,0-.07.11-.41.1-.49,0-.05.12-.19.11-.23Z"/><path class="cls-1" d="M448.29,134.3c-.09.03-.17-.08-.23-.23-.02-.05,0-.19.02-.21.06-.05.12-.09.16-.12.03-.02.53-.18.7-.23.16-.05.32-.08.49-.1.33-.05.66-.08,1-.1.07,0,.15,0,.22.02.26.06.51.05.77.01.04,0,.09,0,.13-.05.06-.07.77-.11.87-.08.23.07.46.12.69.18.03,0,.07,0,.1.04.07.12.14.1.21.11.1.01.2.05.29.1.05.03.09.1.14.16.04.05,0,.22-.01.24-.05.05-.02.14-.02.21,0,.02,0,.06,0,.08-.01.04-.56.37-.61.35,0,0-.2.02-.42.03-.21.02-.43.04-.47.06-.05.01-.09-.02-.14-.04-.02,0-.66.08-.69.08-.13-.01-.27.03-.4-.07-.03-.02-.05-.01-.08-.01-.23.02-.46-.02-.69-.05-.12-.01-.24,0-.36,0-.02,0-.04-.01-.06-.02-.03,0-.05-.02-.08-.02-.28-.01-.56-.08-.85-.07-.07,0-.38-.12-.45-.13-.04,0-.17-.15-.21-.13Z"/><path class="cls-1" d="M449,132.55c-.09-.04-.08-.16-.03-.31.02-.05.12-.14.15-.14.07,0,.13.01.19.02.03.01.5.26.67.33.16.07.31.16.45.26.26.21.53.43.8.64.06.05.11.1.15.17.14.22.33.4.55.55.04.03.06.06.13.06.11-.01.63.46.67.55.1.22.23.41.34.62.02.03.05.04.04.1-.04.14.02.17.07.23.06.08.1.17.14.28.02.05,0,.14,0,.21,0,.07-.14.17-.17.18-.07,0-.1.09-.15.15-.02.02-.04.04-.05.06-.03.02-.7-.08-.73-.14,0,0-.16-.13-.34-.27-.17-.13-.35-.27-.39-.3-.04-.03-.06-.08-.08-.13-.02-.02-.53-.42-.54-.45-.08-.11-.2-.18-.22-.35,0-.03-.03-.05-.04-.07-.17-.16-.29-.36-.43-.55-.07-.1-.16-.18-.24-.26-.01-.02-.02-.04-.03-.06-.01-.03-.02-.05-.04-.07-.2-.2-.34-.45-.54-.65-.04-.05-.18-.35-.23-.4-.03-.03-.04-.21-.08-.23Z"/><path class="cls-1" d="M449.36,135.88c-.03.1-.15.09-.32.05-.06-.02-.18-.12-.18-.15,0-.07,0-.14,0-.21,0-.04.25-.54.33-.71.07-.18.19-.31.3-.45l.7-.81c.05-.06.11-.11.18-.15.23-.14.42-.33.58-.54.03-.03.06-.06.06-.12,0-.1.47-.63.55-.67.21-.1.4-.23.6-.35.03-.02.04-.05.1-.04.14.03.17-.03.22-.08.07-.06.15-.12.25-.17.05-.02.13-.01.21-.01.07,0,.2.13.21.16.02.07.11.1.17.14.02.02.05.04.06.05.04.03-.08.71-.14.75,0,0-.14.18-.28.37-.14.17-.28.35-.33.41-.03.04-.09.06-.14.08-.03.03-.48.52-.49.54-.12.08-.19.2-.37.22-.03,0-.05.03-.07.05-.17.17-.38.29-.57.43-.1.07-.18.16-.27.24-.02.01-.04.02-.06.03-.03.01-.05.02-.07.04-.21.19-.44.36-.62.57-.05.04-.34.19-.38.25-.03.03-.21.05-.22.09Z"/><path class="cls-1" d="M265.74,130.08c-.02-.14.09-.24.23-.34.05-.03.18-.02.2.02.05.09.1.17.14.23.05.05.22.8.27,1.05.07.25.1.49.12.74.05.5.12,1,.16,1.5,0,.11,0,.22-.03.33-.08.38-.08.76-.03,1.14,0,.06,0,.13.06.19.09.1.14,1.14.1,1.27-.1.33-.16.66-.24.99-.01.05.01.1-.06.14-.17.09-.14.2-.16.3-.02.14-.06.28-.12.42-.03.07-.13.14-.21.2-.07.06-.32.02-.35,0-.08-.07-.2-.02-.3-.02-.04,0-.08,0-.11,0-.06,0-.51-.84-.5-.93,0,0-.01-.31-.03-.63-.01-.32-.03-.65-.04-.72-.01-.07.03-.14.06-.21.01-.03-.04-.99-.04-1.03.03-.2,0-.4.14-.59.03-.04.02-.08.02-.12,0-.34.08-.68.13-1.02.03-.17.04-.35.06-.52,0-.03.02-.06.03-.09.01-.04.03-.08.04-.12.04-.41.13-.82.14-1.23,0-.09.15-.54.15-.65,0-.06.17-.26.15-.31Z"/><path class="cls-1" d="M261.99,134.67c-.15.04-.26-.11-.35-.32-.03-.07-.01-.27.03-.3.08-.06.16-.12.24-.17.05-.02.82-.26,1.08-.33.25-.08.51-.12.76-.15.51-.08,1.03-.11,1.55-.15.11,0,.23,0,.35.03.4.09.8.07,1.19.02.07,0,.13,0,.2-.06.1-.1,1.19-.16,1.34-.12.35.1.71.17,1.06.26.05.01.1-.01.15.06.1.17.21.14.32.16.15.02.3.07.45.14.07.04.14.14.21.22.06.07.01.31-.01.34-.07.07-.02.19-.02.29,0,.03,0,.08,0,.11-.01.05-.86.52-.95.5-.01,0-.32.02-.65.05-.33.03-.67.06-.74.08-.07.02-.15-.02-.22-.05-.03-.01-1.02.11-1.06.11-.21-.02-.41.04-.62-.1-.04-.03-.08-.02-.12-.02-.36.02-.71-.03-1.07-.07-.18-.02-.37,0-.55,0-.03,0-.07-.02-.1-.03-.04-.01-.08-.03-.13-.03-.44-.02-.87-.11-1.31-.1-.1,0-.58-.16-.7-.18-.07,0-.27-.21-.33-.19Z"/><path class="cls-1" d="M263.12,132.34c-.13-.05-.14-.22-.08-.44.02-.07.15-.21.2-.21.09,0,.19,0,.28.02.05.01.74.33.99.42.24.09.46.21.67.33l1.21.85c.09.06.17.14.23.23.23.31.52.54.85.73.05.03.1.08.19.07.16-.03.95.6,1.02.73.17.3.38.57.56.85.03.04.08.05.06.14-.04.2.06.24.12.32.1.1.17.24.23.38.03.07.02.19.02.3,0,.1-.18.26-.22.27-.1.02-.14.14-.2.22-.02.03-.05.06-.07.08-.04.04-1.01-.06-1.06-.15,0,0-.25-.17-.52-.35-.26-.18-.53-.36-.59-.39-.06-.03-.09-.11-.13-.18-.03-.02-.81-.55-.82-.59-.13-.15-.31-.24-.35-.49,0-.05-.04-.07-.07-.09-.26-.22-.46-.49-.68-.75-.11-.13-.25-.24-.37-.36-.02-.02-.03-.06-.05-.09-.02-.04-.04-.08-.07-.1-.31-.26-.54-.61-.85-.88-.07-.06-.29-.48-.38-.55-.05-.04-.08-.3-.14-.32Z"/><path class="cls-1" d="M263.59,136.8c-.05.14-.22.12-.46.04-.08-.03-.23-.18-.23-.23,0-.1.01-.2.03-.3.01-.06.42-.74.56-.99.12-.24.3-.42.48-.61l1.09-1.09c.08-.08.17-.14.28-.2.35-.18.64-.43.9-.71.04-.05.1-.08.1-.17.02-.14.74-.85.86-.91.31-.13.6-.3.89-.45.04-.02.06-.07.14-.05.19.06.24-.03.32-.09.11-.09.23-.16.37-.22.07-.03.19,0,.3,0,.1,0,.27.21.27.24.02.1.14.15.23.22.03.02.07.05.09.08.06.05-.2,1.01-.29,1.06,0,0-.22.25-.45.5-.22.24-.45.48-.51.55-.05.06-.13.07-.21.1-.04.04-.74.7-.76.73-.17.11-.3.27-.55.28-.05,0-.08.03-.11.06-.26.22-.57.38-.86.56-.15.09-.27.21-.41.31-.02.02-.06.02-.09.04-.04.02-.08.03-.11.05-.32.26-.67.47-.95.75-.07.06-.51.24-.57.33-.04.04-.31.05-.33.11Z"/><path class="cls-1" d="M67.84,326.52c-.08-.1-.03-.24.05-.38.03-.04.14-.09.17-.07.08.05.16.1.21.13.06.02.51.56.67.74.16.17.29.36.41.55.25.39.52.76.76,1.16.05.09.09.18.12.28.09.34.25.65.45.94.03.05.05.1.13.13.12.05.59.86.61.99.05.31.14.6.21.91,0,.04.05.07,0,.14-.1.15-.04.22,0,.31.04.13.07.25.08.39,0,.07-.05.16-.09.25-.03.08-.26.15-.29.14-.09-.02-.17.07-.26.11-.03.02-.07.04-.09.04-.05.02-.77-.47-.8-.55,0,0-.14-.25-.29-.5-.14-.25-.3-.52-.33-.57-.04-.05-.03-.13-.04-.2-.02-.04-.44-.79-.46-.82-.06-.17-.17-.32-.13-.54,0-.04-.01-.07-.03-.11-.14-.28-.22-.58-.31-.88-.04-.16-.11-.3-.17-.45,0-.03,0-.06,0-.09,0-.04,0-.08-.02-.11-.14-.35-.23-.72-.4-1.06-.04-.08-.1-.5-.15-.59-.03-.05.03-.28,0-.32Z"/><path class="cls-1" d="M66.62,331.87c-.1.1-.26.02-.43-.11-.05-.04-.12-.21-.1-.26.04-.08.08-.17.13-.25.03-.04.58-.57.77-.73.18-.17.37-.31.57-.44.4-.28.81-.53,1.23-.78.09-.06.19-.1.3-.13.37-.1.7-.28,1.01-.49.05-.04.11-.06.14-.14.04-.13.93-.64,1.07-.67.34-.07.66-.16.99-.24.05-.01.08-.05.15-.01.16.1.24.03.34,0,.13-.05.28-.07.44-.08.08,0,.18.05.27.09.08.03.14.25.13.28-.03.09.06.17.11.25.01.03.03.07.04.09.01.05-.5.8-.58.82,0,0-.26.16-.52.32-.26.16-.53.34-.58.38-.05.04-.13.04-.21.05-.03,0-.81.53-.84.54-.18.07-.33.21-.56.18-.05,0-.08.02-.11.04-.29.17-.61.28-.92.4-.16.06-.31.16-.46.23-.03.01-.06.01-.1.02-.04,0-.08.01-.12.03-.37.17-.77.28-1.13.48-.08.04-.55.11-.66.15-.06.02-.31-.05-.35-.01Z"/><path class="cls-1" d="M66.6,329.48c-.13.02-.21-.12-.25-.32-.02-.07.03-.24.07-.26.08-.04.16-.08.24-.11.05-.01.75-.05,1-.08.24-.03.47-.03.69-.02l1.36.17c.1.01.2.04.29.09.32.15.66.21,1.01.24.06,0,.11.02.18-.02.11-.09,1.04.09,1.15.16.27.17.55.3.83.45.04.02.09,0,.11.09.05.18.15.17.24.21.12.04.24.12.35.21.06.05.1.15.14.24.04.08-.04.29-.06.31-.07.06-.05.18-.07.27,0,.03-.01.07-.02.1-.02.05-.86.39-.93.34,0,0-.28-.03-.58-.07-.29-.03-.59-.07-.66-.06-.07,0-.12-.05-.18-.09-.03,0-.9-.1-.93-.13-.17-.07-.36-.07-.5-.25-.03-.04-.07-.04-.1-.05-.3-.07-.59-.2-.88-.32-.15-.06-.31-.09-.46-.13-.03,0-.05-.03-.08-.05-.03-.02-.06-.05-.1-.05-.37-.08-.71-.27-1.07-.36-.08-.02-.45-.27-.55-.29-.05-.01-.2-.21-.25-.2Z"/><path class="cls-1" d="M68.83,332.91c.01.13-.14.19-.37.22-.07,0-.27-.05-.29-.1-.04-.09-.07-.17-.1-.26-.01-.05.04-.79.06-1.05,0-.25.08-.48.15-.7l.46-1.35c.04-.1.08-.19.15-.28.22-.29.35-.62.45-.96.02-.06.05-.11.02-.18-.04-.13.27-1.01.35-1.11.2-.24.37-.49.55-.74.03-.04.02-.09.1-.1.18-.03.19-.13.23-.21.06-.12.12-.23.22-.33.05-.05.16-.08.25-.12.08-.04.31.06.33.09.06.08.18.07.28.09.03,0,.08.02.1.03.07.02.25.92.19,1,0,0-.08.29-.17.6-.09.29-.17.59-.2.67-.02.07-.08.11-.13.17-.02.05-.32.89-.34.92-.1.16-.14.35-.34.46-.04.02-.05.06-.06.09-.13.29-.32.55-.49.82-.09.14-.14.29-.22.43-.01.03-.04.04-.06.07-.02.03-.06.06-.07.09-.16.34-.36.67-.48,1.02-.03.08-.32.41-.34.51-.02.05-.24.17-.23.23Z"/><path class="cls-1" d="M438.8,106.44c-.02-.15.08-.28.21-.39.04-.03.16-.03.18.02.05.1.09.19.12.26.04.05.19.9.24,1.19.06.28.09.56.11.83.04.56.11,1.13.14,1.69,0,.13,0,.25-.02.37-.07.43-.07.86-.03,1.29,0,.07,0,.14.05.22.08.12.13,1.28.09,1.43-.09.37-.14.75-.22,1.12-.01.05.01.11-.05.16-.15.11-.13.22-.14.34-.02.16-.05.32-.11.48-.03.08-.11.15-.18.23-.06.07-.29.02-.31,0-.07-.07-.18-.02-.27-.01-.03,0-.07,0-.1,0-.05,0-.45-.94-.44-1.04,0-.02-.05-1.33-.06-1.53,0-.08.03-.16.05-.24,0-.06-.03-1.12-.03-1.16.03-.22,0-.45.12-.67.02-.04.02-.09.02-.13,0-.38.07-.77.12-1.15.03-.2.04-.39.05-.59,0-.04.02-.07.03-.11.01-.04.03-.09.03-.13.03-.46.12-.93.12-1.39,0-.11.14-.61.13-.74,0-.07.15-.29.14-.35Z"/><path class="cls-1" d="M435.11,111.55c-.14.03-.25-.1-.34-.29-.03-.06-.01-.24.03-.26.08-.05.16-.11.24-.15.05-.02.8-.22,1.06-.28.25-.07.49-.11.74-.13.5-.07,1-.1,1.51-.14.11,0,.23,0,.34.02.39.08.78.06,1.17.01.06,0,.13,0,.19-.06.1-.09,1.17-.15,1.31-.11.35.09.69.15,1.04.23.05.01.1-.01.15.06.1.15.21.13.32.14.15.02.3.07.44.13.07.03.14.12.21.2.06.07.01.28-.01.3-.07.07-.02.17-.02.26,0,.03,0,.07,0,.1-.01.05-.84.46-.93.44,0,0-.31.02-.63.04-.32.03-.65.06-.72.07-.07.01-.14-.02-.22-.04-.03-.01-1,.11-1.04.1-.2-.02-.4.04-.61-.09-.04-.02-.08-.02-.12-.01-.35.02-.7-.03-1.05-.06-.18-.01-.36,0-.54,0-.03,0-.06-.02-.1-.03-.04,0-.08-.03-.12-.03-.43-.01-.85-.1-1.28-.09-.1,0-.57-.15-.68-.17-.06,0-.26-.19-.32-.17Z"/><path class="cls-1" d="M436.23,108.92c-.13-.07-.13-.23-.08-.43.02-.06.14-.18.19-.18.09.02.19.03.27.06.05.02.72.43.97.55.24.12.45.26.65.41l1.18.99c.09.07.16.16.23.25.22.33.51.59.83.83.05.04.1.09.18.09.15,0,.92.72.99.84.17.31.37.6.55.9.03.04.08.06.06.14-.04.19.06.24.12.32.09.11.16.25.22.4.03.07.02.19.02.29,0,.09-.18.22-.21.22-.1,0-.13.12-.19.19-.02.02-.05.05-.07.07-.04.03-.98-.21-1.03-.29,0,0-.25-.2-.5-.42-.25-.21-.52-.42-.58-.46-.06-.04-.09-.12-.12-.19-.02-.02-.79-.65-.8-.69-.12-.16-.3-.28-.34-.52,0-.05-.04-.07-.07-.1-.25-.24-.45-.54-.67-.82-.11-.14-.24-.26-.36-.4-.02-.02-.03-.06-.05-.09-.02-.04-.04-.08-.07-.11-.3-.3-.53-.67-.83-.97-.07-.07-.29-.51-.37-.58-.04-.04-.08-.3-.14-.32Z"/><path class="cls-1" d="M436.67,113.96c-.05.14-.22.15-.44.11-.07-.01-.22-.14-.22-.19,0-.1.01-.2.03-.29,0-.06.41-.78.54-1.04.12-.25.29-.45.47-.66l1.07-1.2c.08-.09.17-.16.27-.23.34-.22.63-.51.88-.82.04-.05.1-.09.1-.18.02-.14.73-.93.85-1,.3-.17.58-.38.87-.57.04-.03.06-.08.14-.07.18.03.23-.07.31-.14.11-.1.22-.19.36-.27.07-.04.18-.03.29-.04.09,0,.25.16.26.2.01.1.14.13.22.18.03.02.06.04.08.06.05.04-.2,1.01-.28,1.07,0,0-.21.27-.43.55-.21.26-.44.53-.5.6-.05.06-.13.09-.2.13-.04.04-.72.78-.75.81-.17.13-.29.3-.54.35-.05,0-.07.04-.1.07-.26.25-.56.45-.85.66-.15.11-.27.24-.41.36-.02.02-.06.03-.09.05-.04.02-.08.04-.11.07-.31.29-.65.55-.93.87-.07.07-.49.31-.56.4-.04.05-.3.1-.32.16Z"/><path class="cls-1" d="M417.65,99.99c.47,3.71.12,7.52-.86,11.11-1.07,3.58-2.67,6.87-4.87,9.85-1.6,2.15-3.41,4.18-5.56,5.79-3.81,2.82-8.26,4.64-12.81,5.39-4.55.82-9.18.6-13.6-.31-3.93-.8-7.75-2.14-11.3-3.9-2.25-1.2-4.41-2.58-6.39-4.18-.48-.41-.99-.81-1.45-1.24l-1.29-1.41c-.8-.99-1.64-1.94-2.31-3.01-.79-1.38-.56-1.27.66-.61.32.15.66.37,1.06.6.42.23.87.48,1.36.75.48.28,1.02.56,1.6.85.29.14.56.32.86.45.25.2.54.37.81.57,1.93,1.42,4,2.62,6.14,3.62,2.13,1.03,4.31,1.96,6.57,2.65,4.52,1.39,9.27,1.93,14.02,1.68,5.69-.34,11.37-2.89,15.44-6.92,4.5-4.37,7.43-10.61,7.71-16.96.14-3.93-.63-7.92-2.23-11.59-2.39-5.57-6.41-10.56-11.38-14.09-1.93-1.38-3.99-2.53-6.14-3.44-2.15-.9-4.36-1.59-6.61-2.13-.99-.25-1.98-.37-2.98-.57-.93-.15-1.71-.28-2.36-.4-.65-.1-1.18-.21-1.61-.37-.86-.31-1.37-.66-1.78-1.21-.19-.25-.44-.5-.56-.74-.19-.41.12-.76.87-1.08.38-.15.87-.3,1.46-.42.59-.1,1.28-.12,2.06-.14,2.3.05,4.63.32,6.96.82,2.32.51,4.61,1.31,6.82,2.32,4.42,2.02,8.51,4.94,11.97,8.51,2.55,2.66,4.76,5.7,6.47,9.02,1.7,3.33,2.87,6.96,3.34,10.72l-.11.02Z"/><path class="cls-1" d="M219.21,245.22c-2.17.64-4.19,1.62-6.28,2.47-1.06.4-2.01.99-3.01,1.48-.99.53-2,1.01-2.98,1.57-3.92,2.26-7.67,4.83-11.18,7.68-2.54,2.11-4.91,4.4-7.17,6.78-3.97,4.21-7.52,8.85-10.19,13.97-1.35,2.55-2.52,5.2-3.38,7.95-.87,2.74-1.56,5.55-1.85,8.42-.58,5.07-.05,10.28,1.49,15.08.96,3.09,2.37,6.04,4.05,8.82.86,1.38,1.76,2.73,2.66,4.1.94,1.34,1.98,2.6,2.83,4.08.4,1.06.57,1.53.49,1.57-.09.04-.47-.29-1.44-.6-.98-.3-2.23-.91-3.53-1.89-.33-.24-.68-.49-1.02-.77-.33-.29-.66-.6-1-.93-.33-.33-.68-.68-1.03-1.03-.32-.37-.6-.8-.89-1.22-2.06-3.02-3.77-6.31-4.99-9.8-1.25-3.48-1.85-7.18-2.02-10.86-.32-7.39,1.42-14.71,4.5-21.23,3.69-7.81,8.9-15.17,15.21-21.17,3.47-3.3,7.22-6.26,11.17-8.92,1.98-1.33,4-2.57,6.07-3.74l3.18-1.65,1.59-.82,1.65-.69c5.34-2.44,10.99-4.05,16.64-5.41,8.6-1.96,17.42-2.86,26.12-3.16,6.77-.21,13.44-.21,20.16.46,1.48.12,2.93.29,4.42.53.69.12,1.32.22,1.9.32.57.14,1.09.27,1.57.38.94.25,1.7.48,2.3.72,1.21.55,1.82,1.11,2.23,1.81.18.32.45.65.52.93.12.47-.41.7-1.44.76-.52.03-1.15,0-1.88-.11-.74-.09-1.62-.17-2.57-.33-5.72-.88-11.69-1.33-17.75-1.5-6.06-.15-12.22-.05-18.35.53-9.1.79-18.18,2.52-26.75,5.53l-.04-.09Z"/><path class="cls-1" d="M380.64,344.1c1.04,1.95,2.03,3.93,2.97,5.92l1.36,3.01c.43,1.03.89,2.07,1.27,3.12,1.58,4.2,2.8,8.5,3.67,12.84.66,3.17,1.24,6.35,1.55,9.57,1.07,11.32.19,22.88-3.29,33.72-.74,2.41-1.68,4.77-2.66,7.1-1.04,2.3-2.2,4.55-3.55,6.67-3.34,5.49-7.85,10.49-13.46,13.66-1.78.94-1.65.6-.62-.8,1.1-1.33,2.85-3.9,5.1-6.53,2.06-2.3,3.85-4.81,5.44-7.43,1.61-2.62,2.87-5.43,4.11-8.25,1.21-2.84,2.21-5.78,3-8.8.79-3.02,1.46-6.09,1.9-9.22,1.1-7.49.71-15.49-.42-23.16-.61-4.23-1.51-8.42-2.74-12.5-.59-2.05-1.32-4.05-2.09-6.03-.8-1.95-1.72-3.92-2.65-5.86-2.31-4.78-4.89-9.43-7.83-13.83-4.48-6.62-9.71-12.89-16.09-17.58-2.48-1.79-5.07-3.41-7.82-4.62l-1.02-.48c-.18-.09-.32-.14-.45-.18-.13-.05-.28-.09-.43-.13-.61-.15-1.3-.24-2.02-.3-1.45-.11-2.98-.1-4.61-.21-.72-.05-1.45-.1-2.24-.25-.37-.06-.85-.19-1.18-.29-.35-.11-.7-.23-1.05-.35-2.56-.98-4.08-1.95-5.03-2.8-.94-.87-1.31-1.6-1.42-2.37-.05-.35-.15-.75-.1-1.02.09-.46.61-.46,1.49-.19.88.27,2.16.79,3.75,1.5,1.19.51,2.41.96,3.64,1.29.35.1.49.12.79.17.26.04.56.07.86.1.62.05,1.28.07,1.96.09,1.38.04,2.85.05,4.48.24.82.11,1.69.26,2.68.62.57.21.79.35,1.16.52l1.03.5c5.52,2.64,10.46,6.44,14.81,10.72,6.46,6.4,11.57,13.94,15.86,21.75l-.09.06Z"/><path class="cls-1" d="M345.31,343.05c3.06,6.16,5.4,12.73,6.64,19.49.49,2.46.94,4.92,1.18,7.4.72,8.78.03,17.61-1.95,26.1-.83,3.78-1.98,7.5-3.22,11.12-1.67,4.62-3.71,9.23-6.94,13.01-.96,1.2-1.11.85-.92-.53.12-1.43.49-3.85,1.47-6.38.89-2.24,1.74-4.48,2.47-6.76.44-1.11.76-2.27,1.13-3.41l.53-1.71.46-1.74c1.21-4.64,2.26-9.34,2.89-14.16.77-5.78.39-11.88-.44-17.75-.41-3.24-1.11-6.44-1.94-9.6-.5-1.55-.89-3.15-1.49-4.67l-.85-2.31c-.3-.76-.65-1.51-.97-2.26-1.61-3.7-3.51-7.3-5.74-10.69-3.34-5.14-7.23-10.02-11.73-14.17-3.47-3.25-7.34-5.88-11.34-8.27-.44-.26-.88-.52-1.32-.77-.45-.24-.9-.48-1.35-.72-.83-.47-1.51-.87-2.07-1.23-.57-.35-1.01-.65-1.35-.96-.69-.59-.98-1.17-1.1-1.87-.06-.32-.17-.66-.17-.93,0-.9,1.8-.92,4.58.19,8.05,3.6,15.61,9.39,21.81,16.37,4.64,5.16,8.63,10.95,11.79,17.15l-.09.06Z"/><path class="cls-1" d="M308.07,340.54c2.31,7.08,3.96,14.33,4.48,21.81.08,1.36.23,2.71.24,4.07.02,1.35.13,2.71.03,4.06-.12,4.77-.77,9.5-1.61,14.15-.84,4.66-2.06,9.23-3.54,13.71-1.27,3.98-2.77,7.91-4.36,11.73-2.09,4.88-4.48,9.74-7.9,13.86-1.07,1.28-1.27.87-1.05-.64.11-.75.26-1.81.62-2.95.34-1.16.68-2.54,1.38-3.84,1.13-2.37,2.19-4.77,3.17-7.21.54-1.19.98-2.43,1.46-3.65l.71-1.84.64-1.86c1.73-4.96,3.17-10.02,4.45-15.18,1.48-6.18,1.87-12.83,1.74-19.27-.01-3.56-.41-7.08-.89-10.6-.63-3.51-1.31-7.03-2.34-10.46-1.2-4.23-2.66-8.41-4.51-12.42-2.74-6.09-6.12-11.96-10.28-17.13-3.2-4.05-6.91-7.52-10.85-10.68-.84-.73-1.75-1.34-2.64-2.01-.83-.63-1.49-1.18-2.04-1.65-.57-.45-1.01-.83-1.33-1.21-.64-.76-.87-1.4-.92-2.15-.02-.34-.1-.72-.05-1,.08-.48.57-.63,1.41-.47.84.16,2.05.61,3.42,1.45,4.02,2.57,7.86,5.68,11.38,9.23,3.51,3.56,6.63,7.58,9.42,11.81,4.11,6.31,7.41,13.17,9.83,20.28l-.1.05Z"/><path class="cls-1" d="M241.45,337.45c-3.3,6.14-5.98,12.64-7.81,19.38-.34,1.23-.55,2.48-.82,3.72-.29,1.24-.45,2.49-.66,3.74-1.45,8.79-.95,17.92,1.25,26.69.99,3.89,2.42,7.69,4.08,11.32.53,1.17,1.09,2.32,1.7,3.46.59,1.14,1.18,2.28,1.79,3.41l.9,1.71c.29.58.67,1.1.88,1.72.49,1.21,1.07,2.37,1.62,3.55.67,1.49.32,1.47-.89.63-.61-.43-1.47-1.04-2.46-1.83-.47-.41-1.04-.83-1.53-1.35-.46-.54-.93-1.12-1.32-1.78-1.49-2.29-2.78-4.7-3.92-7.19-.58-1.24-1.14-2.49-1.64-3.77l-.76-1.91-.68-1.95c-1.77-5.2-2.99-10.63-3.39-16.15-.45-6.58-.52-13.52.79-20.17,1.43-7.26,3.84-14.26,6.93-20.91.49-1.02.95-2.05,1.45-3.06l1.6-2.98.8-1.49.87-1.45,1.74-2.9c3.64-5.77,7.92-11.17,12.58-16.09,3.67-3.77,7.35-7.47,11.64-10.56.91-.73,1.88-1.33,2.86-1.97.93-.56,1.69-1.05,2.39-1.35.7-.3,1.28-.52,1.78-.64,1.01-.22,1.7-.13,2.33.15.29.12.62.2.82.34.33.24.17.68-.34,1.36-.5.69-1.4,1.5-2.67,2.29-3.6,2.63-7.26,5.28-10.59,8.47-3.35,3.14-6.61,6.49-9.58,10.13-4.44,5.37-8.4,11.23-11.65,17.46l-.1-.04Z"/><path class="cls-1" d="M188.61,373.02c1.71-10.34,5.45-20.33,10.9-29.22,1.99-3.24,4.11-6.41,6.5-9.35,4.2-5.19,9.03-9.88,14.25-14,5.22-4.12,10.82-7.72,16.64-10.85,5.17-2.78,10.53-5.26,15.97-7.35,3.48-1.38,7.06-2.53,10.67-3.56,3.65-.86,7.35-1.67,11.12-1.7,1.19.09,1.71.21,1.69.36-.01.16-.56.41-1.46.95-.9.56-2.21,1.07-3.74,1.82-.77.35-1.62.66-2.52.97-.89.34-1.84.67-2.84.96-7.13,1.9-14.06,4.57-20.77,7.71-6.71,3.14-13.19,6.83-19.32,11.11-3.64,2.58-7.18,5.49-10.36,8.77-3.2,3.28-6.16,6.83-8.85,10.51-5.92,8.09-10.31,17.31-12.72,27.08-1.53,6-2.27,12.2-2.37,18.41-.2,9.39,1.17,18.92,4.37,27.69,2.44,6.82,6.21,12.97,10.95,18.15,1.11,1.08,2.12,2.21,3.33,3.18.54.48,1.03.91,1.48,1.31.44.41.9.71,1.28,1.03.78.62,1.38,1.16,1.87,1.63,1.03.85,1.51,1.54,1.78,2.34.12.36.33.78.36,1.08.05.52-.53.61-1.65.29-.56-.16-1.25-.42-2.05-.79-.81-.36-1.64-.95-2.61-1.57-5.69-3.81-10.31-9.34-13.87-15.45-3.54-6.15-5.9-12.97-7.44-19.93-2.2-10.37-2.32-21.13-.69-31.57h.1Z"/><path class="cls-1" d="M222.87,298.48c-1.98.69-4.91,2.07-6.19,1.53-.35-.09-.61-.21-.89-.38-.42-.18-.34-.61-.43-.98l-.32-2.25c.18-.61.3-1.21.46-1.8.14-.59.18-1.11.28-1.66.13-.62.16-1.17.21-1.76.17-1.29,0-2.6-.01-3.9-.16-2.31-.56-4.63-1.25-6.9-.76-2.24-1.69-4.45-2.94-6.51-.53-.93-1.19-1.77-1.83-2.63-.72-.78-1.37-1.65-2.17-2.34-.51-.45-.97-.96-1.52-1.36-.54-.41-1.06-.85-1.59-1.28-1.11-.78-2.21-1.58-3.33-2.42-.69-.54-.52-.71.33-.74.42-.02,1.03-.02,1.76.02.72.07,1.46.38,2.24.76,2.7,1.46,5.02,3.54,7.04,5.84,2.03,2.31,3.61,5.01,4.65,7.91,1.26,3.44,2.44,7.11,2.65,10.92.11,1.14.02,2.29-.02,3.44,0,.29-.03.57-.08.86l-.11.64-.13.64c-.11.35-.24.73-.36,1.13.14.11.33,0,.49-.02l.52-.15c.44-.11,3.51-1.15,5.72-1.74,3.6-.93,7.34-1.72,11.23-1.45.75.06,1.51.15,2.27.3.83.17,1.65.51,2.36.9,1.4.87,2.78,1.82,3.54,4.06.21.95.28,1.98-.17,2.92-.18.43-.48.77-.69,1.1-.25.28-.51.48-.73.68-.23.21-.44.32-.63.4-.2.09-.38.15-.55.2-.67.18-1.15-.08-1.62-.5-.21-.2-.45-.38-.6-.59-.26-.37-.23-.82-.05-1.29.08-.24.25-.45.39-.67.07-.11.14-.22.22-.33.08-.1.19-.2.21-.3.2-.28.18-.42.15-.58-.04-.15-.13-.26-.22-.33-.11-.1-.31-.37-.63-.64-.29-.26-.65-.52-1.01-.71-.18-.11-.36-.19-.53-.25-.09-.05-.15-.05-.22-.07-.06-.02-.13-.05-.27-.08-.49-.11-1-.2-1.54-.25-1.07-.11-2.21-.1-3.38,0-3.5.24-7.11,1.39-10.67,2.72l-.04-.09Z"/><path class="cls-1" d="M153.21,364.47c4.64-11.81,11.82-22.45,20.57-31.45l2.42-2.44c.81-.81,1.68-1.56,2.51-2.34,1.65-1.59,3.47-3,5.24-4.44,6.37-4.98,13.51-8.92,20.72-12.27,7.23-3.39,14.69-6.27,22.3-8.64,6.75-2.11,13.61-3.98,20.5-5.35,4.42-.92,8.89-1.63,13.38-2.16,2.25-.24,4.51-.44,6.77-.44,1.13-.03,2.26,0,3.39.05,1.13.06,2.26.24,3.39.36,2.81.42,2.41.39.07,1.04-1.17.32-2.82.88-4.8,1.47-.99.3-2.06.5-3.19.74-.57.12-1.15.25-1.75.38-.6.08-1.22.17-1.85.23-17.83,2.15-35.37,6.77-52.19,13.71-5.01,2.08-10.06,4.53-14.78,7.39-4.73,2.87-9.22,6.2-13.4,9.81-9.18,7.95-16.87,17.69-22.33,28.57-3.34,6.7-5.84,13.84-7.17,21.2-.47,2.78-.79,5.6-.89,8.42-.06,2.82,0,5.66.36,8.46.67,5.61,2.24,11.09,4.65,16.15.46.99,1,1.93,1.49,2.89.56.93,1.09,1.87,1.69,2.77.62.88,1.18,1.8,1.86,2.64l.98,1.28c.33.46.61.74.97,1.08,1.37,1.31,3.32,2.22,5.27,3.6.99.7,1.89,1.53,2.68,2.28l2.38,2.28c.69.65,1.39,1.28,2.08,1.85.35.28.69.56,1.03.79.4.26.79.52,1.19.79,1.65,1.2,2.72,2.26,3.64,3.12.9.87,1.59,1.56,2.14,2.14,1.1,1.15,1.62,1.88,2.02,2.71.17.39.5.78.62,1.1.09.27-.02.45-.35.52-.34.08-.9.03-1.62-.19-1.44-.44-3.38-1.68-5.41-3.4-.76-.63-1.51-1.26-2.24-1.82-.37-.28-.73-.55-1.08-.78-.18-.13-.35-.21-.52-.32-.18-.11-.52-.32-.74-.47-1.9-1.34-3.34-2.76-4.83-4.16-.73-.7-1.46-1.39-2.15-2.02-.68-.62-1.3-1.06-2.11-1.59-1.54-1.02-3.63-2.07-5.43-4.04-.21-.24-.45-.52-.62-.74l-.49-.65-.97-1.29c-.64-.87-1.21-1.79-1.82-2.68-.58-.92-1.11-1.86-1.67-2.79-.5-.96-1.02-1.92-1.5-2.9-1.89-3.93-3.32-8.1-4.25-12.38-.71-3.17-1.13-6.42-1.27-9.66-.14-3.25-.06-6.51.33-9.73.78-6.45,2.38-12.69,4.68-18.68l.1.02Z"/><path class="cls-1" d="M121.09,256.33c2.64-5.08,6.52-9.56,11.29-12.81,1.23-.73,2.47-1.51,3.71-2.17,1.24-.63,2.5-1.22,3.8-1.78,2.6-1.09,5.32-2,8.4-2.31.59-.01,1.13-.09,1.76-.03.31.02.61.03.92.07l.98.19c.32.05.68.22,1.02.35.34.11.69.33,1.03.56.35.2.66.5.94.83.31.31.53.67.73,1.06.7,1.59.77,3.01.28,4.55-.51,1.44-1.35,2.41-2.14,3.22-1.43,1.42-2.89,2.41-4.3,3.45-1.41,1.02-2.81,1.97-4.11,3.02-2.61,2.07-4.95,4.35-6.61,7.04-1.65,2.68-2.6,5.75-2.66,8.95-.03.4-.03.8,0,1.2.02.4,0,.81.06,1.2.09.77.17,1.54.38,2.3.14.77.46,1.5.69,2.25.35.71.61,1.46,1.04,2.14,2.74,4.96,7.84,8.75,13.3,9.91.44.08.88.17,1.32.23l1.33.11c.91.03,1.85.04,2.77-.03,1.85-.09,3.67-.42,5.45-.82,1.78-.41,3.49-1.04,5.11-1.82,1.63-.77,3.08-1.82,4.28-3.1.22-.19.4-.35.56-.49.14-.15.27-.27.37-.37.21-.19.34-.27.4-.23.07.04.07.21.06.51-.01.16-.02.35-.04.56-.04.23-.08.48-.13.75-.2,1.16-.98,2.68-2.32,4.21-.33.39-.7.76-1.11,1.13-.4.38-.84.74-1.32,1.06-.96.65-2.05,1.19-3.23,1.65l-1.58.53c-.53.14-1.06.31-1.6.42-1.08.2-2.17.37-3.26.46-2.2.18-4.3.2-6.66-.13-4.56-.76-8.73-2.85-12.07-5.82-3.38-2.92-5.98-6.81-7.22-11.24l-.37-1.69c-.13-.56-.15-1.15-.22-1.72-.08-.58-.08-1.13-.08-1.68-.01-.55,0-1.1.04-1.66.12-2.21.56-4.44,1.35-6.54.44-1.26,1.07-2.46,1.72-3.62.7-1.14,1.45-2.24,2.3-3.25,1.68-2.04,3.61-3.8,5.6-5.39,1.98-1.6,4.02-3.07,5.88-4.55,1.83-1.46,3.51-3.15,3.23-4.25.02-.22-.05-.32-.07-.47-.03-.06-.07-.1-.09-.15-.01-.06-.04-.11-.09-.14-.04-.04-.07-.09-.1-.14-.07-.03-.13-.07-.18-.11l-.08-.07-.14-.05c-.09-.03-.18-.07-.26-.11-.8-.28-2.02-.25-3.19-.08-.59.05-1.2.23-1.81.34-.61.18-1.22.32-1.83.52-1.22.38-2.44.83-3.64,1.34-1.2.5-2.42,1.06-3.55,1.67l-1.67.95-.84.48-.78.57-1.56,1.13c-.53.37-.97.85-1.45,1.27-.47.44-.97.85-1.41,1.32l-1.28,1.45c-2.04,2.43-3.83,5.13-5.02,8.12-1.23,2.95-2.14,6.08-2.46,9.28-.59,4.83-.22,9.83,1.31,14.47,1.49,4.62,4.06,8.94,7.27,12.56,2.53,2.78,5.56,5.02,8.91,6.48,3.35,1.46,6.97,2.13,10.61,2.13.8-.03,1.59-.06,2.39-.09.79-.1,1.58-.19,2.39-.29.75-.05,1.42-.24,2.04-.34.62-.11,1.19-.21,1.71-.3,1.03-.24,1.86-.4,2.57-.49,1.41-.21,2.28-.2,3.11.11.37.14.84.24,1.1.41.44.3.11.82-.9,1.49-.51.33-1.18.72-2.02,1.1-.86.34-1.87.7-3.03,1.06-3.48.93-7.18,1.44-10.97,1.25-3.78-.18-7.64-1.1-11.17-2.81-3.54-1.7-6.71-4.16-9.34-7.04-2.62-2.92-4.72-6.16-6.39-9.69-.3-.66-.65-1.31-.89-1.99l-.72-2.06-.36-1.03-.26-1.06-.51-2.12c-.16-.71-.22-1.43-.34-2.15-.08-.72-.24-1.43-.26-2.16-.05-1.45-.23-2.89-.12-4.34l.09-2.17c.07-.72.18-1.43.27-2.15.14-1.44.51-2.84.82-4.26.13-.71.39-1.39.61-2.08l.68-2.06.86-1.99c.29-.66.56-1.34.94-1.96l.09.03Z"/><path class="cls-1" d="M330.67,305.7s.01.07.04.09c.02.02,0,0,.06.05l.48.33.5.38.35.25.68.49c.93.63,1.96,1.12,3.05,1.5,2.19.75,4.63,1,7.07.82,1.78-.17,3.55-.57,5.26-1.11,2.99-.92,6.01-2.43,7.68-4.67,1.8-2.53,2.96-5.63,3.14-8.87.19-2.87-.36-5.8-1.47-8.42-1.52-3.33-3.79-6.23-6.84-8.41-.91-.75-.67-1.08.57-1.15.62-.04,1.51-.02,2.49.29,1.02.25,2.07.84,3.09,1.65.81.79,1.68,1.57,2.35,2.5.76.88,1.24,1.92,1.8,2.91.96,2.06,1.69,4.24,1.98,6.5.24,2.25.24,4.54-.19,6.78-.46,2.22-1.15,4.42-2.33,6.39-.3.61-.74,1.15-1.1,1.73-.33.57-.85,1.15-1.35,1.72-.51.52-1.05,1.01-1.6,1.46-.57.4-1.11.88-1.71,1.21-2.33,1.48-4.85,2.52-7.46,3.15-2.86.68-5.85.87-8.81.49-2.95-.38-5.89-1.4-8.36-3.16l-.57-.4c-.2-.14-.38-.27-.51-.37-.14-.11-.28-.21-.42-.31-.2-.13-.53-.3-.78-.47-.54-.33-.83-.94-1.1-1.49-.29-.57-.36-1.21-.31-1.84.16-1.4.48-2.05.62-2.79.08-.35.14-.7.14-.96.01-.22-.03-.43-.12-.63-.18-.42-.51-.94-.84-1.47l-.52-.84-.27-.47c-.11-.21-.22-.4-.3-.62-.2-.42-.32-.86-.37-1.31-.05-.46.1-.9.27-1.31.49-.92.71-1.45,1.18-2.03,1.67-2.3,3.88-3.93,6.13-5.29,3.51-2.11,7.17-3.68,10.94-4.95.83-.27,1.64-.57,2.5-.79,3.17-.83,4.28-.64,5.15.31.2.21.44.4.56.61.41.64-.72,1.7-2.89,2.4-3.22,1.08-6.48,2.23-9.61,3.61-1.55.7-3.08,1.44-4.48,2.3-1.43.83-2.71,1.81-3.74,2.86l-.57.59c-.17.2-.3.42-.46.62-.14.21-.34.4-.43.62l-.15.3v-.03s-.01,0-.01.01c.01.03-.02-.03.03.07l.22.36.53.83c.19.3.4.63.61,1,.11.19.22.4.33.62.1.22.28.6.36.9.21.62.27,1.35.24,1.96-.02.55-.1,1.02-.18,1.45-.09.44-.18.8-.27,1.15l-.19.75s-.02.07-.01.1l-.1.06Z"/><path class="cls-1" d="M286.69,301.53c6,2.53,12.51,4.16,19.05,5.1,2.39.32,4.8.42,7.19.52,2.1.08,4.21.06,6.25-.16,2.03-.22,4.05-.66,5.67-1.48.77-.44,1.43-.96,1.81-1.56.33-.59.52-1.41.4-2.2-.22-1.63-1.5-3.3-2.93-4.72-2.65-2.54-5.99-4.51-9.32-6.29-1.08-.57-2.18-1.11-3.28-1.63l-3.3-1.62c-1.1-.55-2.22-1.05-3.3-1.67-1.07-.62-2.14-1.26-3.18-1.97-1.29-.89-1.06-.89.32-.8.69.05,1.7.04,2.87.18.58.07,1.23.11,1.88.26.64.17,1.3.37,1.97.64,1.19.46,2.37.95,3.55,1.45,1.18.5,2.32,1.09,3.48,1.67,2.29,1.19,4.57,2.45,6.75,3.97,2.17,1.54,4.32,3.23,6.08,5.63.86,1.21,1.65,2.64,1.9,4.39.1.87.1,1.78-.13,2.63-.07.43-.26.86-.46,1.28-.17.44-.44.8-.71,1.15-1.33,1.69-3.05,2.52-4.66,3.12-1.63.58-3.27.96-4.9,1.19-3.26.48-6.51.53-9.7.36-3.51-.21-6.97-.73-10.39-1.41-3.42-.69-6.8-1.57-10.11-2.68-2.04-.67-4.05-1.46-6.02-2.35-1.97-.9-3.91-1.89-5.75-3.12-1.38-.96-2.73-1.93-3.93-3.3-1.18-1.34-2-2.95-2.52-4.62-1.03-3.34-.86-6.93.32-10.14.44-1.26,1.1-2.42,1.83-3.53.79-1.09,1.66-2.06,2.63-2.94,1.95-1.74,4.22-3.09,6.63-4.02,1.06-.42,2.11-.78,3.23-1.05,2.07-.48,3.46-.57,4.44-.47.98.1,1.55.38,1.99.86.2.21.46.43.58.64.37.77-1.23,1.26-3.93,1.86-4,.89-7.92,2.51-10.76,5.2-.73.65-1.35,1.41-1.86,2.14-.47.79-.94,1.6-1.21,2.49-.65,1.75-.79,3.69-.59,5.53.18,1.36.6,2.67,1.26,3.81.18.27.36.54.52.82l.59.76.67.69.85.71c2.37,1.86,5.28,3.36,8.3,4.59l-.03.1Z"/><path class="cls-1" d="M357.45,233.37c.31,4.39.27,8.67.48,12.88.08,1.51.29,3.12.31,4.71.06,2.8-.02,5.61-.27,8.42-.24,2.8-.67,5.6-1.39,8.35-.62,2.44-1.4,4.88-2.59,7.16-.77,1.45-1.72,2.88-2.99,4.06-1.3,1.13-2.91,1.98-4.59,2.22-1.09.03-.96-.39-.38-1.21.6-.84,1.48-1.97,2.44-3.05,1.9-1.77,3.14-4.39,4.02-7.18.89-2.8,1.36-5.82,1.86-8.88.57-3.68.35-7.61.13-11.43-.33-4.27-.39-8.66-.61-12.89-.14-2.61-.37-5.21-.78-7.77-.27-1.7-.6-3.4-1-5.09-.21-.84-.4-1.68-.65-2.52l-.32-1.17c-.07-.24-.15-.48-.23-.71-.09-.27-.17-.54-.27-.78-.14-.2-.42-.04-.59.06-.19.12-.36.26-.52.41-.16.15-.31.29-.45.44l-.22.23-.4.39c-1.05,1.07-2.08,2.2-3.14,3.3-.47.49-.91.99-1.4,1.47-1.85,1.76-2.66,2.14-3.68,1.74-.23-.08-.47-.13-.64-.23-.54-.31-.24-1.51.98-2.84,1.49-1.7,3.01-3.46,4.69-5.21l1.31-1.33c.84-.8,1.76-1.67,2.71-2.19.97-.51,1.79-.66,2.67-.39.24.08.45.18.61.27l.43.53.85,1.06c.3.84.6,1.69.9,2.54l.26.8c.08.23.14.45.21.68,1.22,4.26,1.96,8.73,2.36,13.15l-.09.02Z"/><path class="cls-1" d="M299.21,279.99c-5.25-4.86-9.26-11.08-11.31-17.92-.75-2.47-1.39-4.97-1.72-7.51-1.1-8.97-.08-17.96,2.39-26.47.27-.95.58-1.88.9-2.82.34-.96.64-1.82,1.07-2.85.56-1.33,1.2-2.7,2.01-3.62.42-.45.81-.8,1.37-.98.34-.11.51.09.73.2l.64.37.22.12c.08.06.16.15.24.23l.49.48c.55.74,1.09,1.4,1.64,2.08l1.16,1.41c.73.87,1.47,1.76,2.19,2.68.69.95,1.36,1.94,1.95,3.02.58,1.08.98,2.34,1.07,3.65.04.43-.04.76-.1.96-.06.2-.14.28-.22.27-.19-.02-.35-.43-.79-.95-.41-.53-1.13-1.12-2.04-1.72-.86-.63-1.82-1.39-2.79-2.34-.81-.84-1.6-1.73-2.44-2.63l-1.17-1.28s-.08-.1-.07-.09c0-.02-.02-.07-.06-.05h-.02s-.01.02-.01.02c0-.03-.06.15-.1.23-.17.4-.33.82-.49,1.23-.31.83-.61,1.68-.89,2.54-1.16,3.43-2.09,7-2.76,10.64-1.07,5.76-.83,11.94.32,17.74.61,3.2,1.59,6.32,2.98,9.22,1.39,2.91,3.2,5.65,5.33,8.12,1.29,1.54,2.76,2.91,4.28,4.24.8.6,1.57,1.26,2.4,1.83.85.54,1.65,1.16,2.54,1.62.67.36,1.32.77,2.01,1.09l2.08.97c1.43.54,2.85,1.11,4.34,1.48,2.94.78,6.02,1.28,9.02,1.21,4.7-.12,9.3-1.38,13.47-3.26.92-.42,1.78-.9,2.64-1.39,1.61-.91,2.58-1.59,3.35-1.96.39-.18.74-.28,1.07-.34.31-.07.62-.08.94-.06.3.02.64-.01.89.05.42.1.47.55.15,1.34-.31.79-1.05,1.86-2.3,2.85-3.71,2.94-8.17,4.71-12.81,5.78-2.33.52-4.73.84-7.19.91-1.22.04-2.51,0-3.7-.14-1.22-.11-2.43-.23-3.63-.49-3.58-.65-7.09-1.8-10.35-3.45-3.26-1.65-6.27-3.74-8.97-6.17l.06-.08Z"/><path class="cls-1" d="M315.2,225.86c1.23-.32,2.48-.59,3.73-.82,1.27-.17,2.52-.42,3.8-.48.93-.06,1.85-.29,2.79-.24.83.04,1.65,0,2.47.11l2.45.3c.81.17,1.61.35,2.41.54.8.18,1.57.49,2.35.72.34.11.69.2,1.03.32l1.01.38c.67.26,1.38.42,2.02.74.83.4,1.67.76,2.48,1.18.75.54,1.44,1.18,2.06,1.87.38.45.07.76-.64,1.03-.71.26-1.87.6-2.83.4-3.21-1.05-6.13-2.28-9.4-3.17-.96-.36-2-.38-3.04-.47-1.04-.05-2.09.06-3.13.05-2.29.16-4.61.37-6.89.95-.71.15-1.41.32-2.1.54-.69.21-1.4.4-2.08.65-2.07.76-4.16,1.56-6.08,2.66-.74.43-1.46.88-2.14,1.4-.68.52-1.34,1.05-2.02,1.55-.3.21-.57.48-.88.69-.58.38-1.03.53-1.44.51-.4,0-.72-.16-1.1-.44-.17-.13-.36-.24-.5-.37-.47-.44-.32-1.26.33-2.21,1.03-1.3,2.36-2.27,3.72-3.23,1.4-.91,2.86-1.78,4.41-2.5.57-.27,1.14-.55,1.72-.81l1.78-.7c1.18-.49,2.43-.83,3.64-1.24l.03.09Z"/><path class="cls-1" d="M193.55,426.18c-.8-.7-1.65-1.32-2.36-1.64-.33-.12-.66-.24-.81-.21-.07-.04-.26.04-.39.03-.1.05-.23.05-.3.12-.17.08-.32.19-.48.47-.17.24-.32.62-.43,1.05-.23.87-.32,1.95-.33,3.05-.01,2.23.25,4.59.5,6.99.13,1.2.26,2.42.36,3.67l.08,1.26c.04.49.04,1.03.04,1.55.02.54-.05,1.01-.07,1.52-.06.47-.15.92-.24,1.36-.09.22-.17.46-.26.67l-.35.54c-.13.15-.27.28-.4.42-.13.13-.42.26-.63.3-.54.11-1.03.05-1.6-.12-.57-.18-1.21-.53-1.85-.99-.64-.46-1.29-.99-1.92-1.52l-1.35-1.17c-1.45-1.28-2.84-2.57-4.21-3.87-2.42-2.29-4.85-4.55-7.37-6.66-2.51-2.08-5.14-4.12-7.88-5.37-.34-.14-.68-.29-1.02-.39-.34-.11-.73-.2-1.09-.3-.73-.18-1.46-.29-2.14-.31-.66,0-1.3.07-1.72.31-.43.22-.74.54-.97,1.05-.44,1.05-.4,2.63-.13,4.13.26,1.53.73,3.07,1.29,4.58.58,1.56,1.27,3.09,2.03,4.57.38.75.79,1.48,1.21,2.19l.36.6.52.83c.39.55.7,1.1,1.16,1.64l.46.61c.15.2.21.37.31.55.09.17.21.37.26.53l.04.37.02.18-.02.12-.02.12v.06s-.01.02-.01.02h0c-.91-.45-.25-.12-.45-.22h0s0,0,0,0h0s-.02.03-.03.04c-.17.13-.33.24-.5.38-.19.13-.29.36-.62.47-.36.08-.79.12-1.28.11-.96-.02-1.94-.05-2.89-.09l-3.04-.08-2.83-.05c-1.89-.03-3.78-.04-5.66-.03l-2.82.03-2.82-.02c-.94,0-1.87.02-2.81.06-.93.03-1.88-.03-2.81.04-1.16.08-1.67.14-1.66.04,0-.1.52-.37,1.47-.8,1.87-.93,5.57-2.33,10-2.67,3.42-.21,6.83-.29,10.23-.33h2.26s.02,0,.04,0c.04.02.08.02.06-.02,0-.01,0-.02,0-.04,0,0,0-.02-.01-.02l-.2-.35-.42-.75c-.55-1.01-1.07-2.03-1.54-3.08-.96-2.09-1.79-4.24-2.4-6.53-.31-1.14-.54-2.34-.67-3.59-.11-1.25-.14-2.59.26-4.07.13-.38.25-.75.42-1.11.21-.37.38-.75.67-1.09.29-.34.56-.69.93-.94l.54-.39c.18-.11.38-.19.57-.29,1.56-.7,3.02-.65,4.31-.53.66.12,1.35.2,1.96.39l.94.25c.32.1.66.21.97.33,1.26.49,2.39,1.1,3.47,1.75,2.15,1.31,4.11,2.78,6.02,4.31,3.8,3.06,7.38,6.36,10.86,9.58l1.68,1.54c.2.18.39.36.6.54.21.17.42.36.69.47.06.02.15.02.18-.05.02-.06.04-.13.06-.19.03-.13.05-.26.06-.4.03-.34.03-.62,0-1.04l-.08-1.12-.13-1.36c-.18-1.82-.4-3.68-.54-5.57-.13-1.89-.24-3.82,0-5.85.13-1.01.34-2.07.85-3.14.48-1.05,1.44-2.15,2.69-2.61.54-.22,1.05-.31,1.6-.37.29,0,.58-.01.86.01l.8.15c1.01.28,1.84.74,2.6,1.23,1.48,1.02,2.7,2.19,3.86,3.39,2.29,2.41,4.3,4.97,6.33,7.48,1.46,1.8,2.91,3.61,4.43,5.28.76.83,1.55,1.63,2.37,2.3.8.68,1.72,1.19,2.28,1.17,2.01-.08,3.93-1.69,5.43-3.57,1.53-1.9,2.81-4.08,4.1-6.27.96-1.63,1.9-3.28,3.03-4.9.58-.8,1.2-1.6,2.01-2.34.79-.72,1.88-1.45,3.28-1.57,1.39-.14,2.72.5,3.62,1.33.91.82,1.49,1.77,1.97,2.71.93,1.88,1.47,3.82,1.84,5.76.33,1.71.54,3.4.59,5.16.07,3.25-.35,5.44-.94,6.92-.59,1.48-1.37,2.23-2.25,2.55-.39.16-.86.34-1.17.3-.26-.02-.4-.21-.46-.48-.05-.27-.04-.64,0-1.14.08-.99.35-2.48.49-4.56.21-3.06.01-6.3-.65-9.32-.35-1.49-.8-2.98-1.48-4.06-.32-.53-.7-.92-.94-1.05-.11-.08-.18-.07-.28-.1-.04-.01-.06.02-.09,0-.03.02-.05.03-.09.02-.14.04-.54.27-.98.7-.44.44-.9,1.02-1.35,1.64-.9,1.27-1.77,2.74-2.66,4.25-.89,1.51-1.8,3.07-2.85,4.62-1.05,1.55-2.23,3.12-3.81,4.57-.78.67-1.63,1.33-2.68,1.84-1.06.51-2.21.86-3.54.93-.54-.03-1.11-.03-1.62-.21-.53-.14-.89-.32-1.28-.5-.39-.19-.66-.39-1-.59l-.84-.62c-1.03-.83-1.87-1.69-2.68-2.55-1.6-1.73-2.99-3.48-4.39-5.22-1.39-1.73-2.74-3.46-4.13-5.1-1.38-1.64-2.8-3.23-4.28-4.53l.05-.08Z"/><path class="cls-1" d="M270.12,435.26c.08,1.48.17,2.98.2,4.53.02.83.02,1.34-.04,2.9-.12,1.33-.39,2.59-1,3.44-.13.23-.33.4-.51.59-.21.16-.43.3-.67.44-.24.18-.46.21-.7.28l-.35.1-.42-.12c-.56-.15-1.11-.37-1.66-.58-.54-.33-1.1-.59-1.61-1.03-.26-.21-.52-.39-.77-.62l-.6-.59c-.3-.3-.56-.61-.84-.92-.52-.62-1.01-1.25-1.47-1.88-1.33-1.84-2.56-3.65-3.69-5.49-1.62-2.63-3.2-5.22-5.03-7.54-.91-1.16-1.89-2.25-2.96-3.21-.27-.23-.53-.48-.82-.69-.27-.2-.62-.48-.7-.53-.29-.21-.56-.38-.88-.53-.07-.02-.15-.11-.21-.07-.06.05-.13.09-.17.15-.11.11-.17.26-.23.41-.1.3-.13.62-.13.97.04,1.43.42,3.09.85,4.64.45,1.57,1.01,3.13,1.64,4.65,1.63,3.92,3.76,7.57,5.4,11.55.54,1.23.38,1.16-.64.48-.51-.34-1.24-.84-2.1-1.48-.81-.67-1.62-1.57-2.34-2.63-1.09-1.52-1.88-3.21-2.71-4.87-.8-1.68-1.54-3.4-2.17-5.19-.62-1.79-1.19-3.64-1.39-5.7-.02-.26-.06-.51-.06-.78l-.02-.4c-.01-.18-.01-.4,0-.61.02-.86.12-1.7.38-2.44.22-.76.63-1.35,1.09-1.88.5-.44,1.09-.99,1.55-1.26,1.32.62,2.58,1.17,3.75,1.96l.44.28c.12.08.18.14.28.21l.52.41c.35.28.66.58.99.87,4.16,4.01,7.15,8.82,10.07,13.33.8,1.24,1.6,2.46,2.45,3.59.43.56.86,1.12,1.32,1.61.11.12.22.26.34.37l.26.26c.1.1.21.2.32.29.23.19.49.34.79.45.15.09.3.01.38-.12.08-.13.13-.27.16-.42.07-.3.09-.59.1-.95,0-.05,0-.28,0-.45v-.53s-.06-1.08-.06-1.08c-.18-3.6-.71-7.26-.64-11.1.03-.74.05-1.47.18-2.25.02-.19.06-.38.11-.59.05-.26.11-.51.2-.74.15-.48.35-.95.64-1.34.55-.81,1.55-1.31,2.54-1.12l1.47.11,1.13.34c3,.99,5.25,2.99,7.27,5.01,3.1,3.2,5.71,6.69,7.88,10.53.44.86.95,1.68,1.34,2.58,1.48,3.34,1.43,4.63.53,5.65-.21.23-.4.52-.63.67-.39.27-.86.1-1.34-.4-.24-.25-.48-.59-.71-1-.25-.41-.52-.89-.76-1.45-1.52-3.28-3.38-6.52-5.48-9.58-2.11-3.02-4.71-5.88-7.58-7.51-.26-.18-.53-.25-.79-.38-.26-.11-.52-.28-.78-.32-.26-.07-.51-.14-.76-.22l-.09-.03h-.01s-.02,0-.02,0c-.04,0-.03-.01-.04,0,0,0,0,0-.01,0,.02-.13-.06.27-.08.53-.13,1.17-.09,2.6-.02,4.01.05,1.43.14,2.9.25,4.39l-.1.02Z"/><path class="cls-1" d="M326.74,426.69c.2-.46.37-.91.53-1.35l.2-.64.04-.15c.01-.05,0-.02.01-.03,0,0,.01-.02.01-.04.04-.1.06-.29-.07-.35-.06-.02-.13-.03-.2-.03-.03,0-.09,0-.09,0,.02,0-.01,0-.07.02l-.13.04c-.09.03-.18.05-.27.09-.72.28-1.48.74-2.21,1.31-1.47,1.15-2.84,2.67-4.11,4.28-1.27,1.62-2.46,3.35-3.6,5.13-.83,1.3-1.61,2.64-2.39,4l-1.17,2.04-1.56,2.67c-1.22,2.07-2.61,4.17-3.78,4.84-.59.37-1.07.59-1.7.66-.17.02-.35-.02-.56-.08-.22-.02-.34-.16-.51-.24-.15-.11-.34-.14-.45-.33l-.35-.53c-.93-1.37-1.37-2.99-1.3-4.99.03-.99.23-2.08.55-3.16.14-.55.35-1.02.52-1.54.1-.29.16-.42.24-.6l.22-.51c1.2-2.68,2.69-5.08,4.05-7.47.67-1.18,1.33-2.38,1.81-3.51.13-.28.21-.56.29-.8.04-.15.06-.31.06-.47.02-.33-.21-.63-.52-.73-.12-.06-.3-.08-.47-.11l-.27-.04-.4-.03c-.27-.03-.54-.04-.81-.02-.27,0-.54.01-.81.06-1.08.13-2.14.49-3.14,1-2.01,1.03-3.75,2.64-5.22,4.45-3.77,4.73-6.16,10.54-7.94,16.43-.49,1.85-.79,1.58-.97-.15-.08-.87-.1-2.1.02-3.58.06-.74.15-1.55.33-2.39.19-.83.43-1.71.76-2.59.58-1.57,1.24-3.11,2.01-4.61.38-.75.79-1.49,1.23-2.22.45-.72.94-1.42,1.46-2.11,2.06-2.72,4.68-5.31,8.24-6.73,1.8-.66,3.72-1.03,5.76-.81l1.04.18.52.09.51.23c.72.25,1.23.79,1.69,1.36.13.34.34.65.4,1.02l.13.53.03.55c.04.37-.03.74-.08,1.11-.05.42-.12.64-.18.9-.55,1.96-1.41,3.36-2.22,4.81l-2.41,4.16c-.45.82-.9,1.64-1.27,2.47-.19.39-.38.88-.52,1.2-.08.19-.16.39-.2.51-.2.57-.31,1.27-.05,1.86.06.15.15.29.25.4.17.04.28-.13.39-.24.21-.25.37-.52.54-.79.63-1.06,1.26-2.13,1.89-3.19,2.24-3.75,4.55-7.53,7.41-11.03,1.44-1.74,3.01-3.44,4.99-4.83,1.01-.69,2.07-1.29,3.44-1.65.85-.2,1.68-.32,2.48-.22.84.01,1.5.33,2,.97.6.75.79,1.74.74,2.74-.05.5-.09,1.02-.23,1.5-.08.38-.2.71-.31,1.07-.46,1.37-1.03,2.63-1.6,3.87-.71,1.51-.87,1.77-1.21,2.44-.31.61-.64,1.24-.94,1.89-.23.49-.45,1-.64,1.54-.18.53-.36,1.1-.3,1.68.03.28.15.57.39.73.26.12.51-.07.71-.22.39-.34.71-.76,1.04-1.19.64-.87,1.27-1.8,1.94-2.74l.51-.7.59-.77c.63-.82,1.29-1.62,2-2.39,1.1-1.2,2.28-2.36,3.69-3.34,1.41-.95,3.1-1.77,5.01-1.86.48-.02.94-.02,1.44.06.59,0,1.16.35,1.58.55.89.43,1.7,1.18,2.29,2.07.28.44.47.93.68,1.4.11.47.26.97.32,1.44.03.46.1.94.09,1.39-.02.44-.03.9-.07,1.34-.16,1.53-.49,2.93-.91,4.33-.85,2.55-1.62,4.09-2.29,5.1-.68,1-1.3,1.46-2.06,1.71-.35.11-.72.3-1.03.31-1.05.06-.74-2.15.47-5.56.43-1.26.85-2.53,1.14-3.78.3-1.24.54-2.49.51-3.56-.01-1.09-.28-1.84-.64-2.19-.1-.1-.25-.16-.34-.27-.12-.07-.4-.17-.38-.18-.02-.01-.03,0-.04,0-.02,0-.18-.02-.27-.03-.21.03-.41-.01-.62.04-1.67.19-3.68,1.73-5.42,3.67-.44.48-.87.99-1.3,1.52-.21.26-.42.53-.63.81l-.55.73-.65.9c-.87,1.18-1.71,2.45-2.56,3.7-.43.64-.85,1.24-1.27,1.81-.21.28-.43.6-.63.86l-.6.73c-1.18,1.42-2.11,2.07-2.78,2.35-.69.27-1.18.34-1.75.21l-.54-.08c-.2-.03-.52-.05-.8-.23-.54-.43-1.04-.75-1.29-1.14-.56-.73-.75-1.37-.89-2.18-.11-.82-.08-1.83.29-3.26.34-1.4,1.14-3.3,2.06-5.21.45-.96.95-1.93,1.43-2.89l1.23-2.44c.47-.95.92-1.9,1.31-2.82l.09.03Z"/><path class="cls-1" d="M388.96,430.38c-.28-.05-.64-.05-1.12.1-.47.17-1,.39-1.55.75-1.09.67-2.19,1.62-3.26,2.63-2.15,2.05-4.18,4.4-6.42,6.72-.83.85-1.66,1.72-2.65,2.56-.51.43-1,.81-1.75,1.24-.88.48-1.85.78-2.82.75-.3-.05-.62-.04-.91-.16l-.43-.17c-.07-.02-.14-.07-.22-.07l-.2-.1c-.7-.43-1.29-1.02-1.73-1.71-.2-.36-.41-.72-.52-1.12-.17-.41-.22-.76-.28-1.06-.22-1.26-.14-2.36-.03-3.41.24-2.1.74-4,1.2-5.87.23-.93.46-1.85.65-2.74.09-.44.18-.91.23-1.29.03-.19.05-.4.04-.6-.01-.2-.06-.44-.24-.55-.18-.1-.4-.11-.61-.09-.21.02-.43.08-.62.15-.38.14-.77.32-1.16.52-2.94,1.56-5.5,4.12-7.99,6.52-1.59,1.58-3.08,3.27-4.58,4.95-.75.84-1.5,1.68-2.23,2.54l-2.17,2.61c-.89,1.1-.84.93-.48-.26.34-1.2,1.09-3.42,2.51-5.71.62-1.02,1.3-1.99,2.03-2.93.72-.95,1.45-1.88,2.22-2.8.77-.91,1.55-1.82,2.39-2.68.86-.84,1.76-1.66,2.7-2.44.94-.78,1.93-1.54,3.02-2.23.55-.34,1.12-.67,1.76-.97l.48-.22.67-.25c.53-.2,1.06-.26,1.58-.36,1.05-.1,2.03.08,2.83.61.79.6,1.2,1.51,1.33,2.5.12.97-.02,2.26-.11,2.73-.11.63-.23,1.24-.37,1.82-.51,2.2-1.05,4.33-1.29,6.42-.11,1.03-.17,2.06-.03,2.9.02.21.08.41.12.57.04.13.05.19.1.28.08.16.2.31.36.4.17.12.38.12.57.06.1-.02.19-.07.28-.11.04-.02.15-.09.25-.15.1-.06.2-.12.3-.2,1.06-.75,2.15-1.84,3.21-2.94l3.2-3.43c2.19-2.3,4.39-4.72,7.44-6.55.85-.47,1.79-.89,2.87-1.09.28-.04.55-.09.83-.1l.86.02c.14.02.29.05.43.07l.5.1c.31.1.6.23.91.34.71.37,1.38.87,1.74,1.6.36.72.45,1.54.35,2.34-.03.2-.05.4-.1.6l-.14.53c-.1.31-.21.61-.32.89-.24.56-.5,1.1-.78,1.6-.76,1.37-1.61,2.61-2.46,3.83l-1.27,1.8-.43.61-.35.51c-.22.35-.45.71-.58,1.11-.06.19-.08.45.12.56.2.04.41.01.62.02,1.02-.01,2.04-.03,3.05-.04,4.53-.09,8.96-.44,13.44-.7.99-.06,1.95-.16,2.94-.19,1.84-.06,3.06-.03,3.91.2.85.27,1.35.67,1.74,1.26.18.27.42.53.53.8.18.44-.11.85-.77,1.22-.67.37-1.72.74-3.06.84-4,.4-8.11.61-12.28.71-2.09.05-4.19.08-6.29.1-1.63,0-3.26.01-4.9.02-.25,0-.55.02-.77-.02l-.65-.15c-.51-.06-.69-.28-.94-.46-.24-.19-.51-.37-.71-.56-.23-.29-.46-.68-.6-1.02-.33-.94-.34-1.93.18-3.18.48-1.23,1.4-2.51,2.22-3.71.9-1.26,1.76-2.43,2.55-3.6.78-1.15,1.5-2.36,1.86-3.34.04-.12.09-.24.11-.34.01-.06.02-.02.02-.04,0-.01.01-.03.01-.05,0-.04-.02-.07-.05-.09-.03-.01-.02-.01-.02,0v-.1Z"/><g class="cls-3"><path class="cls-1" d="M206.85,333.86l-1.96,2.26-1.82,2.37c-1.26,1.55-2.32,3.24-3.46,4.88-.58.81-1.06,1.69-1.58,2.54l-1.52,2.58-1.34,2.66c-.45.88-.91,1.77-1.27,2.7-.54,1.35-1.14,2.67-1.58,4.06l-1.33,4.15c-2.87,9.84-3.8,20.31-2.77,30.65.39,4.59,1.35,9.15,2.51,13.58,1.4,5.74,3.7,11.16,5.14,16.97.34,1.87.32,1.62-.75.37-.58-.68-1.34-1.57-2.23-2.61-.48-.54-.85-1.19-1.29-1.87-.22-.34-.41-.7-.65-1.06-.17-.38-.35-.77-.52-1.18-1.12-2.89-2.18-5.82-3.03-8.81-.48-1.48-.79-3.01-1.12-4.53l-.49-2.28-.38-2.31c-1.01-6.15-1.39-12.44-1-18.7.51-7.47,1.6-15.27,4.08-22.56.6-2.03,1.52-3.94,2.29-5.91.39-.98.92-1.9,1.38-2.85.49-.94.91-1.91,1.45-2.81l1.6-2.72c.27-.45.52-.91.81-1.35l.88-1.31,1.75-2.62c.61-.85,1.26-1.68,1.89-2.52.77-1.03,1.55-2.06,2.41-3.03.84-.98,1.66-1.98,2.53-2.93l2.67-2.8c.87-.95,1.86-1.78,2.78-2.68,5.71-5.31,12.09-9.93,18.85-13.69,5.21-2.99,10.57-5.53,16.22-7.51.62-.23,1.23-.45,1.85-.68.63-.18,1.26-.37,1.89-.56,1.19-.33,2.18-.58,3.01-.77.85-.14,1.54-.21,2.11-.23.58-.02,1.04.02,1.44.12.4.13.73.31,1.03.5.27.18.61.33.78.5.54.47-1.2,1.87-4.54,2.68-4.91,1.53-9.82,3.37-14.65,5.58-4.84,2.18-9.52,4.87-13.99,7.87-.82.57-1.67,1.1-2.48,1.7l-2.4,1.81-1.2.9-1.15.97-2.31,1.94c-.76.65-1.47,1.37-2.21,2.05-.72.7-1.5,1.34-2.17,2.09-1.37,1.47-2.82,2.87-4.08,4.44l-.08-.05Z"/></g><g class="cls-3"><path class="cls-1" d="M234.09,341.63c-2.56,5.98-4.36,12.29-5.3,18.78-.38,2.36-.48,4.76-.68,7.14-.53,8.4.02,16.94,2.16,25.15.25.91.48,1.82.76,2.72l.93,2.66c.29.9.67,1.75,1.03,2.62.38.86.68,1.75,1.12,2.57.54,1.07,1.05,2.16,1.61,3.21.59,1.04,1.22,2.07,1.76,3.14l1.83,3.12c.6,1.05,1.31,2.03,1.95,3.06.8,1.28.43,1.35-.72.61-.58-.37-1.36-.93-2.26-1.66-.89-.74-1.82-1.72-2.74-2.84-.84-.98-1.49-2.09-2.18-3.18-.72-1.07-1.28-2.23-1.91-3.35-.64-1.12-1.17-2.29-1.7-3.47l-.8-1.76c-.24-.6-.44-1.21-.66-1.82-1.72-4.86-2.85-9.92-3.38-15.05-.6-6.12-.94-12.52-.38-18.78.27-3.44.86-6.84,1.52-10.22.78-3.36,1.64-6.71,2.82-9.94.66-2.01,1.52-3.96,2.32-5.91.91-1.91,1.77-3.85,2.81-5.69,3.04-5.64,6.78-10.92,10.99-15.67,3.25-3.72,6.69-7.18,10.54-10.26.42-.35.83-.69,1.25-1.03.43-.32.87-.64,1.32-.95,3.29-2.41,4.75-2.5,5.96-2.07.28.11.61.18.81.32.34.24.24.7-.21,1.34-.45.64-1.23,1.48-2.4,2.26-6.67,5.04-13.14,10.95-18.37,18-1.99,2.57-3.73,5.34-5.41,8.14-1.57,2.86-3.1,5.77-4.3,8.82l-.09-.03Z"/></g><g class="cls-3"><path class="cls-1" d="M314.53,346.51c.21.81.43,1.62.62,2.43l.51,2.45c.38,1.63.57,3.29.85,4.94.21,1.66.37,3.32.51,4.98.06,1.67.23,3.33.19,4.99.05,2.43.05,4.85-.13,7.27-.73,8.51-2.73,16.86-5.87,24.71-1.34,3.5-2.94,6.92-4.64,10.24-2.19,4.24-4.69,8.43-8.23,11.72-1.25.9-1.14.72-.85-.64.13-.69.42-1.56.79-2.6.2-.5.35-1.09.61-1.65.26-.55.56-1.12.91-1.68.64-.99,1.13-2.06,1.76-3.05.63-.99,1.15-2.04,1.72-3.07.58-1.02,1.09-2.08,1.6-3.13l.78-1.58.71-1.61c1.9-4.29,3.51-8.73,4.82-13.3,1.56-5.47,2.14-11.41,2.27-17.21.11-3.19-.06-6.39-.32-9.57-.37-3.17-.78-6.35-1.51-9.47-.38-1.94-.95-3.83-1.46-5.73-.62-1.87-1.19-3.77-1.94-5.59-2.17-5.57-4.88-11-8.32-15.86-2.64-3.8-5.79-7.1-9.09-10.21-.37-.34-.73-.68-1.09-1.01-.38-.32-.76-.64-1.13-.97-2.7-2.57-3.46-3.49-3.33-4.93.01-.31-.03-.65.03-.89.14-.77,1.93-.48,4.33,1.16,6.89,5.09,12.82,12.22,17.29,20.13,1.71,2.92,3.12,6,4.45,9.11,1.24,3.15,2.39,6.34,3.26,9.6l-.1.04Z"/></g><g class="cls-3"><path class="cls-1" d="M350.18,343.86c2.52,6.08,4.29,12.44,5.34,18.91.22,1.17.39,2.36.55,3.54l.24,1.77c.06.59.1,1.19.13,1.79.61,8.41-.41,16.86-2.63,24.89-1.01,3.56-2.15,7.1-3.59,10.47-.45,1.09-.88,2.18-1.42,3.24-.52,1.06-.99,2.14-1.57,3.17-1.2,2.03-2.4,4.07-4.01,5.81-.98,1.1-1.07.79-.84-.51.18-1.35.77-3.58,1.82-5.98,2.07-4.13,3.85-8.39,5.24-12.79,1.4-4.39,2.38-8.91,3.06-13.52.41-2.75.52-5.6.52-8.46-.06-1.43-.11-2.86-.21-4.29-.16-1.42-.22-2.86-.44-4.27-.79-6.22-2.23-12.39-4.48-18.28-1.33-3.65-2.98-7.18-4.83-10.59-2.84-5.16-6.14-10.12-10-14.53-3.01-3.42-6.42-6.34-9.95-9.08-.77-.62-1.56-1.17-2.36-1.75-.73-.55-1.33-1.02-1.81-1.45-.49-.41-.88-.74-1.14-1.11-.5-.76-.66-1.39-.66-2.08,0-.31-.06-.65-.02-.9.07-.42.51-.54,1.3-.46.79.08,1.94.36,3.13,1.13,7.14,4.45,13.67,10.74,18.93,17.96,3.97,5.32,7.18,11.22,9.79,17.33l-.09.05Z"/></g><path class="cls-1" d="M326.83,306.88c-5.48,4.56-20.36,2.34-24.6,1.08-.1-.03-.19-.06-.29-.09,5.49-.32,24.3-1.31,24.3-1.31,0,0,.21.12.59.32Z"/><path class="cls-1" d="M213.32,301.37c-.05.11-.12.16-.19.17-.1.01-.03-.05.19-.17Z"/><path class="cls-1" d="M326.58,256.78c-.25.58.49,2.57,2.19,3.27s4.78-3.4,2.85-4.18c-1.93-.78-5.04.91-5.04.91Z"/><path class="cls-1" d="M340.57,251.57c1.04-.24,2.08-.48,3.13-.69.38-.08.74-.24,1.13-.31,1.37-.23,2.77-.37,4.18-.46.63-.02,1.25-.16,1.89-.13.41,0,.83.02,1.25.1.42.07.84.24,1.18.59.21.22.06.43-.24.73-.19.2-.37.39-.53.55-.19.18-.36.31-.54.35-.31.06-.62.15-.94.24-.16.04-.32.1-.48.13l-.5.04c-.68.05-1.39.1-2.14.12-.9.01-1.76.43-2.64.69l-2.94.87c-.61.19-1.22.37-1.82.59-.91.32-1.85.61-2.73,1.03-.69.32-1.28.84-2.01,1.26-.17.09-.32.22-.52.29-.37.1-.72.1-1.08-.09-.32-.16-.76-.65-.59-1.18.07-.23.24-.41.45-.47.14-.06-.04.05.06-.05.06-.08.1-.21.13-.6,0-.14.02-.43-.01-.67-.02-.18,0-.13,0-.16v-.05c.22-.43.83-.75,1.38-1.06.58-.3,1.22-.56,1.87-.79.97-.35,2-.64,3.02-.95l.03.08Z"/><path class="cls-1" d="M341.78,259.63c1.12.37,2.27.74,3.4,1.16.42.15.85.19,1.26.36.73.29,1.45.6,2.16.92.72.31,1.42.64,2.1,1.02.61.32,1.25.56,1.87.83.4.17.81.3,1.2.5.19.1.39.2.57.31.19.1.34.32.5.48.19.23.07.42-.27.67-.17.13-.41.28-.68.45-.26.13-.51.18-.76.14-.85-.15-1.7-.3-2.52-.5-.82-.21-1.64-.39-2.39-.84-.92-.49-2-.58-3.01-.83-1.12-.28-2.24-.58-3.37-.89-.7-.18-1.4-.38-2.11-.54-1.07-.25-2.15-.57-3.24-.74-.85-.14-1.74-.05-2.61-.13-.19-.01-.39,0-.58-.04-.7-.15-.85-.46-.71-1.47.03-.23.05-.46.1-.69.16-.76.61-1.31,1.14-1.41.79-.14,1.57-.2,2.32-.13.75.08,1.49.24,2.25.41,1.12.26,2.24.59,3.39.89l-.02.09Z"/><path class="cls-1" d="M318.02,259.19c-1.22-.09-2.43-.14-3.65-.13-.44.01-.87.11-1.32.11-1.56.06-3.15.05-4.72.25-.7.09-1.38.26-2.05.45l-1.3.35c-.22.06-.44.1-.66.14l-.34.04c-.12,0-.26-.06-.38-.09-.33-.11-.35-.28-.24-.74.06-.21.11-.61.26-.83.14-.25.33-.47.57-.59,1.71-.87,3.58-1.36,5.51-1.49,1.16-.06,2.31-.4,3.48-.51,1.28-.13,2.57-.15,3.85-.18h2.35c1.18,0,2.37.07,3.53,0,.9-.06,1.79-.33,2.67-.52.2-.04.39-.12.58-.14.73-.11.97.22,1.14,1.14.04.21.09.43.12.64.09.71-.2,1.34-.74,1.61-1.6.65-3.29.69-4.96.68-1.24-.01-2.48-.1-3.71-.12v-.08Z"/><path class="cls-1" d="M319.09,266.09c-1.11.46-2.23.94-3.33,1.44-.4.19-.75.46-1.16.64-1.43.64-2.87,1.26-4.28,1.95-.62.31-1.21.69-1.8,1.04-.38.23-.74.49-1.13.71-.19.11-.39.21-.6.29-.2.09-.43.15-.7.13-.33-.02-.51-.4-.6-1.01-.12-.67-.09-1.46.31-1.77.71-.55,1.42-1.12,2.2-1.56.8-.42,1.64-.79,2.52-1.09,1.06-.36,1.95-1.08,2.95-1.6,1.09-.58,2.2-1.12,3.31-1.66l2.06-.99c1.03-.51,2.09-.97,3.1-1.52.78-.43,1.46-1.02,2.2-1.53.16-.11.31-.25.49-.32.67-.3.98-.17,1.46.51.11.16.23.31.32.47.32.54.28,1.15-.09,1.6-.53.68-1.17,1.14-1.83,1.6-.66.45-1.36.84-2.08,1.22-1.09.51-2.19,1.02-3.28,1.53l-.04-.07Z"/><path class="cls-1" d="M335.16,254.48c.79.77,1.26,1.87,1.25,2.97,0,.55-.1,1.1-.3,1.62-.07.27-.21.51-.34.76-.07.12-.11.26-.21.35l-.19.26c-.35.49-.69.95-1.14,1.32-.81.61-1.66,1.13-2.86,1.32-.33.03-.63.06-.97-.03-.27-.05-.47-.12-.71-.19-.44-.17-.87-.35-1.27-.58-.71-.39-1.38-.84-1.97-1.36-.72-.69-1.43-1.52-1.51-2.58,0-.33.28-.38.74-.33.48.05,1.09.13,1.4.4.57.49,1.18.86,1.77,1.2.3.17.62.31.93.43.16.07.32.12.48.18.08.02.16.06.24.09.09.04.18.05.16.09.08.12.45.02.78-.21.33-.23.65-.55.93-.87.15-.18.3-.36.42-.54.12-.16.16-.2.22-.33.12-.22.19-.51.1-.79-.07-.39-.48-.54-.85-.59-.35-.05-.94-.02-1.45.04-.53.06-1.07.19-1.6.36-.83.26-1.58.76-2.4,1.17-.18.09-.36.21-.55.28-.73.26-1.05.08-1.42-.86-.08-.21-.17-.41-.24-.62-.21-.7-.08-1.42.33-1.74,1.25-.99,2.79-1.68,4.68-2.02.71-.13,1.46-.21,2.3-.19l.34.02c.16,0,.32.01.47.04.3.06.6.11.89.18.57.17,1.09.42,1.59.71l-.05.07Z"/><path class="cls-1" d="M298.01,235.27l-.56-1.69c-.06-.24-.17-.46-.34-.64-.13-.2-.31-.37-.53-.48-.22-.14-.45-.21-.7-.22-.25-.06-.5-.04-.75.03l-.45.19c-.28.17-.51.39-.67.67l-.19.45c-.09.33-.09.66,0,1l.56,1.69c.06.24.17.46.34.64.13.2.31.37.53.48.22.14.45.21.7.22.25.06.5.04.75-.03l.45-.19c.28-.17.51-.39.67-.67l.19-.45c.09-.33.09-.66,0-1h0Z"/><path class="cls-1" d="M351.16,229.55v-1.69c0-.26-.04-.5-.16-.72-.08-.23-.2-.43-.39-.6-.17-.18-.37-.31-.6-.39-.22-.12-.46-.17-.72-.16l-.5.07c-.32.09-.59.25-.83.48l-.29.38c-.17.29-.25.61-.26.95v1.69c0,.26.04.5.16.72.08.23.2.43.39.6.17.18.37.31.6.39.22.12.46.17.72.16l.5-.07c.32-.09.59-.25.83-.48l.29-.38c.17-.29.25-.61.26-.95h0Z"/></svg>