<?xml version="1.0" encoding="UTF-8"?><svg id="Layer_1" xmlns="http://www.w3.org/2000/svg" width="520" height="520" viewBox="0 0 520 520"><defs><style>.cls-1,.cls-2{fill:#231f20;}.cls-3{fill:#242021;}.cls-4,.cls-2{opacity:.45;}.cls-5{opacity:.4;}</style></defs><path class="cls-1" d="M351.23,314.46c.55,2.61-.06,5.18-1.41,7.24-.34.52-.73,1.01-1.17,1.45l-.17.16-.08.08s-.1.1-.03.03l-.06.04s-.08.06-.11.1c-.06.08-.05.19-.03.29l.15.69c.07.36.09.72.09,1.08-.05,2.08-.97,3.94-2.54,5.15-.43.31-.97.64-1.43.8-.09.03-.28.11-.3.11h-.08c-.05.02-.12.02-.18.02-.04.05-.06.12-.1.19l-.05.1-.16.34c-.27.56-.61,1.16-1.1,1.71-.46.56-1.22,1.06-1.81,1.3-.63.27-1.3.45-1.97.52-2.68.28-5.36-1.1-6.57-3.52-.37-.79-.4-1.46-.44-2.1-.02-.63.02-1.24.08-1.82.07-.6.14-1.11.25-1.75.14-.65.32-1.17.4-1.6.06-.29.06-.43.01-.58-.04-.15-.13-.29-.25-.38-.06-.05-.13-.08-.19-.11l-.26-.11-.97-.37c-.37-.14-.78-.36-1.19-.7-.39-.32-.78-.88-.88-1.44-.22-1.13.36-2.12,1.16-2.65.55-.31.85-.19.86-.06.03.15-.17.38-.25.76-.08.36,0,.9.34,1.18.11.06.14.11.22.12.03,0,.07,0,.09,0,0,0-.04.02-.06.03h-.01s0,.01,0,.01h0s.33-.27.17-.14h0s0,0,0,0h0s.02,0,.02,0c.02-.01.04-.02.07-.02.04-.01.13,0,.22.02.18.04.45.14.81.23.18.05.38.12.6.2l.43.17c.16.07.32.17.48.25.62.36,1.11.91,1.44,1.54.32.63.42,1.37.39,2.06-.11,1.19-.42,1.89-.45,2.3-.08.59-.17,1.31-.22,1.89-.05.59-.04,1.18.03,1.47-.04.08.24.54.52.84.58.64,1.51,1.06,2.46,1.09.36.02.72-.04,1.06-.16.17-.04.34-.15.48-.22.11-.06.21-.14.31-.25.21-.21.41-.54.59-.95l.14-.34c.08-.21.15-.44.22-.66l.43-1.36.84-.14c.26-.05.62-.11.79-.16.26-.09.44-.18.6-.29.34-.23.66-.55.9-.91.36-.53.56-1.18.52-1.74,0-.15-.03-.28-.06-.42,0-.03-.09-.29-.14-.46-.06-.19-.11-.38-.14-.57-.16-.75-.03-1.57.43-2.18.22-.31.5-.58.79-.85l.26-.25c.07-.06.13-.14.2-.21.26-.28.48-.61.68-.94.4-.68.66-1.45.77-2.23.14-.96.04-1.95-.32-2.8-.35-.85-1-1.62-1.84-2.29-.81-.65-1.75-1.23-2.74-1.81-.96-.59-1.81-.97-2.39-.8-.22.05-.5.2-.9.44-.2.12-.41.24-.68.37-.28.13-.58.24-.89.3-.59.12-1.27.04-1.77-.09-.82-.22-1.45-.5-1.94-.55-.49-.07-1,0-1.49.17-.99.36-1.87,1.09-2.5,1.99-.29.41-.52.86-.77,1.33-.47.87-.78,1.51-1.16,1.89-.2.19-.4.33-.62.42-.24.08-.5.12-.77.15-.24.02-.48.08-.68.07-.33-.02-.53-.28-.72-.81-.21-.54-.15-1.23.13-2.1.35-1.07.83-2.2,1.59-3.28.76-1.09,1.83-2.1,3.15-2.78,1.31-.68,3.01-1.08,4.75-.72.85.18,1.42.43,1.79.53.44.12.28.05.32.06h0s.31-.19.31-.19c.33-.18.84-.55,1.74-.83l.19-.06c.91-.25,2.01-.18,2.75.04.78.21,1.38.5,1.89.78.53.28.9.51,1.36.78.44.26.9.54,1.35.86.91.63,1.85,1.4,2.68,2.4.83.98,1.5,2.29,1.8,3.59l-.09.03Z"/><path class="cls-1" d="M283.5,310.38c-.98.49-2.05.59-2.94.56-.91-.02-1.72-.15-2.49-.2-.56-.04-1.08,0-1.55.07-.83.09-1.65.49-2.47,1.04-.81.55-1.62,1.24-2.53,1.84-.81.57-1.73,1.04-2.69,1.3-.62.16-1.29.25-1.97.16-.34-.04-.68-.15-.99-.3-.31-.16-.61-.36-.75-.71-.1-.48-.09-.35.32-.36.46-.03.96-.1,1.44-.07.89.07,1.9-.31,2.78-.82.84-.49,1.71-1.36,2.77-2.05.63-.43,1.27-.91,2.03-1.3.74-.4,1.64-.68,2.48-.71,1.83-.11,3.43.33,4.78.03.82-.16,1.49-.65,2.23-1.34.54-.51,1.19-1.08,1.9-1.49.7-.43,1.45-.76,2.22-1.01,1.19-.39,2.43-.68,3.73-.66.28.01.57,0,.85.04,1.06.18,1.33.51,1.34,1.1,0,.14.01.28,0,.4-.08.44-.55.61-1.18.61-1.84-.06-3.71.18-5.35,1.02-.62.32-1.12.67-1.69,1.18-.58.51-1.25,1.19-2.22,1.7l-.03-.04Z"/><path class="cls-1" d="M330.2,324.74c-.34-.2-.68-.31-1.08-.24-.15.02-.25.13-.43.18-.63.2-1.36.82-2.22,1.4-.4.25-.78.51-1.22.71-.28.13-.58.25-.92.29-.17.01-.35-.03-.51-.08-.17-.05-.33-.14-.44-.3-.14-.21-.07-.25.12-.48.21-.26.41-.71.51-.89.23-.16.49-.35.77-.6.14-.12.28-.26.44-.38.18-.14.38-.29.6-.44.54-.35.94-1.03,1.7-1.49.85-.47,1.91-.61,2.82-.41.56.13,1.06.35,1.52.61.69.4,1.23.94,1.76,1.46.41.4.91.74,1.33,1.2.09.1.2.19.27.31.16.2.11.41.03.57-.09.16-.3.31-.61.48-.14.08-.28.15-.41.21-.44.19-1.01.23-1.3.11-.8-.39-1.18-.91-1.68-1.35-.35-.33-.71-.63-1.06-.79l.02-.07Z"/><path class="cls-1" d="M168.46,473.56c-.53.07-1.01.04-1.46-.05-.45-.13-.87-.33-1.26-.49-.25-.1-.22-.37.08-.47.58-.17,1.17-.43,1.76-.51.36-.05,6.14-.62,8.11-.77,1.9-.17,3.8-.27,5.71-.34l11.62-.51c.86-.04,1.72-.04,2.58-.02,2.95.11,5.9.04,8.85-.09.49-.02,1-.02,1.47-.12.78-.17,8.79-.39,9.83-.34,2.58.11,5.16.15,7.74.22.37.01.76-.04,1.1.06.79.23,1.58.17,2.38.17,1.11-.01,2.21,0,3.32.11.55.05,1.09.17,1.63.29.49.1.23.39.06.43-.49.12-.09.26-.04.38.02.04.04.1.02.14-.01.02-.42.12-1.03.22-.62.11-1.43.25-2.27.39-1.68.22-3.43.43-3.78.44-.17,0-9.43.5-10.49.56-.55.04-1.11,0-1.66-.02-.26.01-7.67.41-7.97.43-1.54.02-3.07.16-4.61-.02-.3-.04-.61-.01-.92,0-2.64.13-5.28.09-7.93.08-1.35,0-2.7.05-4.05.07-.24,0-.49-.02-.73-.03-.31-.01-.61-.04-.92-.03-3.2.08-6.4.03-9.59.18-.74.04-4.25-.14-5.1-.12-.48.01-2.04-.29-2.46-.23Z"/><path class="cls-1" d="M349.68,464.86s15.65-.23,15.64,3.5c-.02,5.12-47.51,6.32-47.51,6.32l22.1-5.48,9.77-4.33Z"/><path class="cls-1" d="M204.94,251.63c-1.78-1.27-3.51-2.6-5.22-3.96-.63-.48-1.28-.95-1.89-1.46-2.14-1.82-4.21-3.72-6.18-5.71-.88-.87-1.78-1.74-2.65-2.62l-1.61-1.75c-.54-.59-.9-1.33-1.33-2-.25-.43-.1-.47.36-.32.23.08.54.19.9.35.18.08.37.16.57.26.1.05.19.11.3.15l.25.22c2.39,2.08,4.56,4.34,6.85,6.58,1.35,1.36,2.99,2.51,4.54,3.7,1.7,1.31,3.45,2.58,5.22,3.81,1.1.75,2.2,1.5,3.32,2.21,1.68,1.11,3.39,2.2,5.15,3.17,1.38.73,2.74,1.41,4.11,2.11.3.15.6.31.9.46,1.1.63,1.39.95,1.46,1.41.02.11.05.22.05.31-.02.3-.59.29-1.5.02-2.69-.83-5.46-1.89-8.01-3.4-1.92-1.07-3.81-2.21-5.61-3.49l.03-.05Z"/><path class="cls-1" d="M280.4,243.69s.49,5.79,2.48,4.44,2.44-8.75-.02-7.86-2.46,3.42-2.46,3.42Z"/><path class="cls-1" d="M280.14,233.43c0-.97.04-1.93.1-2.89.02-.35-.02-.7.02-1.05.13-1.23.33-2.45.58-3.65.1-.53.17-1.07.21-1.61.1-.68-.02-1.41.55-2,.22-.18.42-.1.8.15.19.13.39.29.58.48.09.09.19.19.25.29.04.09.06.19.05.28-.13,1.33-.27,2.64-.62,3.97-.23.8-.14,1.65-.18,2.47-.04.91-.07,1.83-.06,2.74,0,.56.02,1.13.07,1.69.07.85.13,1.71.32,2.54.16.64.46,1.24.72,1.84.05.13.13.26.18.39.18.5-.05.74-.58,1.01-.12.06-.24.13-.36.18-.38.16-.87.06-1.18-.28-.77-1.07-1.07-2.36-1.27-3.65-.15-.96-.2-1.94-.25-2.92h.06Z"/><g class="cls-5"><path class="cls-3" d="M286.12,468.89l-.61-.13c-1.36-.32-2.74-.57-4.08-.94-1.35-.34-2.73-.58-4.06-1.01-2.69-.74-5.34-1.63-7.93-2.66-5.19-2.06-10.15-4.68-14.71-7.87-4.49-3.16-8.6-6.88-12.04-11.11-.84-1.07-1.74-2.11-2.46-3.26-.76-1.13-1.58-2.24-2.18-3.42l-.98-1.75c-.3-.6-.55-1.22-.83-1.83-.26-.62-.56-1.22-.8-1.85l-.65-1.92c-1.69-5.13-2.43-10.61-2.48-16.11-.04-5.51.61-11.06,1.72-16.52,1.12-5.46,2.72-10.84,4.72-16.05,2.01-5.21,4.42-10.2,7.26-15.1,2.82-4.89,5.9-9.73,8.77-14.76,2.88-5.02,5.46-10.28,7.53-15.73h0c.48-1.3.84-2.41.85-2.6.02-.76,0-1.53,0-2.29.15-2.58.16-5.13.78-7.51.07-.26-.07,0-.4.71-.42.9-.85,1.79-1.32,2.67-.36.91-.84,1.78-1.28,2.65-.12.24-.26.52-.41.83-.13.33-.27.71-.43,1.1-.33.8-.71,1.72-1.1,2.68-2.32,5.76-5.26,11.24-8.55,16.56-3.27,5.33-6.85,10.58-10.09,16.15-1.6,2.8-3.16,5.65-4.47,8.63l-.98,2.24-.89,2.26c-.62,1.5-1.11,3.04-1.66,4.56-2.09,6.13-3.59,12.47-4.46,18.93-.83,6.45-1.07,13.07-.08,19.63.97,6.53,3.04,13.08,6.66,18.8,3.55,5.62,8.05,10.57,13.11,14.79,5.07,4.21,10.71,7.69,16.66,10.44,1.74.75,3.32,1.32,3.85,1.41.86.14,1.75.21,2.62.32.73.08,1.03,0,.91-.24l-.39-.75c-.03-.06.19-.03.63.08,1.28.37,2.6.63,3.91.91,1.07.23,1.64.27,1.59.13-.06-.18.5-.17,1.56-.07.53.06,1.18.15,1.94.28.38.07.78.14,1.21.22.43.06.89.13,1.37.2l1.64.26c1.18.21,2.08.24,2.49.21.41-.03.29-.14-.33-.31-.54-.15-.3-.21.57-.13.94.07,1.49.1,1.63.06.14-.03-.12-.22-.83-.39l-1.44-.37c-.46-.12-.58-.2-.32-.21.26-.01.87.04,1.64.15.72.07,1.42.3,2.14.45.71.14,1.43.26,2.15.42,1.17.17,1.97.35,1.94.25,0-.01-.06-.03-.17-.05-.1-.08-.24-.09-.42-.15-.36-.09-.86-.25-1.46-.34-.87-.29-1.74-.42-2.59-.71-.32-.1-.65-.21-.97-.29l-1-.18c-.67-.13-1.34-.21-2.01-.37"/></g><path class="cls-1" d="M326.35,332.91c-.89-.11-1.8-.21-2.72-.27-.34-.02-.67,0-1-.02-1.19-.11-2.38-.23-3.57-.39-.53-.04-1.07-.11-1.59-.19-.34-.06-.68-.13-1.01-.21-.33-.09-.66-.24-.97-.38-.19-.1-.11-.25.11-.41.22-.15.59-.34.95-.35l.98-.06c.32-.02.66-.09.98-.06.65.03,1.3.09,1.97.16.8.11,1.64-.04,2.47-.06.91-.03,1.84-.04,2.77-.04.57,0,1.15.02,1.72.03.88.02,1.76.14,2.65.21.69.06,1.41,0,2.18.17.17.04.34.05.51.11.62.27.74.56.45,1.17-.06.14-.12.27-.2.4-.25.4-.71.7-1,.68-.92,0-1.92-.1-3.05-.18-.83-.05-1.72-.18-2.61-.25v-.06Z"/><path class="cls-1" d="M331.61,335.22c-.68-.59-1.28-1.07-2.02-1.48-.26-.15-.56-.22-.83-.35-.94-.52-1.99-.91-3.1-1.08-.49-.07-.99-.07-1.48-.02-.63,0-1.27.03-1.94.05-.21,0-.21-.1-.08-.28.13-.18.39-.51.76-.7.33-.16.67-.31,1.02-.43.35-.11.72-.11,1.08-.15.73-.03,1.47.03,2.18.21.84.23,1.76.3,2.6.66.9.38,1.77.91,2.53,1.49.47.35.9.71,1.34,1.03.66.48,1.33.93,2.04,1.06.56.12,1.13-.07,1.54-.23.09-.04.17-.1.26-.14.36-.03.55.03.92.3l.25.17c.25.18.31.59-.03,1.08-.24.38-.62.62-1.01.78-.39.18-.81.25-1.22.26-.82.03-1.62-.17-2.34-.5-1.03-.47-1.8-1.14-2.51-1.69l.03-.04Z"/><path class="cls-1" d="M327.47,331.57c-.86.04-1.73.04-2.6.06-.32,0-.63.09-.95.08-1.13-.03-2.26-.13-3.38-.25-.5-.05-.99-.05-1.49-.04-.31-.03-.63-.02-.95-.06-.16-.02-.31-.06-.47-.11-.08-.02-.15-.05-.23-.08-.07-.04-.14-.15-.21-.22-.17-.21-.12-.43.09-.84.1-.19.26-.56.41-.71.15-.19.32-.33.49-.34l.9-.1c.3,0,.59.02.88.05.59.06,1.18.14,1.79.27.73.16,1.48-.03,2.23-.08.83-.06,1.66-.1,2.5-.18.52-.04,1.04-.07,1.56-.13.79-.09,1.58-.14,2.36-.3.6-.13,1.17-.4,1.75-.62.13-.05.25-.11.38-.15.12-.03.23-.04.32-.03.09.02.17.09.24.16.14.14.23.36.33.67.04.14.09.27.13.41.11.43-.03.92-.35,1.26-.99.62-2.08.86-3.2,1.05-.83.14-1.68.21-2.54.31v-.07Z"/><path class="cls-1" d="M350.24,326.22c.67-.25,1.34-.52,1.99-.87.23-.13.44-.3.67-.43.84-.45,1.63-.99,2.44-1.54.36-.25.67-.55.98-.84.39-.39.75-.81,1.32-1.03.17-.07.28.07.35.34.05.26.14.72-.03,1.01-.69.91-1.41,1.84-2.44,2.47-.61.37-1.11.92-1.7,1.34-.65.46-1.35.87-2.06,1.24-.44.23-.89.42-1.34.61-.68.29-1.39.52-2.06.81-.52.23-.99.54-1.5.81-.11.05-.22.12-.34.16-.44.15-.62.05-.87-.47-.06-.12-.12-.23-.17-.35-.16-.4-.08-.81.18-1.04.78-.7,1.68-1.04,2.58-1.42.66-.28,1.34-.53,1.98-.85l.03.05Z"/><path class="cls-1" d="M276.03,330.19c-1.73-.34-3.45-.76-5.15-1.24-.62-.16-1.25-.27-1.87-.46-2.16-.67-4.29-1.44-6.38-2.25-.94-.34-1.87-.68-2.8-1.02-.59-.23-1.19-.43-1.78-.67-.29-.13-.57-.29-.84-.45-.28-.15-.55-.33-.79-.58-.3-.3-.2-.41.23-.59.45-.22,1.2-.47,1.92-.35,1.24.3,2.45.65,3.66.99,1.19.42,2.37.87,3.56,1.35,1.42.59,3,.83,4.51,1.19,1.67.4,3.34.75,5.03,1.09,1.04.21,2.08.4,3.13.54,1.59.23,3.19.44,4.78.49,1.24.02,2.46-.14,3.68-.27.27-.02.53-.08.8-.1,1-.08,1.32.19,1.55.93.05.17.12.34.16.51.11.57-.29,1.07-1.05,1.31-2.25.55-4.65.55-7.04.35-1.78-.14-3.55-.41-5.31-.7v-.07Z"/><path class="cls-1" d="M262.92,324.74c1.11.02,2.16.2,3.15.41.36.1.72.13,1.07.24,1.22.39,2.36.84,3.54,1.27.52.18,1.06.3,1.58.43.68.15,1.36.31,2.02.57.2.09.15.23-.06.38-.21.14-.59.34-1,.35-1.44.02-2.88.02-4.28-.29-.83-.25-1.72-.27-2.56-.37-.92-.11-1.8-.31-2.69-.33-.54-.02-1.08-.01-1.62.06-.81.12-1.64.3-2.38.68-.57.3-1.01.79-1.46,1.21-.1.1-.17.21-.28.3-.19.17-.34.24-.52.2-.2-.05-.4-.18-.68-.4-.12-.1-.25-.19-.37-.29-.19-.17-.32-.38-.38-.61-.06-.23-.07-.52.07-.72.37-.63.87-1.2,1.48-1.63.61-.42,1.3-.74,2.02-.98,1.07-.36,2.19-.51,3.31-.54v.07Z"/><path class="cls-1" d="M257.84,323.96c.38-.03.76,0,1.12.09.13.02.25.01.38.05.44.15.84.32,1.21.49.17.07.33.14.5.2.21.09.43.17.56.38.08.12-.47.59-.65.56-.34-.09-.66-.15-1-.29-.21-.07-.44.04-.64.08-.23.04-.45.11-.69.15-.14.03-.28.06-.42.12-.2.08-.41.17-.55.34-.1.14-.11.36-.13.53,0,.04,0,.08,0,.12-.04.11-.18.05-.69-.25l-.35-.2c-.39-.23-.66-.5-.68-.72-.02-.32.07-.6.22-.85.17-.22.41-.37.65-.5.36-.18.77-.27,1.14-.32l.02.04Z"/><path class="cls-1" d="M262.18,326.65c1.4-.29,2.77-.36,4.11-.32.49.02.97-.03,1.45.02,1.69.21,3.3.67,4.89,1.08.7.2,1.42.31,2.11.53.89.24,1.77.51,2.6.92.26.13.18.31-.11.49-.29.17-.8.4-1.33.39-.93-.07-1.88,0-2.76-.2-.89-.15-1.78-.33-2.66-.53-1.06-.26-2.2-.16-3.28-.22-1.19-.05-2.38-.01-3.54.18-.71.11-1.41.29-2.06.56-.98.41-1.93.96-2.6,1.77-.52.64-.77,1.42-.99,2.18-.04.17-.08.34-.14.5-.26.6-.55.75-1.12.77-.13,0-.27.02-.39.01-.41-.02-.69-.4-.8-1.05-.1-.96.17-1.92.65-2.81.45-.9,1.13-1.73,1.94-2.39,1.18-1.03,2.64-1.59,4.03-1.94l.02.06Z"/><path class="cls-1" d="M201.97,459.33s-1.47-4.86,2.9-5.07,9.08,3.52,11.11,4.35,15.4,6.2,14.05,9.37c-1.35,3.17-11.03,3.5-11.03,3.5,0,0-15.38-2-17.46-3.12-2.08-1.13.44-9.03.44-9.03Z"/><path class="cls-1" d="M174.59,467.23s15.48,5.24,24.26,4.49c9.9-.85,10.3-2.46,3.37-6.85-6.92-4.39-14.39-8.46-14.39-8.46,0,0-4.6-2.23-9.52-1.66s-3.74,12.49-3.74,12.49Z"/><path class="cls-1" d="M176.19,391.56c.87-.03,1.73-.06,2.6,0,.31.01.62-.03.94,0,1.1.14,2.2.26,3.26.57.47.11.95.19,1.42.25.6.11,1.19.3,1.75.6.17.09.13.21-.06.37-.19.15-.52.42-.87.51-.31.07-.62.17-.92.21-.3.02-.59.05-.89.05-.59,0-1.17.05-1.76-.11-.7-.18-1.44-.03-2.16-.01-.8.02-1.6.05-2.39.07-.49.03-.99.06-1.48.13-.74.1-1.49.2-2.2.43-.55.18-1.04.53-1.53.82-.11.06-.21.14-.32.2-.43.16-.67-.05-.98-.58-.07-.13-.15-.25-.21-.37-.21-.42-.17-.87.09-1.24.83-.93,1.98-1.27,3.12-1.56.85-.21,1.73-.31,2.6-.4v.06Z"/><path class="cls-1" d="M202.81,392.83c.83-.04,1.66-.05,2.49,0,.3,0,.6-.05.9-.02,1.07.08,2.12.21,3.17.32.46.03.93.04,1.39.1.59.05,1.18.06,1.76.29.18.07.14.32-.02.59-.16.27-.45.62-.78.71-.59.11-1.16.35-1.74.39-.58,0-1.16-.04-1.75-.12-.71-.11-1.42.08-2.14.14-.78.06-1.57.12-2.36.15-.49.03-.97.06-1.46.12-.73.09-1.47.16-2.18.36-.55.16-1.04.48-1.55.74-.11.06-.21.14-.33.18-.44.12-.65-.07-.93-.67-.06-.14-.13-.27-.19-.4-.17-.43-.12-.94.16-1.25.86-.83,1.96-1.11,3.05-1.35.82-.17,1.66-.25,2.49-.34v.07Z"/><path class="cls-1" d="M163.13,271.39s-16.78,57.6-19.18,67.96c-2.4,10.36-7.99,38.06-7.82,40.54.18,2.48,3.1,3.77,8.18,6.78,5.08,3.01,38.24,5.95,46.89,5.73,8.65-.21,37.22-.48,37.22-.48,0,0,3.97-18.22,9.13-24.55,5.16-6.33,11.42-16.94,11.42-16.94l-7.36-30.07-5.86-35.32s.62-7.73-4.09-8.64-58.97-3.64-58.97-3.64l-9.55-1.37Z"/><path class="cls-1" d="M185.02,190.96c1.06-1.08,2.15-2.14,3.3-3.13.42-.37.8-.76,1.23-1.11.78-.6,1.58-1.16,2.4-1.7l1.27-.74,1.29-.69c.77-.39,1.5-.81,2.25-1.15.94-.48,1.87-.93,2.78-1.49.28-.17.32-.08.23.24-.1.31-.31.9-.76,1.4-.39.44-.82.84-1.25,1.22-.43.38-.86.75-1.34,1-.9.53-1.81,1.06-2.73,1.6-1.12.62-2.09,1.54-3.06,2.41-1.09.94-2.13,1.95-3.13,3.01-.62.65-1.22,1.31-1.8,2.01-.88,1.04-1.75,2.11-2.54,3.22-.61.86-1.07,1.81-1.62,2.71-.13.19-.24.39-.38.58-.51.7-.84.81-1.35.68-.12-.03-.24-.04-.34-.08-.32-.12-.44-.63-.24-1.26.16-.46.32-.93.5-1.4.21-.44.45-.88.69-1.31.49-.87,1.04-1.71,1.62-2.55.91-1.21,1.91-2.36,2.94-3.49l.05.04Z"/><path class="cls-1" d="M207.15,173.46c.28-.06.55-.1.83-.13.1-.01.19-.06.29-.06.35-.02.71.07,1.04.14.15.03.29.04.44.04.18,0,.38,0,.54.13.1.07-.16.8-.32.86-.31.07-.59.13-.91.06-.19-.03-.37.05-.56.08-.21.03-.42.06-.62.12-.13.03-.26.07-.38.12-.18.08-.38.15-.52.29-.11.11-.16.29-.22.44-.01.03-.02.08-.03.1-.06.1-.16.06-.48-.21l-.22-.18c-.24-.21-.39-.43-.37-.58.06-.44.36-.71.7-.91.25-.15.52-.24.79-.33l.02.03Z"/><path class="cls-1" d="M210.83,177.39c-1.24-.05-2.49.29-3.74.89-.45.24-.86.52-1.31.79-1.59.9-3.23,1.98-4.89,3.01-.75.45-1.5.92-2.32,1.25-1.03.45-2.15.8-3.28.74-.35,0-.3-.11-.04-.29.27-.18.73-.47,1.25-.75.95-.45,1.77-1.09,2.61-1.71.87-.62,1.75-1.24,2.64-1.88,1.11-.74,2.11-1.78,3.36-2.51,1.36-.82,2.88-1.48,4.55-1.71,1.03-.12,2.01-.06,2.97.05,1.46.17,2.86.53,4.24.9,1.08.29,2.15.52,3.22.92.23.09.47.17.7.27.87.4.96.87.82,1.4-.04.13-.06.26-.11.37-.17.37-.66.47-1.28.38-1.7-.5-3.51-1.03-5.34-1.49-1.36-.33-2.75-.58-4.06-.58v-.06Z"/><path class="cls-1" d="M170.75,69.3c.28-2.44,8.28-17.25,17.82-18.67,9.54-1.41,19.73,4.11,29.61,17.1,4.98,6.56,9.33,14,12.55,20.48.28.57-.13,1.25-.77,1.25-11.75,0-28.25,5.93-34.8,12.14.44-4.55.81-10.19.41-14.42-.73-7.68-5-19.62-5-19.62,0,0-3.97-5.68-8.72-2.44s-8.62,6.37-9.76,6.24c-1.13-.12-1.34-2.06-1.34-2.06Z"/><path class="cls-1" d="M263.6,126.56c-4.22,3.11-9.83,4.96-9.83,4.96,0,0-5.74-4.7-4.04-7.31l.74,1.38s4.71-1.94,8.37-1.28c1.98.36,4.17.71,4.76,2.25Z"/><path class="cls-1" d="M265.12,105.82c-8.19-6.97-28.48-2.06-28.48-2.06-.1-.43-.23-1.93-.4-2.49-.44-1.48-1.86-2.46-3.41-2.32-3.54.31-7.91.92-12.66,2.07-9.7,2.36-30.15,14.22-30.27,12.7-1.14,1.05-2.05,2.8-2.05,2.8l-23.53,11.75s-8.55,7.12-6.86,12.37c1.68,5.25,17.33,7.24,23.47,6.45,6.13-.79,16.14-3.84,17.93-4.18s28.86-13.46,37.59-17.86c5.29-2.67,11.14-3.56,13.92-3.36,1.66-1.98,6.37-5.19,11.77-1.56,2.21,1.48,1.92,3.22,2.36,4.08,0,0,12.14-8.59.62-18.39Z"/><path class="cls-1" d="M191.51,70.03c-.05-.84-.11-1.7-.28-2.45-.06-.28-.21-.53-.29-.81-.29-.97-.7-1.96-1.38-2.73-.29-.35-.69-.57-1.06-.8l-.38-.17c-.14-.03-.25-.1-.38-.19-.25-.15-.52-.32-.82-.45-.19-.1-.17-.19,0-.38.17-.18.55-.55,1.05-.67.21-.03.44-.09.65-.05.21.04.4.11.6.17.4.13.76.33,1.08.58.65.49,1.16,1.1,1.52,1.77.42.8.99,1.53,1.29,2.39.35.94.5,1.91.61,2.82.06.56.11,1.12.17,1.68.06.84.07,1.68.22,2.47.12.62.37,1.18.55,1.75.04.13.1.24.14.37.13.47.08.65-.27.92-.08.06-.15.13-.24.18-.27.17-.61.08-.9-.26-.4-.5-.77-1.06-1.02-1.66-.24-.6-.41-1.22-.55-1.83-.1-.45-.18-.9-.26-1.34-.06-.44-.08-.88-.13-1.31h.06Z"/><path class="cls-1" d="M252.78,119.59c.47-.21.96-.41,1.48-.53.52-.14,1.07-.19,1.53-.22.35-.01.7-.09,1.04-.07,1.23.11,2.41.38,3.55.8.51.18,1.02.36,1.53.61.61.35,1.27.9,1.43,1.7.05.25-.24.29-.6.3-.35,0-.79.05-1.02-.03-.21-.09-.43-.15-.67-.21-.22-.07-.45-.2-.7-.28-.49-.19-1.03-.37-1.6-.56-.69-.24-1.45-.12-2.17-.12-.83,0-1.53.06-2.25.34-.44.17-.88.39-1.3.67-.63.42-1.24.91-1.73,1.51-.39.46-.65,1-.93,1.53-.06.11-.11.24-.17.35-.23.42-.55.41-.99.27-.11-.03-.21-.06-.31-.1-.31-.12-.49-.47-.48-.94.29-1.21.92-2.38,1.89-3.29.7-.69,1.52-1.29,2.43-1.78l.03.05Z"/><path class="cls-1" d="M187.84,146.2l-13.06,1.68-11.88,8.06s-3.68,6.53-4.84,9.41.12,17.13,11.9,20.03c11.79,2.9,20.69,1.6,23.08-.43s13.17-11.07,13.17-11.07l2.26-3-7.48-9.55-2.3-5.02s-1.86,3.17-4.8.05c-2.94-3.12-6.06-10.14-6.06-10.14Z"/><path class="cls-1" d="M246.4,172s3.97-6.16,4.99-9.24c1.02-3.08,2.57-14.89,2.57-14.89l1.68-7.23s5.7,9.63,8.35,12.93,7.03,10.06,6.3,13.06c-.72,3-5.1,9.42-5.1,9.42l-11.23.86-7.57-4.9Z"/><path class="cls-1" d="M198.86,142.91c2.95.19,4.46,2.39,7.98,0s6.75-5.63,6.75-5.63l-14.74,5.63Z"/><path class="cls-1" d="M226.41,131.52c.16.8,3.12,1.72,7.5.44s12.79-5.27,12.79-5.27l3.14-5.76s-14.9,4.31-18.02,5.83c-3.12,1.53-6.59,4.76-6.59,4.76"/><path class="cls-1" d="M207.81,456.31c-.51-.02-1.02-.05-1.52-.05-.18,0-.35.1-.53.09-.65-.02-1.34-.17-1.99-.15-.29,0-.56.1-.83.17-.18.03-.34.12-.52.12-.19-.01-.39-.04-.61-.14-.14-.06-.25-.43-.3-.88-.05-.44-.05-1.04.12-1.28.3-.36.66-.58,1.05-.64.39-.09.79-.11,1.21-.04.5.08.93-.2,1.41-.23.53-.05,1.05-.06,1.58-.07.32-.01.65-.01.97-.04.48-.04.98-.02,1.44-.15.36-.07.67-.44,1.03-.53.08-.03.15-.08.23-.09.15,0,.26.04.36.21.1.23.18.47.26.78l.1.39c.05.21.05.4.03.65-.02.24-.05.59-.15.69-.51.93-1.16,1.03-1.82,1.15-.49.08-1,.08-1.5.12l-.02-.08Z"/><path class="cls-1" d="M217.95,461.72l-3.84-1.7-1.98-.87-.26-.12-.13-.06-.22-.11c-.3-.14-.57-.3-.83-.49-.26-.18-.43-.46-.62-.71-.16-.28-.29-.57-.44-.85-.07-.15-.11-.29-.15-.43l-.09-.32c-.07-.22-.1-.4-.14-.6-.09-.39-.16-.77-.21-1.13-.13-.75-.21-1.47-.3-2.19-.17-1.44-.27-2.87-.38-4.29-.14-2.08-.33-4.14-.39-6.21-.2-7.29-.06-14.57.21-21.83.12-3.23.24-6.47.36-9.67.17-4.11.28-8.28,1.46-12.29.51-1.23.69-1.02,1.19.13.26.58.5,1.37.75,2.32.21.95.36,2.04.34,3.21-.39,8.29-.79,16.58-1.18,24.95-.25,5.02.03,10.25.27,15.36.13,2.81.31,5.62.63,8.37.09.69.18,1.36.3,2.02.07.31.13.65.21.94.09.35.1.38.17.55.07.14.21.21.34.28l.86.39,1.95.82c3.23,1.34,6.48,2.72,9.65,4.36,1.2.63,2.38,1.3,3.53,2.08.58.39,1.14.82,1.69,1.3.27.25.54.5.8.79.13.14.26.29.37.46.13.18.28.37.38.59.46.83.6,1.82.29,2.71-.28.89-1.05,1.6-1.81,2.02-1.43.77-2.83.99-4.2,1.17-4.26.45-8.35.28-12.44-.3-.9-.13-1.78-.25-2.69-.44-1.67-.33-2.73-.79-3.44-1.18-.35-.2-.62-.4-.82-.62-.19-.24-.32-.5-.43-.74-.1-.22-.25-.44-.29-.6-.16-.44,1.36-.81,3.69-.48,3.49.44,7.09.76,10.68.87,1.78.07,3.58.08,5.25-.1.83-.09,1.63-.23,2.27-.44.17-.05.31-.1.43-.16.14-.04.24-.13.29-.14.03,0,0,0,.01,0h0c.1.14-.25-.38-.65-.71-.82-.74-1.93-1.48-3.06-2.15-2.31-1.35-4.84-2.54-7.4-3.66l.03-.08Z"/><path class="cls-1" d="M200.43,419.36c.22,3.77.5,7.54.79,11.32.11,1.38.31,2.75.41,4.13.34,4.87.59,9.75.83,14.63.07,2.17.34,4.33.42,6.48.13,2.76.52,5.52-.14,8.31-.17.87-.35.76-.8.05-.27-.43-.59-.93-.93-1.46-.19-.3-.32-.63-.46-.99-.07-.18-.12-.36-.2-.54-.03-.19-.07-.38-.09-.58-.29-2.79-.7-5.56-.8-8.37-.14-2.8-.26-5.61-.31-8.44-.07-3.39-.59-6.88-.92-10.33l-1.01-11.41c-.19-2.35-.38-4.7-.56-7.04-.24-3.56-.48-7.14-.72-10.67-.21-2.75-.62-5.43-.86-8.15-.05-.6-.12-1.18-.14-1.79-.07-2.24.16-2.96,1.12-3.46.21-.11.42-.26.63-.33.69-.22,1.38.68,1.65,2.3.91,4.8,1.1,9.85,1.43,14.94.22,3.78.45,7.58.74,11.37h-.09Z"/><path class="cls-1" d="M180.92,455.04c-.51-.04-1.02-.08-1.52-.09-.18,0-.35.1-.53.09-.66-.05-1.35-.23-2-.23-.3-.02-.56.09-.83.16-.18.03-.33.12-.52.11-.19-.02-.39-.06-.62-.18-.14-.08-.27-.49-.34-1-.07-.5-.09-1.17.07-1.43.29-.39.65-.63,1.05-.69.39-.08.8-.1,1.22-.01.51.11.94-.2,1.42-.22.53-.04,1.06-.04,1.59-.04.33,0,.65,0,.97-.02.49-.03.98,0,1.44-.14.18-.05.35-.16.52-.28.17-.13.33-.26.51-.3.08-.03.15-.09.23-.09.15,0,.26.05.36.25.11.26.19.54.28.89l.11.45c.05.24.06.45.04.73-.01.27-.04.67-.13.78-.49,1.04-1.14,1.14-1.8,1.26-.49.08-1,.07-1.49.1l-.02-.09Z"/><path class="cls-1" d="M194.32,462.36c-2.43-1.49-4.91-2.9-7.45-4.31l-.97-.55-.56-.33c-.27-.17-.56-.35-.78-.57-.43-.47-.72-1.09-.93-1.66-.15-.49-.23-.87-.3-1.26-.3-1.56-.43-3.02-.56-4.5-.18-2.14-.38-4.26-.46-6.38-.23-7.48-.12-14.92.04-22.37.05-3.3.1-6.62.16-9.9.04-4.21,0-8.46.95-12.62.44-1.29.63-1.09,1.2.05.29.57.58,1.38.88,2.34.26.96.45,2.08.49,3.28-.04,8.53-.29,17.06-.65,25.68-.2,5.15.08,10.52.36,15.75.17,2.85.33,5.81.86,8.42l.11.43c.02.12.05.15.07.23.04.14.16.24.29.31l.85.49.94.53,3.83,2.12c3.14,1.76,6.26,3.59,9.26,5.68,1.11.79,2.21,1.62,3.24,2.58.52.47,1.02,1.01,1.49,1.59.57.71.99,1.63,1.07,2.54-.02.47-.08.96-.3,1.39-.11.21-.27.4-.41.59-.18.16-.34.34-.54.47-.77.55-1.89.81-2.56.89-1.52.21-2.95.13-4.37.03-4.29-.36-8.4-1.02-12.47-2.02-.9-.21-1.78-.41-2.67-.67-1.66-.46-2.7-.97-3.4-1.38-.35-.21-.61-.42-.81-.65-.19-.25-.32-.51-.43-.75-.1-.22-.25-.44-.3-.6-.18-.45,1.41-.82,3.82-.33,1.82.3,3.62.71,5.45,1.03,1.82.32,3.67.65,5.52.98,1.84.32,3.69.62,5.49.77.9.08,1.79.13,2.61.1.41-.01.81-.04,1.15-.09.08-.01.19-.02.25-.04l.11-.03s0,0,0,0h0s0,0,0,0c0,0,0-.01.01,0-.25-.33-.57-.71-.96-1.08-.76-.74-1.67-1.47-2.61-2.18-1.9-1.41-3.96-2.71-6.06-3.96l.04-.08Z"/><path class="cls-1" d="M173.98,421.44l.96,12.76c.13,1.55.34,3.1.45,4.65.37,5.49.68,10.98.89,16.49l.18,3.66c.07,1.22.16,2.44.19,3.65.05,1.56.1,3.12.15,4.68.05,1.56-.2,3.13-.51,4.68-.2.97-.38.84-.8.02-.25-.49-.55-1.06-.88-1.68-.18-.35-.3-.73-.43-1.13-.07-.2-.11-.41-.18-.62-.03-.21-.05-.43-.07-.65l-.38-4.71-.19-2.35-.1-2.36c-.12-3.15-.22-6.31-.3-9.5-.07-3.81-.63-7.75-.99-11.63l-1.16-12.84c-.23-2.64-.46-5.28-.69-7.92-.32-4-.64-8.02-.96-12-.25-3.09-.73-6.11-.99-9.18-.06-.67-.14-1.33-.16-2.02-.08-2.53.14-3.34,1.1-3.9.21-.13.42-.29.63-.37.68-.25,1.39.76,1.67,2.58.95,5.4,1.22,11.08,1.68,16.81.31,4.26.61,8.54.97,12.82h-.09Z"/><path class="cls-1" d="M148.28,389.69c-2.31-.47-4.62-1.02-6.94-1.78-1.16-.4-2.33-.83-3.51-1.46-.59-.3-1.19-.69-1.8-1.18-.15-.11-.31-.28-.45-.42-.15-.15-.3-.29-.44-.5-.31-.38-.56-.87-.74-1.37-.31-1.26-.25-2.09-.25-2.93.04-.82.09-1.63.18-2.4.16-1.57.39-3.1.64-4.62.5-3.04,1.07-6.04,1.69-9.03.79-3.84,1.52-7.68,2.41-11.49,3.14-13.42,6.67-26.72,10.36-39.97,1.65-5.88,3.23-11.81,4.9-17.63,2.2-7.46,4.14-15.08,7.64-22.12,1.21-2.15,1.08-1.84.91.27-.11,1.05-.04,2.61-.36,4.35-.26,1.76-.63,3.8-1.18,5.96-4.33,15.23-8.66,30.44-13.04,45.8-2.59,9.2-4.73,18.92-6.83,28.45-.9,4.13-1.77,8.26-2.52,12.4-.37,2.07-.74,4.14-1,6.21-.15,1.03-.26,2.06-.35,3.07-.02.49-.09,1.02-.07,1.48v.69c.04.16.06.33.07.49.06.11.09.22.19.33.08.13.25.27.39.41.34.28.73.56,1.19.8.9.49,1.92.9,2.95,1.26,6.1,2.02,12.72,2.94,19.24,3.77,9.92,1.19,19.97,1.93,29.9,2.31,7.72.28,15.31.2,22.93.01,1.68-.06,3.32-.12,5.01-.18,6.27-.19,8.17-.18,9.6.69.33.18.75.31.98.46.41.25-.05.72-1.21,1.21-1.15.51-2.97.79-5.3,1.01-6.9.57-13.96.65-21.12.57-7.16-.1-14.41-.41-21.67-.9-10.79-.76-21.6-1.8-32.4-3.92v-.08Z"/><path class="cls-1" d="M246.57,349.81c.09-.08.08-.76-.01-1.49-.08-.7-.19-1.45-.32-2.2-.25-1.5-.57-3.03-.88-4.55-.65-3.05-1.34-6.11-2.05-9.17-.51-2.23-1.13-4.44-1.63-6.68-1.75-7.9-3.43-15.83-4.76-23.83-.59-3.55-1.2-7.12-1.68-10.68-.17-1.14-.29-2.29-.44-3.44-.08-1.16-.16-2.31-.16-3.47v-1.74s.13-1.75.13-1.75c.11-1.16.25-2.32.64-3.45.45-1.4.28-1.21.49.01.24,1.23,1.06,3.42,1.48,5.96.15,1.13.33,2.26.54,3.39.19,1.13.28,2.27.44,3.4.31,2.27.63,4.55,1.01,6.83.78,4.57,1.56,9.16,2.35,13.76.94,5.53,2.46,11.18,3.78,16.77,1.42,6.17,2.96,12.28,4.11,18.62.15,1,.32,1.96.36,3.08v.42s-.03.52-.03.52c0,.35-.17.65-.29.97-.06.15-.13.32-.2.46l-.21.34-.41.68c-1.12,1.69-2.29,3.23-3.42,4.81-3.44,4.76-6.74,9.63-9.29,14.83-1.99,4.03-3.52,8.18-4.59,12.45-.29.92-.4,1.88-.64,2.82-.46,1.75-.69,2.91-1,3.7-.3.8-.69,1.22-1.21,1.54-.23.15-.47.35-.67.43-.67.27-1.09-1.33-.79-4.12.56-4.1,1.66-8.25,3.21-12.28,1.58-4.01,3.55-7.92,5.77-11.66,1.63-2.79,3.46-5.46,5.3-8.08l2.79-3.87c.47-.64.91-1.27,1.33-1.89.23-.32.4-.61.57-.89l.25-.42c.01-.06.04-.12.07-.17l.08.02Z"/><path class="cls-1" d="M323.32,188.48c0-.19-.07-.35-.1-.52-.03-.18-.1-.33-.17-.48l-.06-.21c-.02-.05-.04-.11-.08-.16-.04-.06-.08-.12-.14-.17-.12-.09-.22.05-.29.1-.08.05-.15.13-.23.23-.02.03-.04.04-.06.09l-.12.27-.25.56c-.31.77-.67,1.56-1.08,2.34-.35.7-.68,1.42-1.11,2.11-.3.43-.62.87-1.04,1.23-.4.38-.98.6-1.54.63-.35.02-.34-.2-.24-.59.05-.18.11-.43.15-.69.03-.12.03-.27.06-.38.03-.1.07-.2.13-.29.19-.3.35-.63.5-1l.48-1.13c.33-.79.58-1.67,1.06-2.53.14-.26.26-.53.37-.82.12-.3.18-.52.4-1.06.35-.94.86-1.8,1.63-2.16.37-.18.82-.23,1.21-.13.4.08.75.34,1.1.56.47.37.82.85,1.2,1.28.19.23.28.49.39.68.11.2.21.41.26.62.36.92.38,1.87.38,2.77-.05,1.37-.42,2.64-.82,3.87-.31.96-.59,1.93-1.06,2.88-.11.21-.18.43-.33.62-.24.38-.52.53-.78.58-.13.02-.25,0-.39-.03-.15-.06-.3-.14-.44-.24-.14-.09-.27-.16-.37-.25-.3-.25-.55-.96-.4-1.41.45-1.39,1.1-2.72,1.48-4.15.29-1.04.43-2.11.25-3.01l.07-.02Z"/><path class="cls-1" d="M299.45,278.98c.96-3.67,1.97-7.33,2.98-10.98.37-1.34.64-2.69,1.01-4.02,1.31-4.7,2.67-9.38,3.93-14.09.55-2.09,1.04-4.21,1.49-6.3.61-2.69.93-5.45,2.16-8,.4-.79.79-.58,1.24.26.48.85,1.03,2.35.77,3.93-.56,2.77-1.17,5.52-1.85,8.26-.72,2.73-1.51,5.45-2.39,8.16-1.05,3.24-1.74,6.71-2.62,10.07-.97,3.69-1.96,7.39-2.99,11.07-.61,2.27-1.23,4.54-1.84,6.81-.9,3.44-1.84,6.89-2.62,10.34-.6,2.68-1.02,5.35-1.5,8.02-.11.59-.18,1.17-.31,1.76-.21,1.1-.49,1.79-.75,2.26-.25.47-.59.7-.99.86-.18.07-.35.18-.5.21-.44.12-.88-.91-.74-2.56.48-4.88,1.61-9.88,2.74-14.9.85-3.73,1.79-7.45,2.71-11.16h.08Z"/><path class="cls-1" d="M301.57,278.49c.9-3.7,1.85-7.38,2.79-11.06.34-1.35.59-2.71.94-4.05l1.87-7.09,1.92-7.08c.56-2.1,1-4.23,1.48-6.33.29-1.35.59-2.7.88-4.05.17-.67.3-1.35.52-2.01.23-.66.48-1.31.73-1.96.33-.81.62-.63.92.18.15.41.31.97.45,1.64.06.33.15.7.16,1.07,0,.37-.03.76-.09,1.15-.88,5.59-2.09,11.11-3.65,16.59-.96,3.27-1.62,6.76-2.43,10.14l-2.77,11.15c-.57,2.29-1.13,4.58-1.7,6.86-.83,3.47-1.69,6.95-2.39,10.42-.55,2.7-.9,5.38-1.34,8.06-.1.59-.16,1.18-.27,1.77-.44,2.19-.87,2.83-1.66,3.16-.18.07-.37.18-.54.22-.56.11-.86-.89-.79-2.55.37-4.9,1.35-9.94,2.38-15,.78-3.75,1.65-7.5,2.5-11.24h.08Z"/><path class="cls-1" d="M317.77,210.64c.25-.89.5-1.81.71-2.74.08-.34.08-.69.17-1.03.36-1.21.71-2.42,1.07-3.63.16-.54.2-1.1.32-1.64.17-.69.13-1.45.77-2.03.28-.16.52-.06.98.24.24.15.48.34.71.55.21.2.33.41.34.6.12,1.39-.15,2.71-.67,4.07-.32.81-.24,1.71-.37,2.58-.14.95-.37,1.91-.57,2.87l-.41,1.78c-.23.91-.45,1.82-.68,2.72-.15.71-.13,1.49-.33,2.25-.04.17-.05.35-.11.51-.07.15-.14.27-.22.36-.1.08-.24.11-.37.12-.27.02-.55-.06-.91-.2-.16-.07-.32-.12-.46-.19-.24-.12-.43-.29-.61-.51-.17-.21-.38-.49-.46-.72-.04-.59-.05-1.13.02-1.68.09-.53.21-1.09.35-1.66.2-.84.44-1.73.63-2.63h.08Z"/><path class="cls-1" d="M319.52,209.95c.21-.58.41-1.17.6-1.77.07-.22.05-.45.13-.67.25-.77.61-1.53.92-2.29.13-.34.2-.69.26-1.04.12-.44.13-.92.57-1.28.13-.11.47,0,.85.22.38.22.86.56.87.81.02.23.04.45.04.68,0,.22-.05.44-.09.65-.09.43-.22.85-.42,1.27-.23.51-.22,1.08-.33,1.62-.13.6-.29,1.2-.44,1.81-.09.38-.19.75-.28,1.12-.12.57-.3,1.14-.36,1.72-.06.45.06.93.06,1.4,0,.1.01.21-.02.31-.09.37-.39.42-1.06.32-.16-.02-.31-.04-.47-.07-.51-.1-.92-.36-1.11-.66-.11-.22-.21-.43-.28-.65-.05-.21-.07-.4-.08-.6-.04-.4.02-.79.11-1.18.12-.58.31-1.16.46-1.75h.07Z"/><path class="cls-1" d="M326.05,176.28l1.96-6.48c.23-.79.37-1.6.61-2.39.86-2.77,1.71-5.55,2.6-8.32.38-1.23.67-2.49.98-3.73.41-1.59.59-3.23,1.56-4.7.33-.45.52-.34.86.18.38.53.92,1.46.83,2.41-.43,3.34-1.1,6.63-2.27,9.84-.71,1.91-1.04,4-1.56,6l-1.79,6.59-1.13,4.05c-.55,2.05-1.15,4.09-1.6,6.15-.36,1.6-.46,3.22-.76,4.82-.07.35-.11.7-.2,1.05-.15.65-.39,1.04-.63,1.3-.3.24-.58.35-.92.41-.15.03-.3.08-.43.08-.22,0-.38-.14-.56-.43-.17-.29-.4-.74-.41-1.25-.09-1.51,0-3.02.26-4.5.24-1.49.55-2.98.88-4.47.49-2.21,1.08-4.42,1.63-6.62l.09.02Z"/><path class="cls-1" d="M328.07,176.2l1.69-6.02c.2-.73.33-1.48.54-2.21.73-2.58,1.46-5.16,2.23-7.73.33-1.14.6-2.31.86-3.46.34-1.48.68-2.96,1.36-4.36.2-.44.34-.34.5.1.08.22.18.54.28.91.11.38.17.8.12,1.24-.1,1.56-.4,3.08-.72,4.59-.33,1.51-.67,3.03-1.15,4.52-.58,1.78-.9,3.7-1.35,5.55l-1.54,6.1-.95,3.76c-.46,1.9-.96,3.8-1.35,5.7-.31,1.48-.45,2.96-.67,4.44-.05.33-.07.65-.13.98-.18,1.22-.63,1.52-1.33,1.63-.15.03-.28.08-.38.09-.18.02-.3-.11-.53-.39-.24-.28-.35-.67-.37-1.13.12-2.7.63-5.47,1.29-8.22.48-2.04,1.04-4.07,1.55-6.11h.06Z"/><path class="cls-1" d="M161.4,231.49c1.69-3.95,3.5-7.84,5.43-11.67.69-1.4,1.3-2.85,2.05-4.22,2.59-4.87,5.41-9.61,8.43-14.21,1.29-2.07,2.63-4.12,3.88-6.19,1.7-2.6,3.27-5.32,5.68-7.41.74-.66.92-.36.91.63,0,.49-.03,1.19-.15,1.95-.07.38-.13.8-.26,1.19-.15.39-.33.77-.56,1.15-1.52,2.74-3.23,5.34-4.91,7.98-1.67,2.64-3.35,5.29-5.08,7.93-2.1,3.15-3.75,6.72-5.51,10.15-1.89,3.8-3.76,7.62-5.45,11.52-1.08,2.39-2.08,4.81-3.06,7.24-.7,1.86-1.41,3.72-2.11,5.57-.65,1.88-1.32,3.74-1.88,5.63-.44,1.47-.82,2.94-1.19,4.41-.35,1.47-.64,2.96-1.05,4.41-.16.65-.32,1.28-.49,1.93-.67,2.4-1.1,3.11-1.95,3.45-.19.08-.4.19-.57.22-.6.1-.81-1.01-.59-2.86.5-5.52,2.11-11.1,3.89-16.64,1.31-4.12,2.88-8.17,4.46-12.2l.09.03Z"/><path class="cls-1" d="M201.24,146.39c-2.62-.18-4.69-.65-6.56-.28-.69.13-1.29.42-1.98.72-.6.25-1.12.54-1.44.81-.32.29-.44.44-.52.85-.07.41.02,1.02.21,1.64.17.64.43,1.24.72,1.81.57.98,1.37,1.8,2.34,2.31.62.33,1.29.6,2,.79.72.21,1.45.22,2.29.77.53.31.48.3.06.76-.21.23-.53.68-.96,1.02-.43.31-.98.49-1.57.49-1.04-.01-2.15-.16-3.2-.58-1.03-.46-1.99-1.12-2.78-1.93-.74-.86-1.3-1.82-1.7-2.8-.2-.49-.36-.98-.48-1.48-.13-.48-.23-1.04-.28-1.61-.05-.69-.05-1.49.19-2.32.23-.83.75-1.59,1.29-2.11.55-.53,1.12-.89,1.67-1.2.55-.29,1.07-.53,1.67-.73,1.28-.45,2.66-.64,3.95-.62,1.3.01,2.51.2,3.65.34,1.4.17,2.7.22,3.96-.04,1.84-.41,3.76-1.53,5.39-2.8,1.26-1.01,2.29-2.26,3.11-3.53.19-.28.31-.58.49-.85.61-1.03.82-1.24,1.81-1.17.21.01.42,0,.62.02.33.04.56.23.73.6.19.38.13.87-.05,1.44-.61,1.65-1.64,3.08-2.82,4.31-1.18,1.24-2.54,2.28-3.99,3.2-.55.34-1.1.66-1.69.95-.28.15-.61.29-.95.43-.33.14-.67.27-1.02.37-1.39.43-2.85.56-4.17.52v-.08Z"/><path class="cls-1" d="M270.8,100.23c1.67,1.24,3.22,2.67,4.53,4.37,1.31,1.68,2.35,3.67,2.85,5.84.39,1.57.52,3.25.22,4.84-.09.71-.33,1.37-.54,2.04-.23.65-.53,1.25-.8,1.86-.29.61-.67,1.17-1,1.75-.36.56-.79,1.08-1.18,1.62-1.69,2.07-3.82,3.65-6.05,4.89-1.98,1.11-4.04,2.02-6.1,2.78-2.68.91-5.39,1.71-8.19,1.87-.87.06-.85-.38-.26-1.06.29-.34.73-.74,1.27-1.15.53-.43,1.18-.81,1.92-1.06,1.31-.44,2.58-.93,3.84-1.44,1.25-.5,2.51-.95,3.7-1.52,2.38-1.12,4.64-2.42,6.48-4.2,2.2-2.08,3.61-5.33,3.59-8.2.07-3.24-1.86-6.4-4.51-8.77-1.63-1.48-3.52-2.72-5.56-3.66-3.07-1.45-6.46-2.36-9.89-2.59-2.66-.17-5.28.16-7.85.66-.57.1-1.11.25-1.68.37-2.11.43-2.81.39-3.52-.45-.16-.18-.35-.33-.46-.5-.36-.5.33-1.53,1.96-2.08,4.8-1.7,10.39-2.11,15.85-1.12,4.07.72,8.01,2.41,11.44,4.83l-.05.08Z"/><path class="cls-1" d="M193.09,96.23c.17-1.41.31-2.83.41-4.26.1-1.42.19-2.85.21-4.28,0-1.04-.09-2.08-.13-3.12-.04-1.84-.17-3.67-.4-5.49-.21-1.83-.53-3.63-.99-5.41-.43-1.57-1.06-3.08-1.8-4.49-.48-.91-1.01-1.78-1.61-2.61-.27-.44-.62-.8-.92-1.22-.3-.41-.6-.84-.93-1.26-.39-.54-.25-.61.39-.49.32.06.78.16,1.34.32.5.22,1.03.56,1.52,1.02,1.67,1.67,3.02,3.65,3.88,5.8.9,2.13,1.51,4.35,1.86,6.6.36,2.7.88,5.46,1.03,8.21.15,3.02.09,6.04-.2,9.04-.18,1.84-.41,3.68-.71,5.51-.43,2.77-1.11,5.51-1.85,8.2-.6,2.09-1.11,4.19-2.12,6.23-.25.44-.42.9-.73,1.33-1.12,1.6-1.99,1.84-2.75,1.44-.18-.09-.37-.17-.51-.3-.23-.21-.27-.53-.21-.88.03-.18.09-.35.18-.54.08-.22.18-.44.31-.66.76-1.4,1.37-3.08,1.9-4.81.54-1.74.99-3.57,1.38-5.43.55-2.77,1.07-5.59,1.35-8.44h.09Z"/><path class="cls-1" d="M175.84,188.96c-1.31-.23-2.63-.44-3.9-.84-.64-.19-1.29-.32-1.91-.56l-1.85-.7c-2.48-.95-4.91-2.37-6.91-4.26-1.47-1.37-2.82-2.93-3.75-4.76-1.64-3.22-2.09-6.97-1.49-10.39.1-.87.36-1.69.56-2.53.28-.8.49-1.62.83-2.39.59-1.59,1.41-3.08,2.3-4.52,1.66-2.5,3.67-4.8,5.98-6.64,1.49-1.18,3.04-2.27,4.71-3.12,1.69-.81,3.44-1.47,5.24-1.9,1.2-.09,1.13.19.53,1.2-.62.98-1.83,2.46-3.44,3.64-.7.54-1.42,1.02-2.15,1.48-.7.49-1.41.97-2.06,1.51-1.3,1.07-2.6,2.11-3.7,3.35-2.23,2.43-3.91,5.38-4.99,8.67-1.31,3.85-.61,8.28,1.77,11.56,1.28,1.83,3,3.39,5.01,4.55l.75.44.79.38c.51.27,1.09.46,1.64.68.56.21,1.11.44,1.68.63l1.73.48c2.86.71,5.83,1.06,8.78.87,4.48-.27,8.93-1.59,12.85-3.77,3.04-1.73,5.61-4.05,7.89-6.6.51-.55.97-1.13,1.46-1.71.46-.53.86-.96,1.21-1.3.33-.36.61-.65.88-.86.53-.42.99-.56,1.54-.56.25,0,.53-.04.74,0,.72.14.49,1.45-.63,3.42-1.72,2.87-4.13,5.41-6.87,7.63-2.75,2.2-5.9,4.04-9.3,5.28-2.53.89-5.15,1.61-7.85,1.85-1.34.2-2.7.18-4.05.21-.68.02-1.35-.07-2.02-.11-.67-.06-1.35-.06-2.01-.2v-.09Z"/><path class="cls-1" d="M266.85,171.58c1.77-1.98,1.8-5.48.9-8.61-.33-1.16-.87-2.26-1.41-3.34-.92-1.87-2.33-3.68-3.74-5.51-1.43-1.83-2.93-3.67-4.24-5.71-1.19-1.81-2.09-3.77-2.89-5.7-1.05-2.48-1.78-5.07-2.06-7.74-.04-.85-.04-.73.41-.14.51.57,1.41,1.63,2.13,2.96.3.6.66,1.17.93,1.77.27.6.56,1.18.85,1.76.58,1.16,1.21,2.28,1.88,3.35.69,1.05,1.32,2.11,2.06,3.17.73,1.06,1.53,2.12,2.33,3.2.96,1.3,2.06,2.58,3.12,3.93.53.67,1.07,1.38,1.55,2.16.49.76.91,1.55,1.28,2.36.81,1.79,1.37,3.68,1.65,5.65.25,1.97.19,4.05-.47,6.06-.8,2.49-2.66,4.57-4.87,5.77-3.38,1.84-7.21,2.05-10.75,1.55-2.76-.43-5.52-1.19-7.94-2.9-.52-.39-1.03-.78-1.48-1.27-.42-.46-.73-.87-.92-1.27-.21-.38-.33-.71-.38-1.01-.13-.58.02-1.01.31-1.41.13-.18.25-.39.4-.51.53-.43,1.32.15,2.38.96.79.61,1.59,1.16,2.49,1.59.86.47,1.79.85,2.76,1.15.97.3,1.98.51,2.99.65,1.01.16,2.05.24,3.07.21,3.05-.06,5.95-1.12,7.59-3.16l.08.05Z"/><path class="cls-1" d="M239.02,198.54c.42,1.4.8,2.82,1.31,4.2.18.5.44.97.63,1.48.64,1.79,1.37,3.54,2.1,5.33.33.79.76,1.52,1.18,2.26.61.9,1.05,1.9,1.39,2.98.1.34-.09.41-.49.32-.39-.09-1.07-.29-1.58-.72-.47-.37-.81-.82-1.14-1.28-.34-.45-.66-.92-.98-1.39-.61-.95-1.2-1.93-1.61-3.01-.47-1.3-1.24-2.5-1.81-3.78-.61-1.41-1.18-2.85-1.67-4.3-.31-.89-.57-1.81-.86-2.7-.42-1.37-.77-2.76-1.21-4.1-.33-1.05-.89-2.01-1.22-3.05-.07-.23-.17-.45-.23-.68-.11-.43-.08-.75.04-.99.17-.25.38-.42.68-.59.13-.08.26-.16.38-.22.21-.09.42-.07.69.03.26.1.62.27.8.56,1.23,1.65,1.76,3.53,2.36,5.42.43,1.4.84,2.82,1.31,4.21l-.07.03Z"/><path class="cls-1" d="M216.45,254.55c4.19,2.36,8.73,4.1,13.47,5.15,1.74.36,3.49.59,5.24.79,3.08.38,6.19.46,9.3.2,3.11-.26,6.2-.88,9.26-1.75,2.71-.77,5.39-1.78,8.03-2.82,3.4-1.28,6.76-2.84,10.5-3.26,1.17-.11,1.06.05.32.83-.74.81-2.07,2.3-3.95,3.23-1.71.73-3.4,1.5-5.14,2.21-1.75.67-3.51,1.32-5.31,1.93-3.6,1.21-7.36,2.23-11.25,2.66-4.64.52-9.54.72-14.24-.02-5.13-.83-10.17-2.32-14.86-4.55-1.46-.64-2.84-1.46-4.24-2.22-1.34-.85-2.72-1.65-4-2.59-3.95-2.75-7.49-6.01-10.88-9.28-2.63-2.56-5.24-5.02-7.77-7.61-.56-.57-1.12-1.11-1.65-1.7-1.98-2.21-2.41-3.08-2.21-4.11.05-.24.06-.5.15-.69.29-.64,1.5-.1,3.12,1.36,4.81,4.31,9.33,9.28,14.3,13.64,3.67,3.26,7.57,6.23,11.84,8.53l-.04.08Z"/><path class="cls-1" d="M330.64,217.18c.26.97.36,2.01.13,3.05-.08.37-.09.77-.27,1.13-.59,1.24-1.46,2.02-2.38,2.7-.41.29-.81.58-1.23.83-.28.15-.53.35-.85.42-.16.02-.33.03-.49.02-.08,0-.17,0-.25-.02-.09-.02-.19-.1-.27-.14-.23-.16-.2-.17-.13-.49.05-.38.12-.96.27-1.23.68-.69,1.3-1.13,2.04-1.69.45-.33.58-.97.65-1.36.11-.49.1-1.07.01-1.69-.05-.38-.18-.76-.34-1.13-.26-.55-.59-1.11-1.07-1.48-.37-.31-.89-.35-1.31-.42-.1,0-.2.01-.28-.01-.31-.09-.34-.25-.2-1.17l.06-.52c.06-.48.44-1.2.92-1.2,1.45-.16,2.73.71,3.62,1.72.66.77,1.13,1.68,1.45,2.65l-.07.03Z"/><path class="cls-1" d="M330.23,227.33c-.47.7-1,1.34-1.54,1.95-.21.22-.35.48-.59.67-.4.34-.85.63-1.3.89-.45.24-.96.5-1.61.59-.58.08-1.12-.01-1.5-.06-.52-.04-.89-.06-1.33-.39-.13-.23-.12-.48.04-.98.15-.48.48-.99.83-1.05.32-.07.61,0,.85.04.25.05.43.09.5.11.07.02.08.05.18.06.1.02.26,0,.46-.05.49-.12.81-.58,1.13-.97.36-.43.7-.91.94-1.47.16-.33.29-.68.4-1.04.18-.54.38-1.11.39-1.69,0-.46-.21-.91-.37-1.34-.04-.1-.1-.19-.12-.28.02-.18.07-.3.26-.4.25-.1.54-.18.87-.25l.39-.09c.19-.04.37-.02.67.03.31.05.66.15.77.3.26.23.35.47.45.73.1.25.15.51.19.78.07.53.04,1.07-.05,1.62-.07.4-.17.8-.29,1.19-.15.39-.36.76-.57,1.12l-.07-.02Z"/><path class="cls-1" d="M297.57,233.78l2.62-.82c.44-.14.9-.27,1.36-.39.22-.07.5-.12.77-.19.33-.09.79-.07,1.18-.1l1.95.25c.88.12,1.77.14,2.65.27,3.07.43,6.26.86,9.2,1.06,1.29.03,2.59-.29,3.75-.78.74-.32,1.4-.76,1.95-1.25.53-.53.92-.99,1.54-1.62.37-.42.42-.42.73.15.16.28.41.76.44,1.35,0,.28.03.65-.08.94-.12.3-.28.6-.51.84-1.62,1.78-3.67,2.56-5.66,3-1,.21-2.07.34-3.06.32-.98,0-1.91-.08-2.83-.25-2.21-.37-4.5-.4-6.74-.66l-1.77-.21-.89-.12-.83-.13c-.12-.06-.8.13-1.39.27l-1.82.52c-1.45.43-2.9.87-4.35,1.33-2.19.7-4.42,1.33-6.59,2.05-1.69.55-3.31,1.24-5.01,1.77-.37.13-.73.26-1.12.36-.71.19-1.19.27-1.56.2-.37-.1-.6-.27-.81-.52-.09-.12-.21-.22-.27-.33-.1-.19-.03-.4.19-.64.21-.24.55-.56,1.04-.72,2.85-1.2,5.89-2.34,8.97-3.51,2.28-.88,4.61-1.66,6.95-2.48l.03.07Z"/><path class="cls-1" d="M325.77,298.23c2.7.56,5.4,1.18,8.08,1.84.98.24,1.98.4,2.95.67,3.44.96,6.81,2.17,10.18,3.56,1.48.67,2.98,1.37,4.4,2.51.45.37.9.82,1.29,1.37.38.56.66,1.31.68,2.09,0,.4-.01.73-.15,1.19-.14.42-.33.79-.59,1.05-.25.27-.52.48-.78.65-.28.16-.62.19-.91.26-.79.07-.76-.18-.73-1,.03-.39-.09-1.09-.16-1.49-.04-.21-.15-.41-.25-.49,0,0-.04-.02-.01-.01l.12.05c.06.03.14.05.18.07l.13.03h.01s0,0,0,0h0s-.63-.1-.63-.1h0s0,0,0,0h0s-.01-.02-.01-.02c-.03-.06-.06-.06-.13-.16-.08-.1-.21-.32-.42-.54-.44-.46-1.12-.96-1.87-1.41-1.53-.89-3.23-1.95-5.08-2.67-2.2-.93-4.68-1.37-7.08-1.92-2.64-.61-5.31-1.17-7.99-1.68-1.65-.31-3.31-.61-4.97-.86-2.51-.42-5.06-.7-7.58-.95-1.96-.18-3.91-.12-5.85-.14-.43,0-.85.03-1.28,0-.8-.03-1.31-.14-1.66-.38-.35-.22-.54-.56-.68-1.04-.07-.21-.16-.42-.2-.61-.14-.61.59-1.33,1.8-1.54,1.79-.23,3.61-.3,5.45-.27.92.01,1.85.06,2.77.11l1.39.1c.46.06.92.14,1.38.22,2.73.47,5.48.95,8.22,1.43v.09Z"/><path class="cls-1" d="M261.6,304.02c2.42-1.68,4.85-2.38,7.25-3.08.88-.25,1.73-.55,2.61-.73,3.1-.67,6.22-.92,9.29-1.43,1.36-.2,2.73-.4,4.08-.64.87-.16,1.73-.33,2.61-.4.44-.03.88-.09,1.32-.04.22.03.45.06.67.1.22.05.46.22.69.32.57.34.51.54.11,1.24-.4.77-1.12,2.04-2.1,2.13-1.71.37-3.45.43-5.19.59-1.73.17-3.52.05-5.28.24-2.11.16-4.21.81-6.25,1.36-2.24.62-4.48,1.32-6.41,2.38-1.16.64-2.25,1.47-2.63,2.39-.28.73-.26,1.26.32,1.93.54.66,1.45,1.21,2.35,1.7,1.45.73,3.08,1.08,4.69,1.46.36.08.72.12,1.07.22.67.16,1.08.36,1.33.65.26.27.35.64.37,1.13.01.22.05.44.04.63-.02.62-.77,1.2-1.88,1.2-1.61-.09-3.24-.37-4.9-.88-.83-.24-1.66-.57-2.5-.96-.42-.21-.84-.42-1.27-.68-.41-.27-.82-.6-1.23-.97-.6-.58-1.22-1.21-1.69-2.21-.13-.22-.22-.49-.31-.78-.09-.28-.19-.55-.21-.86-.03-.3-.07-.62-.06-.91.02-.27.05-.54.09-.8.2-1.06.68-1.96,1.22-2.68.55-.68,1.15-1.25,1.75-1.69l.06.07Z"/><path class="cls-1" d="M290.12,209.94c-1.09.14-2.17.3-3.26.35-.54.03-1.09.08-1.63.11l-1.63.02c-.79.03-1.58.08-2.37.04-2.79-.21-5.53-.7-8.18-1.41-1.19-.28-2.37-.6-3.53-.92-.74-.24-1.49-.46-2.22-.71-.71-.32-1.4-.7-2.04-1.15-.36-.37-.19-.59.37-.9.56-.29,1.44-.58,2.27-.43,2.88.67,5.74,1.33,8.68,2.01,1.76.44,3.65.29,5.48.32,1.01.03,2.02-.05,3.04-.06,1.01-.11,2.03-.14,3.03-.31l1.86-.28,1.84-.41c.93-.2,1.83-.51,2.75-.77.9-.31,1.79-.65,2.65-1.04.65-.34,1.29-.69,1.91-1.07.61-.39,1.19-.83,1.79-1.22.27-.17.5-.38.76-.56.97-.66,1.41-.68,2.11-.12.16.13.33.24.47.38.47.46.35,1.19-.32,1.88-1.99,2.03-4.56,3.69-7.39,4.65-1.03.41-2.12.67-3.18,1-1.09.23-2.16.51-3.25.69l-.02-.08Z"/><path class="cls-1" d="M213.35,55.01c-2.68-2.15-5.55-4.07-8.63-5.46-3.07-1.41-6.34-2.31-9.66-2.43-1.21-.07-2.42.05-3.61.2-1.13.17-2.22.51-3.32.94-3.88,1.58-7.39,4.48-10.32,7.77-1.46,1.66-2.81,3.44-3.94,5.33-1.12,1.88-2.09,3.9-2.49,5.91-.17.88-.2,1.76,0,2.45.11.33.25.48.22.44-.05,0,.19.03.54-.1.72-.28,1.56-.82,2.35-1.39.81-.57,1.61-1.18,2.43-1.79,2.1-1.57,4.32-3.12,6.84-4.27,1.26-.56,2.63-.96,4.03-1.16.35-.04.71-.08,1.06-.09.36,0,.72.02,1.07.03.71.08,1.41.15,2.08.4.82.36,1.12.6,1.06.7-.05.12-.49.14-1.2.31-.71.22-1.64.45-2.63.96-1,.46-2.07,1.01-3.25,1.64-2.14,1.02-4.18,2.48-6.25,4.03-1.06.75-2.13,1.54-3.3,2.33-.59.39-1.21.79-1.95,1.17-.36.19-.78.38-1.26.54-.51.15-1.09.32-1.95.23-.22-.03-.41-.05-.64-.11-.23-.08-.45-.17-.67-.27-.42-.21-.77-.54-1.07-.85-.21-.28-.47-.64-.58-.91-.11-.27-.24-.56-.31-.81-.29-1.01-.3-1.93-.25-2.79.16-1.69.63-3.14,1.19-4.5,1.15-2.71,2.72-5.08,4.47-7.27,2.11-2.61,4.47-5.08,7.17-7.24,2.7-2.12,5.78-4.04,9.39-4.76,3.87-.7,7.74-.37,11.4.65,3.66,1.01,7.03,2.74,10.13,4.77,3.81,2.52,7.2,5.57,10.29,8.84,2.35,2.47,4.51,5.13,6.51,7.88,2.01,2.77,3.77,5.66,5.5,8.53,2.69,4.48,5.19,9.01,7.28,13.77.46,1.05.93,2.06,1.35,3.13,1.56,3.96,1.76,5.32,1.17,6.49-.13.26-.24.59-.4.77-.52.61-1.7-.8-2.91-3.63-1.84-4.18-3.69-8.42-5.85-12.55-2.14-4.12-4.59-8.26-7.18-12.21-3.89-5.78-8.53-11.23-13.96-15.55l.04-.07Z"/><path class="cls-1" d="M251.15,168.25c-1.71,2.71-3.91,5.15-6.49,7.07-2.58,1.92-5.5,3.31-8.51,4.2l-.82.26-.83.2-1.66.41c-1.16.22-2.33.39-3.49.39-4.1.07-8.07-.81-11.76-2.28-3.69-1.48-7.1-3.59-10.03-6.25-2.59-2.36-4.87-5.12-6.52-8.21-1.09-1.96-1.91-4.09-2.43-6.27l-.34-1.65-.16-1.67c-.04-.56-.03-1.12-.04-1.67-.01-.56.15-1.12.22-1.67.28-1.37.38-1.17.91-.05.15.29.32.62.51.98.28.37.4.79.61,1.24.34.91.86,1.91,1.13,3.03,1.1,3.94,2.9,7.63,5.51,10.77,2.6,3.14,5.94,5.72,9.67,7.65,4.47,2.3,9.93,3.29,14.87,2.53,2.74-.49,5.51-1.34,7.98-2.64,2.49-1.3,4.72-3.06,6.56-5.19,2.23-2.65,3.94-5.8,4.98-9.18,1.63-5.12,2.13-10.67,1.77-16.07-.29-4.21-1.19-8.27-2.37-12.24-.25-.88-.57-1.71-.81-2.6-.46-1.64-.79-2.7-.85-3.52.02-.85.1-1.37.33-1.86.1-.22.18-.5.3-.65.2-.26.54-.11,1.01.4.22.26.54.58.86.99.35.4.57.94.87,1.54,1.69,3.55,2.72,7.46,3.45,11.48.69,4.03,1,8.2.78,12.4-.32,6.2-1.72,12.61-5.13,18.18l-.08-.04Z"/><path class="cls-1" d="M242.22,130.79c-1.54.71-3.14,1.22-4.74,1.67-.59.13-1.16.34-1.76.47-2.11.35-4.24.49-6.34.39-.47,0-.93-.09-1.4-.12-.46-.04-.93-.04-1.38-.13-.59-.09-1.18-.13-1.76-.27-.28-.1-.56-.2-.84-.32l-.41-.18c-.13-.07-.25-.2-.38-.3-.3-.28-.25-.25.11-.43.38-.26,1.02-.61,1.66-.63,2.26.02,4.4-.05,6.66.05.67,0,1.36-.05,2.04-.22.68-.15,1.35-.31,2.01-.51l1.1-.3,1.08-.37c.73-.22,1.42-.55,2.12-.84.44-.17.84-.42,1.27-.62.42-.2.84-.42,1.23-.69.61-.37,1.22-.75,1.77-1.19.59-.41,1.1-.89,1.6-1.4.75-.79,1.31-1.74,1.78-2.67l.31-.62c.35-.77.7-.88,1.49-.7.18.04.36.07.53.12.54.16.85.75.64,1.5-.66,2.19-2.22,4.07-4,5.57-.68.53-1.35,1.08-2.1,1.52l-1.1.68-1.14.59-.04-.06Z"/><path class="cls-1" d="M169.62,145.25c4.03.53,8.16.48,12.25-.03,4.09-.52,8.14-1.54,12.12-2.87,2.9-.99,5.73-2.21,8.57-3.42,5.01-2.15,9.97-4.54,14.99-6.86,5.02-2.27,9.92-4.74,14.98-7.05,4.49-2.03,9.07-4.04,13.86-5.39,3.08-.88,6.2-1.54,9.49-1.78,1.64-.08,3.48,0,5.19.8.84.41,1.61.99,2.23,1.66.62.68.96,1.54,1.27,2.32.38.99.35,1.46.2,1.49-.18.05-.53-.35-1.19-.89-.62-.58-1.79-1.06-2.8-1.4-.54-.15-1.11-.19-1.71-.24-.6-.07-1.27-.09-2.03-.09-1.34-.01-2.86.23-4.35.44-.74.15-1.49.27-2.23.43-.74.18-1.48.33-2.21.53-2.94.79-5.85,1.81-8.75,2.96-5.78,2.31-11.47,5.18-17.39,7.81-7.05,3.05-14.05,6.93-21.44,9.95-8.08,3.3-16.8,5.75-25.73,5.67-2.74-.03-5.47-.24-8.18-.78-2.7-.56-5.43-1.32-7.89-2.89-1.85-1.17-3.52-2.98-4.2-5.23-.15-.56-.35-1.11-.35-1.68-.03-.58-.14-1.1-.05-1.74.11-1.24.64-2.38,1.32-3.29,1.39-1.83,3.18-3.03,4.96-4.07,1.79-1.05,3.65-1.89,5.5-2.71,2.88-1.27,5.74-2.41,8.55-3.61,2.82-1.2,5.56-2.42,8.1-3.96,1.13-.67,2.16-1.38,3.1-2.17,1.71-1.48,2.69-2.81,3.57-3.59.89-.78,1.55-1.12,2.2-1.29.29-.08.63-.23.84-.24.36-.02.3.44-.05,1.33-.35.9-.99,2.2-2.19,3.71-.87,1.14-1.95,2.28-3.16,3.23-1.21.94-2.46,1.72-3.72,2.44-2.57,1.48-5.25,2.62-7.9,3.73-2.66,1.1-5.32,2.15-7.91,3.29-2.56,1.14-5.09,2.42-7.13,3.95-1.49,1.13-2.59,2.49-2.61,3.53-.05.22.05.69.07,1.05-.01.41.18.72.26,1.09.03.18.12.35.22.5l.25.48c.19.31.47.59.69.9,1.1,1.12,2.75,2,4.55,2.64,1.82.63,3.81,1.04,5.83,1.28v.09Z"/><path class="cls-1" d="M304.41,218.37c.93-1.02,1.76-2.6,2.62-4.17.43-.79.87-1.61,1.38-2.43.5-.82,1.06-1.66,1.81-2.46.14-.15.26-.3.42-.44l.63-.55c.46-.32.96-.6,1.46-.84.51-.19,1.04-.27,1.57-.19.26.04.5.17.76.25.24.12.47.26.68.4.62.48,1.02,1.19,1.26,1.96.13.39.2.79.25,1.2.04.23.02.35.04.49,0,.14.02.29.02.42,0,.55-.02,1.06-.05,1.56l-.03.36-.02.12c-.01.08-.02.16-.03.25-.03.24.09.52.33.62.23.1.51.06.76-.05.12-.06.24-.14.35-.23.07-.06.23-.27.35-.49.25-.46.46-1.12.82-1.85.28-.54.66-1.18,1.33-1.65.63-.46,1.42-.69,2.2-.64.78.05,1.45.34,2.02.72.57.39,1.04.89,1.38,1.47.23.37.39.78.51,1.21.12.46.16.96.11,1.39-.08.88-.37,1.64-.74,2.32-.38.68-.91,1.23-1.48,1.71-.56.5-1.31.78-2.02.99-.46.11-.68.06-.7-.04-.03-.12.13-.31.31-.66.19-.34.37-.86.47-1.48.13-.58.28-1.16.44-1.71.17-.46.35-.89.37-1.23.02-.17,0-.29-.02-.36-.03,0-.05-.15-.13-.26-.13-.23-.35-.42-.51-.58-.19-.14-.3-.17-.29-.18-.01,0-.04-.02-.06-.02,0,0-.05,0-.15.12-.18.22-.41.76-.72,1.47-.16.36-.36.76-.64,1.18-.07.11-.14.21-.23.32-.1.12-.21.26-.32.37-.21.22-.45.42-.7.6-.99.7-2.17,1.04-3.23.88-1.38-.14-2.56-1.26-2.78-2.64-.06-.48-.07-.98-.04-1.48l.04-1c0-.28.01-.56,0-.82,0-.13,0-.27-.02-.39-.01-.12-.02-.28-.03-.3-.03-.19-.07-.39-.19-.54-.12-.15-.32-.27-.51-.21-.14.03-.27.11-.41.19l-.23.18-.38.4c-.51.57-.99,1.26-1.44,1.99-.91,1.48-1.72,3.1-2.74,4.72-.63.99-1.33,2-2.38,2.86-.24.23-.59.39-.88.57l-.83.38c-.55.21-1.09.44-1.64.61-3.31,1.1-6.69,1.75-10.09,2.22-2.63.36-5.27.63-7.98.43-.6-.06-1.18-.15-1.78-.26-1.09-.34-1.81-.53-2.24-.92-.42-.4-.61-.71-.72-1.05-.05-.15-.13-.3-.15-.42-.02-.2.2-.28.63-.35.21-.04.48-.07.78-.1.3-.04.61.04.99.03.55.02,1.07.1,1.63.06.56-.03,1.09-.02,1.64-.01.55-.01,1.1-.03,1.66-.04.56-.04,1.12-.08,1.68-.12,2.25-.24,4.55-.48,6.84-.94,1.7-.33,3.4-.71,5.05-1.21.82-.25,1.62-.52,2.38-.81.32-.15.74-.32.86-.41.2-.12.42-.31.63-.57l.06.05Z"/><path class="cls-1" d="M265.39,217.82c2.16-.72,4.42-1.41,6.88-1.71,1.23-.14,2.53-.16,3.85.05,1.31.21,2.63.68,3.78,1.4.3.2.48.32.91.62.21.2.41.42.62.63.17.24.3.5.46.76.24.56.35.95.44,1.36.18.82.24,1.55.27,2.28.06,3.05-.25,5.9-.49,8.76-.26,2.85-.53,5.68-.6,8.47-.02,1.24.01,2.47.17,3.64.09.58.18,1.16.35,1.64.08.29.14.36.21.5.08.12.16.24.28.32.15.12.36.18.55.13.32-.02.57-.26.71-.51.08-.14.35-.78.51-1.36.35-1.21.5-2.56.8-3.94.43-1,.66-.84,1.3.05.34.44.62,1.07.85,1.86.22.79.36,1.75.18,2.85-.07.41-.18.82-.32,1.26-.11.34-.45,1.17-.86,1.65-.18.3-.44.51-.68.74-.23.26-.53.39-.81.56-.57.33-1.22.42-1.87.52-.59-.12-1.23-.1-1.76-.43-.53-.3-1.05-.65-1.41-1.17-.43-.44-.69-1.11-.93-1.63-.14-.43-.28-.84-.35-1.22-.35-1.56-.36-2.96-.37-4.35.03-2.76.32-5.4.65-8.03.26-1.99.42-4,.51-6.01.07-1.99.11-4.06-.15-5.76l-.08-.42c-.03-.12-.08-.23-.09-.3-.04-.12-.1-.23-.21-.31l-.4-.28c-.16-.1-.33-.19-.5-.29-.34-.17-.69-.34-1.06-.45-.73-.24-1.52-.38-2.35-.39-1.66-.04-3.41.31-5.15.8-2.56.73-5.13,1.72-7.73,2.68-3.93,1.46-8.04,2.78-12.3,3.35-3.32.42-6.63.5-9.98-.2-.74-.16-1.47-.33-2.2-.6-1.37-.49-2.15-1.17-2.62-1.67-.46-.55-.58-1.01-.51-1.53.03-.23.04-.48.12-.66.31-.61,1.31-.22,2.87.31,2.34.84,5.01,1.25,7.74,1.28,2.73.06,5.44-.32,8.21-1.04,4.1-1.04,8.17-2.74,12.5-4.29l.03.08Z"/><path class="cls-1" d="M335.94,206.34c.41-.53.76-1.16,1.05-1.91.31-.79.58-1.58.78-2.38.41-1.6.62-3.24.48-4.82-.1-1.16-.44-2.26-.91-3.28-.09-.23-.23-.44-.34-.66-.11-.22-.23-.44-.39-.64l-.42-.61c-.1-.12-.21-.24-.34-.35-.53-.43-1.49-.66-2.5-.68-1.02-.03-2.09.1-3.16.33-1.08.23-2.15.54-3.11.96-.33.14-.64.31-.92.48-.27.16-.58.43-.65.5-.27.27-.39.69-.25,1.05.09.21.28.36.5.4.15.04.3.05.45.05.04-.01.18,0,.34,0l.45-.02c.61-.03,1.23-.14,1.89-.17,1.29-.11,2.69-.11,4.07.27.86.27.7.37.02.77-.34.2-.8.57-1.34.92-.27.18-.56.4-.88.56-.32.14-.67.26-1.04.36-.96.27-1.97.37-3.13.42-.16,0-.27,0-.5,0-.25-.01-.5,0-.73-.06-.47-.09-.95-.17-1.35-.38-.85-.35-1.45-1.06-1.81-1.88-.1-.38-.23-.76-.22-1.16,0-.2-.03-.39,0-.59l.11-.59c.02-.2.12-.38.19-.57.09-.18.14-.38.26-.55.24-.35.45-.67.78-.98l.25-.23.18-.16.35-.25c.24-.18.47-.31.71-.44.47-.26.93-.47,1.39-.65,1.85-.69,3.59-1.05,5.53-1.19.9-.05,1.83-.06,2.8.07.96.12,2.02.4,2.99,1.06.46.32.96.83,1.18,1.18.27.38.59.74.8,1.16.49.81.89,1.67,1.16,2.56.62,1.96.71,4.01.47,5.96-.23,1.95-.78,3.81-1.51,5.59-.46,1.13-1.14,2.26-2.08,3.16-.95.9-2.02,1.53-3.22,1.97-.96.32-1.83.43-2.73.53-.89.09-1.78.1-2.68.08-.89-.03-1.8-.15-2.71-.36l-.68-.2-.68-.28c-.23-.11-.43-.25-.69-.41-.25-.16-.43-.42-.64-.62-.19-.15-.24-.39-.37-.58l-.16-.3-.07-.33c-.13-.44-.17-.91.02-1.34.17-.42.46-.79.83-1.1.18-.15.37-.3.58-.43.21-.13.33-.2.5-.3,1.28-.68,2.57-1.09,3.89-1.43.58-.15,1.14-.29,1.73-.39,2.19-.33,2.95-.15,3.43.58.11.16.25.31.31.45.19.44-.63,1.03-2.09,1.32-1.09.25-2.18.53-3.24.86-1.05.33-2.12.73-2.9,1.19-.05.03-.09.06-.13.09,0,0,0,0,0,0v.02s0,.02,0,.03c0,.02.03.03.04.03.01,0-.01,0,.04,0,.09.08.29.14.46.21.17.08.42.11.63.18l.73.12c1.5.18,3.25.11,4.77-.19.38-.07.72-.18.94-.25.34-.15.68-.31.97-.49.61-.36,1.09-.8,1.5-1.32l.06.04Z"/><path class="cls-1" d="M325.43,202.48c-.47.17-.9.39-1.14.59-.23.2-.28.23-.31.41,0,.03,0,.05.01.09l.06.15c.06.03.04.11.09.14.03.18.59.45,1.3.46.7.03,1.49-.05,2.28-.14.7-.08,1.4-.3,2.1-.46.9-.2,1.84-.41,2.81-.37.3.01.3.23.12.56-.18.31-.51.79-.97,1.06-.83.45-1.65.98-2.59,1.23-.92.29-1.9.57-2.99.53-.64,0-1.34.02-2.13-.1-.2-.05-.4-.08-.61-.14-.21-.09-.43-.18-.64-.28-.2-.13-.4-.29-.59-.45-.18-.17-.31-.38-.45-.58-.52-.78-.69-2.03-.23-2.95.46-.95,1.19-1.44,1.84-1.81.82-.46,1.64-.7,2.45-.93,1.23-.33,2.47-.47,3.68-.65.94-.14,1.87-.38,2.84-.48.21-.03.43-.06.65-.07.41-.01.68.12.84.31.16.26.23.51.27.79.02.13.05.24.05.34,0,.17-.08.31-.24.52-.16.19-.39.53-.64.58-1.49.44-3.06.58-4.61.87-1.14.21-2.29.45-3.23.86l-.03-.06Z"/><path class="cls-1" d="M321.48,196.38c.86-.62,1.75-.92,2.58-1.1.3-.08.58-.19.88-.24,1.05-.14,2.07.04,3.02.15.43.06.85.03,1.26.04.53.03,1.06.02,1.57.32.16.09.12.47-.04.88-.15.41-.42.89-.7,1-1.02.41-1.97.38-2.95.24-.59-.08-1.16.11-1.7.22-.6.11-1.17.25-1.65.5-.28.16-.56.34-.75.58-.17.21-.27.32-.33.5-.06.18-.08.41,0,.62.1.33.48.52.65.48.04,0,.08-.05.08-.04.01,0,0,.07,0,.26.01.16.04.39.09.71l.09.42c.05.23.04.45-.07.66-.11.21-.32.43-.65.51-1,.17-1.94-.5-2.42-1.17-.52-.71-.76-1.54-.73-2.44.01-.33.06-.68.18-1.02.1-.34.3-.73.45-.92.31-.48.71-.88,1.12-1.23l.05.05Z"/><path class="cls-1" d="M187.42,272.41c4.53.4,9.06.81,13.62,1.04,1.66.1,3.33.08,4.99.16,5.86.32,11.73.52,17.61.76,2.61.1,5.23.09,7.82.08,1.66-.02,3.33,0,5,.04,1.67.12,3.33.39,5,.66,1.04.19.9.23.02.51-.88.26-2.5,1-4.41,1.38-3.4.37-6.79.37-10.2.4-3.4,0-6.82,0-10.25-.27-4.1-.27-8.38-.17-12.58-.31-4.62-.17-9.24-.43-13.86-.78-2.84-.21-5.68-.49-8.51-.76-2.15-.21-4.29-.48-6.44-.72-2.14-.27-4.28-.54-6.4-.8-1.65-.22-3.29-.37-4.93-.53-1.64-.18-3.27-.37-4.91-.55-.72-.08-1.43-.15-2.15-.27-1.34-.23-2.21-.43-2.79-.73-.57-.33-.87-.69-1.07-1.17-.09-.22-.22-.44-.26-.64-.06-.34.2-.59.74-.77.53-.18,1.34-.32,2.32-.21,5.83.49,11.87,1.34,17.98,2.02,4.53.54,9.1,1.01,13.67,1.37v.09Z"/><path class="cls-1" d="M347.21,468.68c-5.06,2.06-10.28,3.64-15.58,4.82-5.31,1.07-10.67,1.84-16.06,2.17-5.38.3-10.78.38-16.15,0-5.35-.34-10.68-.91-15.98-1.77-7.73-1.3-15.44-3.14-22.76-6.22-6.42-2.75-12.51-6.43-17.74-11.15l-1.95-1.78-1.8-1.93c-.58-.66-1.23-1.26-1.76-1.96l-1.62-2.09c-1.13-1.35-2.01-2.88-2.97-4.35-.99-1.45-1.75-3.04-2.59-4.58-1.54-3.16-2.78-6.45-3.74-9.82-.95-3.37-1.53-6.83-1.89-10.29-.68-6.94-.23-13.93.93-20.72.5-3.02,1.18-6.01,1.91-8.98.8-2.98,1.74-5.96,2.96-8.77,2.35-5.69,5.32-11.02,8.3-16.24,3.86-6.69,7.87-13.27,11.52-19.99.92-1.68,1.79-3.38,2.66-5.08.85-1.64,1.46-3.3,1.88-5.09.82-3.55,1.07-7.31.82-11.06-.12-2.35-.13-3.39.14-3.37.25.03.78,1.11,1.42,3.11.62,1.99,1.28,4.92,1.32,8.63,0,1.85-.25,3.89-.83,6.02-.28,1.06-.7,2.17-1.17,3.21-.46.98-.93,1.97-1.43,2.99-1.81,3.55-3.74,7.03-5.71,10.46-1.97,3.43-4.02,6.79-6,10.16-3.97,6.73-7.81,13.5-10.45,20.6-.67,1.78-1.2,3.55-1.69,5.39l-.69,2.81-.61,2.82c-.76,3.77-1.31,7.58-1.6,11.4-.61,7.63.04,15.36,2.25,22.67,1.33,4.36,3.24,8.62,5.8,12.51,1.18,2.02,2.7,3.79,4.12,5.65,1.61,1.7,3.15,3.48,4.96,4.98,7.01,6.31,15.83,10.45,24.89,13.22,10.03,2.96,20.57,4.41,31.1,4.93,2.63.18,5.26.12,7.89.15,2.63-.11,5.26-.14,7.88-.41,2.63-.16,5.22-.58,7.83-.92l3.87-.72c.64-.13,1.29-.23,1.93-.38l1.91-.47c6.27-1.52,12.39-3.68,18.11-6.63,5.71-2.95,10.97-6.77,15.47-11.33.43-.43.88-.84,1.29-1.28l1.18-1.39c.78-.93,1.58-1.84,2.34-2.79l2.08-2.99c.34-.5.7-.99,1.03-1.5l.89-1.59c2.54-4.15,4.23-8.76,5.55-13.42l.84-3.55c.22-1.19.36-2.4.54-3.6.08-.6.19-1.2.24-1.81l.11-1.82c.05-1.21.2-2.42.16-3.64.05-4.86-.57-9.7-1.5-14.46-1.6-7.37-4.35-14.4-7.93-20.91l-1.35-2.44-1.49-2.35c-.51-.78-.98-1.58-1.51-2.33l-1.63-2.25c-1.04-1.49-2.27-3.02-3.37-4.59-1.12-1.56-2.19-3.18-3.2-4.85-1.78-2.93-3.37-5.94-4.59-9.24-2.23-6.16-2.43-10.66-2.16-13.67.23-1.51.42-2.69.78-3.63.32-.95.64-1.68,1.06-2.29.36-.56.74-1.31,1.01-1.6.47-.5.58.54.54,2.75.07,2.23.08,5.62.8,9.85,1.12,6.29,4.1,12.24,7.85,17.79,1.87,2.8,3.95,5.41,6.07,8.44,2.07,2.97,3.94,6.08,5.64,9.32,3.37,6.47,5.97,13.42,7.55,20.67,1.57,7.24,2.14,14.8,1.29,22.28-.61,5.56-2.04,11.03-4.11,16.24l-1.71,3.85c-.64,1.25-1.36,2.45-2.04,3.68-.36.6-.66,1.24-1.07,1.81l-1.2,1.72-1.2,1.72c-.4.57-.79,1.16-1.26,1.67l-2.72,3.2c-.44.55-.95,1.03-1.45,1.52l-1.5,1.46-1.51,1.46c-.51.47-1.08.89-1.61,1.34-1.09.87-2.15,1.78-3.27,2.6-4.52,3.27-9.42,5.92-14.48,8.13l-.06-.08Z"/><path class="cls-1" d="M341.26,294.9c4.41,1.42,8.77,3.09,12.94,5.27,1.51.83,3.05,1.6,4.46,2.65,1.26.89,2.44,1.94,3.51,3.11,1.07,1.19,1.96,2.6,2.55,4.17.57,1.6.63,3.38.28,5-.34,1.65-1.19,3.17-2.25,4.36-1.88,2.16-4.23,3.65-6.57,4.92-1.51.81-3.07,1.49-4.66,2.08-.8.28-1.6.56-2.41.78-.4.13-.82.19-1.24.25-.42.05-.84.13-1.27.13-1.11-.07-1.01-.25-.36-1.11.32-.45.81-.95,1.39-1.56.6-.54,1.35-.98,2.21-1.35,1.52-.61,2.99-1.33,4.43-1.99,1.43-.68,2.83-1.42,4.05-2.29,2.46-1.74,4.18-4.02,4.11-6.85,0-1.65-.94-3.31-2.26-4.68-1.32-1.39-2.98-2.54-4.68-3.6-1.87-1.16-3.88-2.17-5.95-3.06-2.06-.91-4.18-1.71-6.33-2.43-2.65-.89-5.33-1.7-8.05-2.38-2.06-.51-4.13-1.01-6.22-1.44-2.09-.41-4.2-.67-6.28-1-3.25-.43-6.47-.6-9.68-.74-.71-.04-1.4-.01-2.11-.05-2.63-.11-3.42-.3-4.01-1.21-.13-.2-.31-.41-.4-.61-.3-.66.82-1.34,2.86-1.5,6-.42,12.29.05,18.38,1.58.57.13,1.12.33,1.69.43l1.71.36c1.14.26,2.27.51,3.41.8,2.27.56,4.52,1.19,6.76,1.87l-.02.07Z"/><path class="cls-1" d="M248.61,318.48c-1.06-1.04-2.03-2.26-2.71-3.72-.68-1.44-1.02-3.12-.88-4.73.14-1.69.83-3.2,1.67-4.46.84-1.28,1.88-2.29,2.96-3.22,1.58-1.33,3.22-2.51,4.98-3.45,3.09-1.68,6.31-2.95,9.57-4.06,3.25-1.13,6.56-2.06,9.9-2.78,2.97-.65,5.97-1.24,8.96-1.68,1.92-.31,3.87-.5,5.84-.56.98-.04,1.97-.01,2.96.06.5.03.99.1,1.48.23.49.13.98.2,1.45.41,1.17.57.93.68-.14,1.16-.53.24-1.27.54-2.11.87-.43.17-.87.24-1.35.33-.48.09-.98.16-1.51.18-1.87.09-3.74.38-5.63.55-1.89.19-3.78.48-5.67.78-3.78.63-7.54,1.45-11.31,2.39-2.25.57-4.47,1.4-6.63,2.37-2.16.97-4.25,2.08-6.19,3.34-1.08.67-2.07,1.45-3.01,2.26-.9.84-1.73,1.73-2.34,2.72-.59,1-.93,2.04-.95,3.14-.02,1.12.27,2.22.83,3.23.67,1.26,1.74,2.36,2.93,3.33,1.2.96,2.54,1.79,3.94,2.53,2.13,1.1,4.39,2.02,6.7,2.81,2.32.75,4.7,1.31,7.06,1.87,3.69.81,7.38,1.26,11.1,1.71.82.09,1.62.17,2.45.26,3.05.39,4,.72,4.55,1.72.13.22.3.45.37.66.22.7-1.11,1.18-3.41,1.11-6.81-.24-14.06-1.11-21-3.58-5.11-1.83-10.44-3.64-14.9-7.71l.05-.06Z"/><path class="cls-1" d="M208.54,176.27c-.91.13-1.83.48-2.72,1-.32.2-.61.44-.93.66-1.15.75-2.33,1.61-3.49,2.5-.51.4-1.04.8-1.57,1.18-.69.47-1.37,1.01-2.25,1.17-.26.06-.29-.09-.2-.39.09-.3.25-.77.58-1.07.59-.52,1.13-1.11,1.69-1.69.58-.55,1.2-1.09,1.87-1.61.81-.61,1.49-1.45,2.37-2.1.95-.72,2.03-1.35,3.21-1.76.73-.24,1.5-.42,2.27-.46,1.17-.08,2.32.12,3.42.42.85.23,1.73.44,2.55.86.18.09.37.17.54.29.55.53.57.87.26,1.37-.07.12-.13.24-.21.34-.27.34-.72.41-1.18.32-.36-.05-.64-.17-.93-.27-.29-.1-.57-.2-.86-.29-.57-.18-1.15-.34-1.74-.43-.88-.15-1.77-.13-2.65.02l-.02-.06Z"/><path class="cls-2" d="M286.88,314.8c-.32-.35-9.67-3.16-12.49,1.24-2.82,4.4-2.97,5.61,0,6.98s9.58,1.67,9.58,1.67l5.46,1.69s-2.31,6.21.46,8.09c2.77,1.87,3.93,5.58,6.45,4.87s7.59-2.37,6.4-3.4-.17-3.52-.17-3.52l10.86-.53s7.2-2.12,3.56-5.25,2.63,2.25,6.66-1.52c4.22-3.95,6.19-7.77,2.7-8.88-1.74-.55-3.73-2.15-5.28-3.62-1.78-1.68-4.38-2.15-6.65-1.25l-4.08,1.61s-5.26-3.68-7.59-3.72c-4.91-.09-6.4,6.54-6.4,6.54,0,0,.3-4.05-4.46-4.05s-5,3.05-5,3.05Z"/><path class="cls-2" d="M329.11,317.02s3.83-5.61,6.03-5.07,3.89-.62,6.15-.04,3.51.08,5.65,2.89c2.14,2.8-1.07,6.59-.83,8.19.24,1.6-.79,10.71-5.71,10.75-8.62.07-3.47.44-6.79-8.91-3.32-9.36-3.68-3.14-3.68-3.14l-.82-4.67Z"/><path class="cls-1" d="M277.05,326.19c-1.31-.56-2.25-1.4-3.04-2.27-.28-.33-.62-.59-.86-.95-.83-1.25-1.5-2.61-1.69-4.14-.07-.66-.19-1.36.03-2.04.03-.22.12-.43.21-.63.1-.2.15-.42.33-.57.17-.16.31-.32.47-.46.17-.11.33-.23.52-.35.22-.13.24-.04.23.22,0,.27-.05.68.04,1.1.07.37.06.63.14.9l.12.39c.09.13.05.26.08.39.08.53.21,1.1.37,1.75.2.78.81,1.41,1.36,2.02.6.68,1.29,1.3,2.03,1.69.44.26.95.42,1.45.47.76.08,1.59-.04,2.34-.47.58-.33,1.03-.89,1.49-1.41.1-.12.18-.25.3-.36.19-.22.44-.22.64-.18.24.08.47.24.73.46.12.1.25.19.35.29.18.17.28.37.34.63.06.25.11.6,0,.84-.31.71-.85,1.22-1.48,1.73-.63.49-1.41.9-2.3,1.18-1.32.42-2.95.38-4.24-.15l.02-.07Z"/><path class="cls-1" d="M298.53,341.21c-.79.2-1.6.34-2.49.28-.88-.07-1.83-.31-2.69-.89-.84-.57-1.5-1.52-1.73-2.18-.06-.12-.05-.12-.05-.14v-.05s-.01-.1-.01-.1c0-.08-.08-.11-.13-.13-.03-.01-.06-.02-.09-.03l-.61-.23c-.21-.06-.47-.22-.72-.37-.25-.15-.48-.32-.68-.53-.21-.2-.42-.41-.56-.64-.68-.98-.92-2.03-1-2.97-.06-.94.03-1.82.2-2.67l.07-.31.03-.16.02-.06.09-.24c.06-.14.13-.3.21-.46.06-.15.24-.33.16-.5-.08-.19-.27-.11-.41-.08-.17.03-.38.06-.58.05-.06.02-.83-.08-1.34-.29-.55-.2-1.07-.5-1.51-.88-.84-.72-1.34-1.73-1.53-2.74-.04-.26-.07-.51-.07-.77.03-.26.06-.51.12-.76.12-.49.33-.96.59-1.36.38-.48.45-.3.58.21.08.26.21.59.43.93.1.16.24.33.37.48.08.08.11.15.21.22.04.07.09.15.12.22.29.58.81.93,1.18,1.12.18.11.35.19.56.24.1.02.21.04.32.05.08,0,.03.02.34.01.25-.06.49-.08.75-.17.97-.33,1.73-.09,2.12.1.2.1.33.19.46.28.15.11.39.33.56.59.17.28.26.51.27.73.01.25.08.41.02.76.03.57-.39,1.37-.6,2.04l-.2.64-.05.16-.02.08-.04.16c-.06.22-.09.43-.11.65-.06.44-.04.86,0,1.26.14.79.41,1.35.78,1.6.12.11.31.21.69.31.37.12.75.22,1.09.36.32.18.61.47.72.83l.36.99c.06.15.12.38.19.44.1.22.29.33.5.48.24.09.52.2.87.2.99.04,2.26-.41,2.98-1.21.17-.16.26-.34.39-.51.12-.21.23-.43.33-.66.1-.23.19-.46.26-.71.04-.08.09-.36.11-.57.03-.22.06-.44.05-.69.05-.8.36-1.38.55-1.83.07-.22.33-.49.64-.59.31-.11.53-.02.81-.01.21.01.53.06.8.09.29.07.6.14.91.26.15.03.32.06.44.07.14,0,.18.01.27,0,.16-.02.32-.02.48-.05.64-.11,1.24-.35,1.76-.67.23-.14.42-.32.62-.47.18-.15.34-.25.47-.34.13-.1.15-.24.29-.26.15-.01.33.02.52.07.22.07.48.16.74.25.24.07.48.15.71.22.36.13.6.39.78.89.22.52.04,1.11-.5,1.53-1.21,1.68-3.23,2.76-5.44,2.95-.28.02-.56.02-.84.03-.14,0-.31-.02-.31-.02-.02.01-.01-.04-.02.02-.01.02-.01.03-.01.04,0,.02.01.04.01.04,0,0,0,0-.01,0,.03.04,0-.05-.01.05-.12.33-.26.66-.42.99-.33.67-.67,1.24-1.28,1.94-1.16,1.22-2.41,1.99-3.84,2.46l-.03-.08Z"/><path class="cls-1" d="M321.72,327.89c-.42.08-.83.15-1.25.19l-.62.06c-.1.01-.21.01-.31.02h-.15s-.02,0-.02,0l-.24-.05-.15-.03s-.16-.05-.11,0c.02.03.07.1.09.16.04.07.05.12.04.19l-.02.21-.07.49c-.07.32-.16.62-.27.92-.24.58-.58,1.11-1.01,1.56-.42.45-.98.82-1.53,1.03-.55.21-1.1.33-1.66.37-.98.08-1.96-.03-2.87-.36-1.18-.38-2.22-1.28-2.63-2.41-.14-.35.13-.44.57-.41.44.04,1.09.1,1.53.31.41.18.76.37,1.15.51.38.13.78.2,1.19.23.79.05,1.68-.13,2.24-.46.38-.2.66-.64.8-1.09.06-.23.1-.46.09-.69,0-.05-.06-.22-.08-.33l-.05-.18c-.02-.06-.17-.19-.24-.28l-.57-.61-.85-.86-.66-.66.7-.07.36-.06c.15-.02.12-.04.19-.06l.06-.03s.13,0,.19,0l1.81.06c.6,0,1.2-.01,1.73-.07.33-.03.67-.06.99-.11.84-.12,1.69-.32,2.4-.64.28-.14.47-.23.73-.44.26-.19.5-.4.74-.61.47-.44.9-.93,1.26-1.47.55-.83.83-1.82.91-2.67.02-.18,0-.37,0-.52-.02-.56.13-.51.87-.98.16-.1.3-.23.45-.33.25-.18.51-.25.85-.11.18.07.33.2.44.37.12.17.23.4.27.63.29,1.44-.07,2.65-.54,3.74-.49,1.08-1.17,2.05-1.98,2.9-.3.32-.62.62-.96.91-.35.29-.64.53-1.17.86-.93.52-1.79.78-2.63.98l-.02-.07Z"/><path class="cls-1" d="M281.14,309.16c.69.13,1.18.15,1.46.09.15-.04.26-.07.41-.18.16-.13.38-.38.64-.73.19-.24.4-.58.67-.87.26-.28.51-.57.81-.82,1.09-.81,2.32-1.35,3.57-1.62,1.25-.25,2.48-.25,3.67-.11,1.06.12,2.09.35,3.11.68.33.11.65.24.95.43.31.16.61.36.89.61.28.22.55.54.75.87.15.4.35.76.28,1.23-.2.57-.31.38-.88.25-.16-.02-.28-.06-.42-.06-.17,0-.34,0-.49,0-.07,0-.15.02-.22.03-.08,0-.18.03-.24.03-.14,0-.22-.02-.33-.05-.39-.14-.81-.26-1.28-.35-.21-.09-.43-.16-.67-.22-.23-.08-.46-.13-.71-.18-.96-.21-1.96-.3-2.98-.27-1.25.04-2.28.81-3.07,1.65-.47.36-.8,1.1-1.7,1.96-.92.87-2.24,1.22-3.26,1.19-1.28,0-2.32-.31-3.28-.45-.74-.12-1.37-.18-1.97-.07-.62.1-1.22.37-1.73.77-.81.6-1.26,1.57-1.42,2.42-.04.19-.02.38-.05.56-.11.63-.57.87-1.2,1.17-.15.07-.29.15-.42.21-.22.09-.44.06-.71-.12-.14-.09-.28-.21-.44-.38-.15-.17-.24-.37-.34-.62-.17-.37-.14-.74-.14-1.12.02-.37.07-.76.17-1.12.18-.74.5-1.45.93-2.08.84-1.28,2.12-2.29,3.65-2.83.57-.19,1.17-.33,1.79-.39.65-.05,1.2-.02,1.71.03,1,.12,1.83.31,2.52.4v.09Z"/><path class="cls-1" d="M320.58,312.05c-1.53-.87-3.35-1.45-5.18-1.64-.67-.07-1.34,0-1.98.04-.55.01-1.22.15-2.02.19-.79.07-1.81-.08-2.56-.43-1.54-.69-2.46-1.72-3.46-2.3-.87-.54-1.94-.78-2.97-.8-1.36,0-2.58.35-4.05.56-.47.06-.53-.09-.38-.63.14-.53.57-1.58,1.54-2.03,1.7-.72,3.65-.75,5.45-.21.89.26,1.79.72,2.49,1.21.7.48,1.26.96,1.78,1.32.31.22.61.37.9.45.29.08.57.09.95.04.38-.05.81-.15,1.31-.25.51-.1,1.05-.18,1.57-.2,2.31-.11,4.54.31,6.65,1.1,1.3.49,2.53,1.17,3.67,2.03,1.74,1.38,2.89,3.19,3.72,5.13.64,1.49,1.21,3.15,1.01,5.04-.07.41-.09.83-.26,1.23-.15.37-.33.65-.52.86-.19.21-.34.37-.53.45-.39.14-.74.1-1.13-.07-.18-.08-.36-.14-.51-.24-.48-.32-.58-1.09-.55-1.76.03-.5.03-.93.02-1.37-.03-.44-.11-.9-.23-1.37-.23-.95-.7-1.96-1.26-2.92-.86-1.48-1.88-2.54-3.48-3.37l.03-.08Z"/><g class="cls-4"><path class="cls-1" d="M352.79,282.2c-.45-.05-.97-.11-1.52-.23-.2-.04-.42-.03-.63-.11-.38-.15-.72-.36-1.05-.66-.37-.33-.57-.73-.63-1.13-.07-.35-.13-.67-.12-1.03.02-.22.03-.47.18-.68.15-.2.39-.36.66-.34.17,0,.19.14.28.37.05.12.12.26.24.4.11.13.24.21.22.19.05.04.25.08.29.08.05,0,.09.02.12.04.07.05.12.04,0,.19-.07.07,0,.13.08.16.08.03.18.03.29.07.24.08.58.13.96.14.23,0,.49.01.74,0,.38-.03.78,0,1.15-.08.29-.07.55-.3.82-.46.06-.04.12-.1.18-.1.24-.03.34.15.49.8l.1.44c.09.5.06.93-.09,1.15-.44.64-.98.72-1.53.83-.41.07-.82.03-1.26.04v-.06Z"/></g><g class="cls-4"><path class="cls-1" d="M363.36,274.01c-.42-.04-.82-.12-1.21-.23-.14-.03-.29-.01-.42-.07-.48-.18-.91-.48-1.3-.77-.17-.12-.37-.2-.55-.3-.23-.13-.5-.24-.56-.58-.02-.11.24-.4.54-.68.3-.28.64-.6.74-.6.42-.04.62.14.89.47.16.21.41.15.63.21.24.07.49.13.75.16.16.02.32.04.48.02.24-.02.5-.03.71-.16.16-.11.23-.36.31-.54.03-.03.04-.08.06-.1.11-.07.25.05.66.51l.28.31c.31.35.49.71.46.97-.02.18-.06.37-.13.52-.08.13-.18.25-.3.34-.23.19-.5.32-.77.4-.41.13-.85.16-1.27.17v-.06Z"/></g><g class="cls-4"><path class="cls-1" d="M361.83,261.2c-.57-.08-1.17-.3-1.61-.57-.16-.09-.32-.13-.44-.23-.41-.35-.68-.67-.92-.8-.12-.07-.25-.02-.35,0-.14.02-.11.2-.32.17-.05,0-.48-.25-.74-.56-.29-.31-.48-.81-.27-1.07.09-.11.19-.21.33-.24.12-.06.22-.19.35-.23.24-.13.5-.17.75-.16.48,0,.99.19,1.26.44.35.3.71.37.96.5.28.15.44.25.69.31.15.03.31.06.47.04.24-.02.52-.06.71-.24.15-.14.16-.41.15-.61,0-.04-.02-.1-.02-.13.05-.1.27,0,.87.28l.41.19c.46.21.79.5.86.84.03.91-.68,1.53-1.4,1.84-.55.24-1.16.32-1.75.29v-.06Z"/></g><path class="cls-1" d="M354.25,283.65c-.84.11-1.55-.07-2.09-.24-.55-.18-.97-.38-1.34-.5-.25-.09-.52-.07-.9-.15-.3-.07-.63-.14-1.01-.28-.37-.14-.81-.39-1.11-.72-.8-.83-.76-2.18-.3-3.02.33-.66.88-1.23,1.45-1.51.75-.39,1.51-.53,2.25-.46.23.03.25.29.14.62-.12.33-.35.79-.64,1.01-1.1.86-1.14,1.19-1.4,1.46-.02.06-.02.13.02.18.04.2.5.19,1.24.27,1.18.13,2.11.61,2.75.66.4.04.67-.01.97-.25.44-.33.74-1,.51-1.45-.16-.37-.68-.53-1.03-.51-.08,0-.16.05-.22.04-.11,0-.16-.06-.22-.21-.05-.18-.13-.42-.25-.82l-.17-.51c-.09-.28-.11-.55,0-.81.11-.26.36-.53.71-.59,1.06-.26,2.19.15,3.01.95.41.4.76.93.96,1.53.21.61.24,1.29.14,1.89-.33,1.77-1.64,3.15-3.46,3.5l-.02-.07Z"/><path class="cls-1" d="M365.63,274.95c-1.22.94-2.58,1.04-3.7.89-.42-.05-.83-.09-1.23-.23-.68-.28-1.32-.69-1.83-1.23-.5-.53-1-1.26-.97-2.19,0-.8.39-1.52.85-1.95.58-.57,1.28-.78,1.95-.82.22,0,.27.2.24.52-.04.31-.12.81-.29,1.09-.33.5-.38.91-.29.88-.03,0,0,0,.02,0h0s0,0,0,0h0-.08s0,0,0,0h0s-.01,0,0,0c.02,0,.03,0,.08,0l.07-.02s0,0,0,0c.02,0-.05.16,0,.33.13.46.73.64,1.23.78.57.17,1.21.19,1.68,0,.28-.12.52-.31.66-.57.22-.39.24-1.04-.07-1.41-.24-.29-.7-.3-1.01-.22-.07.02-.14.07-.2.08-.21.05-.25-.12-.57-.92l-.22-.51c-.25-.53-.17-1.23.44-1.45.86-.34,1.9-.25,2.79.25.91.49,1.63,1.51,1.85,2.52.18.76.15,1.54-.09,2.29-.24.76-.71,1.45-1.29,1.95l-.05-.05Z"/><path class="cls-1" d="M362.45,262.21c-.37-.02-.74-.11-1.09-.24l-.52-.22c-.18-.09-.2-.11-.3-.16l-.34-.19c-.08-.04-.11-.07-.23-.09-.08-.01-.2,0-.33.02-.16.02-.49.06-.71.05-.87-.03-1.67-.37-2.15-1-.47-.66-.48-1.45-.06-2.2.3-.65.85-1.28,1.18-1.57.48-.46,1.08-.83,1.74-.9.21-.02.25.18.22.48-.04.29-.08.71-.22.96-.14.22-.24.44-.33.66-.04.11-.08.22-.11.32,0,.02-.02.07-.02.07,0,0-.02-.01,0,0h-.02s-.23.04-.37.3c-.08.16.02.26.13.29.12.03.23,0,.35.01.31-.02,1.02-.08,1.58.11.27.08.49.18.69.27.11.05.19.09.21.11l.12.07c.11.06.24.12.37.13.12.02.24,0,.35-.05.35-.17.6-.62.48-1.04-.08-.28-.48-.63-.86-.9-.08-.07-.19-.11-.28-.19-.32-.27-.22-.57.24-1.12.11-.13.21-.26.32-.38.37-.4.85-.59,1.27-.46.55.25,1.09.68,1.52,1.37.11.18.2.34.29.57.09.25.17.5.22.77.09.52.07,1.07-.05,1.58-.31,1.36-1.42,2.46-2.76,2.64-.17.02-.34.02-.5.03v-.07Z"/><path class="cls-1" d="M358.52,379.88c-.42-1.24-.92-2.46-1.54-3.63-.21-.44-.54-.8-.77-1.23-.86-1.48-1.77-2.97-2.88-4.32-.48-.61-1.07-1.12-1.64-1.63-.77-.63-1.59-1.15-2.16-2.05-.18-.27.04-.53.5-.71.23-.09.52-.17.84-.2.16-.02.33-.02.49-.01.09,0,.17.02.25.03.07.03.14.06.2.1,1.8,1.2,3.43,2.67,4.65,4.49.74,1.07,1.64,2.07,2.38,3.17.41.6.75,1.25,1.12,1.88.33.65.67,1.29.96,1.96.37.82.69,1.65.98,2.5.46,1.27.76,2.6,1.13,3.89.12.51.29,1,.45,1.5.15.5.27,1.01.39,1.52.05.23.13.45.14.68.07.87-.12,1.15-.87,1.35-.17.04-.34.1-.51.13-.57.08-1.08-.23-1.3-.78-.31-.82-.64-1.63-.89-2.44-.15-.41-.25-.82-.35-1.24l-.36-1.24c-.17-.62-.39-1.23-.57-1.85-.24-.6-.42-1.23-.7-1.82l.07-.03Z"/><path class="cls-1" d="M250.88,123.27c-.55.26-.92.58-1.15.94l-.48-.9s.37-.74,1.11-1.62c1.8.13,2.3.72.52,1.58Z"/><path class="cls-1" d="M223.42,147.17c1.03,2.08,3.06,3.7,5.25,4.43,2.02.67,4.57.32,5.57-1.8.71-1.51.55-3.23.2-4.81-.16-.7-1.01-1.18-1.69-.96-.74.24-1.13.94-.96,1.69.04.17.08.34.11.52.02.09.08.6.04.23.03.31.06.61.06.92,0,.13,0,.26-.01.39,0,.05-.01.11-.01.16,0,.23,0-.11.02-.13-.1.15-.11.51-.17.7-.1.31.11-.2.02-.03-.05.08-.08.16-.13.24-.12.2-.21.15.03-.01-.07.05-.13.15-.19.21-.03.03-.06.05-.08.08-.15.16.26-.17.13-.1-.07.04-.14.09-.21.13-.06.03-.15.05-.2.1.16-.17.32-.11.15-.07-.05.02-.11.04-.16.05-.08.02-.17.04-.25.06-.3.07.29-.02.08,0s-.4.02-.61.01c-.08,0-.18-.03-.25-.02.25-.04.31.05.17.02-.05-.01-.11-.02-.16-.03-.21-.04-.42-.09-.62-.16s-.4-.17-.6-.22c.01,0,.32.15.13.05-.04-.02-.09-.04-.13-.06-.11-.05-.22-.11-.33-.17-.2-.11-.39-.22-.58-.34-.1-.06-.19-.13-.28-.19-.04-.03-.08-.06-.12-.09-.25-.17.14.12.03.03-.4-.35-.79-.69-1.14-1.1-.03-.04-.06-.08-.1-.12-.18-.2.17.24.03.04-.07-.11-.15-.21-.22-.31-.15-.23-.29-.48-.42-.73-.32-.65-1.29-.88-1.88-.49-.66.43-.84,1.19-.49,1.88h0Z"/><path class="cls-1" d="M242.23,143.01c.08.32.16.64.21.97.01.06.02.12.03.18.04.25-.02-.08-.01-.1-.03.13.04.36.04.5.01.23.01.45,0,.68,0,.06,0,.12-.01.17-.01.16-.09.15.02-.13-.04.09-.04.21-.06.31s-.05.19-.08.29c-.02.06-.14.36-.03.1s-.01.01-.05.07c-.05.09-.12.17-.16.26,0,0,.25-.29.12-.16-.02.02-.04.05-.06.07-.05.06-.11.11-.17.17-.21.2.31-.19.06-.04-.07.04-.13.08-.2.12-.03.02-.07.03-.1.05-.13.07-.12-.04.18-.07-.06,0-.14.05-.2.07-.07.02-.14.04-.21.05-.37.08.3-.01.05,0-.16,0-.32.02-.47.01-.08,0-.15-.01-.23-.02-.12,0-.24-.07.18.03-.05-.01-.11-.02-.16-.03-.16-.03-.32-.07-.48-.11-.09-.03-.18-.05-.27-.09-.07-.03-.42-.16-.16-.05s-.04-.02-.1-.05c-.09-.04-.18-.09-.26-.13-.18-.09-.35-.2-.51-.31-.08-.06-.16-.12-.25-.17-.2-.14.27.23.08.07-.05-.04-.1-.08-.14-.12-.17-.15-.34-.3-.5-.46-.07-.07-.14-.15-.21-.23-.03-.04-.07-.08-.1-.12-.18-.21.14.2.06.08-.14-.2-.27-.39-.39-.6-.36-.62-1.26-.89-1.88-.49s-.88,1.22-.49,1.88c1,1.72,2.8,3.13,4.76,3.54,1.03.21,2.05.18,3.01-.27s1.57-1.29,1.9-2.25c.48-1.39.23-2.99-.12-4.38-.18-.7-.99-1.19-1.69-.96s-1.15.94-.96,1.69h0Z"/><path class="cls-1" d="M227.86,163.43c1.71,2.57,5.23,3.85,8.16,2.67.66-.27,1.21-.93.96-1.69-.21-.64-.98-1.25-1.69-.96-.27.11-.54.2-.82.26-.07.02-.15.03-.22.04-.25.05.23-.02.05,0-.14.01-.27.03-.41.03-.15,0-.3,0-.45,0-.12,0-.58-.09-.18,0-.28-.06-.57-.1-.85-.19-.13-.04-.26-.09-.39-.13-.24-.08.19.09.03.02-.07-.03-.14-.06-.21-.1-.26-.13-.51-.27-.74-.44-.08-.06-.2-.2.02.03-.04-.04-.1-.08-.14-.11-.12-.1-.23-.2-.33-.31s-.21-.22-.3-.34c-.12-.14.03,0,.05.06-.02-.07-.12-.17-.16-.22-.4-.6-1.23-.91-1.88-.49-.6.38-.92,1.24-.49,1.88h0Z"/><path class="cls-1" d="M223.27,139.86c.5-.45.95-.76,1.61-1.13.61-.33.99-.49,1.69-.69.14-.04.29-.08.43-.11.05-.01.51-.07.22-.04.3-.03.59-.03.89-.02.15.01.15.01,0,0,.07.01.14.02.21.04.14.03.27.07.41.12-.27-.09.12.08.17.1.12.08.12.08,0-.01.04.03.08.07.12.11.04.04.08.07.11.11-.07-.1-.06-.08.03.05,0-.53-.14-.46.13-.77.14-.04.13-.05,0,0,.09-.02.06-.03-.1-.02.09.02.05.01-.11-.02-.1-.02-.19-.04-.29-.06-.77-.15-1.55-.23-2.34-.21-1.6.04-3.15.45-4.58,1.16-.59.29-.8,1.17-.45,1.71.39.6,1.08.76,1.71.45,1.09-.54,2.35-.83,3.6-.82.32,0,.65.02.97.06.15.02.04,0,.01,0,.09.01.18.03.27.05.19.03.38.08.57.11.89.15,1.85.08,2.49-.64.69-.78.64-1.79.02-2.6-.43-.56-1.02-.92-1.68-1.16-1.16-.42-2.53-.28-3.68.08-1.57.48-2.99,1.31-4.21,2.4-.49.44-.48,1.33,0,1.77.52.48,1.25.47,1.77,0h0Z"/><path class="cls-1" d="M241.75,134.21c-1.33-.21-2.63-.39-3.97-.2-1.07.16-2.14.65-2.9,1.43-.56.58-.94,1.36-.61,2.16s1.19,1.04,1.98.98c1.21-.08,2.17-.76,3.17-1.38.05-.03.63-.36.64-.34,0,.02-.23.08-.04.02.06-.02.12-.04.17-.06.12-.04.23-.06.35-.09.25-.06-.07,0-.07,0,.02-.03.19-.01.22-.01.04,0,.09,0,.13,0,.22,0-.17-.06-.04,0,.03.01.08.02.12.03.2.03-.11-.1-.03-.02.02.02.08.05.11.06.23.13-.19-.17.01.02.47.46,1.31.5,1.77,0s.5-1.28,0-1.77c-.78-.77-1.83-.93-2.87-.72-.87.17-1.62.65-2.36,1.12-.18.12-.36.23-.55.34-.09.05-.19.1-.28.15-.02,0-.18.08-.04.02s-.06.02-.09.03c-.11.04-.23.07-.34.1-.23.06.17.01-.07,0-.05,0-.1,0-.15,0-.13.01.05,0,.08.02-.28-.08,0,.12.23.54.3.2.39.41.27.62-.04.08-.04.08,0,.02.08-.13-.05.06-.05.06,0-.02.08-.09.1-.11.07-.07.14-.14.21-.2.04-.03.07-.06.11-.09-.01.01-.18.12-.06.05.1-.06.19-.12.29-.18.09-.05.17-.09.26-.13.21-.11-.16.05.06-.02.2-.07.41-.13.62-.17.11-.02.35-.1.1-.03.13-.03.28-.03.41-.04.29-.02.58-.01.87,0,.15,0,.29.02.44.03.06,0,.12.01.19.02.02,0,.26.03.15.02-.13-.02.08.01.08.01.08.01.17.02.25.04.17.03.33.05.5.08.64.1,1.38-.17,1.54-.87.14-.6-.18-1.43-.87-1.54h0Z"/><path class="cls-1" d="M239.76,147.66c.24.6.51,1.22.8,1.83.11.23.29.4.38.64.3.87.61,1.74.91,2.61.14.39.29.77.45,1.15.11.24.2.5.28.75.06.26,0,.57-.07.86-.05.18-.36.21-.75.16-.39-.05-.92-.13-1.15-.29-.27-.35-.5-.71-.74-1.08-.23-.38-.37-.83-.5-1.31-.15-.59-.62-1.01-.93-1.54-.32-.6-.63-1.22-.94-1.85-.19-.39-.38-.78-.56-1.17-.29-.59-.53-1.21-.85-1.79-.27-.43-.6-.85-.87-1.3-.06-.1-.13-.19-.17-.3-.11-.42.13-.64.67-.89.13-.06.25-.12.38-.17.42-.16.86-.13,1.22.03.45.27.75.57,1.05.88.31.3.43.68.64,1.05.27.55.52,1.13.82,1.71l-.06.04Z"/><path class="cls-1" d="M288.73,312.32c.75-.28,1.56-.41,2.34-.37.28,0,.56,0,.83.06.95.28,1.74.77,2.39,1.34.29.25.58.49.85.75.35.32.71.69.77,1.21.02.16-.3.29-.66.37-.36.08-.77.15-.92.04-.53-.41-1.07-.67-1.61-1.09-.34-.26-.79-.19-1.17-.18-.42-.02-.85-.03-1.28.11-.27.07-.54.18-.78.34-.36.24-.74.52-.97.91-.18.3-.15.69-.15,1.01,0,.07.03.15.02.21-.03.24-.19.28-.88.28h-.47c-.52,0-.94-.2-1.05-.56-.31-1.05.06-2.2.73-3.05.51-.64,1.23-1.08,1.96-1.42l.03.06Z"/><path class="cls-1" d="M311.54,323.66c-.46.56-1.03.93-1.61,1.18-.21.09-.4.21-.63.26-.78.19-1.55.13-2.24,0-.31-.05-.6-.1-.91-.16-.38-.07-.78-.12-1.1-.37-.2-.15.42-.99.8-.95.62.09,1.21.17,1.96.28.4.06.76-.12,1.09-.27.38-.17.72-.39.98-.69.16-.18.3-.38.37-.6.11-.31.14-.7,0-1.03-.12-.25-.4-.4-.62-.44-.05-.01-.1,0-.14,0-.13-.03-.08-.17.07-.73l.1-.39c.1-.43.38-.75.77-.69.55.09,1.03.46,1.34.91.31.45.47.98.5,1.51.06.79-.25,1.64-.69,2.21l-.04-.02Z"/><path class="cls-1" d="M333.26,316.08c.21-.49.45-.92.81-1.38.12-.16.21-.34.36-.47.54-.44,1.14-.77,1.8-.84.29-.04.57-.09.86-.11.36-.03.8,0,1.06.32.08.1-.09.37-.28.66-.2.28-.38.61-.45.65-.28.12-.41.33-.86.3-.28,0-.4.26-.56.43-.18.18-.33.41-.47.71-.08.18-.15.37-.19.58-.07.31-.17.64-.14.98.03.26.16.52.23.78.01.06.05.11.05.17.02.22-.11.31-.57.41l-.31.07c-.35.06-.66,0-.82-.15-.48-.46-.76-1.01-.78-1.65-.02-.23-.02-.48,0-.72.05-.25.12-.49.2-.74h.06Z"/><path class="cls-1" d="M303.67,314.05c-.27-.19-.62-.34-.93-.38-.12-.02-.23.03-.36.02-.44,0-.97.07-1.4.35-.2.12-.33.3-.44.49-.13.25-.15.5-.33.76-.06.08-.35.07-.63-.05-.29-.12-.58-.39-.54-.66.14-.96.8-1.8,1.63-2.13.49-.21.97-.48,1.51-.56.6-.09,1.21,0,1.74.17.33.1.65.25.94.41.45.24.84.55,1.23.86.29.24.64.42.93.67.07.05.14.1.2.17.2.24.14.41-.22.74-.08.07-.17.15-.25.22-.3.23-.62.32-.83.25-.61-.2-1.09-.37-1.45-.67-.26-.22-.52-.45-.82-.59l.02-.05Z"/><path class="cls-1" d="M329.85,311.88c-.22.26-.51.56-.88.82-.36.24-.77.43-1.21.53-.88.2-1.68.03-2.28-.19-1.2-.45-1.97-1.07-2.73-1.54-.53-.32-1.01-.49-1.58-.7-.97-.35-2.06-.57-3.21-.73-1.15-.15-2.35-.21-3.57-.3-1.08-.08-2.19-.11-3.31-.29-.7-.17-1.42-.38-2.07-.73-.66-.32-1.27-.8-1.67-1.42-.26-.37-.2-.33.2-.26.39.1,1.2,0,1.85.14.62.09,1.23.12,1.86.1.62,0,1.24.11,1.9.12,1.31.06,2.69.06,4.14.2,1.71.17,3.64.15,5.48.92,1.04.45,1.85,1.03,2.58,1.46.73.44,1.45.7,1.78.56.25-.06.46-.24.78-.71.29-.45.76-1.09,1.27-1.52,1.6-1.39,3.57-1.75,5.34-2.06,1.39-.22,2.69-.5,3.87-.87.26-.08.5-.19.74-.28.9-.32,1.18-.29,1.74.29.13.13.27.25.38.39.39.45.2,1.16-.64,1.66-2.52,1.42-5.32,1.33-7.28,1.91-.75.21-1.42.49-1.94.83-.26.17-.48.37-.67.58-.18.18-.4.59-.83,1.14l-.06-.04Z"/><path class="cls-1" d="M282.69,85.63c.04.22-.18.34-.53.42-.11.03-.41-.05-.44-.11-.06-.13-.13-.26-.17-.39-.02-.08-.04-1.23-.08-1.63-.03-.39-.01-.76.03-1.13l.19-2.27c.02-.17.05-.33.12-.49.21-.54.31-1.11.37-1.68,0-.1.04-.19-.03-.3-.12-.18.14-1.72.25-1.9.27-.45.54-.91.8-1.37.04-.07.02-.15.14-.19.28-.1.27-.25.33-.4.08-.2.17-.4.29-.6.06-.1.22-.17.35-.25.12-.07.45.05.48.09.09.12.27.08.41.1.05,0,.11.02.15.03.08.03.47,1.37.45,1.51,0,.02-.02.48-.05.97,0,.49-.06.99-.06,1.1,0,.11-.09.2-.15.3-.03.05-.17,1.49-.19,1.55-.1.28-.08.59-.36.84-.06.05-.07.11-.08.17-.12.5-.36.97-.55,1.46-.1.25-.15.5-.23.76-.01.05-.06.08-.08.13-.03.05-.07.11-.09.16-.16.6-.43,1.18-.54,1.79-.03.14-.4.76-.42.92-.02.09-.33.33-.31.42Z"/><path class="cls-1" d="M287.83,89.33c.03.18-.21.2-.61.15-.13-.02-.46-.17-.49-.23-.06-.13-.11-.25-.13-.37-.02-.07.22-1.02.34-1.34.09-.32.26-.6.44-.86.37-.53.76-1.07,1.22-1.54.1-.11.21-.2.35-.26.45-.24.83-.54,1.21-.87.06-.05.14-.09.16-.2.02-.1.31-.33.63-.54.33-.19.69-.35.78-.36.46-.05.9-.13,1.35-.15.06,0,.12-.05.2.02.19.17.3.1.43.08.18-.03.36-.03.55,0,.09.02.2.12.3.19.09.07.11.39.09.43-.05.12.03.25.07.38.01.04.02.1.03.14-.01.08-.72.82-.8.85-.04-.02-1.12.58-1.21.7-.05.05-.14.04-.22.05-.04,0-.81.61-.84.63-.19.08-.31.26-.58.23-.05,0-.08.03-.11.05-.27.23-.59.4-.88.61-.15.1-.26.26-.39.38-.02.02-.07.03-.1.04-.04.02-.08.04-.11.07-.28.33-.63.62-.82,1.02-.05.08-.47.4-.5.52-.03.06-.36.13-.35.21Z"/><path class="cls-1" d="M289.49,95.27c-.06.19-.27-.05-.59-.52-.1-.15-.32-.65-.32-.74.01-.17.03-.34.07-.47.02-.08.7-.67.95-.87.23-.21.51-.31.78-.39.56-.16,1.13-.33,1.72-.42.13-.02.26-.01.4.03.46.15.89.13,1.34.08.07,0,.15,0,.23-.09.13-.2,1.36-.05,1.5.07.35.26.71.47,1.03.72.05.03.11.01.13.14.03.3.15.29.26.34.14.07.28.17.39.31.06.07.07.25.1.39.02.13-.17.51-.2.55-.11.1-.13.31-.19.47-.02.06-.05.13-.07.17-.06.09-.99.54-1.05.53-.02-.03-1.07-.03-1.19.03-.06.02-.11-.05-.17-.1-.03-.04-.86.14-.88.13-.17-.05-.33.05-.5-.21-.03-.05-.07-.04-.1-.03-.29.04-.59-.06-.89-.09-.16-.02-.3.03-.45.04-.03,0-.06-.03-.09-.04-.04-.02-.08-.04-.11-.03-.35.08-.74.02-1.07.22-.07.04-.54-.1-.63-.03-.04.03-.36-.26-.38-.18Z"/></svg>