<?xml version="1.0" encoding="UTF-8"?><svg id="Layer_1" xmlns="http://www.w3.org/2000/svg" width="520" height="520" viewBox="0 0 520 520"><defs><style>.cls-1,.cls-2,.cls-3,.cls-4{fill:#231f20;}.cls-5,.cls-3{opacity:.45;}.cls-2{opacity:.5;}.cls-4{opacity:.4;}</style></defs><path class="cls-1" d="M290.71,494.08c-.37.07-.71.05-1.04-.02-.33-.14-.64-.34-.92-.42-.18-.06-.16-.14.05-.27.4-.23.79-.56,1.22-.63.13-.04,1.21-.24,2.43-.46,1.22-.18,2.58-.39,3.28-.5,1.34-.22,2.68-.36,4.03-.48,2.74-.27,5.48-.5,8.23-.67.61-.04,1.22-.05,1.83-.04,2.1.04,4.19-.06,6.29-.21.35-.02.71-.03,1.04-.13.55-.18,6.25-.39,6.99-.34,1.84.12,3.67.17,5.51.31.26.02.54-.01.78.09.56.23,1.12.19,1.69.21.79.02,1.57.12,2.36.21.39.05.77.18,1.15.27.35.09.15.36.03.39-.35.09-.07.22-.04.34.01.04.02.09,0,.12,0,.02-.3.07-.73.14-.44.07-1.02.17-1.61.27-1.19.22-2.43.36-2.68.37-.06,0-1.73.09-3.47.18-1.74.09-3.56.19-3.94.23-.39.04-.78,0-1.17-.03-.18-.02-5.41.38-5.62.39-1.09.02-2.17.17-3.26.01-.21-.03-.43,0-.65,0-1.86.14-3.73.16-5.6.23-.95.03-1.91.12-2.86.18-.17.01-.35-.01-.52-.02-.22,0-.44-.02-.65,0-2.26.14-4.53.16-6.78.38-.52.05-3.02-.02-3.62.04-.34.02-1.46-.24-1.75-.18Z"/><path class="cls-1" d="M356.47,492.78c-.21.02-.4-.03-.58-.1-.18-.11-.35-.24-.51-.29-.1-.04-.09-.08.03-.15.23-.13.45-.35.68-.43.07,0,.66-.31,1.35-.39.68-.13,1.44-.28,1.83-.36.75-.16,1.49-.28,2.25-.32l4.59-.35c.34-.03.68-.03,1.02,0,1.17.06,2.34,0,3.5-.12.19-.02.39-.02.58-.11.3-.15,3.46-.37,3.88-.3,1.03.1,2.05.15,3.08.21.15,0,.3-.03.44.05.32.19.63.14.95.14.44,0,.88.01,1.32.05.22.02.44.12.65.2.2.07.11.37.04.41-.19.1-.02.23,0,.35,0,.04.02.09.01.13-.02.07-2.5.75-2.77.77-.03,0-.96.11-1.94.22-.97.11-1.99.24-2.2.27-.22.04-.44,0-.66-.01-.11.01-3.03.29-3.14.3-.61,0-1.21.11-1.83-.04-.12-.03-.24-.01-.37,0-1.04.08-2.09.06-3.14.06-.53,0-1.07.05-1.6.08-.1,0-.19-.02-.29-.02-.12,0-.24-.03-.37-.02-1.26.08-2.53.06-3.79.13-.29.02-1.69-.15-2.03-.11-.09,0-.3-.05-.5-.1-.2-.07-.4-.14-.49-.13Z"/><path class="cls-4" d="M295.11,80.38s44.15-51.02,64.65-47.5c13.74,2.36,13.78,13.42,13.78,13.42,0,0-11.3-7.42-12.93.01-1.63,7.43-8.38,50.57-11.13,48.44-2.75-2.13-34.02-11.12-40.46-12.28-6.44-1.16-13.92-2.1-13.92-2.1Z"/><path class="cls-1" d="M347.69,80.4c-.6-.35-1.16-.78-1.64-1.22-.18-.16-.39-.26-.55-.44-.53-.65-.95-1.33-1.37-1.97-.19-.28-.41-.53-.63-.77-.29-.31-.61-.58-.73-1.02-.04-.14.26-.36.61-.53.36-.16.79-.27.98-.12.65.54,1.22,1.08,1.65,1.76.25.42.73.61,1.08.9.39.33.78.64,1.21.89.26.16.54.3.83.4.43.15.89.29,1.34.25.35-.03.66-.25.92-.43.06-.04.11-.1.16-.14.22-.11.34.02.69.63l.25.42c.27.47.32.94.08,1.22-.72.78-1.87,1.07-2.85.9-.75-.1-1.43-.37-2.07-.68l.02-.06Z"/><path class="cls-1" d="M350.27,70.43c-.32-.36-.61-.74-.86-1.13-.1-.13-.22-.25-.29-.41-.25-.55-.42-1.11-.56-1.65-.07-.24-.14-.47-.23-.69-.1-.29-.23-.59-.14-.92.03-.1.3-.13.59-.11.29.02.61.08.67.2.24.45.48.85.62,1.36.07.31.36.5.57.73.21.27.43.54.68.78.15.15.31.3.49.42.26.19.54.38.86.46.25.05.53-.04.78-.11.05-.01.11-.05.16-.06.19-.03.22.14.19.8l-.02.45c-.03.51-.18.91-.41,1.01-.67.31-1.37.11-1.95-.21-.44-.24-.82-.56-1.17-.89l.03-.04Z"/><path class="cls-1" d="M353.64,59.82c-.19-.24-.36-.5-.52-.74-.06-.09-.16-.13-.21-.23-.18-.34-.31-.7-.44-1.03-.06-.14-.16-.26-.27-.37-.14-.14-.36-.24-.27-.52.06-.16,1.75-.96,1.86-.87.2.19.32.42.32.82,0,.24.21.3.32.44.13.16.25.33.39.49.08.1.17.2.27.29.15.13.29.28.49.33.15.03.35-.07.52-.13.04-.01.08-.05.11-.05.12-.01.1.16-.06.8l-.11.44c-.13.5-.31.89-.48.99-.48.3-.9.17-1.25-.03-.27-.15-.49-.37-.71-.57l.03-.05Z"/><polygon class="cls-3" points="274.52 216.45 280.78 216.45 277.65 209.17 274.52 216.45"/><polygon class="cls-1" points="312.2 243.93 313.36 234.93 317.46 240.76 312.2 243.93"/><polygon class="cls-3" points="339.74 217.36 348.29 210.4 347.74 219.87 339.74 217.36"/><path class="cls-3" d="M284.09,304.52l8.35-4.83s-4.54-7.87-6.38-3.01c-1.84,4.86-1.96,7.84-1.96,7.84Z"/><path class="cls-1" d="M360.04,302.28s3.03-9.42,4.81-7.18c1.78,2.24,3.76,8.89,3.76,8.89l-8.57-1.71Z"/><path class="cls-1" d="M308.75,335.63s3.52-10.88,5.31-7.52,5.89,9.47,2.24,8.91-7.55-1.4-7.55-1.4Z"/><polygon class="cls-3" points="371.67 363.73 374.99 355.63 381.31 362.07 371.67 363.73"/><polygon class="cls-1" points="392.49 213.69 391.32 220.86 398.8 219.68 392.49 213.69"/><path class="cls-1" d="M281.88,212.12l.08,1.67.04.83c.01.14,0,.28.01.42,0,.14,0,.25.02.53.02.34.08.69.08,1.03,0,.08,0,.17,0,.25,0,.04,0,.08-.03.11-.01.04,0,.08-.02.11-.03.15-.07.29-.12.43-.18.49-.7.88-1.17.95-.5.1-1.12.02-1.71-.12l-.72-.17-.53-.14-1.05-.3c-.62-.18-1.25-.31-1.87-.46-.4-.08-.8-.17-1.18-.33-.39-.12-.74-.38-1.07-.69-.18-.27-.15-.25.13-.44.14-.1.33-.21.56-.34.11-.06.24-.15.36-.19.12-.03.23-.05.35-.04.83-.03,1.58.2,2.36.33.78.15,1.55.32,2.32.54.15.03.16.07.19.08.04.02.07.04.11.05.08.03.17.04.25.05.19.04.29-.17.22-.34,0-.08,0-.17-.02-.29-.02-.19-.07-.53-.08-.78l-.13-1.66-.17-2.04c-.1-1.03-.18-2.06-.35-3.08-.13-.79-.41-1.53-.61-2.29-.05-.17-.11-.33-.14-.5-.13-.63.06-.87.68-1.12.14-.06.28-.12.42-.17.46-.14.96.04,1.2.49.68,1.32,1.08,2.79,1.3,4.28.15,1.11.24,2.23.35,3.35h-.07Z"/><path class="cls-1" d="M285.86,304.08c0,.06.07.08.19.07.06,0,.13-.02.21-.05.04-.02,0,0,.11-.06l.26-.16.53-.32c.51-.32.97-.71,1.48-1.05l1.33-.9,1.19-.86c.12-.09.23-.15.3-.22.09-.08.13-.2.1-.31-.03-.11-.09-.2-.15-.3-.04-.06-.05-.09-.11-.18l-.23-.33c-.55-.79-1.21-1.5-1.79-2.26-.79-.94-1.62-1.84-2.26-2.95-.2-.34-.03-.45.41-.42.42.04,1.22.11,1.84.52.52.4,1.04.8,1.54,1.23.5.42,1.01.85,1.4,1.37l.61.77.71.95c.16.25.35.48.48.73.12.25.2.5.23.76.07.52-.09,1.08-.42,1.49-.19.26-.44.47-.66.66-.22.19-.48.44-.6.53l-.91.79c-.61.53-1.22,1.06-1.87,1.54-.36.26-.72.52-1.08.77-.4.27-.62.43-1.31.83-1.17.73-2.28,1.31-3.33,1.85l-.89.46c-.27.12-.65.39-.77.29l.47-2.67c.2-1.18.45-2.41.71-3.47.19-.79.38-1.58.57-2.36.29-1.22.47-2.44.76-3.66.06-.27.11-.53.19-.8.37-.96.66-1.2,1.23-1.23.13,0,.26-.03.38-.02.4.04.59.54.56,1.3-.16,2.21-.66,4.39-1.04,6.61-.2,1.11-.13.64-.17.77-.02.02-.07.1-.08.15,0,.02-.02.04-.01.04l-.08.14Z"/><path class="cls-1" d="M379.08,360.77s.04-.13-.05-.24l-1.52-1.54c-.39-.39-.83-.71-1.21-1.1-.35-.36-.65-.68-.87-.86-.1-.11-.26-.2-.44-.19-.09,0-.17.04-.26.08-.06.03-.19.13-.34.28-.28.28-.6.67-.87,1.02-.51.64-.87,1.38-1.23,2.1-.46.94-.69,1.94-1.3,2.84-.39.23-.57.15-1.03-.29-.46-.43-.8-1.14-.64-1.8.33-1.15.72-2.33,1.41-3.33.33-.51.69-1,1.08-1.46.2-.23.39-.45.65-.7.13-.13.26-.25.42-.38.19-.16.4-.3.61-.42,1.01-.61,2.3-.53,3.26.1.81.53,1.24.97,1.76,1.43l1.65,1.55.93.87c.42.4.9.79,1.23,1.2.4.5.65.92.67,1.5,0,.29-.12.61-.3.81-.18.2-.39.34-.66.48-.36.23-.86.38-1.34.53l-.74.21-.64.15c-.71.15-1.41.3-2.11.45-1.09.23-2.15.57-3.25.78-.24.05-.48.12-.73.14-.92.09-1.22-.1-1.42-.86-.04-.17-.1-.33-.13-.5-.08-.54.27-1.07.87-1.26,1.8-.58,3.64-.93,5.47-1.39l.51-.13.25-.07s.02,0,.03,0c0,0,.01.01.03.02.03.02.13.02.13-.02h.11Z"/><path class="cls-1" d="M391.79,222.56c-.84-.06-1.62-.47-2.09-1.12-.48-.64-.63-1.55-.62-2.3v-.61c0-.18.02-.34.04-.52.18-1.19.43-2.38.64-3.55.1-.52.11-1.06.21-1.57.05-.33.08-.67.15-1,.1-.33.27-.65.45-.96.13-.19.35-.13.64.08.27.21.71.6.86.99.06.34.07.68.1,1.02.02.34.05.68-.02,1-.1.66-.25,1.32-.44,1.98-.23.79-.16,1.64-.22,2.47-.02.21-.03.4-.03.57-.01.08-.01.17,0,.27.01.19.09.41.28.51.11.07.25.08.38.08h.1s.2-.03.2-.03l.42-.07c.85-.16,1.72-.2,2.55-.41.65-.16,1.25-.49,1.87-.75.14-.06.26-.14.41-.19.53-.13.74.1,1,.86.06.17.12.33.17.48.14.5.03,1.13-.31,1.43-1.05.79-2.27,1.01-3.49,1.22-.46.06-.91.14-1.38.16l-.7.02-.48.02c-.22.03-.45.01-.66,0v-.07Z"/><path class="cls-2" d="M273.76,108.86s-14.09-4.91-10.55-12.41c4.47-9.48,19.52-12.98,34.91-12.61s40.52,2.91,61.65,22.22c21.13,19.31,5.43,18.35,5.43,18.35,0,0-22.92-5.27-25.93-6.6s-32.86-21.44-32.86-21.44c0,0-10.55-1.06-17.16.98s-15.48,11.51-15.48,11.51Z"/><path class="cls-1" d="M318.02,369.79l2.37,58.8s-1.5,33.47-2.37,36.92c-.88,3.45-19.23,18.53-20.84,20.67s-4.69,2.46-1.17,3.56c11,3.45,33.6-9.82,33.6-9.82l7.36-68.27,6.37-40.18s2.36-4.16-3.01-4.59-22.31,2.91-22.31,2.91Z"/><path class="cls-1" d="M342.16,411.64s6.68-24.37,4.66-28.58c-.74-1.55,20.85,41.81,20.85,41.81l20.76,46.43s-5.4,12.06-9.23,13.69c-3.82,1.63-12.34,5.32-12.34,5.32,0,0-2.98-1.83-2.34-3.29.64-1.46,5.99-11.37,5.99-11.37l4.65-9.03-7.46-15.76-19.97-30.8-5.58-8.41Z"/><path class="cls-1" d="M369.49,283.19c-.27-.8-.47-1.6-.62-2.41-.07-.29-.19-.56-.22-.86-.11-1.05-.1-2.09-.01-3.11.05-.45.06-.9.05-1.34.03-.56-.11-1.17.38-1.67.18-.15.57-.05,1.08.16.55.23,1.13.53,1.15.8.12.97.29,1.85,0,2.86-.15.61.14,1.19.26,1.77.14.65.3,1.3.53,1.94.14.39.29.78.48,1.15.29.56.59,1.13,1.02,1.6.35.35.83.56,1.26.77.09.05.21.08.29.13.33.2.23.5-.2,1.18l-.3.47c-.35.51-.82.81-1.25.76-1.18-.24-2.08-1.03-2.77-1.94-.51-.68-.87-1.47-1.2-2.25l.07-.04Z"/><path class="cls-1" d="M368.36,281.38c-.39-1.61-.62-3.21-.81-4.78-.06-.57-.2-1.13-.25-1.7-.19-2-.33-3.98-.61-5.93-.14-.86-.36-1.7-.63-2.51-.19-.52-.38-1.03-.6-1.53l-.15-.38c-.02-.14-.05-.28-.08-.42-.06-.28-.12-.55-.18-.84-.06-.36.05-.38.39-.22.17.08.41.19.7.34.14.08.29.16.44.26.07.05.13.11.22.16.04.07.09.14.13.22,1.16,2.16,1.82,4.52,2.06,6.88.1,1.42.44,2.83.66,4.23.23,1.53.47,3.05.83,4.52.21.91.49,1.79.8,2.66.49,1.31,1.11,2.6,1.89,3.78.61.92,1.4,1.68,2.08,2.54.15.19.32.35.47.55.55.72.6,1.05.27,1.56-.07.12-.14.24-.22.34-.28.34-.81.28-1.36-.15-.8-.65-1.64-1.33-2.31-2.17-.68-.84-1.31-1.75-1.87-2.72-.83-1.44-1.52-3.04-1.93-4.66l.06-.02Z"/><path class="cls-1" d="M273.4,357.81c-.29-1.73-.34-3.45-.2-5.11.05-.6.03-1.21.11-1.8.26-2.1.74-4.1,1.06-6.13.17-.9.19-1.81.38-2.7.18-1.15.42-2.29.71-3.43.09-.35.12-.3.2.01.07.31.27.89.37,1.57l.22,1.8c.03.3.07.6.08.9l-.04.89c-.06,1.18-.17,2.37-.36,3.54-.21,1.41-.2,2.88-.24,4.29-.04,1.55-.03,3.09.15,4.6.12.93.3,1.84.6,2.71.45,1.31,1.12,2.59,2.07,3.59.73.8,1.69,1.25,2.59,1.64.2.09.41.12.61.21.38.1.56.38.71.56.14.19.21.43.24.73.02.14.05.27.06.39.03.36-.44.74-1.31.82-.33.06-.63-.02-.93-.09-.31-.06-.6-.16-.9-.27-.6-.21-1.14-.54-1.66-.9-1.03-.74-1.87-1.7-2.56-2.73-1.03-1.53-1.67-3.32-2.02-5.06l.06-.02Z"/><path class="cls-1" d="M375.61,254.82c.28-1.23.65-2.35,1.01-3.48.13-.41.22-.83.37-1.24.52-1.43,1.09-2.84,1.68-4.22.25-.62.5-1.24.79-1.84.35-.78.73-1.54,1.18-2.26.14-.23.18-.17.18.08,0,.24-.02.68-.13,1.16-.22.83-.39,1.68-.63,2.5-.27.81-.55,1.61-.86,2.41-.37.96-.55,2.02-.79,3.04-.26,1.12-.51,2.25-.71,3.37-.11.68-.2,1.36-.2,2.03,0,1,.09,2.02.58,2.85.37.64.98,1.1,1.57,1.35.13.05.27.08.39.14.45.19.55.34.6.94.01.14.04.27.04.41.03.44-.33.82-1.02.77-1.02-.05-1.94-.64-2.63-1.34-.69-.73-1.17-1.63-1.44-2.6-.18-.7-.27-1.4-.26-2.08.02-.68.12-1.34.24-1.96h.05Z"/><path class="cls-1" d="M375.19,264.3c.67-.67,1.43-1.23,2.29-1.65.3-.16.61-.34.96-.41,1.22-.29,2.53-.17,3.57.27.47.19.91.38,1.33.59.55.27,1.07.55,1.53.94.14.12.05.25-.17.34-.22.09-.58.17-.9.09-.57-.15-1.14-.26-1.67-.35-.25-.04-.51-.07-.77-.11-.24-.05-.47-.1-.72-.15-.58-.12-1.17.16-1.71.41-.62.24-1.25.59-1.8,1.07-.34.29-.66.61-.94.98-.42.56-.82,1.17-1.08,1.84-.21.52-.25,1.1-.39,1.64-.03.12-.04.24-.08.36-.15.44-.33.54-.82.49-.11-.01-.23-.02-.34-.04-.37-.07-.61-.35-.64-.73-.02-.56-.03-1.14.12-1.69.14-.55.36-1.11.62-1.65.4-.81.92-1.58,1.56-2.29l.04.03Z"/><path class="cls-1" d="M230.02,230.12c-.18-1.43-.09-2.94.36-4.35.14-.51.28-1.02.51-1.48.81-1.65,2.04-2.96,3.4-3.99.59-.48,1.19-.93,1.81-1.35.77-.59,1.73-.91,2.71-.98.31-.02.33.25.21.63-.13.37-.35.92-.7,1.25-.6.63-1.29,1.02-1.89,1.58-.61.53-1.21,1.09-1.8,1.68-.73.69-1.16,1.66-1.5,2.58-.39,1.01-.58,2.06-.49,3.18.04.69.16,1.39.35,2.08.29,1.05.69,2.11,1.26,3.08.44.76,1.06,1.39,1.61,2.07.12.15.26.29.37.45.29.67.23,1-.14,1.43-.09.1-.16.21-.25.29-.29.28-.76.23-1.3-.06-.43-.2-.73-.49-1.03-.8-.3-.3-.57-.64-.83-.98-.52-.69-.98-1.47-1.39-2.28-.6-1.22-1.09-2.55-1.32-4l.07-.02Z"/><path class="cls-1" d="M238.34,220.31c-.68.15-1.4.27-2.13.35-.27.03-.52.12-.8.12-.48,0-.98-.04-1.46-.14-.48-.12-.94-.27-1.38-.46-.39-.17-.78-.32-1.16-.51-.48-.25-.91-.67-1.02-1.26-.04-.18.09-.24.34-.31.24-.04.69-.22.95-.23.2.04.41.03.59.06.16.06.33.11.5.17.34.11.69.23,1.07.36.46.17.96.05,1.48-.01.57-.06,1.16-.17,1.76-.33.37-.1.74-.2,1.12-.33.56-.2,1.15-.38,1.7-.63.42-.2.78-.53,1.17-.8.09-.06.16-.14.26-.16.38-.09.56.04.85.51.07.11.14.21.19.32.19.36.19.75.02,1.07-.23.51-.6.74-.95,1.01-.36.25-.75.46-1.14.65-.6.24-1.25.42-1.92.62l-.02-.06Z"/><path class="cls-1" d="M202.5,189.21c.27.22.54.45.82.65.1.07.22.1.32.18.35.27.67.61,1.01.88.15.12.32.21.48.29.21.11.44.19.6.41.05.07-.04.23-.18.39-.14.16-.35.32-.49.31-.49-.06-.96-.15-1.36-.43-.24-.16-.55-.2-.82-.3-.29-.12-.58-.26-.87-.4-.18-.08-.36-.17-.54-.24-.28-.11-.55-.25-.84-.29-.23-.03-.5.07-.75.11-.05,0-.11.04-.17.04-.19,0-.19-.22-.05-.83l.1-.43c.12-.47.31-.85.5-.97.54-.3.98-.2,1.39.03.31.15.59.37.88.55l-.02.05Z"/><path class="cls-1" d="M346.67,95.21c-.89-.4-1.72-.85-2.54-1.29-.3-.16-.62-.25-.92-.42-1.01-.64-1.98-1.33-2.98-1.92-.45-.26-.91-.48-1.37-.69-.3-.13-.6-.24-.9-.38-.15-.07-.3-.12-.43-.24-.13-.12-.25-.24-.38-.37-.15-.17-.06-.36.21-.59.13-.12.32-.25.53-.38.1-.06.22-.14.33-.17.1-.02.2-.03.3,0,.68.14,1.36.31,2,.54.64.25,1.23.58,1.8.96.68.47,1.51.64,2.24.99.81.39,1.6.77,2.41,1.12.5.2,1,.41,1.51.57.77.25,1.56.47,2.35.53.62.02,1.23-.16,1.8-.32.13-.03.25-.09.37-.12.23-.05.39-.04.52.11.13.17.23.43.33.8.05.17.1.34.14.51.06.28.06.54-.01.79-.07.25-.21.51-.43.59-1.25.64-2.72.62-4.05.34-1-.2-1.95-.54-2.85-.9l.02-.07Z"/><path class="cls-1" d="M348.5,94.36c-.92-.12-1.81-.37-2.64-.65-.3-.1-.62-.14-.91-.26-1.04-.43-1.99-.95-2.94-1.46-.41-.24-.83-.46-1.24-.67-.53-.26-1.07-.52-1.53-.92-.14-.13-.03-.32.21-.48.24-.16.63-.33.97-.27.6.12,1.19.25,1.76.4.58.12,1.07.45,1.59.72.61.36,1.34.45,2.01.61.74.19,1.48.34,2.23.41.46.05.93.09,1.39.07.7-.03,1.41-.09,2.05-.34.51-.19.87-.63,1.26-.93.09-.06.16-.15.25-.2.43-.08.67.01,1.07.35.09.08.19.14.27.22.26.24.33.63.2,1.13-.2.75-.74,1.2-1.31,1.51-.58.33-1.21.53-1.85.66-.95.2-1.92.2-2.84.14v-.06Z"/><path class="cls-1" d="M353.29,72.72l1.43-8.39c.16-1.02.23-2.06.43-3.07.68-3.59,1.37-7.18,2.05-10.76.3-1.59.49-3.21.67-4.81.11-1.03.19-2.06.36-3.08.08-.51.16-1.02.27-1.53.09-.51.33-1,.53-1.5.34-.61.55-.5,1.02.1.24.3.51.72.8,1.23.24.5.36,1.07.36,1.67,0,2.13-.25,4.23-.48,6.33-.25,2.1-.57,4.2-1.1,6.28-.59,2.49-.78,5.14-1.19,7.72-.49,2.83-1.05,5.64-1.58,8.46l-1,5.2c-.49,2.63-1.03,5.26-1.44,7.87-.32,2.03-.48,4.05-.74,6.08-.06.45-.09.89-.16,1.33-.27,1.66-.54,2.15-1.26,2.39-.16.05-.33.14-.49.16-.53.07-.84-.67-.81-1.91.09-3.67.53-7.47,1.03-11.29.37-2.83.81-5.66,1.21-8.49h.08Z"/><path class="cls-1" d="M350.25,85.86c.39-1.55.77-3.11,1.12-4.67.13-.57.18-1.15.31-1.72.47-2.01.94-4.01,1.47-6.02.22-.89.38-1.8.55-2.69.19-1.15.51-2.29.83-3.42.11-.35.12-.3.18.01.04.31.2.9.27,1.58.12,1.21.1,2.41.04,3.61-.06,1.2-.14,2.39-.36,3.58-.33,1.41-.39,2.91-.59,4.37-.22,1.6-.48,3.2-.73,4.8-.15.97-.31,1.98-.59,3-.42,1.53-1.04,3.14-2.35,4.44-.51.5-1.12.93-1.8,1.24-.69.3-1.35.41-1.92.51-.25.04-.47.11-.69.15-.38.09-.62-.06-.82-.15-.2-.12-.38-.31-.6-.57-.1-.12-.23-.23-.32-.35-.16-.2-.2-.43-.1-.72.1-.29.37-.63.77-.9.59-.41,1.2-.5,1.68-.69.49-.15.85-.34,1.06-.44.41-.23.76-.5,1.16-1.14.59-.93,1-2.32,1.36-3.83h.07Z"/><path class="cls-1" d="M289.66,97.11c-1.43.38-2.86.86-4.26,1.43-.51.2-.98.51-1.49.72-1.79.78-3.54,1.61-5.14,2.67-.7.48-1.3,1.08-1.9,1.66-.39.37-.67.82-1.1,1.17-.41.37-.83.75-1.22,1.18-.26.26-.29.2-.33-.15-.03-.34-.19-1.08-.06-1.85.09-.32.11-.69.28-.97.15-.29.32-.57.5-.84.35-.55.74-1.08,1.23-1.49.94-.86,1.99-1.57,3.11-2.11,1.35-.61,2.6-1.45,3.94-2.05,1.47-.67,2.98-1.25,4.52-1.75.95-.31,1.92-.56,2.89-.8,1.47-.36,2.99-.56,4.5-.72,1.17-.11,2.34-.33,3.55-.32.26.02.52.02.79.07.98.16,1.24.49,1.28,1.17,0,.16.03.32.02.47-.04.5-.51.87-1.15.95-.48.08-.95.16-1.42.24l-1.4.11c-.93.07-1.88.17-2.83.32-1.41.22-2.86.51-4.28.95l-.02-.07Z"/><path class="cls-1" d="M300.38,163.06c.57-1.81,1.48-3.47,2.66-4.89.42-.52.83-1.07,1.33-1.51.86-.79,1.84-1.38,2.77-1.93.94-.55,1.88-1.06,2.81-1.57.83-.46,1.65-.93,2.47-1.38.52-.29,1.12-.47,1.7-.66.6-.15,1.12-.45,1.69-.64.7-.27-.05.36-1.02,1.4-.42.48-.8,1.02-1.23,1.46l-1.43,1.09c-.97.69-1.98,1.32-3,1.94-1.23.73-2.23,1.78-3.14,2.74-.99,1.07-1.8,2.35-2.32,3.75-.33.86-.55,1.77-.64,2.69-.14,1.39-.08,2.84.4,4.17.36,1.04,1.03,1.92,1.72,2.71.15.17.33.32.48.5.55.65.56.99.14,1.68-.1.16-.18.33-.29.48-.35.49-1.02.58-1.71.12-1.99-1.41-3.3-3.83-3.78-6.39-.39-1.91-.21-3.92.31-5.76l.08.02Z"/><path class="cls-1" d="M301.46,169.64c-.51-1.47-.71-3.07-.57-4.56.03-.55.08-1.09.21-1.62.52-1.85,1.36-3.54,2.54-4.93.51-.62,1.05-1.22,1.62-1.76.73-.7,1.53-1.32,2.42-1.78.27-.15.27-.08.11.15-.16.22-.45.63-.81,1.05-.66.73-1.18,1.55-1.66,2.37-.47.83-.87,1.66-1.35,2.46-.54.99-.72,2.17-.81,3.27-.13,1.23-.1,2.46.26,3.64.2.73.5,1.44.91,2.1.6.99,1.37,1.92,2.33,2.57.74.51,1.62.74,2.44.87.18.04.36.04.55.06.66.12.85.24.98.97.03.16.07.32.09.47.07.51-.3.96-1.01,1.04-2.06.15-4.28-.79-5.77-2.34-1.14-1.13-1.98-2.52-2.53-4l.06-.03Z"/><path class="cls-1" d="M323.15,108.68c-.7,1.7,3.43,13.2,3.43,13.2,0,0,3.77-3.26,6.78-.24,3,3.02,3.74,8.16,3.74,8.16l-5.26,4.42-5.26,1.79s-2.09,15.71-3.51,18.64c-1.42,2.92-2.71,7.63-1.01,9.54,1.71,1.91,5.7,4.85,6.52,6.44s2.9,6.07,6.62,5.77,8.34-.57,9.8.77c1.46,1.33,6.23,6.87,8.68,7.42s9.48-.33,11.33-2.99,7-10.01,6.83-10.86.19-8.83-1.51-9.88c-1.7-1.06-7.87-8.23-7.87-8.23l-1.86-10.13s1.76-10.28-.47-14.25-9.97-5.68-9.97-5.68l-23.58-10.27-3.43-3.61Z"/><path class="cls-1" d="M282.88,150s-.19,5.39-4.37,10.08c-4.18,4.68-5.48,5.67-5.05,7.52.43,1.85,6.73,3.67,9.42,5.33,2.69,1.66,3.6,5.59,4.55,7.22.95,1.64,3.51,3.69,3.51,3.69,0,0,8.06-7.29,11.23-7.66,3.16-.37,1.65-2.96,0-6.39-1.65-3.44-.14-11.66-.14-11.66l1.55-1.28-14.32-1.11-6.36-5.74Z"/><path class="cls-1" d="M369.25,450.64c1.57,2.69,3.13,5.39,4.64,8.16.75,1.39,1.5,2.77,2.2,4.25l.52,1.15.25.64c.1.25.17.64.26.96.09.33.09.68.09,1.01-.04.34-.11.67-.22,1-.11.37-.2.55-.28.77-.09.22-.18.41-.27.61-1.09,2.23-2.2,4.18-3.4,6.13-1.6,2.56-3.22,5.08-4.7,7.63-.74,1.27-1.43,2.57-2,3.82l-.2.47-.09.23c-.05.14-.1.28-.12.44-.02.15-.03.32.06.45.09.13.25.16.39.22.2.04.4.09.62.1.29,0,.78,0,1.17-.05.83-.11,1.69-.35,2.53-.68,3.05-1.24,5.8-3.49,8.23-5.88,1.54-1.57,3.04-3.21,4.45-4.91.71-.85,1.4-1.72,2.07-2.6.62-.91,1.53-1.65,2.23-2.54.82-1.14.77-.97.47.22-.18.58-.25,1.53-.49,2.62-.29,1.06-.85,2.19-1.56,3.33-1.14,1.73-2.33,3.45-3.73,5-1.41,1.54-2.92,3-4.58,4.34-1.67,1.33-3.47,2.56-5.56,3.48-1.05.45-2.17.83-3.39,1.02-.63.1-1.19.14-1.94.14-.46-.06-.93-.07-1.38-.16-.43-.12-.88-.2-1.29-.35l-.63-.36-.31-.18c-.07-.09-.17-.17-.25-.25-.34-.34-.56-.82-.67-1.28-.24-.94-.04-2.01.3-3.01l.13-.43.11-.28.22-.54c.16-.34.3-.7.48-1.03.33-.67.67-1.32,1.02-1.96.7-1.28,1.41-2.54,2.13-3.78,1.45-2.46,2.9-4.93,4.34-7.38.77-1.32,1.56-2.67,2.12-3.93l.16-.39c.02-.07.05-.13.06-.2.04-.14-.01-.28-.06-.43-.22-.59-.54-1.29-.88-1.96-1.36-2.71-2.93-5.43-4.49-8.11-1.94-3.31-3.91-6.61-5.92-9.89-3.09-4.93-5.95-10.05-9.13-14.89-2.43-3.79-4.99-7.39-7.47-11.1-.55-.82-1.1-1.6-1.63-2.44-1.96-3.11-2.32-4.26-1.86-5.44.11-.27.18-.59.33-.79.5-.69,1.78.29,3.33,2.46,4.63,6.44,9.15,13.48,13.66,20.58l2.63,3.89c.88,1.3,1.66,2.66,2.49,3.99l4.89,8.06-.08.06Z"/><path class="cls-1" d="M314.67,468.32c.68-.72,1.3-1.47,1.76-2.19l.16-.27.02-.03h0c2.03,1.08.54.28.98.51l-.05-.03-.18-.11c-.24-.15-.51-.29-.75-.41,0-.01,0-.03,0-.04,0-.05.02,0,.05-.12l.07-.32c.11-.4.17-.93.25-1.42.29-2.03.47-4.18.64-6.31.32-4.28.53-8.59.7-12.9.12-3.15.11-6.3.2-9.45.31-11.11.48-22.23.35-33.34-.05-4.93-.24-9.89-.52-14.77-.43-6.27-.84-12.54-1.1-18.79-.13-1.94.14-1.75.87-.19.38.78.84,1.92,1.34,3.31.23.7.51,1.45.72,2.27.19.82.36,1.68.5,2.59.2,1.61.49,3.22.59,4.83.13,1.61.23,3.23.33,4.84.18,3.23.34,6.45.43,9.68.22,6.46.18,12.93.05,19.43-.18,7.77-.02,15.85-.2,23.8-.1,4.37-.24,8.74-.45,13.11-.11,2.19-.23,4.37-.39,6.57-.16,2.2-.34,4.38-.69,6.63-.04.34-.14.73-.21,1.08-.04.3-.27.93-.45,1.3-.38.67-.81,1.28-1.26,1.84-.9,1.13-1.88,2.13-2.88,3.07-2.01,1.89-4.12,3.6-6.23,5.28-3.2,2.54-6.52,4.93-9.56,7.51-.38.32-.75.65-1.11.98l-.53.5-.31.31c-.2.21-.39.43-.55.67-.15.24-.31.52-.24.81.08.3.41.39.67.49.28.08.56.13.85.15.41.04,1.56.04,2.49-.06,3.01-.27,5.98-1.09,8.85-2.08,2.88-.99,5.68-2.17,8.4-3.51,1.2-.59,2.33-1.23,3.49-1.88,4.29-2.46,5.41-3.35,6.93-3.26.33,0,.73-.05.99.01.45.1.41.63-.13,1.52-.54.88-1.65,1.99-3.25,3.12-4.77,3.31-10.15,5.69-15.84,7.48-1.43.44-2.88.83-4.36,1.17-1.48.35-2.98.67-4.56.87-.8.09-1.6.17-2.45.18-1.41.03-2.92-.19-4.06-.71-.26-.15-.58-.26-.8-.44-.21-.19-.44-.36-.62-.57-.35-.41-.63-1-.73-1.58-.19-1.13.18-2.28,1-3.43.3-.42.65-.83,1.02-1.23l.55-.57.35-.34c.43-.41.86-.8,1.3-1.18.86-.75,1.73-1.46,2.6-2.16,1.74-1.39,3.48-2.71,5.2-4.04,3.42-2.65,6.89-5.3,9.65-8.24l.07.05Z"/><path class="cls-1" d="M338.36,415.4c-.85,6.33-1.68,12.68-2.37,19.04-.27,2.32-.42,4.65-.67,6.97-.9,8.18-1.75,16.38-2.53,24.59-.34,3.64-.6,7.31-.87,10.93-.18,2.33-.29,4.66-.52,6.99-.11,1.16-.24,2.33-.38,3.49-.05.58-.18,1.16-.3,1.73-.13.57-.22,1.15-.39,1.72-.5,1.42-.51,1.22-.94-.05-.23-.64-.46-1.53-.74-2.61-.22-1.08-.29-2.32-.24-3.67.43-9.51,1.3-18.98,2.44-28.53.69-5.71,1.03-11.68,1.6-17.53.64-6.43,1.34-12.87,2.16-19.29.48-3.95,1.04-7.9,1.58-11.84.45-2.98.89-5.97,1.34-8.96.48-2.98.95-5.95,1.43-8.91.38-2.3.69-4.58,1.03-6.86.37-2.27.73-4.53,1.1-6.81.16-1,.32-1.98.52-2.98.38-1.86.68-3.07,1.03-3.89.37-.82.74-1.25,1.21-1.57.21-.14.43-.34.62-.41.32-.11.52.23.62.95.1.72.13,1.83-.07,3.19-.57,4.06-1.12,8.23-1.78,12.43-.62,4.21-1.37,8.46-2.01,12.74-1,6.34-1.93,12.74-2.76,19.13h-.08Z"/><path class="cls-1" d="M195.69,199.74c-.39-1.37-.35-2.85-.08-4.13.09-.47.15-.94.29-1.39.56-1.56,1.32-2.97,2.28-4.22.43-.55.81-1.13,1.23-1.67.27-.35.53-.71.85-1.01.35-.28.73-.53,1.14-.73.26-.12.39.09.44.47.04.38.07.96-.1,1.4-.38.73-.87,1.33-1.27,2.02-.42.67-.79,1.36-1.27,2.02-.56.8-.77,1.8-.99,2.72-.26,1.03-.32,2.03-.18,3.03.1.61.28,1.22.56,1.79.44.85,1.05,1.67,1.85,2.24.63.45,1.38.65,2.1.81.16.04.32.05.48.08.58.16.72.33.71,1.05,0,.16,0,.32,0,.48-.04.54-.41.9-1.01.92-1.74,0-3.55-.85-4.9-2.21-1.03-.99-1.76-2.29-2.21-3.66l.06-.02Z"/><path class="cls-1" d="M199.38,202.11c-.09-.35-.17-.67-.22-1.05-.04-.4-.06-.8-.03-1.12.03-.69.2-1.28.36-1.86.12-.42.19-.84.35-1.24.59-1.38,1.33-2.65,2.22-3.81.41-.51.82-1.02,1.29-1.5.57-.61,1.48-1.18,2.48-1.03.3.04.22.34.06.7-.08.2-.16.39-.23.55-.07.21-.12.4-.22.49-.32.45-.67.95-1.02,1.5-.18.27-.34.57-.53.86-.21.29-.42.57-.63.87-.52.72-.68,1.64-.91,2.48-.24.91-.43,1.91-.39,2.61.08.52.24,1.02.51,1.45.4.65,1.06,1.18,1.86,1.35.62.13,1.26-.06,1.81-.29.12-.06.23-.14.35-.17.43-.19.63-.03,1.08.59.1.14.21.27.3.42.15.24.23.49.2.74-.02.25-.14.55-.38.71-1.42,1.11-3.64,1.22-5.48.24-.69-.35-1.3-.88-1.8-1.47-.5-.61-.84-1.3-1.09-1.99l.07-.03Z"/><path class="cls-1" d="M206.92,200.12c.04.44.17.87.33,1.3.17.42.43.9.61,1.13.17.21.43.32.65.47.39.27.84.47,1.26.45.43-.06.79-.15.91-.51.08-.15.06-.39.01-.61-.03-.23-.1-.48-.21-.72-.14-.31-.37-.55-.56-.84-.2-.29-.46-.5-.79-.59-.2-.07-.28-.24-.05-.51.21-.31.9-.57,1.65-.4.66.15,1.19.53,1.6.99.41.47.85,1,.95,1.72.1.7.08,1.54-.36,2.31-.43.75-1.15,1.28-1.8,1.47-1.59.54-3.26.32-4.44-.52-.32-.23-.62-.5-.89-.79-.28-.3-.49-.65-.65-.93-.35-.59-.63-1.24-.82-1.91-.24-.82-.35-1.67-.32-2.51,0-1.27.38-2.47.78-3.6.3-.88.58-1.76.98-2.61.09-.18.16-.38.27-.55.44-.62.76-.67,1.41-.34.15.08.3.14.44.23.47.3.66.82.53,1.31-.38,1.46-.99,2.65-1.29,3.88-.22.9-.34,1.78-.16,2.64l-.07.02Z"/><path class="cls-1" d="M280.99,174.62c-.56-.14-1.15-.26-1.8-.38-.68-.13-1.37-.29-2.08-.51-1.38-.43-2.98-1.08-4.19-2.57-.88-1.05-1.36-2.56-1.22-3.85.22-2.29,1.57-4.04,2.83-5.25,1.32-1.23,2.55-2.16,3.6-3.34.96-1.02,1.7-2.22,2.32-3.42.4-.77.7-1.59.96-2.41.07-.2.12-.41.18-.62.11-.2.19-.4.28-.6.18-.41.36-.83.5-1.28.2-.55.38-.5.75.01.19.26.43.64.67,1.13.13.25.23.52.33.81.06.15.08.3.14.46-.01.15-.02.3-.04.45-.57,4.39-3.62,7.94-6.63,10.3-.84.71-1.58,1.47-2.02,2.26-.44.79-.6,1.68-.49,2.34.1.71.61,1.36,1.54,1.85.92.49,2.09.79,3.32,1.01,1.57.31,3.29.59,4.95,1.57.62.37,1.19.89,1.65,1.49.46.61.75,1.29.95,1.94.41,1.31.51,2.52.88,3.5.14.38.32.72.53.99.11.14.22.26.34.36.07.07.11.08.14.09l.14.06c.47.17,1.13.13,1.68-.06.25-.07.48-.22.72-.33.9-.49,1.31-.59,2.25,0,.21.13.45.24.65.39.66.45.72,1.47-.37,2.46-1.58,1.42-4.44,2.39-7.22.59-.82-.61-1.17-1.14-1.53-1.71-.34-.57-.57-1.15-.74-1.69-.33-1.08-.44-2.05-.58-2.78-.1-.56-.2-1.01-.33-1.36-.14-.34-.24-.57-.51-.79-.49-.44-1.44-.81-2.57-1.05v-.08Z"/><path class="cls-1" d="M337.52,122.77c.54.76.88,1.65,1.06,2.51.11.43.11.85.16,1.27,0,.42,0,.84-.05,1.25-.05.3-.08.6-.11.9-.06.29-.13.59-.23.88-.79,2-2.3,3.42-3.91,4.36-.71.43-1.46.78-2.21,1.1l-.73.28c-.26.07-.51.12-.77.17-.26.04-.53.04-.79.05-.13.02-.27-.04-.4-.1-.14-.06-.27-.1-.4-.18-.33-.26-.27-.26-.05-.66.11-.21.26-.47.41-.79.16-.28.34-.47.56-.58,1.51-.76,2.87-1.47,4.2-2.42.8-.59,1.15-1.57,1.35-2.45.25-.98.15-2.11-.26-3-.27-.54-.64-1.06-1.2-1.44-.81-.59-1.87-1.02-2.99-1.14-.87-.09-1.75.11-2.59.3-.19.04-.37.12-.55.15-.69.11-.93-.04-1.24-.92-.07-.19-.15-.38-.21-.57-.19-.63.03-1.29.63-1.58,1.76-.82,3.87-.93,6.01-.38.8.22,1.6.53,2.35,1.05.38.22.73.55,1.09.83.33.34.67.66.94,1.06l-.06.05Z"/><path class="cls-1" d="M354.05,76.28c.39-3.06.77-6.12,1.2-9.18.14-1.12.2-2.25.42-3.36.7-3.93,1.53-7.84,2.5-11.72.38-1.73.84-3.45,1.24-5.16.56-2.19,1.2-4.39,2.54-6.31.47-.58.42-.49.56.18.2.69.55,1.93.35,3.19-.56,4.5-1.65,8.79-2.7,13.24-.66,2.65-.82,5.5-1.16,8.27-.41,3.05-.83,6.11-1.19,9.18l-.67,5.68c-.32,2.87-.68,5.76-.96,8.62-.22,2.22-.26,4.43-.44,6.64-.03.49-.05.97-.11,1.46-.13.91-.25,1.5-.49,1.89-.28.38-.59.58-1.01.71-.19.06-.37.15-.54.17-.29.04-.52-.14-.73-.5-.2-.36-.43-.92-.4-1.58-.03-3.94.23-8.03.58-12.16.31-3.07.63-6.15.94-9.23h.09Z"/><path class="cls-1" d="M357.84,187.03c-2.6.28-5.47-.13-7.88-1.66-1.24-.76-2.23-1.81-2.98-2.78-.77-.98-1.38-1.93-1.98-2.66-.61-.73-1.16-1.24-1.76-1.44-.16-.05-.31-.12-.48-.14l-.26-.05-.38-.03c-.5-.05-1.01-.07-1.52-.08-1.04,0-2.11.06-3.28.11-1.16.04-2.49.07-3.91-.32-1.02-.31-2.05-.8-2.85-1.48-.43-.32-.74-.7-1.11-1.06-.32-.37-.6-.76-.89-1.14-.51-.78-.98-1.57-1.35-2.36l-.49-.96c-.15-.25-.32-.48-.51-.72-.68-.82-1.81-1.51-3.08-2.49-.63-.49-1.3-1.08-1.86-1.81-.57-.75-.98-1.54-1.27-2.38-.61-1.71-.53-3.59-.16-5.15.36-1.58.94-2.96,1.36-4.28.95-2.67,1.65-5.41,2.3-8.17.57-2.78,1.07-5.58,1.32-8.4.49-5.01.37-10.12-.37-15.04-.54-3.15-1.15-6.31-2.18-9.34-.21-.77-.5-1.52-.78-2.27-.29-.74-.51-1.52-.85-2.24-.34-.72-.6-1.48-.87-2.25-.26-.77-.63-1.48-.93-2.23-.75-1.88-.48-1.76.8-.5.64.63,1.58,1.53,2.54,2.76.98,1.22,1.78,2.83,2.54,4.63,1.19,3.23,2.19,6.56,2.78,9.96.52,3.41.87,6.85.83,10.28-.01,3.44-.23,6.88-.77,10.27-.21,1.7-.6,3.38-.93,5.07-.41,1.67-.79,3.34-1.32,4.98-.29.99-.58,1.97-.93,2.95-.32.96-.65,1.93-.97,2.9-.61,1.84-.88,3.54-.31,4.99.14.36.32.75.53,1.06.2.32.46.6.75.88.6.56,1.41,1.08,2.3,1.7.89.61,1.88,1.41,2.65,2.46.18.27.38.53.52.82l.4.77c.22.42.41.87.65,1.26.51.88,1.08,1.67,1.72,2.27.65.57,1.35.9,2.23,1.05,1.78.28,4.17-.13,6.57-.02.3,0,.61.04.91.06.3.02.6.04.98.11.72.1,1.42.38,2.07.72,1.28.74,2.15,1.78,2.87,2.72,1.41,1.92,2.48,3.58,4.22,4.35,2.11,1.04,4.76,1,7.19.28,2.44-.73,4.68-2.12,6.39-4.05,2.63-2.86,4.17-6.79,4.15-10.69,0-1.95-.41-3.89-1.23-5.63-.4-.88-.92-1.68-1.49-2.46-.6-.77-1.29-1.5-2.01-2.24-1.12-1.15-2.33-2.3-3.39-3.69-.52-.69-1.05-1.44-1.4-2.26-.18-.41-.42-.8-.55-1.22l-.42-1.27c-.9-3.45-.66-6.87-.44-10.06.09-1.41.16-2.77.19-4.12.07-2.51-.15-4.02-.22-5.12-.15-1.07-.06-1.78.11-2.48.09-.32.12-.73.23-.97.19-.41.65-.23,1.43.58.77.8,1.55,2.41,1.9,4.52.54,3.15.27,6.21.16,9.1-.05,1.44-.11,2.86-.03,4.19,0,.68.12,1.31.19,1.95l.19.91c.05.31.14.6.25.88.1.28.18.57.29.84l.39.78c.25.52.59.99.98,1.49.79.98,1.79,1.98,2.85,3.09,1.06,1.12,2.24,2.33,3.21,3.9,1.01,1.51,1.71,3.22,2.15,4.97,1.29,5.22.14,10.71-2.7,15.06-1.43,2.18-3.32,4.06-5.53,5.49-2.23,1.42-4.72,2.34-7.38,2.65l-.02-.09Z"/><path class="cls-1" d="M357.01,28.9c-3.04-.05-6.38.87-9.53,2.09-1.59.62-3.15,1.33-4.66,2.14-1.54.86-3.11,1.66-4.62,2.58-1.1.67-2.21,1.33-3.28,2.04-1.07.72-2.14,1.43-3.23,2.12-3.78,2.51-7.51,5.14-11.12,7.94-3.62,2.78-7.09,5.76-10.49,8.83-3.02,2.72-5.88,5.65-8.66,8.58-1.8,1.87-3.54,3.8-5.32,5.7-1.75,1.93-3.57,3.78-5.51,5.54-1.35.97-1.35.68-.93-.77.2-.74.61-1.68,1.15-2.78.28-.55.59-1.13.96-1.71.39-.57.82-1.16,1.31-1.73,1.74-2.03,3.5-4.05,5.3-6.03,1.82-1.97,3.69-3.89,5.62-5.77,3.84-3.76,7.86-7.37,12.12-10.73,5.09-4.01,10.33-8.28,15.94-11.87,1.52-1.02,3.11-1.92,4.67-2.87,1.59-.92,3.17-1.79,4.8-2.67,3.31-1.71,6.78-3.12,10.49-3.95,2.28-.5,4.68-.77,7.14-.4,2.44.4,4.65,1.3,6.69,2.52,3.09,1.84,5.61,4.42,7.65,7.26,2.03,2.86,3.66,5.94,4.68,9.33.09.3.25.88.32,1.35.1.49.14.98.16,1.46-.01.47-.05.93-.22,1.34-.17.41-.51.75-.89.98-1.12.58-2.49.68-3.85.33l-.51-.13c-.16-.04-.27-.08-.4-.12-.26-.08-.5-.17-.74-.26-.49-.19-.95-.39-1.4-.61-1.8-.88-3.43-1.9-5.02-2.94-.96-.63-1.91-1.22-2.82-1.87-3.42-2.44-4.24-3.12-4.55-4.51-.07-.31-.23-.63-.26-.91-.06-.46.4-.72,1.32-.65.92.06,2.17.53,3.57,1.33,2.54,1.43,4.88,3.06,7.21,4.52,1.16.72,2.34,1.39,3.45,1.87.28.12.54.22.8.3.12.04.07,0,.11,0,.03-.01.05-.03.06-.05.02-.03-.01-.07-.02-.08h0s0,.04,0-.03c-.02-.09-.05-.19-.08-.28-.11-.38-.24-.77-.38-1.16-.58-1.56-1.34-3.13-2.22-4.61-1.7-2.82-3.82-5.41-6.36-7.32-1.27-.96-2.63-1.74-4.07-2.31-.36-.15-.73-.25-1.09-.38l-1.11-.29c-.68-.12-1.39-.23-2.15-.21v-.1Z"/><path class="cls-1" d="M302.19,164.71c.01,1.01.3,2.05.66,3.07.17.36.42.66.58,1.03.67,1.21,1.44,2.48,2.56,3.44.24.22.53.37.8.55.27.17.53.38.83.49.38.17.77.3,1.13.54.38.17.76.39,1.16.64.24.16.19.38-.1.64-.28.25-.84.65-1.47.73-.56.1-1.06-.07-1.59-.19-.53-.11-1.03-.3-1.48-.57l-.68-.42c-.21-.16-.41-.34-.6-.51-.39-.36-.79-.7-1.08-1.14-.36-.52-.84-.93-1.2-1.44-.39-.49-.81-.98-1.09-1.55-.16-.31-.34-.6-.48-.92l-.38-.97c-.28-.63-.38-1.33-.56-1.99-.09-.41-.11-.85-.16-1.27-.07-.42-.05-.85-.04-1.28-.03-1.3.39-2.57.8-3.79.2-.46.41-.92.6-1.41.22-.46.52-.89.81-1.33.12-.2.25-.39.43-.54.35-.25.61-.39.87-.35.3.09.53.24.78.47.11.1.23.19.31.29.15.17.21.37.25.66.04.28.11.69-.02.87-.59,1.31-1.16,2.19-1.41,3.4-.13.88-.31,1.82-.16,2.83h-.08Z"/><path class="cls-1" d="M289.07,190.19l-1.46,2.19c-.49.74-.97,1.47-1.39,2.18-.9,1.42-1.66,2.95-2.41,4.51-.53,1.15-.97,2.34-1.5,3.52-1.84,4.13-3.9,8.45-6.96,12.05-.66.8-1.41,1.54-2.11,2.31-.78.69-1.49,1.46-2.3,2.09-2.01,1.72-4.26,3.24-6.86,3.85-.91-.02-.73.07-.35-.66.18-.38.5-.81.85-1.34.37-.5.87-.96,1.39-1.45,2.02-1.5,3.92-3.04,5.61-4.82l1.23-1.37c.38-.48.75-.98,1.15-1.45.75-.99,1.49-1.99,2.16-3.08,1.66-2.56,2.7-5.65,3.96-8.64.71-1.65,1.42-3.3,2.27-4.93l.63-1.22.7-1.19c.46-.81.94-1.54,1.42-2.3,1.18-1.85,2.37-3.71,3.67-5.53.99-1.37,2.08-2.71,3.29-3.95,1.23-1.21,2.57-2.34,4.03-3.27,2.27-1.45,4.7-2.56,7.24-3.28.56-.18,1.1-.32,1.68-.42,2.13-.37,2.84-.1,3.39.63.12.15.27.28.34.4.12.21-.02.43-.35.79-.33.38-.87.65-1.58.88-2.08.8-4.18,1.39-6.12,2.3-1.94.9-3.7,1.99-5.29,3.4-2.35,2.09-4.34,4.89-6.25,7.82l-.07-.04Z"/><path class="cls-1" d="M229.21,215.92c-.39-.97-.81-1.95-1.29-2.89-.18-.34-.41-.65-.59-.99-.63-1.21-1.25-2.44-1.98-3.61-.32-.52-.74-.96-1.11-1.42-.22-.32-.47-.61-.69-.92-.2-.34-.39-.69-.58-1.06-.11-.24-.02-.31.29-.34.29-.02.9-.1,1.41.07,1.73.69,2.65,2.18,3.47,3.64.46.9,1.14,1.68,1.68,2.55.57.96,1.1,1.95,1.6,2.95.31.61.6,1.24.89,1.87.45.94.81,1.93,1.26,2.87.34.74.84,1.4,1.22,2.16.09.17.19.32.25.5.17.68-.07.97-.78,1.25-.17.07-.33.14-.49.19-.55.17-1.11.02-1.48-.32-.5-.51-.8-1.09-1.1-1.69-.29-.6-.56-1.23-.81-1.87-.4-.95-.77-1.93-1.22-2.88l.06-.04Z"/><path class="cls-1" d="M393.86,210.71c3.32,3.8,6.52,7.76,9.2,12.18.96,1.62,1.97,3.24,2.71,5.03.64,1.59,1.17,3.24,1.46,4.99.11.89.21,1.79.2,2.61.04.84,0,1.68-.03,2.51-.14,3.34-.78,6.6-1.7,9.75-.81,2.79-1.75,5.56-2.97,8.16-.74,1.69-1.61,3.33-2.55,4.92-.5.78-.98,1.57-1.54,2.31-.53.76-1.26,1.38-1.91,2.03-.85.79-.93.51-.75-.53.09-.53.24-1.24.37-2.12.07-.43.25-.83.41-1.27.16-.44.35-.89.59-1.33,1.67-3.15,2.85-6.51,4.02-9.83,1.11-3.35,1.96-6.79,2.47-10.29.16-1.05.21-2.11.24-3.19l-.06-1.6c-.03-.53-.12-1-.18-1.51-.39-2-1.24-4-2.21-5.92-2.18-4.24-5.17-8.21-8.36-11.97-1.97-2.32-4.03-4.58-6.16-6.78-3.22-3.33-6.54-6.63-9.96-9.73-2.66-2.42-5.44-4.61-8.16-6.92-.6-.51-1.21-.98-1.8-1.52-2.18-1.98-2.68-2.84-2.43-3.98.06-.26.08-.55.17-.76.33-.72,1.62-.35,3.31.96,5.02,3.87,10.09,8.26,15.02,12.9,3.66,3.45,7.25,7.04,10.66,10.83l-.06.07Z"/><path class="cls-1" d="M363.06,253.79l-1.93-9.77c-.23-1.19-.54-2.36-.75-3.55l-2.23-12.61c-.33-1.86-.78-3.71-1.14-5.55-.24-1.18-.49-2.36-.73-3.55-.26-1.18-.32-2.41-.47-3.61-.07-.76.02-.67.36-.1.21.36.46.77.71,1.18.15.26.3.53.46.8.08.14.15.29.24.44.06.16.11.32.17.48,1.63,4.68,2.87,9.44,3.81,14.32.51,2.93,1.38,5.9,2.07,8.85.77,3.25,1.44,6.52,2.14,9.78l1.33,6.02c.69,3.03,1.37,6.08,2.17,9.06.61,2.32,1.41,4.54,2.15,6.78.16.49.33.98.47,1.48.41,1.9.32,2.57-.2,3.16-.12.14-.23.3-.35.39-.41.32-1.07-.32-1.78-1.61-.55-.95-.99-1.95-1.37-2.98-.4-1.03-.76-2.07-1.1-3.13-.7-2.11-1.34-4.27-1.86-6.46-.8-3.25-1.5-6.54-2.23-9.81l.08-.02Z"/><path class="cls-1" d="M389.75,279.26s-.02-.05-.03-.06c-.12-.07.06-.18-.99.19-.38.12-.89.28-1.38.22-.86-.1-1.52-.5-2.01-.93-.5-.42-.85-.97-1.12-1.44-.24-.42-.5-.78-.77-1.09-.28-.29-.54-.54-.76-.85l.52-.13s.06.02-.07,0c-.11,0-.21.09-.4.01-.09-.04-.21-.14-.28-.34-.06-.18-.1-.54.15-.82l.86.03c.18-.03.37-.02.53.05.38.14.67.38.93.62.26.24.48.47.68.7.19.22.36.44.51.63.13.18.28.33.38.53.3.48.8.51,1.03.48.15,0,.41-.08.78-.25.55-.28,1.17-.49,1.76-.48h.08c.7.03,1.35.38,1.77.9.69.82.83,1.99.49,2.98-.28.82-.56,1.46-.98,1.98-.09.11-.16.24-.26.34-.38.35-.62.29-1.14-.16-.12-.1-.24-.2-.35-.31-.37-.37-.51-.83-.39-1.19.19-.51.3-.99.41-1.26.08-.18.02-.15.01-.16-.01,0-.02,0-.02,0,0,.01.07-.05.04-.11l.03-.07Z"/><path class="cls-1" d="M390.79,276.49c.05-.28.19-.37-.08-.62-.1-.08-.27-.08-.45-.14-.64-.27-1.67-.18-2.82-.45-.25-.06-.51-.12-.78-.2-.28-.08-.54-.21-.77-.38-.29-.22-.57-.47-.76-.82-.19-.34-.26-.8-.12-1.18.1-.25.36-.1.68.03.31.16.75.14.89.13.13.02.27.03.41.02.07,0,.14-.02.2-.02l.16.03c.28.07.7.09,1.25.23.65.15,1.48-.06,2.39.16.49.12,1.03.35,1.49.76.46.4.77.96.9,1.5.16.67.09,1.3-.03,1.86-.19.86-.68,1.58-.99,2.21-.23.51-.36,1.03-.46,1.46-.02.1-.05.18-.1.26-.21.27-.5.3-1.01.31h-.35c-.36,0-.69-.25-.89-.75-.27-.73-.1-1.4.06-1.94.16-.56.45-.95.64-1.31.26-.44.44-.85.47-1.15h.07Z"/><path class="cls-1" d="M386.61,326.58c-1.24-3.69-2.48-7.38-3.77-11.06-.48-1.34-1.05-2.64-1.49-3.99-1.58-4.76-3.15-9.52-4.81-14.25-.75-2.09-1.57-4.17-2.34-6.24-.5-1.33-1.07-2.63-1.49-3.99-.22-.68-.43-1.36-.63-2.04-.04-.17-.12-.33-.13-.52l-.02-.57c-.02-.37-.17-.7-.24-1.05-.22-.86,0-.82.57-.24.31.28.56.75,1.28,1.16.55.47.97,1.11,1.39,1.83.73,1.27,1.35,2.58,1.95,3.9.59,1.32,1.24,2.63,1.75,3.98,1.04,2.71,2.01,5.45,2.9,8.24,1.05,3.34,2.56,6.65,3.82,10,1.36,3.69,2.66,7.4,3.96,11.11.8,2.29,1.6,4.57,2.39,6.86,1.22,3.46,2.37,6.96,3.62,10.38.97,2.66,2.13,5.2,3.11,7.87.22.58.45,1.16.61,1.78.3,1.16.49,1.88.37,2.55-.14.63-.41,1-.83,1.3-.19.14-.38.3-.57.38-.33.13-.67-.02-1.04-.36-.18-.17-.37-.39-.56-.64-.2-.25-.3-.55-.49-.94-2.03-4.41-3.74-9.36-5.51-14.3-1.29-3.69-2.59-7.4-3.89-11.1l.09-.04Z"/><path class="cls-1" d="M375.81,447.79l-6.92-15.85-2.62-5.74c-2.95-6.8-5.92-13.6-8.95-20.36-1.34-3-2.76-5.99-4.21-8.91-.94-1.87-1.88-3.74-2.82-5.62-.86-1.9-1.79-3.81-2.52-5.72-.31-1.31-.31-1.16.67-.47.51.34,1.19.91,1.83,1.63.67.73,1.43,1.61,2.06,2.64,2.13,3.75,4.1,7.56,6.03,11.41,1.95,3.83,3.71,7.76,5.39,11.75,2.01,4.77,4.47,9.55,6.69,14.35l3.62,7.93,3.53,7.97c1.44,3.27,2.89,6.55,4.33,9.82,2.2,4.95,4.35,9.95,6.6,14.84,1.76,3.8,3.62,7.45,5.39,11.19.39.82.81,1.61,1.17,2.46.71,1.55,1.01,2.65,1.17,3.43.16.79.07,1.32-.16,1.82-.1.22-.17.49-.28.64-.35.5-1.49-.52-2.74-2.68-3.63-6.46-6.97-13.48-10.18-20.59-2.38-5.29-4.77-10.61-7.15-15.91l.08-.04Z"/><path class="cls-1" d="M273.69,121.51c-.11,5.67.85,11.44,3.04,16.66.8,1.92,1.85,3.68,3.01,5.3,4.13,5.79,11.02,9.71,18.2,10.85,3.08.44,6.36-.3,9.3-1.53,1.9-.81,3.68-1.9,5.34-3.12,1.7-1.18,3.25-2.49,4.9-3.83.62-.34.94-.48,1.01-.41.08.08-.04.39-.1,1.08,0,.38-.12.73-.25,1.17-.14.43-.29.94-.52,1.43-.47,1-1.21,2.06-2.22,2.98-1.84,1.55-3.92,2.78-6.11,3.78-2.2.99-4.54,1.71-7.01,2.03-.61.09-1.25.11-1.87.14-.63,0-1.27-.03-1.9-.06-.63-.09-1.29-.16-1.89-.28-.58-.14-1.17-.24-1.74-.41-2.3-.61-4.52-1.47-6.61-2.57-2.51-1.3-4.93-2.88-7.14-4.77-2.22-1.87-4.14-4.15-5.61-6.66-3.14-5.5-4.68-11.66-5.1-17.81-.25-3.79-.03-7.61.69-11.35.29-1.41.65-2.82,1.12-4.19.45-1.34,1.06-2.81,1.96-4.03,1.76-2.47,4.12-4.27,6.55-5.77,3.81-2.31,7.81-4.02,12-5.29.92-.28,1.83-.55,2.78-.77,3.53-.76,4.8-.56,5.61.24.19.19.42.38.52.57.3.67-.99,1.15-3.4,1.75-3.58.89-7.22,2.08-10.71,3.6-3.46,1.52-6.86,3.4-9.32,5.93-.91.93-1.64,1.96-2.15,3.04-.25.49-.47,1.23-.7,1.85-.22.65-.39,1.34-.59,2-.67,2.72-.99,5.57-1.02,8.43h-.08Z"/><path class="cls-1" d="M321.24,82.92c6.02,1.57,11.9,3.64,17.57,6.17,5.67,2.53,11.12,5.56,16.22,9.13l1.4.97,1.36,1.02c.9.68,1.83,1.33,2.74,2.13,1.77,1.53,3.38,3.16,4.89,4.89,1.32,1.54,2.58,3.14,3.71,4.88,1.1,1.76,2.17,3.59,2.71,5.88.25,1.14.37,2.47-.08,3.84-.44,1.39-1.56,2.51-2.68,3.1-2.28,1.14-4.46,1.23-6.52,1.23-8.23-.18-15.96-2.97-22.99-6.56-6.23-3.24-12.25-6.79-18.06-10.58-3.72-2.44-7.38-5-10.88-7.75-1.75-1.38-3.49-2.77-5.15-4.25-.82-.75-1.66-1.49-2.46-2.25-.8-.78-1.57-1.58-2.3-2.43-.89-1.08-1.25-1.57-1.17-1.61.09-.04.64.35,1.71.9,2.15,1.09,6.03,3.1,10.05,6.14,7.22,5.28,14.58,10.32,22.35,14.74,3.89,2.23,7.78,4.38,11.82,6.11,4.03,1.75,8.22,3.09,12.52,3.75,1.28.21,2.6.33,3.88.38.65.05,1.27,0,1.91,0,.61-.07,1.25-.09,1.81-.22,1.16-.21,2.14-.68,2.58-1.23.4-.54.52-1.41.21-2.54-.59-2.22-2.14-4.52-3.76-6.61-1.66-2.1-3.53-4.1-5.49-5.93-1.08-1.03-2.17-1.88-3.41-2.78-1.19-.92-2.43-1.76-3.67-2.6-1.23-.86-2.53-1.62-3.79-2.44-1.3-.76-2.59-1.53-3.91-2.25-5.29-2.87-10.85-5.29-16.56-7.24-3.53-1.16-7.11-2.2-10.74-3-3.63-.78-7.3-1.42-11-1.78-1.4-.14-2.8-.22-4.21-.33-1.39-.07-2.81-.1-4.22-.1-2.83-.01-5.67.05-8.5.21-5.65.31-11.3.9-16.76,2.07-4.22.93-8.39,2.18-11.89,4.31-1.73,1.06-3.24,2.39-4.09,3.96-.89,1.55-.87,3.34-.3,5.11.48,1.59,1.4,2.92,2.58,4.18,1.1,1.16,2.2,1.99,3.14,2.65.94.67,1.75,1.14,2.4,1.58.65.44,1.17.8,1.59,1.14.42.36.74.7,1.04,1.02.27.3.67.58.83.79.27.34-.33.49-1.75.44-1.42-.04-3.57-.62-6.01-2.07-1.81-1.06-3.52-2.43-4.98-4.15-.71-.89-1.37-1.84-1.87-2.93-.46-1.08-.89-2.17-1.07-3.42-.22-1.22-.18-2.56.11-3.85.12-.65.41-1.25.64-1.87.29-.58.63-1.13.97-1.68,1.5-2.06,3.44-3.48,5.38-4.58,3.94-2.18,8.07-3.36,12.21-4.3,4.14-.9,8.32-1.49,12.5-1.88,6.23-.56,12.4-.81,18.75-.51,6.32.37,12.56,1.37,18.66,2.88v.1Z"/><path class="cls-1" d="M213.34,182.17c4.15.66,8.11,2.19,11.59,4.52,1.25.88,2.52,1.75,3.58,2.89,3.64,3.91,6.15,8.46,8.37,13.03,1,2.02,2.01,4.04,3.05,5.98.61,1.28,1.28,2.53,1.91,3.8.31.64.63,1.27.92,1.92.27.67.56,1.33.9,1.96.42.79.37.69-.19.16-.27-.27-.74-.6-1.28-1.02-.27-.21-.59-.43-.89-.69-.29-.27-.55-.58-.83-.9-.5-.57-.93-1.18-1.34-1.8-.43-.61-.82-1.23-1.23-1.85-.77-1.26-1.41-2.58-2.09-3.86-1.33-2.59-2.64-5.14-4.02-7.66-.83-1.5-1.79-2.97-2.89-4.32-.53-.7-1.13-1.33-1.7-1.98-.29-.33-.6-.59-.9-.89-.29-.3-.61-.58-.93-.84-2.8-2.41-6.34-4.04-10-4.96-2.27-.55-4.61-.82-6.94-.71-.87.07-1.76.11-2.62.29-.51.09-.66.1-.93.17-.25.07-.5.12-.75.2l-.75.28c-.23.1-.41.38-.35.64.09.25.36.37.6.47.24.1.5.16.76.22.2.04.4.08.6.1l.66.08,2.08.24c1.4.15,2.8.29,4.22.5.63.1,1.25.18,1.88.33,2.36.56,3.11,1.25,3.21,2.03.02.19.07.39.04.53-.16.5-.95.27-2.47-.06-2.28-.5-4.82-.7-7.43-.93-.66-.07-1.32-.14-1.99-.2l-.36-.04c-.16-.01-.32-.05-.49-.07l-.98-.15c-.66-.1-1.32-.22-1.95-.38-.36-.05-.52-.21-.78-.32-.26-.11-.42-.25-.61-.38-.38-.26-.64-.54-.77-.86-.13-.32-.33-.69-.33-1.19,0-.49.11-.94.3-1.34.4-.47.86-.89,1.29-1.33.12-.25.71-.36,1.11-.52l1.31-.46c.44-.15.87-.32,1.34-.43l1-.19c.54-.12,1.08-.18,1.62-.22,2.16-.21,4.32-.14,6.42.18v.08Z"/><path class="cls-1" d="M211.26,192.1c-3.52-.82-7.04-1.64-10.58-2.41-1.29-.29-2.6-.49-3.88-.78-4.54-1.04-9.09-2.08-13.62-3.19-2.01-.49-4.04-.93-6.05-1.36-1.29-.29-2.59-.52-3.87-.86-.63-.19-1.27-.36-1.89-.61-.61-.26-1.23-.53-1.85-.79-.76-.35-.63-.43.12-.57.46-.09.99-.19,1.54-.29.32-.05.67-.13,1.03-.15.35,0,.72,0,1.1.05l1,.12.99.19,1.97.38,3.94.79c1.31.28,2.63.56,3.94.84,1.31.33,2.61.67,3.93,1.01,3.13.84,6.47,1.35,9.72,2.02l10.71,2.29c2.19.49,4.39.98,6.58,1.48,3.32.77,6.65,1.54,9.95,2.3,2.56.58,5.12,1,7.67,1.54.56.11,1.12.2,1.68.35,2.09.51,2.67.97,2.91,1.8.05.19.14.39.15.57.04.6-.94.84-2.49.65-4.58-.73-9.29-1.84-14.06-2.9-3.54-.8-7.09-1.62-10.65-2.38v-.07Z"/><path class="cls-1" d="M208.91,193.13s-.03.08-.03.13c.03.07-.03.08.14.24.54.53,1.2,1.02,1.85,1.53.49.36,1.04.63,1.55.98,1.8,1.24,3.74,2.32,5.75,3.27.89.43,1.85.65,2.77.96.59.2,1.2.27,1.79.5.58.27,1.17.51,1.79.72.38.15.35.29,0,.57-.35.27-1.05.8-1.91,1.05-.19.05-.38.11-.56.14h-.54c-.35-.04-.72-.05-1.07-.09-.35-.04-.71-.07-1.06-.15-.34-.09-.68-.19-1.01-.3-1.33-.44-2.61-.98-3.79-1.75-1.41-.9-3.01-1.51-4.45-2.43-.79-.51-1.57-1.04-2.3-1.67-.37-.32-.71-.63-1.09-1.01-.49-.49-.93-1.03-1.25-1.58-.4-.67-.64-1.38-.54-2.1.01-.18.09-.36.14-.53l.15-.23s.06-.07.07-.12l.1-.1c.13-.12.25-.26.39-.37l.45-.28c.93-.52,2.36-.41,3.4-.27.88.14,1.72.33,2.55.5,1.29.28,2.57.46,3.84.74.28.06.56.1.83.18.51.14.82.3.99.54.18.23.23.49.23.86,0,.17.01.34,0,.49-.06.52-.62.83-1.43.84-2.3-.22-4.56-.86-6.69-1.18-1.12-.09-.67-.07-.8-.1-.03-.02-.12-.03-.13.02h-.11Z"/><path class="cls-1" d="M235.27,234.59c3.1,5.79,7.04,11.33,12.24,15.04,1.9,1.33,3.99,2.31,6.15,2.91,3.76,1.09,8.01.64,11.95-.62,3.97-1.29,7.69-3.47,11.12-6.03,3.06-2.27,5.82-4.99,8.3-7.86,3.17-3.73,5.89-7.78,8.75-11.73.84-1.26.87-1.11.84.32-.03.71-.08,1.75-.34,2.95-.13.59-.27,1.25-.51,1.89-.26.63-.57,1.29-.94,1.93-.67,1.14-1.35,2.26-2.13,3.32-.79,1.05-1.59,2.09-2.44,3.09-1.69,2.01-3.5,3.92-5.44,5.71-3.85,3.6-8.33,6.67-13.38,8.65-3,1.19-6.23,2.1-9.59,2.39-3.33.33-6.96-.19-10.02-1.59-3.42-1.5-6.33-3.79-8.83-6.34-2.51-2.56-4.64-5.41-6.52-8.39-1.15-1.84-2.21-3.73-3.16-5.67-.94-1.96-1.82-3.9-2.5-6.05-.05-.18-.1-.33-.15-.56-.07-.25-.08-.49-.11-.73.03-.55.19-1.15.4-1.57.2-.43.44-.8.69-1.16.5-.7,1.05-1.29,1.62-1.86,1.14-1.13,2.37-2.11,3.63-3.03,2.54-1.82,5.19-3.41,8.09-4.65.58-.24,1.18-.46,1.8-.65.64-.19,1.2-.35,2.05-.39.68-.01,1.37.28,1.87.66.5.35.85.75,1.19,1.13.66.78,1.2,1.58,1.73,2.37,1.04,1.58,1.98,3.15,3,4.62.6.85,1.23,1.63,1.88,2.35,1.24,1.34,2.08,1.83,2.66,2.22.59.37,1,.59,1.44.98.2.16.49.29.65.45.27.25.06.65-.81.99-.83.34-2.55.35-4.12-.62-1.43-.89-2.49-2.04-3.43-3.21-.94-1.17-1.73-2.4-2.49-3.61-.76-1.21-1.48-2.43-2.22-3.51-.37-.53-.75-1.05-1.09-1.4-.15-.15-.36-.31-.36-.31-.01,0-.03,0-.04,0,.09,0-.11,0-.24.04-.13.01-.3.06-.45.09-.32.08-.67.2-1.02.32-.7.26-1.42.59-2.14.95-1.44.72-2.86,1.58-4.22,2.5-1.49,1.02-2.95,2.11-4.22,3.3-.64.59-1.23,1.21-1.71,1.81-.22.3-.44.6-.56.84-.15.32-.12.24-.12.26,0,.01,0,0,0,.01l.13.42c.11.32.22.64.36.97.26.66.54,1.34.85,2.01.6,1.34,1.28,2.66,1.98,3.97l-.07.05Z"/><path class="cls-1" d="M286.98,367.75c-1.84-.23-3.68-.51-5.53-.87-1.85-.37-3.71-.8-5.61-1.56-.95-.39-1.92-.81-2.95-1.63-.26-.22-.51-.47-.76-.74-.23-.32-.53-.67-.65-1.01-.14-.33-.32-.73-.37-1.02l-.19-.89c-.28-2.21-.09-4.06.08-5.96.42-3.73,1.08-7.34,1.8-10.92.72-3.58,1.51-7.14,2.32-10.69,1.19-5.18,2.32-10.35,3.57-15.49,2.22-9.06,4.47-18.11,6.6-27.18,2.16-9.05,3.99-18.2,6.16-27.3,1.88-8.07,3.89-16.15,5.64-24.16,2.25-10.3,4.02-20.65,5.31-31.09.38-3.27.23-2.84.47-.05.14,1.4.36,3.39.48,5.82.03,1.21.11,2.54.08,3.94-.08,1.39-.15,2.87-.32,4.4-.16,1.35-.29,2.71-.49,4.05l-.65,4.02c-.47,2.67-.97,5.34-1.5,7.99-1.07,5.31-2.24,10.58-3.42,15.85-2.42,10.51-4.84,21.04-7.27,31.62-2.96,12.66-6.04,25.84-9.06,38.79-1.68,7.1-3.36,14.21-4.75,21.34-.68,3.56-1.33,7.14-1.61,10.67-.06.88-.1,1.75-.08,2.59.03.8.12,1.7.34,2.11.11.37.71.82,1.4,1.18.71.36,1.5.66,2.32.93,4.1,1.26,8.58,1.82,13,2.28,4.44.44,8.92.7,13.39.85,13.57.42,27.25.11,40.72-.73,10.47-.68,20.71-1.8,30.95-3.27,2.25-.32,4.45-.7,6.71-1.07,8.38-1.39,10.98-1.87,13-1.34.46.11,1.04.19,1.34.34,1.01.49-2.25,2.13-8.45,3.46-9.18,1.95-18.71,3.18-28.39,4.12-9.68.92-19.52,1.51-29.39,1.82-7.33.23-14.69.3-22.06.14-7.37-.15-14.75-.38-22.17-1.25v-.09Z"/><path class="cls-1" d="M375.19,282.11c1.61,2.03,4.07,3.35,6.75,3.45.98.04,1.95-.14,2.9-.36.21-.05.42-.09.62-.16l.53-.15c.19-.06.33-.1.48-.16.3-.12.64-.31.98-.58.31-.25.7-.71.55-1.15-.19-.42-.68-.34-1.01-.15-.31.18-.64.5-1.07.58h-.08s0,.02-.11.02c-.16.01-.32,0-.47-.02-.32-.03-.62-.13-.91-.24-.56-.25-1-.61-1.37-.98-.46-.49-.82-1-1.13-1.51l-.43-.74c-.12-.21-.26-.4-.4-.59-.28-.38-.54-.78-.87-1.07-.32-.28-.62-.61-1.06-.67-.54-.06-.68-.14-.12-.67.29-.24.86-.5,1.64-.5.74.03,1.54.38,2.17.91.29.23.49.53.71.81.21.29.41.63.53.81.28.44.56.84.84,1.13.27.3.52.49.64.53.06.03.09.03.15.04h.02s.24-.09.24-.09c.16-.09.3-.18.46-.3.32-.23.69-.51,1.03-.71.71-.43,1.21-.53,1.58-.62.37-.07.6-.07.8-.07.38,0,.77.06,1.24.24.44.18,1.01.53,1.4,1.17.38.64.42,1.37.27,1.99-.09.38-.24.75-.42,1.09-.21.34-.44.68-.71,1.02-.58.68-1.34,1.36-2.25,1.97-.46.29-.96.61-1.46.85l-.76.35c-.24.1-.39.15-.58.22-.75.26-1.53.44-2.31.54-1.71.22-3.47.11-5.14-.37-1.67-.48-3.21-1.34-4.5-2.45-1.59-1.37-2.81-3.15-3.49-5.13-.24-.75-.44-1.53-.5-2.33-.08-.84,0-1.6.08-2.35.18-1.49.46-2.94.8-4.37.54-2.22,1.1-4.42,2.13-6.53.22-.46.43-.93.72-1.37,1.07-1.64,1.78-1.92,2.51-1.75.17.04.36.07.5.14.23.12.3.4.23.76-.07.36-.29.79-.56,1.35-1.74,3.15-2.85,7-3.42,10.87-.1.71-.17,1.44-.2,2.1,0,.36-.02.56.03.87.03.3.09.6.16.91.29,1.2.89,2.36,1.72,3.35l-.05.05Z"/><path class="cls-1" d="M383.23,238.57c-.2,2.15-.8,3.98-1.43,5.75-.64,1.77-1.39,3.44-2.09,5.11-.52,1.22-.94,2.45-1.45,3.64-.44,1.05-.87,2.09-1.24,3.12-.19.52-.36,1.03-.5,1.54-.08.25-.15.51-.19.75-.04.2-.07.21-.09.35l-.05.33c-.02.12.11.19.19.25.09.06.19.11.29.17.07.03.06.03.19.09l.38.15c1.04.4,2.14.76,3.23,1.13.97.33,1.96.63,2.96.94.99.32,1.97.66,2.95,1.02,1.25.46,2.53.9,3.74,1.55.6.33,1.18.72,1.74,1.13.29.2.54.46.76.75.23.27.45.57.65.87.42.84.29.72-.49.6-.4-.04-.97-.07-1.65-.02-.64,0-1.29-.11-1.97-.31l-.9-.27-.88-.32c-.59-.21-1.2-.41-1.81-.61-1.22-.4-2.48-.72-3.72-1.16-1.26-.44-2.52-.89-3.78-1.33-.64-.24-1.28-.48-1.94-.75l-.51-.22c-.29-.12-.57-.24-.83-.38-.55-.25-1.01-.58-1.37-.97-.24-.21-.33-.57-.43-.84-.03-.32-.05-.66-.06-.99-.01-.33,0-.66.06-1.01l.17-.9c.21-.89.47-1.74.74-2.56.55-1.64,1.17-3.22,1.83-4.74,1.45-3.33,2.99-6.61,3.82-9.93.14-.51.2-1.01.3-1.52.02-.48.14-1.02.06-1.43-.01-.87-.4-1.83-.82-2.74-1.44-2.77-3.75-5.27-6.26-7.34-1.98-1.61-4.18-2.84-6.39-3.99-.49-.24-.99-.46-1.47-.71-1.83-.9-2.32-1.34-2.37-2.36-.01-.23-.06-.47-.04-.68.07-.71,1.11-.91,2.68-.42,4.63,1.52,8.93,4.42,12.58,8.12,1.35,1.39,2.62,2.91,3.69,4.67.25.46.51.91.75,1.39.21.51.44,1,.62,1.53.14.58.35,1.09.4,1.73.07.63.12,1.28.05,1.79h-.08Z"/><path class="cls-1" d="M316.83,240.71c.02-.06.02-.12-.08-.23l-1.53-1.21c-.17-.13-.42-.3-.55-.38-.05-.03-.09-.06-.14-.1-.08-.08-.21-.17-.34-.15-.13.02-.21.13-.29.25-.04.08-.06.1-.12.23l-.23.57c-.15.38-.28.76-.42,1.15-.27.68-.45,1.39-.61,2.09l-.28,1.37c-.12.45-.38.9-.46,1.36-.07.29-.21.24-.36-.02-.11-.26-.44-.75-.63-1.34-.15-2.02-.1-4.04.79-5.98.33-.98.75-1.87,1.61-2.26.87-.4,1.85-.11,2.66.47l.52.38.39.29.78.59.83.63c.41.31.85.59,1.18.92.4.39.68.79.76,1.32.03.27-.04.55-.17.76-.12.21-.29.38-.48.55-.29.27-.7.5-1.11.71l-1.01.55c-.54.29-1.07.59-1.58.91-.79.5-1.49,1.14-2.23,1.72-.16.13-.31.28-.48.39-.31.22-.57.28-.8.23-.27-.11-.48-.27-.71-.49-.1-.1-.21-.18-.29-.28-.13-.16-.17-.34-.17-.61,0-.27.02-.67.23-.86,1.16-1.31,2.66-2.21,4.18-3.1l.85-.48s.07.11.07.1c.04.02.11,0,.11-.04h.09Z"/><path class="cls-1" d="M347.96,219.2s.01-.13.01-.22v-.3s.01-.6.01-.6c0-.4,0-.81-.02-1.21-.03-.81-.09-1.62-.19-2.42-.03-.29-.1-.58-.16-.87l-.05-.24s-.01-.07-.01-.12c-.01-.17,0-.5-.08-.69-.16.04-.36.14-.63.27l-.22.12-.46.29-.91.6c-.8.54-1.54,1.15-2.26,1.77-.96.75-1.89,1.55-2.97,2.19-.34.2-.51-.06-.52-.55,0-.48.12-1.24.57-1.83.4-.51.81-1.01,1.24-1.5.44-.47.95-.87,1.44-1.29.5-.41,1.01-.8,1.54-1.17l.8-.54c.45-.3.89-.62,1.36-.9.86-.53,1.68-1.07,2.53-1.67.46,1.39.93,2.88,1.27,4.43.34,1.79.51,3.52.55,5.3v.81s.01.49.01.49c0,.2,0,.4-.02.59,0,.8-.15,1.49-.61,2.02-.36.41-.92.58-1.44.55-.53-.01-1.06-.21-1.59-.44-.6-.24-.86-.38-1.25-.55l-1.1-.49c-1.14-.5-2.33-.87-3.48-1.35-.25-.1-.51-.19-.76-.31-.91-.46-1.1-.8-.87-1.6.05-.18.08-.36.15-.52.21-.54.85-.81,1.55-.59,2.1.6,4.09,1.52,6.13,2.4l.28.12s0,0,0,0h0s0,.03.03.04c.04.02.06,0,.08-.04h.07Z"/><path class="cls-1" d="M315.42,335.19s0-.01,0-.04l-.07-.28-.15-.56-.33-1.12c-.23-.74-.48-1.48-.75-2.21-.1-.27-.22-.52-.34-.78l-.12-.26c-.03-.06-.04-.1-.05-.13-.03-.13-.12-.3-.28-.32-.15-.03-.31.04-.46.14-.04.03-.07.04-.12.1-.07.06-.17.17-.25.26l-.52.55c-.34.37-.67.75-.99,1.15-.59.68-1.13,1.4-1.62,2.15-.61.97-1.24,1.93-1.97,2.86-.23.29-.4.15-.51-.25-.1-.39-.19-1.09.02-1.76.38-1.18.93-2.29,1.52-3.38.15-.27.31-.54.47-.8.18-.25.38-.49.58-.73.4-.48.82-.93,1.26-1.37l.22-.22c.09-.11.21-.22.33-.32.23-.21.46-.41.72-.57.5-.33,1.06-.53,1.63-.53.58,0,1.14.25,1.55.65.43.39.68,1,.9,1.48.66,1.54,1.2,3.09,1.68,4.67l.22.73c.1.35.23.73.3,1.08.08.36.14.69.09,1.01-.03.31-.17.65-.42.89-.37.35-.85.52-1.39.58-.53.08-1.14.12-1.46.14-.77.03-1.54.06-2.31.1-1.19.05-2.37.19-3.56.2-.26,0-.52.03-.79,0-.98-.08-1.27-.32-1.34-1.1-.02-.17-.05-.34-.05-.5,0-.53.46-1,1.14-1.06,2.01-.25,4.03-.23,6.08-.33l1-.06s.01.02.03.02c.04.02.07,0,.07-.05h.07Z"/><path class="cls-1" d="M371.22,304.08c-.12.47-.57,1.04-1.06,1.23-.46.21-1.01.25-1.71.14-.35-.07-.7-.16-1.04-.24l-.85-.21-1.12-.3c-.54-.14-1.1-.22-1.65-.37l-1.43-.4c-.5-.14-.84-.25-1.75-.47l-1.12-.29c-.17-.05-.39-.08-.52-.16l.16-.54c.11-.36.19-.69.33-1.06l.51-1.14c.39-.84.69-1.64,1-2.46.19-.53.36-1.06.6-1.57.24-.51.43-1.04,1-1.41.28-.08.4-.11.42-.1.03.02,0,.1.17.32.17.23.28.5.45.84.12.32.13.64.06.96-.23,1.14-.72,2.18-1.15,3.24l-.35.79c-.03.06-.06.15-.09.17h-.09c-.06-.01-.12-.01-.18-.01-.14,0-.1.07-.17.13-.02.03-.07.08-.07.1.01.02.02.04.04.06.05.05.12.11.22.15.23.06.66.15.98.21.7.13,1.4.25,2.09.4l2.27.52c.39.11.64.25,1.05.27.28-.03.26-.33.22-.52-.02-.22-.07-.45-.14-.68-.17-.52-.48-1.21-.8-1.78-.33-.59-.72-1.16-1.17-1.69-.7-.82-1.56-1.46-2.41-2.13-.19-.15-.39-.27-.57-.43-.69-.57-.74-.94-.42-1.57.07-.14.13-.29.21-.42.26-.41.88-.54,1.49-.21,1.79,1.01,3.46,2.5,4.79,4.44.49.72.94,1.5,1.25,2.36.05.1.08.21.12.32l.18.52c.11.37.17.72.25,1.08.21.73.14,1.35.07,1.93l-.06-.03Z"/><path class="cls-1" d="M279.95,111.8c-.84,1.75-1.81,3.88-1.09,5.84.66,1.79,2.49,3.28,4.48,2.69.63-.19,1.08-.89.87-1.54s-.87-1.07-1.54-.87c-.08.02-.15.04-.23.06-.14.04.28,0,.02-.01-.03,0-.16-.02-.18,0,.05-.04.27.05.02,0-.02,0-.21-.07-.22-.07.02-.02.23.12.05.02-.07-.04-.14-.07-.2-.11-.03-.02-.2-.13-.07-.04.15.1-.06-.06-.09-.08-.06-.05-.12-.11-.17-.17-.02-.02-.17-.18-.06-.06.12.13-.05-.08-.07-.11-.08-.12-.14-.26-.22-.38s.06.21,0-.02c-.02-.08-.05-.15-.07-.23-.02-.06-.03-.13-.04-.19-.03-.11,0,.19,0-.05,0-.18-.01-.36,0-.54,0-.1.01-.2.02-.3-.02.13-.01.08,0-.02.04-.2.08-.39.14-.59.1-.35.23-.7.37-1.04-.08.18.03-.06.04-.1.04-.09.08-.19.13-.28.09-.18.17-.37.26-.55.28-.59.18-1.38-.45-1.71-.56-.3-1.41-.18-1.71.45h0Z"/><path class="cls-1" d="M291.89,114.89c-.75,2.3-1,5.31.89,7.15,1.72,1.67,4.26,1.47,6.26.45,1.35-.69,2.51-1.78,3.43-2.97.44-.57.59-1.4,0-1.94-.49-.45-1.47-.61-1.94,0-.39.5-.8.97-1.27,1.41-.09.09-.19.17-.28.26-.05.05-.11.09-.16.14-.03.03-.21.17-.07.06s-.15.11-.19.14c-.12.09-.24.17-.37.25-.2.12-.41.24-.62.34-.05.03-.11.05-.16.08-.23.11.07-.04.08-.03-.04-.02-.31.12-.36.14-.19.07-.39.12-.59.16-.05.01-.1.02-.16.03-.2.05.12,0,.13-.01-.04.04-.25.02-.3.03-.2.01-.39,0-.58-.01-.23,0,.36.07.05,0-.1-.02-.2-.04-.3-.07-.09-.02-.17-.06-.26-.09-.2-.06.31.16.05.02-.07-.04-.14-.07-.2-.11-.06-.04-.34-.24-.13-.08s-.05-.05-.09-.09c-.06-.05-.11-.11-.16-.17-.23-.24.11.19,0,0-.06-.09-.12-.18-.17-.27-.04-.07-.08-.15-.12-.23-.11-.19.06.1.05.12,0-.01-.05-.12-.05-.14-.07-.2-.13-.41-.17-.62-.01-.06-.02-.11-.03-.17-.05-.29.01.24,0,.06,0-.14-.02-.27-.03-.41,0-.3,0-.59.03-.89,0-.07.02-.14.02-.21-.01.11-.03.21,0,.04s.06-.34.1-.5c.08-.38.19-.76.32-1.13.22-.68-.26-1.53-.96-1.69-.76-.17-1.45.23-1.69.96h0Z"/><path class="cls-1" d="M304.87,110.06c-2.61-2.49-6.38-3.49-9.89-2.65-.76.18-1.29,1.09-1.05,1.85.26.79,1.03,1.24,1.85,1.05.17-.04.34-.08.51-.11.09-.02.17-.03.26-.04-.14.02-.17.02-.01,0,.37-.03.73-.05,1.1-.05.17,0,.35.01.52.02.09,0,.17.01.26.02.03,0,.31.04.12.01s.09.02.12.02c.09.01.17.03.26.05.19.04.38.08.57.13.34.09.66.2.99.33.13.05.13.06,0,0,.08.04.16.07.24.11.16.07.31.15.46.24.32.18.63.37.93.59.02.02.24.18.11.08s.08.07.1.09c.15.13.29.26.43.39.57.54,1.56.61,2.12,0s.61-1.54,0-2.12h0Z"/><path class="cls-1" d="M283.83,138.89c3.35,1.37,7.65-.31,9.23-3.55.32-.64.2-1.52-.49-1.88-.62-.33-1.54-.2-1.88.49-.08.17-.17.33-.27.49-.04.07-.09.14-.14.21-.02.03-.19.27-.07.11s-.06.06-.08.1c-.07.08-.13.15-.2.22-.12.12-.24.24-.36.35-.06.06-.13.11-.19.16-.12.11.21-.14,0,0-.15.1-.31.21-.47.3-.15.09-.29.17-.45.24-.08.04-.15.07-.23.11.31-.16.02,0-.05.01-.32.12-.64.21-.98.28-.07.01-.22.06-.3.05.15.02.22-.02.01,0-.17.01-.34.02-.5.03-.18,0-.37,0-.55-.02-.05,0-.34-.04-.12,0s-.07-.01-.12-.02c-.37-.07-.72-.18-1.06-.32-.67-.27-1.54.3-1.69.96-.18.8.25,1.4.96,1.69h0Z"/><path class="cls-1" d="M289.14,112.72c-.55,1.4-1.27,2.69-2.05,3.89-.29.43-.5.91-.82,1.31-1.09,1.45-2.25,2.76-3.35,4.09-.49.58-.91,1.22-1.29,1.86-.51.82-.74,1.73-1.55,2.4-.36.17-.47.1-.79-.32-.17-.21-.31-.48-.44-.79-.06-.15-.13-.33-.14-.49,0-.15.03-.3.08-.44.39-1.02.89-1.95,1.44-2.84.28-.44.57-.87.88-1.27.33-.4.68-.77,1.03-1.13.86-.87,1.44-1.96,2.08-2.96.71-1.09,1.36-2.2,1.86-3.38.31-.72.56-1.46.74-2.23.08-.29.13-.57.16-.8.02-.16.03-.35-.02-.52-.05-.17-.16-.32-.29-.44-.15-.11-.28-.19-.54-.26-.74-.2-1.66,0-2.53.16-.2.04-.39.11-.59.14-.76.09-1.05-.1-1.27-.91-.05-.19-.11-.37-.14-.56-.1-.63.16-1.18.73-1.42.86-.35,1.82-.54,2.92-.53.55,0,1.15.08,1.81.28.32.1.68.24,1.09.51l.54.41c.17.15.32.32.47.49.19.28.36.56.51.87.13.31.21.64.25.98.04.33.05.68.01,1.01-.02.26-.06.49-.11.69-.19.77-.37,1.5-.64,2.22l-.07-.02Z"/><path class="cls-1" d="M156.32,163.75c-.19-.11-.07-.38.19-.71.08-.11.41-.3.49-.29.15.02.31.05.44.09.04.01.27.19.53.37.24.2.51.42.66.52.28.2.51.44.73.68.45.49.93.96,1.41,1.42.11.1.19.22.27.36.25.47.59.86.99,1.18.07.06.12.13.24.13.2,0,1.22.97,1.31,1.15.24.5.43.88.65,1.32.03.06.1.09.07.21-.07.27.06.34.14.47.1.19.19.38.26.59.03.1.02.26.02.39,0,.12-.21.27-.26.27-.12,0-.16.14-.23.22-.02.03-.06.06-.08.08-.03.02-.35-.06-.72-.12-.38-.04-.72-.15-.76-.19-.01,0-.37-.25-.75-.5-.39-.23-.75-.54-.83-.59-.09-.05-.12-.17-.16-.26-.02-.04-1.11-.87-1.14-.92-.17-.22-.44-.37-.47-.73,0-.07-.06-.1-.1-.14-.36-.34-.6-.78-.88-1.2-.14-.21-.31-.4-.47-.6-.03-.04-.03-.09-.05-.14-.02-.06-.03-.12-.07-.16-.38-.46-.64-1.01-1.04-1.46-.1-.1-.27-.78-.38-.9-.05-.07.06-.5-.01-.54Z"/><path class="cls-1" d="M146.41,178.98c-.08.19-.26-.08-.52-.61-.08-.17-.23-.71-.21-.8.03-.17.07-.34.12-.46.03-.08.73-.55.98-.72.24-.17.5-.24.76-.3.53-.1,1.07-.22,1.61-.28.12-.02.24,0,.37.04.42.15.83.14,1.24.08.07-.01.14,0,.21-.09.11-.17,1.25-.15,1.39-.06.35.21.69.36,1.03.56.05.03.11,0,.14.12.07.28.18.26.28.29.14.05.28.12.41.24.06.06.11.22.15.35.04.12-.07.5-.1.54-.09.11-.07.3-.1.47-.01.05-.02.13-.03.17-.03.09-.91.66-.98.65,0,0-.3.02-.59.06-.29.03-.6.06-.66.09-.07.02-.13-.05-.19-.09-.03-.03-.9.16-.93.16-.18-.04-.35.07-.54-.16-.04-.05-.07-.03-.11-.03-.31.05-.62-.03-.94-.06-.16-.02-.32.03-.47.05-.03,0-.06-.03-.09-.04-.04-.01-.08-.04-.11-.03-.37.07-.77,0-1.12.18-.08.03-.55-.14-.64-.08-.05.03-.33-.3-.36-.22Z"/><path class="cls-1" d="M150.64,196.36c-.06.17-.27,0-.55-.39-.09-.12-.27-.54-.27-.61,0-.14.02-.28.04-.39.02-.06.48-.57.6-.77.13-.19.29-.32.45-.44.33-.25.64-.52.94-.8.07-.06.15-.1.25-.13.33-.09.57-.3.76-.56.03-.04.08-.07.05-.17-.03-.15.55-.76.67-.8.3-.1.56-.24.83-.39.04-.02.04-.07.14-.04.24.07.26-.02.33-.08.09-.08.19-.17.33-.22.07-.03.21,0,.33,0,.11,0,.38.22.4.26.06.11.22.16.34.23.04.03.09.06.13.08.08.05.11,1.06.04,1.13,0,0-.15.28-.31.57-.16.28-.32.56-.37.65-.03.07-.12.09-.19.12-.03.02-.56.87-.61.87-.17.12-.27.31-.56.28-.06,0-.08.03-.11.06-.25.24-.58.39-.89.54-.16.08-.29.2-.44.29-.03.02-.07.01-.1.02-.04,0-.09,0-.12.03-.34.24-.75.36-1.07.62-.07.06-.58.07-.66.14-.05.04-.37-.16-.39-.09Z"/><g class="cls-5"><path class="cls-1" d="M152.56,144.62c2.73,0,2.74-4.25,0-4.25s-2.74,4.25,0,4.25h0Z"/></g><path class="cls-1" d="M136.19,152.28c2.41,0,2.42-3.75,0-3.75s-2.42,3.75,0,3.75h0Z"/><path class="cls-1" d="M140.14,134.21c2.41,0,2.42-3.75,0-3.75s-2.42,3.75,0,3.75h0Z"/><path class="cls-1" d="M118.12,190.93c2.73,0,2.74-4.25,0-4.25s-2.74,4.25,0,4.25h0Z"/><g class="cls-5"><path class="cls-1" d="M114.16,159.87c2.73,0,2.74-4.25,0-4.25s-2.74,4.25,0,4.25h0Z"/></g><path class="cls-1" d="M372.02,55.86c-.14-.1-.2-.26-.23-.41,0-.05.06-.11.11-.09.1.05.2.1.27.13.05.04.83.53,1.14.62.37.15.58.23.83.33.56.2,1.13.36,1.71.43.13.02.25.06.37.09.42.13.86.2,1.3.18.07,0,.15,0,.22-.04.13-.05,1.28-.18,1.43-.18.21.01.39.02.57.03.19,0,.38-.03.58,0,.06,0,.11-.04.17.02.16.13.27.07.39.05.17-.02.33-.07.51-.07.09,0,.2.05.31.09.1.03.16.27.14.3-.05.1.06.18.11.27.02.03.04.07.04.1.04.06-.86.87-1,.9,0,0-.11.05-.27.1-.15.06-.37.11-.59.17-.44.09-.9.16-1,.17-.1.02-.2-.02-.3-.04-.05.03-1.38.04-1.44,0-.27-.05-.55-.06-.8-.23-.05-.03-.1-.04-.16-.05-.46-.11-.89-.31-1.31-.52-.23-.11-.43-.2-.64-.3-.04-.02-.07-.05-.11-.07-.04-.03-.08-.07-.13-.1-.49-.27-.93-.59-1.37-.92-.11-.07-.51-.52-.62-.61-.06-.05-.2-.29-.25-.34Z"/><path class="cls-1" d="M377.38,63.44c-.15,0-.16-.19-.09-.48.02-.09.18-.33.23-.35.1-.04.19-.07.28-.09.05,0,.68.11.9.09.21,0,.4.03.59.07.38.07.77.1,1.16.1.09,0,.17.03.25.07.28.14.58.16.87.11.05,0,.1,0,.14-.07.08-.09.84-.21.94-.19.27.08.52.07.81.13.04.01.07-.02.13.04.13.16.2.11.29.1.12,0,.24-.02.37,0,.07,0,.16.08.24.13.08.05.15.29.14.32-.02.09.07.19.11.28.02.03.04.07.04.1.03.05-.54.82-.64.85,0,0-.28.17-.59.27-.3.09-.62.19-.7.22-.07.03-.15,0-.22-.03-.03.01-1,.19-1.04.17-.2-.02-.41.03-.6-.14-.04-.03-.08-.03-.12-.03-.34,0-.68-.11-1-.24-.17-.06-.33-.1-.5-.15-.03,0-.05-.04-.08-.06-.03-.02-.07-.06-.1-.07-.39-.12-.74-.34-1.12-.47-.09-.03-.41-.38-.51-.41-.06-.02-.12-.3-.18-.3Z"/></svg>